%TF.GenerationSoftware,KiCad,Pcbnew,9.0.7*%
%TF.CreationDate,2026-03-21T23:15:40+01:00*%
%TF.ProjectId,aurora-dsp-icepower-booster,6175726f-7261-42d6-9473-702d69636570,rev?*%
%TF.SameCoordinates,Original*%
%TF.FileFunction,Legend,Top*%
%TF.FilePolarity,Positive*%
%FSLAX46Y46*%
G04 Gerber Fmt 4.6, Leading zero omitted, Abs format (unit mm)*
G04 Created by KiCad (PCBNEW 9.0.7) date 2026-03-21 23:15:40*
%MOMM*%
%LPD*%
G01*
G04 APERTURE LIST*
G04 Aperture macros list*
%AMRoundRect*
0 Rectangle with rounded corners*
0 $1 Rounding radius*
0 $2 $3 $4 $5 $6 $7 $8 $9 X,Y pos of 4 corners*
0 Add a 4 corners polygon primitive as box body*
4,1,4,$2,$3,$4,$5,$6,$7,$8,$9,$2,$3,0*
0 Add four circle primitives for the rounded corners*
1,1,$1+$1,$2,$3*
1,1,$1+$1,$4,$5*
1,1,$1+$1,$6,$7*
1,1,$1+$1,$8,$9*
0 Add four rect primitives between the rounded corners*
20,1,$1+$1,$2,$3,$4,$5,0*
20,1,$1+$1,$4,$5,$6,$7,0*
20,1,$1+$1,$6,$7,$8,$9,0*
20,1,$1+$1,$8,$9,$2,$3,0*%
G04 Aperture macros list end*
%ADD10C,0.150000*%
%ADD11C,0.120000*%
%ADD12C,0.127000*%
%ADD13C,0.200000*%
%ADD14C,0.152400*%
%ADD15RoundRect,0.250000X0.475000X-0.250000X0.475000X0.250000X-0.475000X0.250000X-0.475000X-0.250000X0*%
%ADD16RoundRect,0.112500X-0.187500X-0.112500X0.187500X-0.112500X0.187500X0.112500X-0.187500X0.112500X0*%
%ADD17RoundRect,0.250000X-0.500000X-0.300000X0.500000X-0.300000X0.500000X0.300000X-0.500000X0.300000X0*%
%ADD18RoundRect,0.150000X-0.825000X-0.150000X0.825000X-0.150000X0.825000X0.150000X-0.825000X0.150000X0*%
%ADD19RoundRect,0.150000X-0.587500X-0.150000X0.587500X-0.150000X0.587500X0.150000X-0.587500X0.150000X0*%
%ADD20C,1.600000*%
%ADD21C,3.400000*%
%ADD22C,2.900000*%
%ADD23RoundRect,0.100500X-0.986500X-0.301500X0.986500X-0.301500X0.986500X0.301500X-0.986500X0.301500X0*%
%ADD24RoundRect,0.102000X-1.205000X-1.906000X1.205000X-1.906000X1.205000X1.906000X-1.205000X1.906000X0*%
%ADD25RoundRect,0.250000X0.450000X-0.262500X0.450000X0.262500X-0.450000X0.262500X-0.450000X-0.262500X0*%
%ADD26RoundRect,0.250000X0.650000X-0.325000X0.650000X0.325000X-0.650000X0.325000X-0.650000X-0.325000X0*%
%ADD27RoundRect,0.150000X-0.512500X-0.150000X0.512500X-0.150000X0.512500X0.150000X-0.512500X0.150000X0*%
%ADD28RoundRect,0.250000X1.100000X-0.325000X1.100000X0.325000X-1.100000X0.325000X-1.100000X-0.325000X0*%
%ADD29RoundRect,0.218750X0.381250X-0.218750X0.381250X0.218750X-0.381250X0.218750X-0.381250X-0.218750X0*%
%ADD30R,3.500000X3.500000*%
%ADD31RoundRect,0.750000X-1.000000X0.750000X-1.000000X-0.750000X1.000000X-0.750000X1.000000X0.750000X0*%
%ADD32RoundRect,0.875000X-0.875000X0.875000X-0.875000X-0.875000X0.875000X-0.875000X0.875000X0.875000X0*%
%ADD33C,1.200000*%
%ADD34RoundRect,0.375000X-0.375000X-0.375000X0.375000X-0.375000X0.375000X0.375000X-0.375000X0.375000X0*%
%ADD35RoundRect,0.375000X-0.375000X-0.625000X0.375000X-0.625000X0.375000X0.625000X-0.375000X0.625000X0*%
%ADD36C,3.200000*%
%ADD37RoundRect,0.250000X-0.250000X-0.475000X0.250000X-0.475000X0.250000X0.475000X-0.250000X0.475000X0*%
%ADD38C,1.320800*%
%ADD39RoundRect,0.140000X0.170000X-0.140000X0.170000X0.140000X-0.170000X0.140000X-0.170000X-0.140000X0*%
%ADD40RoundRect,0.250000X-1.000000X-0.900000X1.000000X-0.900000X1.000000X0.900000X-1.000000X0.900000X0*%
%ADD41C,2.000000*%
%ADD42C,1.700000*%
G04 APERTURE END LIST*
D10*
X77162666Y-18454819D02*
X77162666Y-18692914D01*
X76924571Y-18597676D02*
X77162666Y-18692914D01*
X77162666Y-18692914D02*
X77400761Y-18597676D01*
X77019809Y-18883390D02*
X77162666Y-18692914D01*
X77162666Y-18692914D02*
X77305523Y-18883390D01*
X77162666Y-18454819D02*
X77162666Y-18692914D01*
X76924571Y-18597676D02*
X77162666Y-18692914D01*
X77162666Y-18692914D02*
X77400761Y-18597676D01*
X77019809Y-18883390D02*
X77162666Y-18692914D01*
X77162666Y-18692914D02*
X77305523Y-18883390D01*
D11*
%TO.C,C30*%
X71265000Y-150711252D02*
X71265000Y-150188748D01*
X72735000Y-150711252D02*
X72735000Y-150188748D01*
%TO.C,D4*%
X99390000Y-95470000D02*
X99390000Y-97170000D01*
X99390000Y-95470000D02*
X102050000Y-95470000D01*
X99390000Y-97170000D02*
X102050000Y-97170000D01*
%TO.C,SW5*%
X49800000Y-108250000D02*
X51840000Y-108250000D01*
X51840000Y-107300000D02*
X51840000Y-108250000D01*
X51840000Y-107300000D02*
X58160000Y-107300000D01*
X51840000Y-115980000D02*
X51840000Y-114240000D01*
X51840000Y-115980000D02*
X58160000Y-115980000D01*
X58160000Y-107300000D02*
X58160000Y-109040000D01*
X58160000Y-115980000D02*
X58160000Y-114240000D01*
%TO.C,U7*%
X66940000Y-180660000D02*
X71060000Y-180660000D01*
X66940000Y-180755000D02*
X66940000Y-180660000D01*
X66940000Y-185780000D02*
X66940000Y-185685000D01*
X71060000Y-180660000D02*
X71060000Y-180755000D01*
X71060000Y-185685000D02*
X71060000Y-185780000D01*
X71060000Y-185780000D02*
X66940000Y-185780000D01*
X66400000Y-180750000D02*
X66160000Y-180420000D01*
X66640000Y-180420000D01*
X66400000Y-180750000D01*
G36*
X66400000Y-180750000D02*
G01*
X66160000Y-180420000D01*
X66640000Y-180420000D01*
X66400000Y-180750000D01*
G37*
%TO.C,C8*%
X51265000Y-49711252D02*
X51265000Y-49188748D01*
X52735000Y-49711252D02*
X52735000Y-49188748D01*
%TO.C,Q4*%
X91240000Y-98260000D02*
X92760000Y-98260000D01*
X91240000Y-98310000D02*
X91240000Y-98260000D01*
X91240000Y-100210000D02*
X91240000Y-99430000D01*
X91240000Y-101380000D02*
X91240000Y-101330000D01*
X92760000Y-98260000D02*
X92760000Y-99260000D01*
X92760000Y-100380000D02*
X92760000Y-101380000D01*
X92760000Y-101380000D02*
X91240000Y-101380000D01*
X90940000Y-99770000D02*
X90460000Y-99770000D01*
X90700000Y-99440000D01*
X90940000Y-99770000D01*
G36*
X90940000Y-99770000D02*
G01*
X90460000Y-99770000D01*
X90700000Y-99440000D01*
X90940000Y-99770000D01*
G37*
%TO.C,J13*%
X126222000Y-145220000D02*
X126222000Y-146640000D01*
X126222000Y-150940000D02*
X126222000Y-149040000D01*
X126222000Y-152340000D02*
X126222000Y-154240000D01*
X126222000Y-156640000D02*
X126222000Y-158060000D01*
X133422000Y-145220000D02*
X126222000Y-145220000D01*
X133422000Y-145220000D02*
X133422000Y-142420000D01*
X133422000Y-158060000D02*
X126222000Y-158060000D01*
X133422000Y-158060000D02*
X133422000Y-160860000D01*
X139072000Y-142420000D02*
X133422000Y-142420000D01*
X139072000Y-142420000D02*
X139072000Y-139020000D01*
X139072000Y-160860000D02*
X133422000Y-160860000D01*
X139072000Y-164260000D02*
X139072000Y-160860000D01*
X145662000Y-139020000D02*
X139072000Y-139020000D01*
X145662000Y-139020000D02*
X145662000Y-140520000D01*
X145662000Y-140520000D02*
X148362000Y-140520000D01*
X145662000Y-162760000D02*
X145662000Y-164260000D01*
X145662000Y-162760000D02*
X148362000Y-162760000D01*
X145662000Y-164260000D02*
X139072000Y-164260000D01*
X148362000Y-140520000D02*
X148362000Y-162760000D01*
D12*
%TO.C,U14*%
X126830000Y-5550000D02*
X129170000Y-5550000D01*
X126830000Y-10450000D02*
X129170000Y-10450000D01*
D13*
X123625000Y-6095000D02*
G75*
G02*
X123425000Y-6095000I-100000J0D01*
G01*
X123425000Y-6095000D02*
G75*
G02*
X123625000Y-6095000I100000J0D01*
G01*
D11*
%TO.C,R87*%
X75265000Y-178447064D02*
X75265000Y-177992936D01*
X76735000Y-178447064D02*
X76735000Y-177992936D01*
%TO.C,C78*%
X120265000Y-28261252D02*
X120265000Y-27738748D01*
X121735000Y-28261252D02*
X121735000Y-27738748D01*
%TO.C,C18*%
X77265000Y-28261252D02*
X77265000Y-27738748D01*
X78735000Y-28261252D02*
X78735000Y-27738748D01*
%TO.C,R75*%
X61265000Y-185947064D02*
X61265000Y-185492936D01*
X62735000Y-185947064D02*
X62735000Y-185492936D01*
%TO.C,R32*%
X51772936Y-61405000D02*
X52227064Y-61405000D01*
X51772936Y-62875000D02*
X52227064Y-62875000D01*
%TO.C,C34*%
X71265000Y-105081252D02*
X71265000Y-104558748D01*
X72735000Y-105081252D02*
X72735000Y-104558748D01*
%TO.C,SW7*%
X49800000Y-163830000D02*
X51840000Y-163830000D01*
X51840000Y-162880000D02*
X51840000Y-163830000D01*
X51840000Y-162880000D02*
X58160000Y-162880000D01*
X51840000Y-171560000D02*
X51840000Y-169820000D01*
X51840000Y-171560000D02*
X58160000Y-171560000D01*
X58160000Y-162880000D02*
X58160000Y-164620000D01*
X58160000Y-171560000D02*
X58160000Y-169820000D01*
%TO.C,D17*%
X31390000Y-123290000D02*
X31390000Y-124990000D01*
X31390000Y-123290000D02*
X34050000Y-123290000D01*
X31390000Y-124990000D02*
X34050000Y-124990000D01*
%TO.C,Q3*%
X91240000Y-70580000D02*
X92760000Y-70580000D01*
X91240000Y-70630000D02*
X91240000Y-70580000D01*
X91240000Y-72530000D02*
X91240000Y-71750000D01*
X91240000Y-73700000D02*
X91240000Y-73650000D01*
X92760000Y-70580000D02*
X92760000Y-71580000D01*
X92760000Y-72700000D02*
X92760000Y-73700000D01*
X92760000Y-73700000D02*
X91240000Y-73700000D01*
X90940000Y-72090000D02*
X90460000Y-72090000D01*
X90700000Y-71760000D01*
X90940000Y-72090000D01*
G36*
X90940000Y-72090000D02*
G01*
X90460000Y-72090000D01*
X90700000Y-71760000D01*
X90940000Y-72090000D01*
G37*
%TO.C,R84*%
X75265000Y-95047064D02*
X75265000Y-94592936D01*
X76735000Y-95047064D02*
X76735000Y-94592936D01*
%TO.C,C48*%
X83738748Y-158215000D02*
X84261252Y-158215000D01*
X83738748Y-159685000D02*
X84261252Y-159685000D01*
%TO.C,C71*%
X44288748Y-158040000D02*
X45711252Y-158040000D01*
X44288748Y-159860000D02*
X45711252Y-159860000D01*
%TO.C,R67*%
X63772936Y-119905000D02*
X64227064Y-119905000D01*
X63772936Y-121375000D02*
X64227064Y-121375000D01*
%TO.C,R62*%
X79772936Y-158215000D02*
X80227064Y-158215000D01*
X79772936Y-159685000D02*
X80227064Y-159685000D01*
%TO.C,R54*%
X59772936Y-144715000D02*
X60227064Y-144715000D01*
X59772936Y-146185000D02*
X60227064Y-146185000D01*
%TO.C,C6*%
X51265000Y-150711252D02*
X51265000Y-150188748D01*
X52735000Y-150711252D02*
X52735000Y-150188748D01*
%TO.C,R7*%
X48265000Y-105047064D02*
X48265000Y-104592936D01*
X49735000Y-105047064D02*
X49735000Y-104592936D01*
%TO.C,R37*%
X55772936Y-89085000D02*
X56227064Y-89085000D01*
X55772936Y-90555000D02*
X56227064Y-90555000D01*
%TO.C,D21*%
X99390000Y-158100000D02*
X99390000Y-159800000D01*
X99390000Y-158100000D02*
X102050000Y-158100000D01*
X99390000Y-159800000D02*
X102050000Y-159800000D01*
%TO.C,U15*%
X127090000Y-22440000D02*
X128910000Y-22440000D01*
X127090000Y-22490000D02*
X127090000Y-22440000D01*
X127090000Y-25560000D02*
X127090000Y-25510000D01*
X128910000Y-22440000D02*
X128910000Y-22490000D01*
X128910000Y-23610000D02*
X128910000Y-24390000D01*
X128910000Y-25510000D02*
X128910000Y-25560000D01*
X128910000Y-25560000D02*
X127090000Y-25560000D01*
X126550000Y-22490000D02*
X126310000Y-22160000D01*
X126790000Y-22160000D01*
X126550000Y-22490000D01*
G36*
X126550000Y-22490000D02*
G01*
X126310000Y-22160000D01*
X126790000Y-22160000D01*
X126550000Y-22490000D01*
G37*
%TO.C,R66*%
X63772936Y-92085000D02*
X64227064Y-92085000D01*
X63772936Y-93555000D02*
X64227064Y-93555000D01*
%TO.C,R45*%
X55772936Y-144715000D02*
X56227064Y-144715000D01*
X55772936Y-146185000D02*
X56227064Y-146185000D01*
%TO.C,R90*%
X75265000Y-105047064D02*
X75265000Y-104592936D01*
X76735000Y-105047064D02*
X76735000Y-104592936D01*
%TO.C,C4*%
X51265000Y-95081252D02*
X51265000Y-94558748D01*
X52735000Y-95081252D02*
X52735000Y-94558748D01*
%TO.C,R48*%
X51772936Y-172485000D02*
X52227064Y-172485000D01*
X51772936Y-173955000D02*
X52227064Y-173955000D01*
%TO.C,R33*%
X55772936Y-61405000D02*
X56227064Y-61405000D01*
X55772936Y-62875000D02*
X56227064Y-62875000D01*
%TO.C,R29*%
X55772936Y-33715000D02*
X56227064Y-33715000D01*
X55772936Y-35185000D02*
X56227064Y-35185000D01*
%TO.C,R17*%
X48265000Y-127867064D02*
X48265000Y-127412936D01*
X49735000Y-127867064D02*
X49735000Y-127412936D01*
%TO.C,U6*%
X66940000Y-152890000D02*
X71060000Y-152890000D01*
X66940000Y-152985000D02*
X66940000Y-152890000D01*
X66940000Y-158010000D02*
X66940000Y-157915000D01*
X71060000Y-152890000D02*
X71060000Y-152985000D01*
X71060000Y-157915000D02*
X71060000Y-158010000D01*
X71060000Y-158010000D02*
X66940000Y-158010000D01*
X66400000Y-152980000D02*
X66160000Y-152650000D01*
X66640000Y-152650000D01*
X66400000Y-152980000D01*
G36*
X66400000Y-152980000D02*
G01*
X66160000Y-152650000D01*
X66640000Y-152650000D01*
X66400000Y-152980000D01*
G37*
%TO.C,D8*%
X31390000Y-40100000D02*
X31390000Y-41800000D01*
X31390000Y-40100000D02*
X34050000Y-40100000D01*
X31390000Y-41800000D02*
X34050000Y-41800000D01*
%TO.C,C9*%
X51265000Y-77401252D02*
X51265000Y-76878748D01*
X52735000Y-77401252D02*
X52735000Y-76878748D01*
%TO.C,R12*%
X48265000Y-178447064D02*
X48265000Y-177992936D01*
X49735000Y-178447064D02*
X49735000Y-177992936D01*
%TO.C,C73*%
X44288748Y-185810000D02*
X45711252Y-185810000D01*
X44288748Y-187630000D02*
X45711252Y-187630000D01*
%TO.C,C79*%
X134265000Y-22261252D02*
X134265000Y-21738748D01*
X135735000Y-22261252D02*
X135735000Y-21738748D01*
%TO.C,R13*%
X48265000Y-188447064D02*
X48265000Y-187992936D01*
X49735000Y-188447064D02*
X49735000Y-187992936D01*
%TO.C,R55*%
X59772936Y-172485000D02*
X60227064Y-172485000D01*
X59772936Y-173955000D02*
X60227064Y-173955000D01*
%TO.C,R38*%
X63772936Y-133905000D02*
X64227064Y-133905000D01*
X63772936Y-135375000D02*
X64227064Y-135375000D01*
%TO.C,C42*%
X83738748Y-151215000D02*
X84261252Y-151215000D01*
X83738748Y-152685000D02*
X84261252Y-152685000D01*
%TO.C,Q5*%
X91240000Y-126080000D02*
X92760000Y-126080000D01*
X91240000Y-126130000D02*
X91240000Y-126080000D01*
X91240000Y-128030000D02*
X91240000Y-127250000D01*
X91240000Y-129200000D02*
X91240000Y-129150000D01*
X92760000Y-126080000D02*
X92760000Y-127080000D01*
X92760000Y-128200000D02*
X92760000Y-129200000D01*
X92760000Y-129200000D02*
X91240000Y-129200000D01*
X90940000Y-127590000D02*
X90460000Y-127590000D01*
X90700000Y-127260000D01*
X90940000Y-127590000D01*
G36*
X90940000Y-127590000D02*
G01*
X90460000Y-127590000D01*
X90700000Y-127260000D01*
X90940000Y-127590000D01*
G37*
%TO.C,D23*%
X31390000Y-178870000D02*
X31390000Y-180570000D01*
X31390000Y-178870000D02*
X34050000Y-178870000D01*
X31390000Y-180570000D02*
X34050000Y-180570000D01*
%TO.C,U12*%
X52940000Y-152890000D02*
X57060000Y-152890000D01*
X52940000Y-152985000D02*
X52940000Y-152890000D01*
X52940000Y-158010000D02*
X52940000Y-157915000D01*
X57060000Y-152890000D02*
X57060000Y-152985000D01*
X57060000Y-157915000D02*
X57060000Y-158010000D01*
X57060000Y-158010000D02*
X52940000Y-158010000D01*
X52400000Y-152980000D02*
X52160000Y-152650000D01*
X52640000Y-152650000D01*
X52400000Y-152980000D01*
G36*
X52400000Y-152980000D02*
G01*
X52160000Y-152650000D01*
X52640000Y-152650000D01*
X52400000Y-152980000D01*
G37*
%TO.C,R106*%
X71772936Y-19265000D02*
X72227064Y-19265000D01*
X71772936Y-20735000D02*
X72227064Y-20735000D01*
%TO.C,C37*%
X68265000Y-170261252D02*
X68265000Y-169738748D01*
X69735000Y-170261252D02*
X69735000Y-169738748D01*
%TO.C,R73*%
X61265000Y-130367064D02*
X61265000Y-129912936D01*
X62735000Y-130367064D02*
X62735000Y-129912936D01*
%TO.C,C64*%
X44288748Y-67730000D02*
X45711252Y-67730000D01*
X44288748Y-69550000D02*
X45711252Y-69550000D01*
%TO.C,R99*%
X36772936Y-102585000D02*
X37227064Y-102585000D01*
X36772936Y-104055000D02*
X37227064Y-104055000D01*
%TO.C,J4*%
X6500000Y-55410000D02*
X6500000Y-57460000D01*
X6500000Y-57460000D02*
X12000000Y-57460000D01*
X6500000Y-79200000D02*
X6500000Y-80950000D01*
X6500000Y-79200000D02*
X12000000Y-79200000D01*
X12000000Y-60210000D02*
X12000000Y-57460000D01*
X12000000Y-60210000D02*
X19500000Y-60210000D01*
X12000000Y-76450000D02*
X19500000Y-76450000D01*
X12000000Y-79200000D02*
X12000000Y-76450000D01*
X19500000Y-76450000D02*
X19500000Y-60210000D01*
%TO.C,C31*%
X71265000Y-178481252D02*
X71265000Y-177958748D01*
X72735000Y-178481252D02*
X72735000Y-177958748D01*
%TO.C,C21*%
X119640000Y-22711252D02*
X119640000Y-21288748D01*
X122360000Y-22711252D02*
X122360000Y-21288748D01*
%TO.C,FB2*%
X117600378Y-25440000D02*
X118399622Y-25440000D01*
X117600378Y-26560000D02*
X118399622Y-26560000D01*
%TO.C,R108*%
X95772936Y-43715000D02*
X96227064Y-43715000D01*
X95772936Y-45185000D02*
X96227064Y-45185000D01*
%TO.C,R42*%
X63772936Y-161715000D02*
X64227064Y-161715000D01*
X63772936Y-163185000D02*
X64227064Y-163185000D01*
%TO.C,C58*%
X40265000Y-152211252D02*
X40265000Y-151688748D01*
X41735000Y-152211252D02*
X41735000Y-151688748D01*
%TO.C,R79*%
X79772936Y-123405000D02*
X80227064Y-123405000D01*
X79772936Y-124875000D02*
X80227064Y-124875000D01*
%TO.C,C16*%
X138640000Y-14711252D02*
X138640000Y-13288748D01*
X141360000Y-14711252D02*
X141360000Y-13288748D01*
%TO.C,R100*%
X36772936Y-123405000D02*
X37227064Y-123405000D01*
X36772936Y-124875000D02*
X37227064Y-124875000D01*
%TO.C,U5*%
X66940000Y-125080000D02*
X71060000Y-125080000D01*
X66940000Y-125175000D02*
X66940000Y-125080000D01*
X66940000Y-130200000D02*
X66940000Y-130105000D01*
X71060000Y-125080000D02*
X71060000Y-125175000D01*
X71060000Y-130105000D02*
X71060000Y-130200000D01*
X71060000Y-130200000D02*
X66940000Y-130200000D01*
X66400000Y-125170000D02*
X66160000Y-124840000D01*
X66640000Y-124840000D01*
X66400000Y-125170000D01*
G36*
X66400000Y-125170000D02*
G01*
X66160000Y-124840000D01*
X66640000Y-124840000D01*
X66400000Y-125170000D01*
G37*
%TO.C,J1*%
X66270000Y-11730000D02*
X66270000Y-9830000D01*
X68970000Y-11730000D02*
X66270000Y-11730000D01*
X74620000Y-11930000D02*
X75670000Y-11930000D01*
X75470000Y-11730000D02*
X72870000Y-11730000D01*
X75670000Y-10880000D02*
X75670000Y-11930000D01*
%TO.C,C7*%
X51265000Y-178481252D02*
X51265000Y-177958748D01*
X52735000Y-178481252D02*
X52735000Y-177958748D01*
%TO.C,J8*%
X6500000Y-166490000D02*
X6500000Y-168540000D01*
X6500000Y-168540000D02*
X12000000Y-168540000D01*
X6500000Y-190280000D02*
X6500000Y-192030000D01*
X6500000Y-190280000D02*
X12000000Y-190280000D01*
X12000000Y-171290000D02*
X12000000Y-168540000D01*
X12000000Y-171290000D02*
X19500000Y-171290000D01*
X12000000Y-187530000D02*
X19500000Y-187530000D01*
X12000000Y-190280000D02*
X12000000Y-187530000D01*
X19500000Y-187530000D02*
X19500000Y-171290000D01*
%TO.C,J2*%
X27120000Y-3840000D02*
X27120000Y-10370000D01*
X33510000Y-12180000D02*
X27430000Y-12180000D01*
X33820000Y-3840000D02*
X33820000Y-10370000D01*
%TO.C,J5*%
X6500000Y-83090000D02*
X6500000Y-85140000D01*
X6500000Y-85140000D02*
X12000000Y-85140000D01*
X6500000Y-106880000D02*
X6500000Y-108630000D01*
X6500000Y-106880000D02*
X12000000Y-106880000D01*
X12000000Y-87890000D02*
X12000000Y-85140000D01*
X12000000Y-87890000D02*
X19500000Y-87890000D01*
X12000000Y-104130000D02*
X19500000Y-104130000D01*
X12000000Y-106880000D02*
X12000000Y-104130000D01*
X19500000Y-104130000D02*
X19500000Y-87890000D01*
%TO.C,R77*%
X79772936Y-67905000D02*
X80227064Y-67905000D01*
X79772936Y-69375000D02*
X80227064Y-69375000D01*
%TO.C,U13*%
X52940000Y-180660000D02*
X57060000Y-180660000D01*
X52940000Y-180755000D02*
X52940000Y-180660000D01*
X52940000Y-185780000D02*
X52940000Y-185685000D01*
X57060000Y-180660000D02*
X57060000Y-180755000D01*
X57060000Y-185685000D02*
X57060000Y-185780000D01*
X57060000Y-185780000D02*
X52940000Y-185780000D01*
X52400000Y-180750000D02*
X52160000Y-180420000D01*
X52640000Y-180420000D01*
X52400000Y-180750000D01*
G36*
X52400000Y-180750000D02*
G01*
X52160000Y-180420000D01*
X52640000Y-180420000D01*
X52400000Y-180750000D01*
G37*
%TO.C,C60*%
X40265000Y-179981252D02*
X40265000Y-179458748D01*
X41735000Y-179981252D02*
X41735000Y-179458748D01*
%TO.C,C2*%
X51265000Y-39711252D02*
X51265000Y-39188748D01*
X52735000Y-39711252D02*
X52735000Y-39188748D01*
%TO.C,R113*%
X95772936Y-182485000D02*
X96227064Y-182485000D01*
X95772936Y-183955000D02*
X96227064Y-183955000D01*
%TO.C,R44*%
X51772936Y-144715000D02*
X52227064Y-144715000D01*
X51772936Y-146185000D02*
X52227064Y-146185000D01*
%TO.C,D22*%
X31390000Y-158100000D02*
X31390000Y-159800000D01*
X31390000Y-158100000D02*
X34050000Y-158100000D01*
X31390000Y-159800000D02*
X34050000Y-159800000D01*
%TO.C,R61*%
X79772936Y-130405000D02*
X80227064Y-130405000D01*
X79772936Y-131875000D02*
X80227064Y-131875000D01*
%TO.C,R58*%
X79772936Y-47215000D02*
X80227064Y-47215000D01*
X79772936Y-48685000D02*
X80227064Y-48685000D01*
%TO.C,C23*%
X84265000Y-30261252D02*
X84265000Y-29738748D01*
X85735000Y-30261252D02*
X85735000Y-29738748D01*
%TO.C,J7*%
X6500000Y-138720000D02*
X6500000Y-140770000D01*
X6500000Y-140770000D02*
X12000000Y-140770000D01*
X6500000Y-162510000D02*
X6500000Y-164260000D01*
X6500000Y-162510000D02*
X12000000Y-162510000D01*
X12000000Y-143520000D02*
X12000000Y-140770000D01*
X12000000Y-143520000D02*
X19500000Y-143520000D01*
X12000000Y-159760000D02*
X19500000Y-159760000D01*
X12000000Y-162510000D02*
X12000000Y-159760000D01*
X19500000Y-159760000D02*
X19500000Y-143520000D01*
%TO.C,C1*%
X42265000Y-12261252D02*
X42265000Y-11738748D01*
X43735000Y-12261252D02*
X43735000Y-11738748D01*
%TO.C,R59*%
X79772936Y-74905000D02*
X80227064Y-74905000D01*
X79772936Y-76375000D02*
X80227064Y-76375000D01*
%TO.C,R110*%
X95772936Y-99085000D02*
X96227064Y-99085000D01*
X95772936Y-100555000D02*
X96227064Y-100555000D01*
%TO.C,R105*%
X36772936Y-185985000D02*
X37227064Y-185985000D01*
X36772936Y-187455000D02*
X37227064Y-187455000D01*
%TO.C,C47*%
X83738748Y-130405000D02*
X84261252Y-130405000D01*
X83738748Y-131875000D02*
X84261252Y-131875000D01*
%TO.C,Q2*%
X91240000Y-42890000D02*
X92760000Y-42890000D01*
X91240000Y-42940000D02*
X91240000Y-42890000D01*
X91240000Y-44840000D02*
X91240000Y-44060000D01*
X91240000Y-46010000D02*
X91240000Y-45960000D01*
X92760000Y-42890000D02*
X92760000Y-43890000D01*
X92760000Y-45010000D02*
X92760000Y-46010000D01*
X92760000Y-46010000D02*
X91240000Y-46010000D01*
X90940000Y-44400000D02*
X90460000Y-44400000D01*
X90700000Y-44070000D01*
X90940000Y-44400000D01*
G36*
X90940000Y-44400000D02*
G01*
X90460000Y-44400000D01*
X90700000Y-44070000D01*
X90940000Y-44400000D01*
G37*
%TO.C,J9*%
X126222000Y-34220000D02*
X126222000Y-35640000D01*
X126222000Y-39940000D02*
X126222000Y-38040000D01*
X126222000Y-41340000D02*
X126222000Y-43240000D01*
X126222000Y-45640000D02*
X126222000Y-47060000D01*
X133422000Y-34220000D02*
X126222000Y-34220000D01*
X133422000Y-34220000D02*
X133422000Y-31420000D01*
X133422000Y-47060000D02*
X126222000Y-47060000D01*
X133422000Y-47060000D02*
X133422000Y-49860000D01*
X139072000Y-31420000D02*
X133422000Y-31420000D01*
X139072000Y-31420000D02*
X139072000Y-28020000D01*
X139072000Y-49860000D02*
X133422000Y-49860000D01*
X139072000Y-53260000D02*
X139072000Y-49860000D01*
X145662000Y-28020000D02*
X139072000Y-28020000D01*
X145662000Y-28020000D02*
X145662000Y-29520000D01*
X145662000Y-29520000D02*
X148362000Y-29520000D01*
X145662000Y-51760000D02*
X145662000Y-53260000D01*
X145662000Y-51760000D02*
X148362000Y-51760000D01*
X145662000Y-53260000D02*
X139072000Y-53260000D01*
X148362000Y-29520000D02*
X148362000Y-51760000D01*
%TO.C,SW6*%
X49800000Y-136060000D02*
X51840000Y-136060000D01*
X51840000Y-135110000D02*
X51840000Y-136060000D01*
X51840000Y-135110000D02*
X58160000Y-135110000D01*
X51840000Y-143790000D02*
X51840000Y-142050000D01*
X51840000Y-143790000D02*
X58160000Y-143790000D01*
X58160000Y-135110000D02*
X58160000Y-136850000D01*
X58160000Y-143790000D02*
X58160000Y-142050000D01*
%TO.C,D11*%
X31390000Y-67790000D02*
X31390000Y-69490000D01*
X31390000Y-67790000D02*
X34050000Y-67790000D01*
X31390000Y-69490000D02*
X34050000Y-69490000D01*
%TO.C,D25*%
X31390000Y-185870000D02*
X31390000Y-187570000D01*
X31390000Y-185870000D02*
X34050000Y-185870000D01*
X31390000Y-187570000D02*
X34050000Y-187570000D01*
%TO.C,D24*%
X99390000Y-185870000D02*
X99390000Y-187570000D01*
X99390000Y-185870000D02*
X102050000Y-185870000D01*
X99390000Y-187570000D02*
X102050000Y-187570000D01*
%TO.C,C72*%
X44288748Y-178810000D02*
X45711252Y-178810000D01*
X44288748Y-180630000D02*
X45711252Y-180630000D01*
%TO.C,R112*%
X95772936Y-154715000D02*
X96227064Y-154715000D01*
X95772936Y-156185000D02*
X96227064Y-156185000D01*
%TO.C,D3*%
X99390000Y-67790000D02*
X99390000Y-69490000D01*
X99390000Y-67790000D02*
X102050000Y-67790000D01*
X99390000Y-69490000D02*
X102050000Y-69490000D01*
%TO.C,R25*%
X61265000Y-180947064D02*
X61265000Y-180492936D01*
X62735000Y-180947064D02*
X62735000Y-180492936D01*
%TO.C,R49*%
X55772936Y-172485000D02*
X56227064Y-172485000D01*
X55772936Y-173955000D02*
X56227064Y-173955000D01*
%TO.C,C59*%
X40265000Y-159211252D02*
X40265000Y-158688748D01*
X41735000Y-159211252D02*
X41735000Y-158688748D01*
%TO.C,R51*%
X59772936Y-61405000D02*
X60227064Y-61405000D01*
X59772936Y-62875000D02*
X60227064Y-62875000D01*
%TO.C,C53*%
X40265000Y-75901252D02*
X40265000Y-75378748D01*
X41735000Y-75901252D02*
X41735000Y-75378748D01*
%TO.C,C11*%
X51265000Y-132901252D02*
X51265000Y-132378748D01*
X52735000Y-132901252D02*
X52735000Y-132378748D01*
%TO.C,R56*%
X71772936Y-23265000D02*
X72227064Y-23265000D01*
X71772936Y-24735000D02*
X72227064Y-24735000D01*
%TO.C,R22*%
X61265000Y-97547064D02*
X61265000Y-97092936D01*
X62735000Y-97547064D02*
X62735000Y-97092936D01*
%TO.C,R69*%
X63772936Y-175485000D02*
X64227064Y-175485000D01*
X63772936Y-176955000D02*
X64227064Y-176955000D01*
%TO.C,R40*%
X51772936Y-116905000D02*
X52227064Y-116905000D01*
X51772936Y-118375000D02*
X52227064Y-118375000D01*
%TO.C,R102*%
X36772936Y-151215000D02*
X37227064Y-151215000D01*
X36772936Y-152685000D02*
X37227064Y-152685000D01*
%TO.C,C70*%
X44288748Y-151040000D02*
X45711252Y-151040000D01*
X44288748Y-152860000D02*
X45711252Y-152860000D01*
%TO.C,Q7*%
X91240000Y-181660000D02*
X92760000Y-181660000D01*
X91240000Y-181710000D02*
X91240000Y-181660000D01*
X91240000Y-183610000D02*
X91240000Y-182830000D01*
X91240000Y-184780000D02*
X91240000Y-184730000D01*
X92760000Y-181660000D02*
X92760000Y-182660000D01*
X92760000Y-183780000D02*
X92760000Y-184780000D01*
X92760000Y-184780000D02*
X91240000Y-184780000D01*
X90940000Y-183170000D02*
X90460000Y-183170000D01*
X90700000Y-182840000D01*
X90940000Y-183170000D01*
G36*
X90940000Y-183170000D02*
G01*
X90460000Y-183170000D01*
X90700000Y-182840000D01*
X90940000Y-183170000D01*
G37*
%TO.C,R107*%
X75772936Y-19265000D02*
X76227064Y-19265000D01*
X75772936Y-20735000D02*
X76227064Y-20735000D01*
%TO.C,C35*%
X68265000Y-114261252D02*
X68265000Y-113738748D01*
X69735000Y-114261252D02*
X69735000Y-113738748D01*
%TO.C,C26*%
X71265000Y-39711252D02*
X71265000Y-39188748D01*
X72735000Y-39711252D02*
X72735000Y-39188748D01*
%TO.C,R11*%
X48265000Y-160677064D02*
X48265000Y-160222936D01*
X49735000Y-160677064D02*
X49735000Y-160222936D01*
%TO.C,U11*%
X52940000Y-125080000D02*
X57060000Y-125080000D01*
X52940000Y-125175000D02*
X52940000Y-125080000D01*
X52940000Y-130200000D02*
X52940000Y-130105000D01*
X57060000Y-125080000D02*
X57060000Y-125175000D01*
X57060000Y-130105000D02*
X57060000Y-130200000D01*
X57060000Y-130200000D02*
X52940000Y-130200000D01*
X52400000Y-125170000D02*
X52160000Y-124840000D01*
X52640000Y-124840000D01*
X52400000Y-125170000D01*
G36*
X52400000Y-125170000D02*
G01*
X52160000Y-124840000D01*
X52640000Y-124840000D01*
X52400000Y-125170000D01*
G37*
%TO.C,J3*%
X6500000Y-27720000D02*
X6500000Y-29770000D01*
X6500000Y-29770000D02*
X12000000Y-29770000D01*
X6500000Y-51510000D02*
X6500000Y-53260000D01*
X6500000Y-51510000D02*
X12000000Y-51510000D01*
X12000000Y-32520000D02*
X12000000Y-29770000D01*
X12000000Y-32520000D02*
X19500000Y-32520000D01*
X12000000Y-48760000D02*
X19500000Y-48760000D01*
X12000000Y-51510000D02*
X12000000Y-48760000D01*
X19500000Y-48760000D02*
X19500000Y-32520000D01*
%TO.C,C10*%
X51265000Y-105081252D02*
X51265000Y-104558748D01*
X52735000Y-105081252D02*
X52735000Y-104558748D01*
%TO.C,C25*%
X45265000Y-58261252D02*
X45265000Y-57738748D01*
X46735000Y-58261252D02*
X46735000Y-57738748D01*
%TO.C,R96*%
X36772936Y-67905000D02*
X37227064Y-67905000D01*
X36772936Y-69375000D02*
X37227064Y-69375000D01*
%TO.C,SW2*%
X49800000Y-25060000D02*
X51840000Y-25060000D01*
X51840000Y-24110000D02*
X51840000Y-25060000D01*
X51840000Y-24110000D02*
X58160000Y-24110000D01*
X51840000Y-32790000D02*
X51840000Y-31050000D01*
X51840000Y-32790000D02*
X58160000Y-32790000D01*
X58160000Y-24110000D02*
X58160000Y-25850000D01*
X58160000Y-32790000D02*
X58160000Y-31050000D01*
%TO.C,R88*%
X75265000Y-49677064D02*
X75265000Y-49222936D01*
X76735000Y-49677064D02*
X76735000Y-49222936D01*
%TO.C,R81*%
X79772936Y-178985000D02*
X80227064Y-178985000D01*
X79772936Y-180455000D02*
X80227064Y-180455000D01*
%TO.C,R5*%
X48265000Y-77367064D02*
X48265000Y-76912936D01*
X49735000Y-77367064D02*
X49735000Y-76912936D01*
%TO.C,R104*%
X36772936Y-178985000D02*
X37227064Y-178985000D01*
X36772936Y-180455000D02*
X37227064Y-180455000D01*
%TO.C,R24*%
X61265000Y-153177064D02*
X61265000Y-152722936D01*
X62735000Y-153177064D02*
X62735000Y-152722936D01*
%TO.C,C5*%
X51265000Y-122901252D02*
X51265000Y-122378748D01*
X52735000Y-122901252D02*
X52735000Y-122378748D01*
%TO.C,R27*%
X47772936Y-33715000D02*
X48227064Y-33715000D01*
X47772936Y-35185000D02*
X48227064Y-35185000D01*
%TO.C,D9*%
X99390000Y-47100000D02*
X99390000Y-48800000D01*
X99390000Y-47100000D02*
X102050000Y-47100000D01*
X99390000Y-48800000D02*
X102050000Y-48800000D01*
%TO.C,D13*%
X31390000Y-74790000D02*
X31390000Y-76490000D01*
X31390000Y-74790000D02*
X34050000Y-74790000D01*
X31390000Y-76490000D02*
X34050000Y-76490000D01*
%TO.C,J12*%
X126222000Y-117280000D02*
X126222000Y-118700000D01*
X126222000Y-123000000D02*
X126222000Y-121100000D01*
X126222000Y-124400000D02*
X126222000Y-126300000D01*
X126222000Y-128700000D02*
X126222000Y-130120000D01*
X133422000Y-117280000D02*
X126222000Y-117280000D01*
X133422000Y-117280000D02*
X133422000Y-114480000D01*
X133422000Y-130120000D02*
X126222000Y-130120000D01*
X133422000Y-130120000D02*
X133422000Y-132920000D01*
X139072000Y-114480000D02*
X133422000Y-114480000D01*
X139072000Y-114480000D02*
X139072000Y-111080000D01*
X139072000Y-132920000D02*
X133422000Y-132920000D01*
X139072000Y-136320000D02*
X139072000Y-132920000D01*
X145662000Y-111080000D02*
X139072000Y-111080000D01*
X145662000Y-111080000D02*
X145662000Y-112580000D01*
X145662000Y-112580000D02*
X148362000Y-112580000D01*
X145662000Y-134820000D02*
X145662000Y-136320000D01*
X145662000Y-134820000D02*
X148362000Y-134820000D01*
X145662000Y-136320000D02*
X139072000Y-136320000D01*
X148362000Y-112580000D02*
X148362000Y-134820000D01*
%TO.C,C19*%
X79265000Y-24261252D02*
X79265000Y-23738748D01*
X80735000Y-24261252D02*
X80735000Y-23738748D01*
%TO.C,C17*%
X76640000Y-12711252D02*
X76640000Y-11288748D01*
X79360000Y-12711252D02*
X79360000Y-11288748D01*
%TO.C,R39*%
X47772936Y-116905000D02*
X48227064Y-116905000D01*
X47772936Y-118375000D02*
X48227064Y-118375000D01*
%TO.C,R97*%
X36772936Y-74905000D02*
X37227064Y-74905000D01*
X36772936Y-76375000D02*
X37227064Y-76375000D01*
%TO.C,C45*%
X83738748Y-74905000D02*
X84261252Y-74905000D01*
X83738748Y-76375000D02*
X84261252Y-76375000D01*
%TO.C,R9*%
X48265000Y-132867064D02*
X48265000Y-132412936D01*
X49735000Y-132867064D02*
X49735000Y-132412936D01*
%TO.C,R72*%
X61265000Y-102547064D02*
X61265000Y-102092936D01*
X62735000Y-102547064D02*
X62735000Y-102092936D01*
%TO.C,R92*%
X75265000Y-160677064D02*
X75265000Y-160222936D01*
X76735000Y-160677064D02*
X76735000Y-160222936D01*
%TO.C,C49*%
X83738748Y-185985000D02*
X84261252Y-185985000D01*
X83738748Y-187455000D02*
X84261252Y-187455000D01*
%TO.C,Q6*%
X91240000Y-153890000D02*
X92760000Y-153890000D01*
X91240000Y-153940000D02*
X91240000Y-153890000D01*
X91240000Y-155840000D02*
X91240000Y-155060000D01*
X91240000Y-157010000D02*
X91240000Y-156960000D01*
X92760000Y-153890000D02*
X92760000Y-154890000D01*
X92760000Y-156010000D02*
X92760000Y-157010000D01*
X92760000Y-157010000D02*
X91240000Y-157010000D01*
X90940000Y-155400000D02*
X90460000Y-155400000D01*
X90700000Y-155070000D01*
X90940000Y-155400000D01*
G36*
X90940000Y-155400000D02*
G01*
X90460000Y-155400000D01*
X90700000Y-155070000D01*
X90940000Y-155400000D01*
G37*
%TO.C,C80*%
X67265000Y-22261252D02*
X67265000Y-21738748D01*
X68735000Y-22261252D02*
X68735000Y-21738748D01*
%TO.C,C55*%
X40265000Y-103581252D02*
X40265000Y-103058748D01*
X41735000Y-103581252D02*
X41735000Y-103058748D01*
%TO.C,C61*%
X40265000Y-186981252D02*
X40265000Y-186458748D01*
X41735000Y-186981252D02*
X41735000Y-186458748D01*
%TO.C,C36*%
X68265000Y-142261252D02*
X68265000Y-141738748D01*
X69735000Y-142261252D02*
X69735000Y-141738748D01*
%TO.C,R65*%
X63772936Y-64405000D02*
X64227064Y-64405000D01*
X63772936Y-65875000D02*
X64227064Y-65875000D01*
%TO.C,D12*%
X99390000Y-74790000D02*
X99390000Y-76490000D01*
X99390000Y-74790000D02*
X102050000Y-74790000D01*
X99390000Y-76490000D02*
X102050000Y-76490000D01*
%TO.C,SW4*%
X49800000Y-80430000D02*
X51840000Y-80430000D01*
X51840000Y-79480000D02*
X51840000Y-80430000D01*
X51840000Y-79480000D02*
X58160000Y-79480000D01*
X51840000Y-88160000D02*
X51840000Y-86420000D01*
X51840000Y-88160000D02*
X58160000Y-88160000D01*
X58160000Y-79480000D02*
X58160000Y-81220000D01*
X58160000Y-88160000D02*
X58160000Y-86420000D01*
%TO.C,R89*%
X75265000Y-77367064D02*
X75265000Y-76912936D01*
X76735000Y-77367064D02*
X76735000Y-76912936D01*
%TO.C,C51*%
X40265000Y-48211252D02*
X40265000Y-47688748D01*
X41735000Y-48211252D02*
X41735000Y-47688748D01*
%TO.C,R111*%
X95772936Y-126905000D02*
X96227064Y-126905000D01*
X95772936Y-128375000D02*
X96227064Y-128375000D01*
%TO.C,R80*%
X79772936Y-151215000D02*
X80227064Y-151215000D01*
X79772936Y-152685000D02*
X80227064Y-152685000D01*
%TO.C,J14*%
X126222000Y-172900000D02*
X126222000Y-174320000D01*
X126222000Y-178620000D02*
X126222000Y-176720000D01*
X126222000Y-180020000D02*
X126222000Y-181920000D01*
X126222000Y-184320000D02*
X126222000Y-185740000D01*
X133422000Y-172900000D02*
X126222000Y-172900000D01*
X133422000Y-172900000D02*
X133422000Y-170100000D01*
X133422000Y-185740000D02*
X126222000Y-185740000D01*
X133422000Y-185740000D02*
X133422000Y-188540000D01*
X139072000Y-170100000D02*
X133422000Y-170100000D01*
X139072000Y-170100000D02*
X139072000Y-166700000D01*
X139072000Y-188540000D02*
X133422000Y-188540000D01*
X139072000Y-191940000D02*
X139072000Y-188540000D01*
X145662000Y-166700000D02*
X139072000Y-166700000D01*
X145662000Y-166700000D02*
X145662000Y-168200000D01*
X145662000Y-168200000D02*
X148362000Y-168200000D01*
X145662000Y-190440000D02*
X145662000Y-191940000D01*
X145662000Y-190440000D02*
X148362000Y-190440000D01*
X145662000Y-191940000D02*
X139072000Y-191940000D01*
X148362000Y-168200000D02*
X148362000Y-190440000D01*
%TO.C,C44*%
X83738748Y-47215000D02*
X84261252Y-47215000D01*
X83738748Y-48685000D02*
X84261252Y-48685000D01*
%TO.C,R50*%
X59772936Y-33715000D02*
X60227064Y-33715000D01*
X59772936Y-35185000D02*
X60227064Y-35185000D01*
%TO.C,U9*%
X52940000Y-69580000D02*
X57060000Y-69580000D01*
X52940000Y-69675000D02*
X52940000Y-69580000D01*
X52940000Y-74700000D02*
X52940000Y-74605000D01*
X57060000Y-69580000D02*
X57060000Y-69675000D01*
X57060000Y-74605000D02*
X57060000Y-74700000D01*
X57060000Y-74700000D02*
X52940000Y-74700000D01*
X52400000Y-69670000D02*
X52160000Y-69340000D01*
X52640000Y-69340000D01*
X52400000Y-69670000D01*
G36*
X52400000Y-69670000D02*
G01*
X52160000Y-69340000D01*
X52640000Y-69340000D01*
X52400000Y-69670000D01*
G37*
%TO.C,R31*%
X47772936Y-61405000D02*
X48227064Y-61405000D01*
X47772936Y-62875000D02*
X48227064Y-62875000D01*
%TO.C,R52*%
X59772936Y-89085000D02*
X60227064Y-89085000D01*
X59772936Y-90555000D02*
X60227064Y-90555000D01*
%TO.C,C75*%
X71265000Y-160711252D02*
X71265000Y-160188748D01*
X72735000Y-160711252D02*
X72735000Y-160188748D01*
%TO.C,R36*%
X51772936Y-89085000D02*
X52227064Y-89085000D01*
X51772936Y-90555000D02*
X52227064Y-90555000D01*
%TO.C,D5*%
X99390000Y-123290000D02*
X99390000Y-124990000D01*
X99390000Y-123290000D02*
X102050000Y-123290000D01*
X99390000Y-124990000D02*
X102050000Y-124990000D01*
%TO.C,Q1*%
X71240000Y-14440000D02*
X72760000Y-14440000D01*
X71240000Y-14490000D02*
X71240000Y-14440000D01*
X71240000Y-16390000D02*
X71240000Y-15610000D01*
X71240000Y-17560000D02*
X71240000Y-17510000D01*
X72760000Y-14440000D02*
X72760000Y-15440000D01*
X72760000Y-16560000D02*
X72760000Y-17560000D01*
X72760000Y-17560000D02*
X71240000Y-17560000D01*
X70940000Y-15950000D02*
X70460000Y-15950000D01*
X70700000Y-15620000D01*
X70940000Y-15950000D01*
G36*
X70940000Y-15950000D02*
G01*
X70460000Y-15950000D01*
X70700000Y-15620000D01*
X70940000Y-15950000D01*
G37*
%TO.C,C63*%
X44288748Y-47040000D02*
X45711252Y-47040000D01*
X44288748Y-48860000D02*
X45711252Y-48860000D01*
%TO.C,R35*%
X47772936Y-89085000D02*
X48227064Y-89085000D01*
X47772936Y-90555000D02*
X48227064Y-90555000D01*
%TO.C,SW3*%
X49800000Y-52750000D02*
X51840000Y-52750000D01*
X51840000Y-51800000D02*
X51840000Y-52750000D01*
X51840000Y-51800000D02*
X58160000Y-51800000D01*
X51840000Y-60480000D02*
X51840000Y-58740000D01*
X51840000Y-60480000D02*
X58160000Y-60480000D01*
X58160000Y-51800000D02*
X58160000Y-53540000D01*
X58160000Y-60480000D02*
X58160000Y-58740000D01*
%TO.C,C66*%
X44288748Y-95410000D02*
X45711252Y-95410000D01*
X44288748Y-97230000D02*
X45711252Y-97230000D01*
%TO.C,C28*%
X71265000Y-95081252D02*
X71265000Y-94558748D01*
X72735000Y-95081252D02*
X72735000Y-94558748D01*
%TO.C,R85*%
X75265000Y-122867064D02*
X75265000Y-122412936D01*
X76735000Y-122867064D02*
X76735000Y-122412936D01*
D14*
%TO.C,U1*%
X83301000Y-1093000D02*
X83301000Y-21667000D01*
X83301000Y-21667000D02*
X115305000Y-21667000D01*
X115305000Y-1093000D02*
X83301000Y-1093000D01*
X115305000Y-21667000D02*
X115305000Y-1093000D01*
D11*
%TO.C,J11*%
X126222000Y-89590000D02*
X126222000Y-91010000D01*
X126222000Y-95310000D02*
X126222000Y-93410000D01*
X126222000Y-96710000D02*
X126222000Y-98610000D01*
X126222000Y-101010000D02*
X126222000Y-102430000D01*
X133422000Y-89590000D02*
X126222000Y-89590000D01*
X133422000Y-89590000D02*
X133422000Y-86790000D01*
X133422000Y-102430000D02*
X126222000Y-102430000D01*
X133422000Y-102430000D02*
X133422000Y-105230000D01*
X139072000Y-86790000D02*
X133422000Y-86790000D01*
X139072000Y-86790000D02*
X139072000Y-83390000D01*
X139072000Y-105230000D02*
X133422000Y-105230000D01*
X139072000Y-108630000D02*
X139072000Y-105230000D01*
X145662000Y-83390000D02*
X139072000Y-83390000D01*
X145662000Y-83390000D02*
X145662000Y-84890000D01*
X145662000Y-84890000D02*
X148362000Y-84890000D01*
X145662000Y-107130000D02*
X145662000Y-108630000D01*
X145662000Y-107130000D02*
X148362000Y-107130000D01*
X145662000Y-108630000D02*
X139072000Y-108630000D01*
X148362000Y-84890000D02*
X148362000Y-107130000D01*
%TO.C,R41*%
X55772936Y-116905000D02*
X56227064Y-116905000D01*
X55772936Y-118375000D02*
X56227064Y-118375000D01*
%TO.C,C24*%
X68265000Y-58261252D02*
X68265000Y-57738748D01*
X69735000Y-58261252D02*
X69735000Y-57738748D01*
%TO.C,R63*%
X79772936Y-185985000D02*
X80227064Y-185985000D01*
X79772936Y-187455000D02*
X80227064Y-187455000D01*
%TO.C,R109*%
X95772936Y-71405000D02*
X96227064Y-71405000D01*
X95772936Y-72875000D02*
X96227064Y-72875000D01*
%TO.C,R8*%
X48265000Y-122867064D02*
X48265000Y-122412936D01*
X49735000Y-122867064D02*
X49735000Y-122412936D01*
%TO.C,C40*%
X83738748Y-95585000D02*
X84261252Y-95585000D01*
X83738748Y-97055000D02*
X84261252Y-97055000D01*
%TO.C,U3*%
X66940000Y-69580000D02*
X71060000Y-69580000D01*
X66940000Y-69675000D02*
X66940000Y-69580000D01*
X66940000Y-74700000D02*
X66940000Y-74605000D01*
X71060000Y-69580000D02*
X71060000Y-69675000D01*
X71060000Y-74605000D02*
X71060000Y-74700000D01*
X71060000Y-74700000D02*
X66940000Y-74700000D01*
X66400000Y-69670000D02*
X66160000Y-69340000D01*
X66640000Y-69340000D01*
X66400000Y-69670000D01*
G36*
X66400000Y-69670000D02*
G01*
X66160000Y-69340000D01*
X66640000Y-69340000D01*
X66400000Y-69670000D01*
G37*
%TO.C,R23*%
X61265000Y-125367064D02*
X61265000Y-124912936D01*
X62735000Y-125367064D02*
X62735000Y-124912936D01*
%TO.C,R82*%
X75265000Y-39677064D02*
X75265000Y-39222936D01*
X76735000Y-39677064D02*
X76735000Y-39222936D01*
%TO.C,C13*%
X51265000Y-188481252D02*
X51265000Y-187958748D01*
X52735000Y-188481252D02*
X52735000Y-187958748D01*
%TO.C,C77*%
X81265000Y-32261252D02*
X81265000Y-31738748D01*
X82735000Y-32261252D02*
X82735000Y-31738748D01*
%TO.C,C29*%
X71265000Y-122901252D02*
X71265000Y-122378748D01*
X72735000Y-122901252D02*
X72735000Y-122378748D01*
%TO.C,R64*%
X63772936Y-36715000D02*
X64227064Y-36715000D01*
X63772936Y-38185000D02*
X64227064Y-38185000D01*
%TO.C,D2*%
X99390000Y-40100000D02*
X99390000Y-41800000D01*
X99390000Y-40100000D02*
X102050000Y-40100000D01*
X99390000Y-41800000D02*
X102050000Y-41800000D01*
%TO.C,R28*%
X51772936Y-33715000D02*
X52227064Y-33715000D01*
X51772936Y-35185000D02*
X52227064Y-35185000D01*
%TO.C,U4*%
X66940000Y-97260000D02*
X71060000Y-97260000D01*
X66940000Y-97355000D02*
X66940000Y-97260000D01*
X66940000Y-102380000D02*
X66940000Y-102285000D01*
X71060000Y-97260000D02*
X71060000Y-97355000D01*
X71060000Y-102285000D02*
X71060000Y-102380000D01*
X71060000Y-102380000D02*
X66940000Y-102380000D01*
X66400000Y-97350000D02*
X66160000Y-97020000D01*
X66640000Y-97020000D01*
X66400000Y-97350000D01*
G36*
X66400000Y-97350000D02*
G01*
X66160000Y-97020000D01*
X66640000Y-97020000D01*
X66400000Y-97350000D01*
G37*
%TO.C,R6*%
X48265000Y-95047064D02*
X48265000Y-94592936D01*
X49735000Y-95047064D02*
X49735000Y-94592936D01*
%TO.C,R103*%
X36772936Y-158215000D02*
X37227064Y-158215000D01*
X36772936Y-159685000D02*
X37227064Y-159685000D01*
%TO.C,R70*%
X61265000Y-47177064D02*
X61265000Y-46722936D01*
X62735000Y-47177064D02*
X62735000Y-46722936D01*
%TO.C,C14*%
X79265000Y-8261252D02*
X79265000Y-7738748D01*
X80735000Y-8261252D02*
X80735000Y-7738748D01*
%TO.C,D19*%
X31390000Y-130290000D02*
X31390000Y-131990000D01*
X31390000Y-130290000D02*
X34050000Y-130290000D01*
X31390000Y-131990000D02*
X34050000Y-131990000D01*
%TO.C,R74*%
X61265000Y-158177064D02*
X61265000Y-157722936D01*
X62735000Y-158177064D02*
X62735000Y-157722936D01*
%TO.C,R19*%
X48265000Y-183447064D02*
X48265000Y-182992936D01*
X49735000Y-183447064D02*
X49735000Y-182992936D01*
%TO.C,C20*%
X132640000Y-10711252D02*
X132640000Y-9288748D01*
X135360000Y-10711252D02*
X135360000Y-9288748D01*
%TO.C,C41*%
X83738748Y-123405000D02*
X84261252Y-123405000D01*
X83738748Y-124875000D02*
X84261252Y-124875000D01*
%TO.C,R4*%
X48265000Y-67367064D02*
X48265000Y-66912936D01*
X49735000Y-67367064D02*
X49735000Y-66912936D01*
%TO.C,C52*%
X40265000Y-68901252D02*
X40265000Y-68378748D01*
X41735000Y-68901252D02*
X41735000Y-68378748D01*
%TO.C,R91*%
X75265000Y-132867064D02*
X75265000Y-132412936D01*
X76735000Y-132867064D02*
X76735000Y-132412936D01*
%TO.C,C54*%
X40265000Y-96581252D02*
X40265000Y-96058748D01*
X41735000Y-96581252D02*
X41735000Y-96058748D01*
%TO.C,D18*%
X99390000Y-130290000D02*
X99390000Y-131990000D01*
X99390000Y-130290000D02*
X102050000Y-130290000D01*
X99390000Y-131990000D02*
X102050000Y-131990000D01*
%TO.C,R47*%
X47772936Y-172485000D02*
X48227064Y-172485000D01*
X47772936Y-173955000D02*
X48227064Y-173955000D01*
%TO.C,R3*%
X48265000Y-49677064D02*
X48265000Y-49222936D01*
X49735000Y-49677064D02*
X49735000Y-49222936D01*
%TO.C,C81*%
X134640000Y-26107836D02*
X134640000Y-25892164D01*
X135360000Y-26107836D02*
X135360000Y-25892164D01*
%TO.C,R46*%
X63772936Y-189485000D02*
X64227064Y-189485000D01*
X63772936Y-190955000D02*
X64227064Y-190955000D01*
%TO.C,R95*%
X36772936Y-47215000D02*
X37227064Y-47215000D01*
X36772936Y-48685000D02*
X37227064Y-48685000D01*
%TO.C,D14*%
X31390000Y-95470000D02*
X31390000Y-97170000D01*
X31390000Y-95470000D02*
X34050000Y-95470000D01*
X31390000Y-97170000D02*
X34050000Y-97170000D01*
%TO.C,D10*%
X31390000Y-47100000D02*
X31390000Y-48800000D01*
X31390000Y-47100000D02*
X34050000Y-47100000D01*
X31390000Y-48800000D02*
X34050000Y-48800000D01*
%TO.C,D6*%
X99390000Y-151100000D02*
X99390000Y-152800000D01*
X99390000Y-151100000D02*
X102050000Y-151100000D01*
X99390000Y-152800000D02*
X102050000Y-152800000D01*
%TO.C,R93*%
X75265000Y-188447064D02*
X75265000Y-187992936D01*
X76735000Y-188447064D02*
X76735000Y-187992936D01*
%TO.C,D1*%
X58340000Y-15850000D02*
X58340000Y-20150000D01*
X58340000Y-15850000D02*
X64150000Y-15850000D01*
X58340000Y-20150000D02*
X64150000Y-20150000D01*
%TO.C,C74*%
X71265000Y-132901252D02*
X71265000Y-132378748D01*
X72735000Y-132901252D02*
X72735000Y-132378748D01*
%TO.C,C33*%
X71265000Y-77401252D02*
X71265000Y-76878748D01*
X72735000Y-77401252D02*
X72735000Y-76878748D01*
%TO.C,C46*%
X83738748Y-102585000D02*
X84261252Y-102585000D01*
X83738748Y-104055000D02*
X84261252Y-104055000D01*
%TO.C,R86*%
X75265000Y-150677064D02*
X75265000Y-150222936D01*
X76735000Y-150677064D02*
X76735000Y-150222936D01*
%TO.C,C27*%
X71265000Y-67401252D02*
X71265000Y-66878748D01*
X72735000Y-67401252D02*
X72735000Y-66878748D01*
%TO.C,D15*%
X99390000Y-102470000D02*
X99390000Y-104170000D01*
X99390000Y-102470000D02*
X102050000Y-102470000D01*
X99390000Y-104170000D02*
X102050000Y-104170000D01*
%TO.C,FB1*%
X117600378Y-9440000D02*
X118399622Y-9440000D01*
X117600378Y-10560000D02*
X118399622Y-10560000D01*
%TO.C,SW1*%
X42880000Y-8140000D02*
X42880000Y-2940000D01*
X44930000Y-2190000D02*
X54830000Y-2190000D01*
X54830000Y-8890000D02*
X44930000Y-8890000D01*
X56880000Y-2940000D02*
X56880000Y-8140000D01*
X57180000Y-8540000D02*
X57180000Y-9840000D01*
X57180000Y-9840000D02*
X55880000Y-9840000D01*
%TO.C,C68*%
X44288748Y-123230000D02*
X45711252Y-123230000D01*
X44288748Y-125050000D02*
X45711252Y-125050000D01*
%TO.C,C43*%
X83738748Y-178985000D02*
X84261252Y-178985000D01*
X83738748Y-180455000D02*
X84261252Y-180455000D01*
%TO.C,C32*%
X71265000Y-49711252D02*
X71265000Y-49188748D01*
X72735000Y-49711252D02*
X72735000Y-49188748D01*
%TO.C,R71*%
X61265000Y-74867064D02*
X61265000Y-74412936D01*
X62735000Y-74867064D02*
X62735000Y-74412936D01*
%TO.C,C56*%
X40265000Y-124401252D02*
X40265000Y-123878748D01*
X41735000Y-124401252D02*
X41735000Y-123878748D01*
%TO.C,C62*%
X44288748Y-40040000D02*
X45711252Y-40040000D01*
X44288748Y-41860000D02*
X45711252Y-41860000D01*
%TO.C,R2*%
X48265000Y-39677064D02*
X48265000Y-39222936D01*
X49735000Y-39677064D02*
X49735000Y-39222936D01*
%TO.C,R14*%
X48265000Y-44677064D02*
X48265000Y-44222936D01*
X49735000Y-44677064D02*
X49735000Y-44222936D01*
%TO.C,R30*%
X63772936Y-78405000D02*
X64227064Y-78405000D01*
X63772936Y-79875000D02*
X64227064Y-79875000D01*
%TO.C,U8*%
X52940000Y-41890000D02*
X57060000Y-41890000D01*
X52940000Y-41985000D02*
X52940000Y-41890000D01*
X52940000Y-47010000D02*
X52940000Y-46915000D01*
X57060000Y-41890000D02*
X57060000Y-41985000D01*
X57060000Y-46915000D02*
X57060000Y-47010000D01*
X57060000Y-47010000D02*
X52940000Y-47010000D01*
X52400000Y-41980000D02*
X52160000Y-41650000D01*
X52640000Y-41650000D01*
X52400000Y-41980000D01*
G36*
X52400000Y-41980000D02*
G01*
X52160000Y-41650000D01*
X52640000Y-41650000D01*
X52400000Y-41980000D01*
G37*
%TO.C,J10*%
X126222000Y-61910000D02*
X126222000Y-63330000D01*
X126222000Y-67630000D02*
X126222000Y-65730000D01*
X126222000Y-69030000D02*
X126222000Y-70930000D01*
X126222000Y-73330000D02*
X126222000Y-74750000D01*
X133422000Y-61910000D02*
X126222000Y-61910000D01*
X133422000Y-61910000D02*
X133422000Y-59110000D01*
X133422000Y-74750000D02*
X126222000Y-74750000D01*
X133422000Y-74750000D02*
X133422000Y-77550000D01*
X139072000Y-59110000D02*
X133422000Y-59110000D01*
X139072000Y-59110000D02*
X139072000Y-55710000D01*
X139072000Y-77550000D02*
X133422000Y-77550000D01*
X139072000Y-80950000D02*
X139072000Y-77550000D01*
X145662000Y-55710000D02*
X139072000Y-55710000D01*
X145662000Y-55710000D02*
X145662000Y-57210000D01*
X145662000Y-57210000D02*
X148362000Y-57210000D01*
X145662000Y-79450000D02*
X145662000Y-80950000D01*
X145662000Y-79450000D02*
X148362000Y-79450000D01*
X145662000Y-80950000D02*
X139072000Y-80950000D01*
X148362000Y-57210000D02*
X148362000Y-79450000D01*
%TO.C,R18*%
X48265000Y-155677064D02*
X48265000Y-155222936D01*
X49735000Y-155677064D02*
X49735000Y-155222936D01*
%TO.C,R15*%
X48265000Y-72367064D02*
X48265000Y-71912936D01*
X49735000Y-72367064D02*
X49735000Y-71912936D01*
%TO.C,R10*%
X48265000Y-150677064D02*
X48265000Y-150222936D01*
X49735000Y-150677064D02*
X49735000Y-150222936D01*
%TO.C,R76*%
X79772936Y-40215000D02*
X80227064Y-40215000D01*
X79772936Y-41685000D02*
X80227064Y-41685000D01*
%TO.C,U2*%
X66940000Y-41890000D02*
X71060000Y-41890000D01*
X66940000Y-41985000D02*
X66940000Y-41890000D01*
X66940000Y-47010000D02*
X66940000Y-46915000D01*
X71060000Y-41890000D02*
X71060000Y-41985000D01*
X71060000Y-46915000D02*
X71060000Y-47010000D01*
X71060000Y-47010000D02*
X66940000Y-47010000D01*
X66400000Y-41980000D02*
X66160000Y-41650000D01*
X66640000Y-41650000D01*
X66400000Y-41980000D01*
G36*
X66400000Y-41980000D02*
G01*
X66160000Y-41650000D01*
X66640000Y-41650000D01*
X66400000Y-41980000D01*
G37*
%TO.C,R26*%
X63772936Y-50715000D02*
X64227064Y-50715000D01*
X63772936Y-52185000D02*
X64227064Y-52185000D01*
%TO.C,C3*%
X51265000Y-67401252D02*
X51265000Y-66878748D01*
X52735000Y-67401252D02*
X52735000Y-66878748D01*
%TO.C,R53*%
X59772936Y-116905000D02*
X60227064Y-116905000D01*
X59772936Y-118375000D02*
X60227064Y-118375000D01*
%TO.C,C69*%
X44288748Y-130230000D02*
X45711252Y-130230000D01*
X44288748Y-132050000D02*
X45711252Y-132050000D01*
%TO.C,U10*%
X52940000Y-97260000D02*
X57060000Y-97260000D01*
X52940000Y-97355000D02*
X52940000Y-97260000D01*
X52940000Y-102380000D02*
X52940000Y-102285000D01*
X57060000Y-97260000D02*
X57060000Y-97355000D01*
X57060000Y-102285000D02*
X57060000Y-102380000D01*
X57060000Y-102380000D02*
X52940000Y-102380000D01*
X52400000Y-97350000D02*
X52160000Y-97020000D01*
X52640000Y-97020000D01*
X52400000Y-97350000D01*
G36*
X52400000Y-97350000D02*
G01*
X52160000Y-97020000D01*
X52640000Y-97020000D01*
X52400000Y-97350000D01*
G37*
%TO.C,C50*%
X40265000Y-41211252D02*
X40265000Y-40688748D01*
X41735000Y-41211252D02*
X41735000Y-40688748D01*
%TO.C,C38*%
X83738748Y-40215000D02*
X84261252Y-40215000D01*
X83738748Y-41685000D02*
X84261252Y-41685000D01*
%TO.C,C57*%
X40265000Y-131401252D02*
X40265000Y-130878748D01*
X41735000Y-131401252D02*
X41735000Y-130878748D01*
%TO.C,D20*%
X31390000Y-151100000D02*
X31390000Y-152800000D01*
X31390000Y-151100000D02*
X34050000Y-151100000D01*
X31390000Y-152800000D02*
X34050000Y-152800000D01*
%TO.C,J6*%
X6500000Y-110910000D02*
X6500000Y-112960000D01*
X6500000Y-112960000D02*
X12000000Y-112960000D01*
X6500000Y-134700000D02*
X6500000Y-136450000D01*
X6500000Y-134700000D02*
X12000000Y-134700000D01*
X12000000Y-115710000D02*
X12000000Y-112960000D01*
X12000000Y-115710000D02*
X19500000Y-115710000D01*
X12000000Y-131950000D02*
X19500000Y-131950000D01*
X12000000Y-134700000D02*
X12000000Y-131950000D01*
X19500000Y-131950000D02*
X19500000Y-115710000D01*
%TO.C,C39*%
X83738748Y-67905000D02*
X84261252Y-67905000D01*
X83738748Y-69375000D02*
X84261252Y-69375000D01*
%TO.C,C67*%
X44288748Y-102410000D02*
X45711252Y-102410000D01*
X44288748Y-104230000D02*
X45711252Y-104230000D01*
%TO.C,R98*%
X36772936Y-95585000D02*
X37227064Y-95585000D01*
X36772936Y-97055000D02*
X37227064Y-97055000D01*
%TO.C,R94*%
X36772936Y-40215000D02*
X37227064Y-40215000D01*
X36772936Y-41685000D02*
X37227064Y-41685000D01*
%TO.C,R34*%
X63772936Y-106085000D02*
X64227064Y-106085000D01*
X63772936Y-107555000D02*
X64227064Y-107555000D01*
%TO.C,R43*%
X47772936Y-144715000D02*
X48227064Y-144715000D01*
X47772936Y-146185000D02*
X48227064Y-146185000D01*
%TO.C,R20*%
X61265000Y-42177064D02*
X61265000Y-41722936D01*
X62735000Y-42177064D02*
X62735000Y-41722936D01*
%TO.C,D7*%
X99390000Y-178870000D02*
X99390000Y-180570000D01*
X99390000Y-178870000D02*
X102050000Y-178870000D01*
X99390000Y-180570000D02*
X102050000Y-180570000D01*
%TO.C,R78*%
X79772936Y-95585000D02*
X80227064Y-95585000D01*
X79772936Y-97055000D02*
X80227064Y-97055000D01*
%TO.C,R57*%
X75772936Y-23265000D02*
X76227064Y-23265000D01*
X75772936Y-24735000D02*
X76227064Y-24735000D01*
%TO.C,R83*%
X75265000Y-67367064D02*
X75265000Y-66912936D01*
X76735000Y-67367064D02*
X76735000Y-66912936D01*
%TO.C,R21*%
X61265000Y-69867064D02*
X61265000Y-69412936D01*
X62735000Y-69867064D02*
X62735000Y-69412936D01*
%TO.C,C12*%
X51265000Y-160711252D02*
X51265000Y-160188748D01*
X52735000Y-160711252D02*
X52735000Y-160188748D01*
%TO.C,C65*%
X44288748Y-74730000D02*
X45711252Y-74730000D01*
X44288748Y-76550000D02*
X45711252Y-76550000D01*
%TO.C,C76*%
X71265000Y-188481252D02*
X71265000Y-187958748D01*
X72735000Y-188481252D02*
X72735000Y-187958748D01*
%TO.C,R68*%
X63772936Y-147715000D02*
X64227064Y-147715000D01*
X63772936Y-149185000D02*
X64227064Y-149185000D01*
%TO.C,R60*%
X79772936Y-102585000D02*
X80227064Y-102585000D01*
X79772936Y-104055000D02*
X80227064Y-104055000D01*
%TO.C,R101*%
X36772936Y-130405000D02*
X37227064Y-130405000D01*
X36772936Y-131875000D02*
X37227064Y-131875000D01*
%TO.C,R16*%
X48265000Y-100047064D02*
X48265000Y-99592936D01*
X49735000Y-100047064D02*
X49735000Y-99592936D01*
%TO.C,C15*%
X79265000Y-28261252D02*
X79265000Y-27738748D01*
X80735000Y-28261252D02*
X80735000Y-27738748D01*
%TO.C,R1*%
X39772936Y-14265000D02*
X40227064Y-14265000D01*
X39772936Y-15735000D02*
X40227064Y-15735000D01*
%TO.C,C22*%
X120265000Y-6261252D02*
X120265000Y-5738748D01*
X121735000Y-6261252D02*
X121735000Y-5738748D01*
%TO.C,D16*%
X31390000Y-102470000D02*
X31390000Y-104170000D01*
X31390000Y-102470000D02*
X34050000Y-102470000D01*
X31390000Y-104170000D02*
X34050000Y-104170000D01*
%TD*%
%LPC*%
D15*
%TO.C,C30*%
X72000000Y-151400000D03*
X72000000Y-149500000D03*
%TD*%
D16*
%TO.C,D4*%
X99950000Y-96320000D03*
X102050000Y-96320000D03*
%TD*%
D17*
%TO.C,SW5*%
X50550000Y-109100000D03*
X50550000Y-111640000D03*
X50550000Y-114180000D03*
X59450000Y-114180000D03*
X59450000Y-111640000D03*
X59450000Y-109100000D03*
%TD*%
D18*
%TO.C,U7*%
X66525000Y-181315000D03*
X66525000Y-182585000D03*
X66525000Y-183855000D03*
X66525000Y-185125000D03*
X71475000Y-185125000D03*
X71475000Y-183855000D03*
X71475000Y-182585000D03*
X71475000Y-181315000D03*
%TD*%
D15*
%TO.C,C8*%
X52000000Y-50400000D03*
X52000000Y-48500000D03*
%TD*%
D19*
%TO.C,Q4*%
X91062500Y-98870000D03*
X91062500Y-100770000D03*
X92937500Y-99820000D03*
%TD*%
D20*
%TO.C,J13*%
X136652000Y-155450000D03*
X141732000Y-147830000D03*
D21*
X127762000Y-155450000D03*
X127762000Y-147830000D03*
D22*
X127762000Y-151640000D03*
X132842000Y-151640000D03*
%TD*%
D23*
%TO.C,U14*%
X125525000Y-6095000D03*
X125525000Y-7365000D03*
X125525000Y-8635000D03*
X125525000Y-9905000D03*
X130475000Y-9905000D03*
X130475000Y-8635000D03*
X130475000Y-7365000D03*
X130475000Y-6095000D03*
D24*
X128000000Y-8000000D03*
%TD*%
D25*
%TO.C,R87*%
X76000000Y-179132500D03*
X76000000Y-177307500D03*
%TD*%
D15*
%TO.C,C78*%
X121000000Y-28950000D03*
X121000000Y-27050000D03*
%TD*%
%TO.C,C18*%
X78000000Y-28950000D03*
X78000000Y-27050000D03*
%TD*%
D25*
%TO.C,R75*%
X62000000Y-186632500D03*
X62000000Y-184807500D03*
%TD*%
%TO.C,R32*%
X51087500Y-62140000D03*
X52912500Y-62140000D03*
%TD*%
D15*
%TO.C,C34*%
X72000000Y-105770000D03*
X72000000Y-103870000D03*
%TD*%
D17*
%TO.C,SW7*%
X50550000Y-164680000D03*
X50550000Y-167220000D03*
X50550000Y-169760000D03*
X59450000Y-169760000D03*
X59450000Y-167220000D03*
X59450000Y-164680000D03*
%TD*%
D16*
%TO.C,D17*%
X31950000Y-124140000D03*
X34050000Y-124140000D03*
%TD*%
D19*
%TO.C,Q3*%
X91062500Y-71190000D03*
X91062500Y-73090000D03*
X92937500Y-72140000D03*
%TD*%
D25*
%TO.C,R84*%
X76000000Y-95732500D03*
X76000000Y-93907500D03*
%TD*%
D15*
%TO.C,C48*%
X83050000Y-158950000D03*
X84950000Y-158950000D03*
%TD*%
D26*
%TO.C,C71*%
X43525000Y-158950000D03*
X46475000Y-158950000D03*
%TD*%
D25*
%TO.C,R67*%
X63087500Y-120640000D03*
X64912500Y-120640000D03*
%TD*%
%TO.C,R62*%
X79087500Y-158950000D03*
X80912500Y-158950000D03*
%TD*%
%TO.C,R54*%
X59087500Y-145450000D03*
X60912500Y-145450000D03*
%TD*%
D15*
%TO.C,C6*%
X52000000Y-151400000D03*
X52000000Y-149500000D03*
%TD*%
D25*
%TO.C,R7*%
X49000000Y-105732500D03*
X49000000Y-103907500D03*
%TD*%
%TO.C,R37*%
X55087500Y-89820000D03*
X56912500Y-89820000D03*
%TD*%
D16*
%TO.C,D21*%
X99950000Y-158950000D03*
X102050000Y-158950000D03*
%TD*%
D27*
%TO.C,U15*%
X126862500Y-23050000D03*
X126862500Y-24000000D03*
X126862500Y-24950000D03*
X129137500Y-24950000D03*
X129137500Y-23050000D03*
%TD*%
D25*
%TO.C,R66*%
X63087500Y-92820000D03*
X64912500Y-92820000D03*
%TD*%
%TO.C,R45*%
X55087500Y-145450000D03*
X56912500Y-145450000D03*
%TD*%
%TO.C,R90*%
X76000000Y-105732500D03*
X76000000Y-103907500D03*
%TD*%
D15*
%TO.C,C4*%
X52000000Y-95770000D03*
X52000000Y-93870000D03*
%TD*%
D25*
%TO.C,R48*%
X51087500Y-173220000D03*
X52912500Y-173220000D03*
%TD*%
%TO.C,R33*%
X55087500Y-62140000D03*
X56912500Y-62140000D03*
%TD*%
%TO.C,R29*%
X55087500Y-34450000D03*
X56912500Y-34450000D03*
%TD*%
%TO.C,R17*%
X49000000Y-128552500D03*
X49000000Y-126727500D03*
%TD*%
D18*
%TO.C,U6*%
X66525000Y-153545000D03*
X66525000Y-154815000D03*
X66525000Y-156085000D03*
X66525000Y-157355000D03*
X71475000Y-157355000D03*
X71475000Y-156085000D03*
X71475000Y-154815000D03*
X71475000Y-153545000D03*
%TD*%
D16*
%TO.C,D8*%
X31950000Y-40950000D03*
X34050000Y-40950000D03*
%TD*%
D15*
%TO.C,C9*%
X52000000Y-78090000D03*
X52000000Y-76190000D03*
%TD*%
D25*
%TO.C,R12*%
X49000000Y-179132500D03*
X49000000Y-177307500D03*
%TD*%
D26*
%TO.C,C73*%
X43525000Y-186720000D03*
X46475000Y-186720000D03*
%TD*%
D15*
%TO.C,C79*%
X135000000Y-22950000D03*
X135000000Y-21050000D03*
%TD*%
D25*
%TO.C,R13*%
X49000000Y-189132500D03*
X49000000Y-187307500D03*
%TD*%
%TO.C,R55*%
X59087500Y-173220000D03*
X60912500Y-173220000D03*
%TD*%
%TO.C,R38*%
X63087500Y-134640000D03*
X64912500Y-134640000D03*
%TD*%
D15*
%TO.C,C42*%
X83050000Y-151950000D03*
X84950000Y-151950000D03*
%TD*%
D19*
%TO.C,Q5*%
X91062500Y-126690000D03*
X91062500Y-128590000D03*
X92937500Y-127640000D03*
%TD*%
D16*
%TO.C,D23*%
X31950000Y-179720000D03*
X34050000Y-179720000D03*
%TD*%
D18*
%TO.C,U12*%
X52525000Y-153545000D03*
X52525000Y-154815000D03*
X52525000Y-156085000D03*
X52525000Y-157355000D03*
X57475000Y-157355000D03*
X57475000Y-156085000D03*
X57475000Y-154815000D03*
X57475000Y-153545000D03*
%TD*%
D25*
%TO.C,R106*%
X71087500Y-20000000D03*
X72912500Y-20000000D03*
%TD*%
D15*
%TO.C,C37*%
X69000000Y-170950000D03*
X69000000Y-169050000D03*
%TD*%
D25*
%TO.C,R73*%
X62000000Y-131052500D03*
X62000000Y-129227500D03*
%TD*%
D26*
%TO.C,C64*%
X43525000Y-68640000D03*
X46475000Y-68640000D03*
%TD*%
D25*
%TO.C,R99*%
X36087500Y-103320000D03*
X37912500Y-103320000D03*
%TD*%
D20*
%TO.C,J4*%
X8770000Y-64520000D03*
X3690000Y-72140000D03*
D21*
X12580000Y-72140000D03*
X13215000Y-64520000D03*
D22*
X17030000Y-68330000D03*
X6860000Y-76580000D03*
%TD*%
D15*
%TO.C,C31*%
X72000000Y-179170000D03*
X72000000Y-177270000D03*
%TD*%
D28*
%TO.C,C21*%
X121000000Y-23475000D03*
X121000000Y-20525000D03*
%TD*%
D29*
%TO.C,FB2*%
X116937500Y-26000000D03*
X119062500Y-26000000D03*
%TD*%
D25*
%TO.C,R108*%
X95087500Y-44450000D03*
X96912500Y-44450000D03*
%TD*%
%TO.C,R42*%
X63087500Y-162450000D03*
X64912500Y-162450000D03*
%TD*%
D15*
%TO.C,C58*%
X41000000Y-152900000D03*
X41000000Y-151000000D03*
%TD*%
D25*
%TO.C,R79*%
X79087500Y-124140000D03*
X80912500Y-124140000D03*
%TD*%
D28*
%TO.C,C16*%
X140000000Y-15475000D03*
X140000000Y-12525000D03*
%TD*%
D25*
%TO.C,R100*%
X36087500Y-124140000D03*
X37912500Y-124140000D03*
%TD*%
D18*
%TO.C,U5*%
X66525000Y-125735000D03*
X66525000Y-127005000D03*
X66525000Y-128275000D03*
X66525000Y-129545000D03*
X71475000Y-129545000D03*
X71475000Y-128275000D03*
X71475000Y-127005000D03*
X71475000Y-125735000D03*
%TD*%
D30*
%TO.C,J1*%
X70870000Y-10830000D03*
D31*
X70870000Y-4830000D03*
D32*
X66170000Y-7830000D03*
%TD*%
D15*
%TO.C,C7*%
X52000000Y-179170000D03*
X52000000Y-177270000D03*
%TD*%
D20*
%TO.C,J8*%
X8770000Y-175600000D03*
X3690000Y-183220000D03*
D21*
X12580000Y-183220000D03*
X13215000Y-175600000D03*
D22*
X17030000Y-179410000D03*
X6860000Y-187660000D03*
%TD*%
D33*
%TO.C,J2*%
X27970000Y-7580000D03*
X32970000Y-7580000D03*
D34*
X34520000Y-11430000D03*
X26420000Y-11430000D03*
D35*
X26420000Y-2580000D03*
X34520000Y-2580000D03*
%TD*%
D20*
%TO.C,J5*%
X8770000Y-92200000D03*
X3690000Y-99820000D03*
D21*
X12580000Y-99820000D03*
X13215000Y-92200000D03*
D22*
X17030000Y-96010000D03*
X6860000Y-104260000D03*
%TD*%
D25*
%TO.C,R77*%
X79087500Y-68640000D03*
X80912500Y-68640000D03*
%TD*%
D18*
%TO.C,U13*%
X52525000Y-181315000D03*
X52525000Y-182585000D03*
X52525000Y-183855000D03*
X52525000Y-185125000D03*
X57475000Y-185125000D03*
X57475000Y-183855000D03*
X57475000Y-182585000D03*
X57475000Y-181315000D03*
%TD*%
D15*
%TO.C,C60*%
X41000000Y-180670000D03*
X41000000Y-178770000D03*
%TD*%
%TO.C,C2*%
X52000000Y-40400000D03*
X52000000Y-38500000D03*
%TD*%
D25*
%TO.C,R113*%
X95087500Y-183220000D03*
X96912500Y-183220000D03*
%TD*%
%TO.C,R44*%
X51087500Y-145450000D03*
X52912500Y-145450000D03*
%TD*%
D16*
%TO.C,D22*%
X31950000Y-158950000D03*
X34050000Y-158950000D03*
%TD*%
D25*
%TO.C,R61*%
X79087500Y-131140000D03*
X80912500Y-131140000D03*
%TD*%
%TO.C,R58*%
X79087500Y-47950000D03*
X80912500Y-47950000D03*
%TD*%
D36*
%TO.C,MH3*%
X141732000Y-196000000D03*
%TD*%
D15*
%TO.C,C23*%
X85000000Y-30950000D03*
X85000000Y-29050000D03*
%TD*%
D20*
%TO.C,J7*%
X8770000Y-147830000D03*
X3690000Y-155450000D03*
D21*
X12580000Y-155450000D03*
X13215000Y-147830000D03*
D22*
X17030000Y-151640000D03*
X6860000Y-159890000D03*
%TD*%
D15*
%TO.C,C1*%
X43000000Y-12950000D03*
X43000000Y-11050000D03*
%TD*%
D25*
%TO.C,R59*%
X79087500Y-75640000D03*
X80912500Y-75640000D03*
%TD*%
%TO.C,R110*%
X95087500Y-99820000D03*
X96912500Y-99820000D03*
%TD*%
%TO.C,R105*%
X36087500Y-186720000D03*
X37912500Y-186720000D03*
%TD*%
D15*
%TO.C,C47*%
X83050000Y-131140000D03*
X84950000Y-131140000D03*
%TD*%
D19*
%TO.C,Q2*%
X91062500Y-43500000D03*
X91062500Y-45400000D03*
X92937500Y-44450000D03*
%TD*%
D20*
%TO.C,J9*%
X136652000Y-44450000D03*
X141732000Y-36830000D03*
D21*
X127762000Y-44450000D03*
X127762000Y-36830000D03*
D22*
X127762000Y-40640000D03*
X132842000Y-40640000D03*
%TD*%
D17*
%TO.C,SW6*%
X50550000Y-136910000D03*
X50550000Y-139450000D03*
X50550000Y-141990000D03*
X59450000Y-141990000D03*
X59450000Y-139450000D03*
X59450000Y-136910000D03*
%TD*%
D16*
%TO.C,D11*%
X31950000Y-68640000D03*
X34050000Y-68640000D03*
%TD*%
%TO.C,D25*%
X31950000Y-186720000D03*
X34050000Y-186720000D03*
%TD*%
%TO.C,D24*%
X99950000Y-186720000D03*
X102050000Y-186720000D03*
%TD*%
D26*
%TO.C,C72*%
X43525000Y-179720000D03*
X46475000Y-179720000D03*
%TD*%
D25*
%TO.C,R112*%
X95087500Y-155450000D03*
X96912500Y-155450000D03*
%TD*%
D16*
%TO.C,D3*%
X99950000Y-68640000D03*
X102050000Y-68640000D03*
%TD*%
D25*
%TO.C,R25*%
X62000000Y-181632500D03*
X62000000Y-179807500D03*
%TD*%
%TO.C,R49*%
X55087500Y-173220000D03*
X56912500Y-173220000D03*
%TD*%
D15*
%TO.C,C59*%
X41000000Y-159900000D03*
X41000000Y-158000000D03*
%TD*%
D25*
%TO.C,R51*%
X59087500Y-62140000D03*
X60912500Y-62140000D03*
%TD*%
D15*
%TO.C,C53*%
X41000000Y-76590000D03*
X41000000Y-74690000D03*
%TD*%
%TO.C,C11*%
X52000000Y-133590000D03*
X52000000Y-131690000D03*
%TD*%
D25*
%TO.C,R56*%
X71087500Y-24000000D03*
X72912500Y-24000000D03*
%TD*%
%TO.C,R22*%
X62000000Y-98232500D03*
X62000000Y-96407500D03*
%TD*%
%TO.C,R69*%
X63087500Y-176220000D03*
X64912500Y-176220000D03*
%TD*%
%TO.C,R40*%
X51087500Y-117640000D03*
X52912500Y-117640000D03*
%TD*%
%TO.C,R102*%
X36087500Y-151950000D03*
X37912500Y-151950000D03*
%TD*%
D26*
%TO.C,C70*%
X43525000Y-151950000D03*
X46475000Y-151950000D03*
%TD*%
D19*
%TO.C,Q7*%
X91062500Y-182270000D03*
X91062500Y-184170000D03*
X92937500Y-183220000D03*
%TD*%
D25*
%TO.C,R107*%
X75087500Y-20000000D03*
X76912500Y-20000000D03*
%TD*%
D15*
%TO.C,C35*%
X69000000Y-114950000D03*
X69000000Y-113050000D03*
%TD*%
%TO.C,C26*%
X72000000Y-40400000D03*
X72000000Y-38500000D03*
%TD*%
D25*
%TO.C,R11*%
X49000000Y-161362500D03*
X49000000Y-159537500D03*
%TD*%
D18*
%TO.C,U11*%
X52525000Y-125735000D03*
X52525000Y-127005000D03*
X52525000Y-128275000D03*
X52525000Y-129545000D03*
X57475000Y-129545000D03*
X57475000Y-128275000D03*
X57475000Y-127005000D03*
X57475000Y-125735000D03*
%TD*%
D20*
%TO.C,J3*%
X8770000Y-36830000D03*
X3690000Y-44450000D03*
D21*
X12580000Y-44450000D03*
X13215000Y-36830000D03*
D22*
X17030000Y-40640000D03*
X6860000Y-48890000D03*
%TD*%
D36*
%TO.C,MH1*%
X4000000Y-4000000D03*
%TD*%
D15*
%TO.C,C10*%
X52000000Y-105770000D03*
X52000000Y-103870000D03*
%TD*%
%TO.C,C25*%
X46000000Y-58950000D03*
X46000000Y-57050000D03*
%TD*%
D25*
%TO.C,R96*%
X36087500Y-68640000D03*
X37912500Y-68640000D03*
%TD*%
D17*
%TO.C,SW2*%
X50550000Y-25910000D03*
X50550000Y-28450000D03*
X50550000Y-30990000D03*
X59450000Y-30990000D03*
X59450000Y-28450000D03*
X59450000Y-25910000D03*
%TD*%
D25*
%TO.C,R88*%
X76000000Y-50362500D03*
X76000000Y-48537500D03*
%TD*%
%TO.C,R81*%
X79087500Y-179720000D03*
X80912500Y-179720000D03*
%TD*%
%TO.C,R5*%
X49000000Y-78052500D03*
X49000000Y-76227500D03*
%TD*%
%TO.C,R104*%
X36087500Y-179720000D03*
X37912500Y-179720000D03*
%TD*%
%TO.C,R24*%
X62000000Y-153862500D03*
X62000000Y-152037500D03*
%TD*%
D15*
%TO.C,C5*%
X52000000Y-123590000D03*
X52000000Y-121690000D03*
%TD*%
D25*
%TO.C,R27*%
X47087500Y-34450000D03*
X48912500Y-34450000D03*
%TD*%
D16*
%TO.C,D9*%
X99950000Y-47950000D03*
X102050000Y-47950000D03*
%TD*%
%TO.C,D13*%
X31950000Y-75640000D03*
X34050000Y-75640000D03*
%TD*%
D20*
%TO.C,J12*%
X136652000Y-127510000D03*
X141732000Y-119890000D03*
D21*
X127762000Y-127510000D03*
X127762000Y-119890000D03*
D22*
X127762000Y-123700000D03*
X132842000Y-123700000D03*
%TD*%
D15*
%TO.C,C19*%
X80000000Y-24950000D03*
X80000000Y-23050000D03*
%TD*%
D28*
%TO.C,C17*%
X78000000Y-13475000D03*
X78000000Y-10525000D03*
%TD*%
D25*
%TO.C,R39*%
X47087500Y-117640000D03*
X48912500Y-117640000D03*
%TD*%
%TO.C,R97*%
X36087500Y-75640000D03*
X37912500Y-75640000D03*
%TD*%
D15*
%TO.C,C45*%
X83050000Y-75640000D03*
X84950000Y-75640000D03*
%TD*%
D25*
%TO.C,R9*%
X49000000Y-133552500D03*
X49000000Y-131727500D03*
%TD*%
%TO.C,R72*%
X62000000Y-103232500D03*
X62000000Y-101407500D03*
%TD*%
%TO.C,R92*%
X76000000Y-161362500D03*
X76000000Y-159537500D03*
%TD*%
D15*
%TO.C,C49*%
X83050000Y-186720000D03*
X84950000Y-186720000D03*
%TD*%
D19*
%TO.C,Q6*%
X91062500Y-154500000D03*
X91062500Y-156400000D03*
X92937500Y-155450000D03*
%TD*%
D37*
%TO.C,C80*%
X68000000Y-22950000D03*
X68000000Y-21050000D03*
%TD*%
D15*
%TO.C,C55*%
X41000000Y-104270000D03*
X41000000Y-102370000D03*
%TD*%
%TO.C,C61*%
X41000000Y-187670000D03*
X41000000Y-185770000D03*
%TD*%
%TO.C,C36*%
X69000000Y-142950000D03*
X69000000Y-141050000D03*
%TD*%
D25*
%TO.C,R65*%
X63087500Y-65140000D03*
X64912500Y-65140000D03*
%TD*%
D16*
%TO.C,D12*%
X99950000Y-75640000D03*
X102050000Y-75640000D03*
%TD*%
D17*
%TO.C,SW4*%
X50550000Y-81280000D03*
X50550000Y-83820000D03*
X50550000Y-86360000D03*
X59450000Y-86360000D03*
X59450000Y-83820000D03*
X59450000Y-81280000D03*
%TD*%
D25*
%TO.C,R89*%
X76000000Y-78052500D03*
X76000000Y-76227500D03*
%TD*%
D15*
%TO.C,C51*%
X41000000Y-48900000D03*
X41000000Y-47000000D03*
%TD*%
D25*
%TO.C,R111*%
X95087500Y-127640000D03*
X96912500Y-127640000D03*
%TD*%
%TO.C,R80*%
X79087500Y-151950000D03*
X80912500Y-151950000D03*
%TD*%
D20*
%TO.C,J14*%
X136652000Y-183130000D03*
X141732000Y-175510000D03*
D21*
X127762000Y-183130000D03*
X127762000Y-175510000D03*
D22*
X127762000Y-179320000D03*
X132842000Y-179320000D03*
%TD*%
D15*
%TO.C,C44*%
X83050000Y-47950000D03*
X84950000Y-47950000D03*
%TD*%
D25*
%TO.C,R50*%
X59087500Y-34450000D03*
X60912500Y-34450000D03*
%TD*%
D18*
%TO.C,U9*%
X52525000Y-70235000D03*
X52525000Y-71505000D03*
X52525000Y-72775000D03*
X52525000Y-74045000D03*
X57475000Y-74045000D03*
X57475000Y-72775000D03*
X57475000Y-71505000D03*
X57475000Y-70235000D03*
%TD*%
D25*
%TO.C,R31*%
X47087500Y-62140000D03*
X48912500Y-62140000D03*
%TD*%
%TO.C,R52*%
X59087500Y-89820000D03*
X60912500Y-89820000D03*
%TD*%
D15*
%TO.C,C75*%
X72000000Y-161400000D03*
X72000000Y-159500000D03*
%TD*%
D25*
%TO.C,R36*%
X51087500Y-89820000D03*
X52912500Y-89820000D03*
%TD*%
D16*
%TO.C,D5*%
X99950000Y-124140000D03*
X102050000Y-124140000D03*
%TD*%
D19*
%TO.C,Q1*%
X71062500Y-15050000D03*
X71062500Y-16950000D03*
X72937500Y-16000000D03*
%TD*%
D26*
%TO.C,C63*%
X43525000Y-47950000D03*
X46475000Y-47950000D03*
%TD*%
D25*
%TO.C,R35*%
X47087500Y-89820000D03*
X48912500Y-89820000D03*
%TD*%
D17*
%TO.C,SW3*%
X50550000Y-53600000D03*
X50550000Y-56140000D03*
X50550000Y-58680000D03*
X59450000Y-58680000D03*
X59450000Y-56140000D03*
X59450000Y-53600000D03*
%TD*%
D26*
%TO.C,C66*%
X43525000Y-96320000D03*
X46475000Y-96320000D03*
%TD*%
D15*
%TO.C,C28*%
X72000000Y-95770000D03*
X72000000Y-93870000D03*
%TD*%
D25*
%TO.C,R85*%
X76000000Y-123552500D03*
X76000000Y-121727500D03*
%TD*%
D38*
%TO.C,U1*%
X88000000Y-19000000D03*
X90540000Y-19000000D03*
X105780000Y-19000000D03*
X110860000Y-19000000D03*
X110860000Y-3760000D03*
X105780000Y-3760000D03*
X90540000Y-3760000D03*
X88000000Y-3760000D03*
%TD*%
D20*
%TO.C,J11*%
X136652000Y-99820000D03*
X141732000Y-92200000D03*
D21*
X127762000Y-99820000D03*
X127762000Y-92200000D03*
D22*
X127762000Y-96010000D03*
X132842000Y-96010000D03*
%TD*%
D25*
%TO.C,R41*%
X55087500Y-117640000D03*
X56912500Y-117640000D03*
%TD*%
D15*
%TO.C,C24*%
X69000000Y-58950000D03*
X69000000Y-57050000D03*
%TD*%
D25*
%TO.C,R63*%
X79087500Y-186720000D03*
X80912500Y-186720000D03*
%TD*%
%TO.C,R109*%
X95087500Y-72140000D03*
X96912500Y-72140000D03*
%TD*%
%TO.C,R8*%
X49000000Y-123552500D03*
X49000000Y-121727500D03*
%TD*%
D15*
%TO.C,C40*%
X83050000Y-96320000D03*
X84950000Y-96320000D03*
%TD*%
D18*
%TO.C,U3*%
X66525000Y-70235000D03*
X66525000Y-71505000D03*
X66525000Y-72775000D03*
X66525000Y-74045000D03*
X71475000Y-74045000D03*
X71475000Y-72775000D03*
X71475000Y-71505000D03*
X71475000Y-70235000D03*
%TD*%
D25*
%TO.C,R23*%
X62000000Y-126052500D03*
X62000000Y-124227500D03*
%TD*%
%TO.C,R82*%
X76000000Y-40362500D03*
X76000000Y-38537500D03*
%TD*%
D15*
%TO.C,C13*%
X52000000Y-189170000D03*
X52000000Y-187270000D03*
%TD*%
%TO.C,C77*%
X82000000Y-32950000D03*
X82000000Y-31050000D03*
%TD*%
%TO.C,C29*%
X72000000Y-123590000D03*
X72000000Y-121690000D03*
%TD*%
D25*
%TO.C,R64*%
X63087500Y-37450000D03*
X64912500Y-37450000D03*
%TD*%
D16*
%TO.C,D2*%
X99950000Y-40950000D03*
X102050000Y-40950000D03*
%TD*%
D25*
%TO.C,R28*%
X51087500Y-34450000D03*
X52912500Y-34450000D03*
%TD*%
D18*
%TO.C,U4*%
X66525000Y-97915000D03*
X66525000Y-99185000D03*
X66525000Y-100455000D03*
X66525000Y-101725000D03*
X71475000Y-101725000D03*
X71475000Y-100455000D03*
X71475000Y-99185000D03*
X71475000Y-97915000D03*
%TD*%
D25*
%TO.C,R6*%
X49000000Y-95732500D03*
X49000000Y-93907500D03*
%TD*%
D36*
%TO.C,MH4*%
X4000000Y-196000000D03*
%TD*%
D25*
%TO.C,R103*%
X36087500Y-158950000D03*
X37912500Y-158950000D03*
%TD*%
%TO.C,R70*%
X62000000Y-47862500D03*
X62000000Y-46037500D03*
%TD*%
D15*
%TO.C,C14*%
X80000000Y-8950000D03*
X80000000Y-7050000D03*
%TD*%
D16*
%TO.C,D19*%
X31950000Y-131140000D03*
X34050000Y-131140000D03*
%TD*%
D25*
%TO.C,R74*%
X62000000Y-158862500D03*
X62000000Y-157037500D03*
%TD*%
%TO.C,R19*%
X49000000Y-184132500D03*
X49000000Y-182307500D03*
%TD*%
D28*
%TO.C,C20*%
X134000000Y-11475000D03*
X134000000Y-8525000D03*
%TD*%
D15*
%TO.C,C41*%
X83050000Y-124140000D03*
X84950000Y-124140000D03*
%TD*%
D25*
%TO.C,R4*%
X49000000Y-68052500D03*
X49000000Y-66227500D03*
%TD*%
D15*
%TO.C,C52*%
X41000000Y-69590000D03*
X41000000Y-67690000D03*
%TD*%
D25*
%TO.C,R91*%
X76000000Y-133552500D03*
X76000000Y-131727500D03*
%TD*%
D15*
%TO.C,C54*%
X41000000Y-97270000D03*
X41000000Y-95370000D03*
%TD*%
D16*
%TO.C,D18*%
X99950000Y-131140000D03*
X102050000Y-131140000D03*
%TD*%
D25*
%TO.C,R47*%
X47087500Y-173220000D03*
X48912500Y-173220000D03*
%TD*%
%TO.C,R3*%
X49000000Y-50362500D03*
X49000000Y-48537500D03*
%TD*%
D39*
%TO.C,C81*%
X135000000Y-26480000D03*
X135000000Y-25520000D03*
%TD*%
D25*
%TO.C,R46*%
X63087500Y-190220000D03*
X64912500Y-190220000D03*
%TD*%
%TO.C,R95*%
X36087500Y-47950000D03*
X37912500Y-47950000D03*
%TD*%
D16*
%TO.C,D14*%
X31950000Y-96320000D03*
X34050000Y-96320000D03*
%TD*%
%TO.C,D10*%
X31950000Y-47950000D03*
X34050000Y-47950000D03*
%TD*%
%TO.C,D6*%
X99950000Y-151950000D03*
X102050000Y-151950000D03*
%TD*%
D25*
%TO.C,R93*%
X76000000Y-189132500D03*
X76000000Y-187307500D03*
%TD*%
D40*
%TO.C,D1*%
X59850000Y-18000000D03*
X64150000Y-18000000D03*
%TD*%
D15*
%TO.C,C74*%
X72000000Y-133590000D03*
X72000000Y-131690000D03*
%TD*%
%TO.C,C33*%
X72000000Y-78090000D03*
X72000000Y-76190000D03*
%TD*%
%TO.C,C46*%
X83050000Y-103320000D03*
X84950000Y-103320000D03*
%TD*%
D25*
%TO.C,R86*%
X76000000Y-151362500D03*
X76000000Y-149537500D03*
%TD*%
D15*
%TO.C,C27*%
X72000000Y-68090000D03*
X72000000Y-66190000D03*
%TD*%
D16*
%TO.C,D15*%
X99950000Y-103320000D03*
X102050000Y-103320000D03*
%TD*%
D29*
%TO.C,FB1*%
X116937500Y-10000000D03*
X119062500Y-10000000D03*
%TD*%
D41*
%TO.C,SW1*%
X55880000Y-8540000D03*
X55880000Y-2540000D03*
X43880000Y-8540000D03*
X43880000Y-2540000D03*
D42*
X53880000Y-6790000D03*
X49880000Y-6790000D03*
X45880000Y-6790000D03*
%TD*%
D26*
%TO.C,C68*%
X43525000Y-124140000D03*
X46475000Y-124140000D03*
%TD*%
D15*
%TO.C,C43*%
X83050000Y-179720000D03*
X84950000Y-179720000D03*
%TD*%
%TO.C,C32*%
X72000000Y-50400000D03*
X72000000Y-48500000D03*
%TD*%
D25*
%TO.C,R71*%
X62000000Y-75552500D03*
X62000000Y-73727500D03*
%TD*%
D15*
%TO.C,C56*%
X41000000Y-125090000D03*
X41000000Y-123190000D03*
%TD*%
D26*
%TO.C,C62*%
X43525000Y-40950000D03*
X46475000Y-40950000D03*
%TD*%
D25*
%TO.C,R2*%
X49000000Y-40362500D03*
X49000000Y-38537500D03*
%TD*%
%TO.C,R14*%
X49000000Y-45362500D03*
X49000000Y-43537500D03*
%TD*%
%TO.C,R30*%
X63087500Y-79140000D03*
X64912500Y-79140000D03*
%TD*%
D18*
%TO.C,U8*%
X52525000Y-42545000D03*
X52525000Y-43815000D03*
X52525000Y-45085000D03*
X52525000Y-46355000D03*
X57475000Y-46355000D03*
X57475000Y-45085000D03*
X57475000Y-43815000D03*
X57475000Y-42545000D03*
%TD*%
D20*
%TO.C,J10*%
X136652000Y-72140000D03*
X141732000Y-64520000D03*
D21*
X127762000Y-72140000D03*
X127762000Y-64520000D03*
D22*
X127762000Y-68330000D03*
X132842000Y-68330000D03*
%TD*%
D25*
%TO.C,R18*%
X49000000Y-156362500D03*
X49000000Y-154537500D03*
%TD*%
%TO.C,R15*%
X49000000Y-73052500D03*
X49000000Y-71227500D03*
%TD*%
%TO.C,R10*%
X49000000Y-151362500D03*
X49000000Y-149537500D03*
%TD*%
%TO.C,R76*%
X79087500Y-40950000D03*
X80912500Y-40950000D03*
%TD*%
D18*
%TO.C,U2*%
X66525000Y-42545000D03*
X66525000Y-43815000D03*
X66525000Y-45085000D03*
X66525000Y-46355000D03*
X71475000Y-46355000D03*
X71475000Y-45085000D03*
X71475000Y-43815000D03*
X71475000Y-42545000D03*
%TD*%
D25*
%TO.C,R26*%
X63087500Y-51450000D03*
X64912500Y-51450000D03*
%TD*%
D15*
%TO.C,C3*%
X52000000Y-68090000D03*
X52000000Y-66190000D03*
%TD*%
D25*
%TO.C,R53*%
X59087500Y-117640000D03*
X60912500Y-117640000D03*
%TD*%
D26*
%TO.C,C69*%
X43525000Y-131140000D03*
X46475000Y-131140000D03*
%TD*%
D36*
%TO.C,MH2*%
X141732000Y-4000000D03*
%TD*%
D18*
%TO.C,U10*%
X52525000Y-97915000D03*
X52525000Y-99185000D03*
X52525000Y-100455000D03*
X52525000Y-101725000D03*
X57475000Y-101725000D03*
X57475000Y-100455000D03*
X57475000Y-99185000D03*
X57475000Y-97915000D03*
%TD*%
D15*
%TO.C,C50*%
X41000000Y-41900000D03*
X41000000Y-40000000D03*
%TD*%
%TO.C,C38*%
X83050000Y-40950000D03*
X84950000Y-40950000D03*
%TD*%
%TO.C,C57*%
X41000000Y-132090000D03*
X41000000Y-130190000D03*
%TD*%
D16*
%TO.C,D20*%
X31950000Y-151950000D03*
X34050000Y-151950000D03*
%TD*%
D20*
%TO.C,J6*%
X8770000Y-120020000D03*
X3690000Y-127640000D03*
D21*
X12580000Y-127640000D03*
X13215000Y-120020000D03*
D22*
X17030000Y-123830000D03*
X6860000Y-132080000D03*
%TD*%
D15*
%TO.C,C39*%
X83050000Y-68640000D03*
X84950000Y-68640000D03*
%TD*%
D26*
%TO.C,C67*%
X43525000Y-103320000D03*
X46475000Y-103320000D03*
%TD*%
D25*
%TO.C,R98*%
X36087500Y-96320000D03*
X37912500Y-96320000D03*
%TD*%
%TO.C,R94*%
X36087500Y-40950000D03*
X37912500Y-40950000D03*
%TD*%
%TO.C,R34*%
X63087500Y-106820000D03*
X64912500Y-106820000D03*
%TD*%
%TO.C,R43*%
X47087500Y-145450000D03*
X48912500Y-145450000D03*
%TD*%
%TO.C,R20*%
X62000000Y-42862500D03*
X62000000Y-41037500D03*
%TD*%
D16*
%TO.C,D7*%
X99950000Y-179720000D03*
X102050000Y-179720000D03*
%TD*%
D25*
%TO.C,R78*%
X79087500Y-96320000D03*
X80912500Y-96320000D03*
%TD*%
%TO.C,R57*%
X75087500Y-24000000D03*
X76912500Y-24000000D03*
%TD*%
%TO.C,R83*%
X76000000Y-68052500D03*
X76000000Y-66227500D03*
%TD*%
%TO.C,R21*%
X62000000Y-70552500D03*
X62000000Y-68727500D03*
%TD*%
D15*
%TO.C,C12*%
X52000000Y-161400000D03*
X52000000Y-159500000D03*
%TD*%
D26*
%TO.C,C65*%
X43525000Y-75640000D03*
X46475000Y-75640000D03*
%TD*%
D15*
%TO.C,C76*%
X72000000Y-189170000D03*
X72000000Y-187270000D03*
%TD*%
D25*
%TO.C,R68*%
X63087500Y-148450000D03*
X64912500Y-148450000D03*
%TD*%
%TO.C,R60*%
X79087500Y-103320000D03*
X80912500Y-103320000D03*
%TD*%
%TO.C,R101*%
X36087500Y-131140000D03*
X37912500Y-131140000D03*
%TD*%
%TO.C,R16*%
X49000000Y-100732500D03*
X49000000Y-98907500D03*
%TD*%
D15*
%TO.C,C15*%
X80000000Y-28950000D03*
X80000000Y-27050000D03*
%TD*%
D25*
%TO.C,R1*%
X39087500Y-15000000D03*
X40912500Y-15000000D03*
%TD*%
D15*
%TO.C,C22*%
X121000000Y-6950000D03*
X121000000Y-5050000D03*
%TD*%
D16*
%TO.C,D16*%
X31950000Y-103320000D03*
X34050000Y-103320000D03*
%TD*%
%LPD*%
M02*
