%TF.GenerationSoftware,KiCad,Pcbnew,9.0.7*%
%TF.CreationDate,2026-03-18T10:36:14+01:00*%
%TF.ProjectId,aurora-dsp-icepower-booster,6175726f-7261-42d6-9473-702d69636570,rev?*%
%TF.SameCoordinates,Original*%
%TF.FileFunction,Legend,Bot*%
%TF.FilePolarity,Positive*%
%FSLAX46Y46*%
G04 Gerber Fmt 4.6, Leading zero omitted, Abs format (unit mm)*
G04 Created by KiCad (PCBNEW 9.0.7) date 2026-03-18 10:36:14*
%MOMM*%
%LPD*%
G01*
G04 APERTURE LIST*
G04 Aperture macros list*
%AMRoundRect*
0 Rectangle with rounded corners*
0 $1 Rounding radius*
0 $2 $3 $4 $5 $6 $7 $8 $9 X,Y pos of 4 corners*
0 Add a 4 corners polygon primitive as box body*
4,1,4,$2,$3,$4,$5,$6,$7,$8,$9,$2,$3,0*
0 Add four circle primitives for the rounded corners*
1,1,$1+$1,$2,$3*
1,1,$1+$1,$4,$5*
1,1,$1+$1,$6,$7*
1,1,$1+$1,$8,$9*
0 Add four rect primitives between the rounded corners*
20,1,$1+$1,$2,$3,$4,$5,0*
20,1,$1+$1,$4,$5,$6,$7,0*
20,1,$1+$1,$6,$7,$8,$9,0*
20,1,$1+$1,$8,$9,$2,$3,0*%
G04 Aperture macros list end*
%ADD10C,1.200000*%
%ADD11C,1.600000*%
%ADD12C,3.400000*%
%ADD13C,2.900000*%
%ADD14R,3.500000X3.500000*%
%ADD15RoundRect,0.750000X-1.000000X0.750000X-1.000000X-0.750000X1.000000X-0.750000X1.000000X0.750000X0*%
%ADD16RoundRect,0.875000X-0.875000X0.875000X-0.875000X-0.875000X0.875000X-0.875000X0.875000X0.875000X0*%
%ADD17RoundRect,0.250000X0.550000X-0.550000X0.550000X0.550000X-0.550000X0.550000X-0.550000X-0.550000X0*%
%ADD18C,6.400000*%
%ADD19C,2.000000*%
%ADD20C,1.700000*%
G04 APERTURE END LIST*
%LPC*%
D10*
%TO.C,J14*%
X117134000Y-7834000D03*
X122134000Y-7834000D03*
%TD*%
D11*
%TO.C,J9*%
X191524000Y-90170000D03*
X196604000Y-82550000D03*
D12*
X182634000Y-90170000D03*
X182634000Y-82550000D03*
D13*
X182634000Y-86360000D03*
X187714000Y-86360000D03*
%TD*%
D11*
%TO.C,J11*%
X191524000Y-150170000D03*
X196604000Y-142550000D03*
D12*
X182634000Y-150170000D03*
X182634000Y-142550000D03*
D13*
X182634000Y-146360000D03*
X187714000Y-146360000D03*
%TD*%
D14*
%TO.C,J13*%
X78681500Y-10318000D03*
D15*
X78681500Y-4318000D03*
D16*
X73981500Y-7318000D03*
%TD*%
D11*
%TO.C,J6*%
X8190000Y-172380000D03*
X3110000Y-180000000D03*
D12*
X12000000Y-180000000D03*
X12635000Y-172380000D03*
D13*
X16450000Y-176190000D03*
X6280000Y-184440000D03*
%TD*%
D11*
%TO.C,J3*%
X8190000Y-82380000D03*
X3110000Y-90000000D03*
D12*
X12000000Y-90000000D03*
X12635000Y-82380000D03*
D13*
X16450000Y-86190000D03*
X6280000Y-94440000D03*
%TD*%
D11*
%TO.C,J5*%
X8190000Y-142380000D03*
X3110000Y-150000000D03*
D12*
X12000000Y-150000000D03*
X12635000Y-142380000D03*
D13*
X16450000Y-146190000D03*
X6280000Y-154440000D03*
%TD*%
D11*
%TO.C,J10*%
X191524000Y-120170000D03*
X196604000Y-112550000D03*
D12*
X182634000Y-120170000D03*
X182634000Y-112550000D03*
D13*
X182634000Y-116360000D03*
X187714000Y-116360000D03*
%TD*%
D17*
%TO.C,U13*%
X35000000Y-18000000D03*
D11*
X37540000Y-18000000D03*
X40080000Y-18000000D03*
X42620000Y-18000000D03*
X45160000Y-18000000D03*
X47700000Y-18000000D03*
X50240000Y-18000000D03*
X52780000Y-18000000D03*
X55320000Y-18000000D03*
X57860000Y-18000000D03*
X60400000Y-18000000D03*
X62940000Y-18000000D03*
X62940000Y-2760000D03*
X60400000Y-2760000D03*
X57860000Y-2760000D03*
X55320000Y-2760000D03*
X52780000Y-2760000D03*
X50240000Y-2760000D03*
X47700000Y-2760000D03*
X45160000Y-2760000D03*
X42620000Y-2760000D03*
X40080000Y-2760000D03*
X37540000Y-2760000D03*
X35000000Y-2760000D03*
%TD*%
D18*
%TO.C,MH2*%
X195000000Y-5000000D03*
%TD*%
%TO.C,MH1*%
X5000000Y-5000000D03*
%TD*%
D11*
%TO.C,J4*%
X8190000Y-112380000D03*
X3110000Y-120000000D03*
D12*
X12000000Y-120000000D03*
X12635000Y-112380000D03*
D13*
X16450000Y-116190000D03*
X6280000Y-124440000D03*
%TD*%
D11*
%TO.C,J8*%
X191524000Y-60170000D03*
X196604000Y-52550000D03*
D12*
X182634000Y-60170000D03*
X182634000Y-52550000D03*
D13*
X182634000Y-56360000D03*
X187714000Y-56360000D03*
%TD*%
D11*
%TO.C,J7*%
X191524000Y-30170000D03*
X196604000Y-22550000D03*
D12*
X182634000Y-30170000D03*
X182634000Y-22550000D03*
D13*
X182634000Y-26360000D03*
X187714000Y-26360000D03*
%TD*%
D18*
%TO.C,MH4*%
X195000000Y-195000000D03*
%TD*%
D11*
%TO.C,J12*%
X191524000Y-180170000D03*
X196604000Y-172550000D03*
D12*
X182634000Y-180170000D03*
X182634000Y-172550000D03*
D13*
X182634000Y-176360000D03*
X187714000Y-176360000D03*
%TD*%
D19*
%TO.C,SW7*%
X101758000Y-10640000D03*
X101758000Y-4640000D03*
X89758000Y-10640000D03*
X89758000Y-4640000D03*
D20*
X99758000Y-8890000D03*
X95758000Y-8890000D03*
X91758000Y-8890000D03*
%TD*%
D11*
%TO.C,J2*%
X8190000Y-52380000D03*
X3110000Y-60000000D03*
D12*
X12000000Y-60000000D03*
X12635000Y-52380000D03*
D13*
X16450000Y-56190000D03*
X6280000Y-64440000D03*
%TD*%
D18*
%TO.C,MH3*%
X5000000Y-195000000D03*
%TD*%
D11*
%TO.C,J1*%
X8190000Y-22380000D03*
X3110000Y-30000000D03*
D12*
X12000000Y-30000000D03*
X12635000Y-22380000D03*
D13*
X16450000Y-26190000D03*
X6280000Y-34440000D03*
%TD*%
%LPD*%
M02*
