M48
; DRILL file {KiCad 9.0.7} date 2026-03-23T16:49:00+0100
; FORMAT={-:-/ absolute / metric / decimal}
; #@! TF.CreationDate,2026-03-23T16:49:00+01:00
; #@! TF.GenerationSoftware,Kicad,Pcbnew,9.0.7
; #@! TF.FileFunction,NonPlated,1,2,NPTH
FMAT,2
METRIC
; #@! TA.AperFunction,NonPlated,NPTH,ComponentDrill
T1C1.500
; #@! TA.AperFunction,NonPlated,NPTH,ComponentDrill
T2C1.600
; #@! TA.AperFunction,NonPlated,NPTH,ComponentDrill
T3C3.200
%
G90
G05
T1
X16.256Y-3.446
X16.256Y-10.146
X32.512Y-3.539
X32.512Y-10.239
T2
X3.69Y-44.45
X3.69Y-72.14
X3.69Y-99.82
X3.69Y-127.64
X3.69Y-155.45
X3.69Y-183.22
X8.77Y-36.83
X8.77Y-64.52
X8.77Y-92.2
X8.77Y-120.02
X8.77Y-147.83
X8.77Y-175.6
X136.652Y-44.45
X136.652Y-72.14
X136.652Y-99.82
X136.652Y-127.51
X136.652Y-155.45
X136.652Y-183.13
X141.732Y-36.83
X141.732Y-64.52
X141.732Y-92.2
X141.732Y-119.89
X141.732Y-147.83
X141.732Y-175.51
T3
X4.0Y-4.0
X4.0Y-196.0
X141.732Y-4.0
X141.732Y-196.0
M30
