%TF.GenerationSoftware,KiCad,Pcbnew,9.0.7*%
%TF.CreationDate,2026-03-22T09:53:22+01:00*%
%TF.ProjectId,aurora-dsp-icepower-booster,6175726f-7261-42d6-9473-702d69636570,rev?*%
%TF.SameCoordinates,Original*%
%TF.FileFunction,Legend,Bot*%
%TF.FilePolarity,Positive*%
%FSLAX46Y46*%
G04 Gerber Fmt 4.6, Leading zero omitted, Abs format (unit mm)*
G04 Created by KiCad (PCBNEW 9.0.7) date 2026-03-22 09:53:22*
%MOMM*%
%LPD*%
G01*
G04 APERTURE LIST*
G04 Aperture macros list*
%AMRoundRect*
0 Rectangle with rounded corners*
0 $1 Rounding radius*
0 $2 $3 $4 $5 $6 $7 $8 $9 X,Y pos of 4 corners*
0 Add a 4 corners polygon primitive as box body*
4,1,4,$2,$3,$4,$5,$6,$7,$8,$9,$2,$3,0*
0 Add four circle primitives for the rounded corners*
1,1,$1+$1,$2,$3*
1,1,$1+$1,$4,$5*
1,1,$1+$1,$6,$7*
1,1,$1+$1,$8,$9*
0 Add four rect primitives between the rounded corners*
20,1,$1+$1,$2,$3,$4,$5,0*
20,1,$1+$1,$4,$5,$6,$7,0*
20,1,$1+$1,$6,$7,$8,$9,0*
20,1,$1+$1,$8,$9,$2,$3,0*%
G04 Aperture macros list end*
%ADD10C,0.150000*%
%ADD11C,1.600000*%
%ADD12C,3.400000*%
%ADD13C,2.900000*%
%ADD14R,3.500000X3.500000*%
%ADD15RoundRect,0.750000X-1.000000X0.750000X-1.000000X-0.750000X1.000000X-0.750000X1.000000X0.750000X0*%
%ADD16RoundRect,0.875000X-0.875000X0.875000X-0.875000X-0.875000X0.875000X-0.875000X0.875000X0.875000X0*%
%ADD17C,1.200000*%
%ADD18C,3.200000*%
%ADD19C,1.320800*%
%ADD20C,2.000000*%
%ADD21C,1.700000*%
G04 APERTURE END LIST*
D10*
X26247714Y-199547342D02*
X26647714Y-198975914D01*
X26933428Y-199547342D02*
X26933428Y-198347342D01*
X26933428Y-198347342D02*
X26476285Y-198347342D01*
X26476285Y-198347342D02*
X26362000Y-198404485D01*
X26362000Y-198404485D02*
X26304857Y-198461628D01*
X26304857Y-198461628D02*
X26247714Y-198575914D01*
X26247714Y-198575914D02*
X26247714Y-198747342D01*
X26247714Y-198747342D02*
X26304857Y-198861628D01*
X26304857Y-198861628D02*
X26362000Y-198918771D01*
X26362000Y-198918771D02*
X26476285Y-198975914D01*
X26476285Y-198975914D02*
X26933428Y-198975914D01*
X25276285Y-199490200D02*
X25390571Y-199547342D01*
X25390571Y-199547342D02*
X25619143Y-199547342D01*
X25619143Y-199547342D02*
X25733428Y-199490200D01*
X25733428Y-199490200D02*
X25790571Y-199375914D01*
X25790571Y-199375914D02*
X25790571Y-198918771D01*
X25790571Y-198918771D02*
X25733428Y-198804485D01*
X25733428Y-198804485D02*
X25619143Y-198747342D01*
X25619143Y-198747342D02*
X25390571Y-198747342D01*
X25390571Y-198747342D02*
X25276285Y-198804485D01*
X25276285Y-198804485D02*
X25219143Y-198918771D01*
X25219143Y-198918771D02*
X25219143Y-199033057D01*
X25219143Y-199033057D02*
X25790571Y-199147342D01*
X24819143Y-198747342D02*
X24533429Y-199547342D01*
X24533429Y-199547342D02*
X24247714Y-198747342D01*
X22247714Y-199547342D02*
X22933428Y-199547342D01*
X22590571Y-199547342D02*
X22590571Y-198347342D01*
X22590571Y-198347342D02*
X22704857Y-198518771D01*
X22704857Y-198518771D02*
X22819142Y-198633057D01*
X22819142Y-198633057D02*
X22933428Y-198690200D01*
X21733428Y-199433057D02*
X21676285Y-199490200D01*
X21676285Y-199490200D02*
X21733428Y-199547342D01*
X21733428Y-199547342D02*
X21790571Y-199490200D01*
X21790571Y-199490200D02*
X21733428Y-199433057D01*
X21733428Y-199433057D02*
X21733428Y-199547342D01*
X20933428Y-198347342D02*
X20819142Y-198347342D01*
X20819142Y-198347342D02*
X20704856Y-198404485D01*
X20704856Y-198404485D02*
X20647714Y-198461628D01*
X20647714Y-198461628D02*
X20590571Y-198575914D01*
X20590571Y-198575914D02*
X20533428Y-198804485D01*
X20533428Y-198804485D02*
X20533428Y-199090200D01*
X20533428Y-199090200D02*
X20590571Y-199318771D01*
X20590571Y-199318771D02*
X20647714Y-199433057D01*
X20647714Y-199433057D02*
X20704856Y-199490200D01*
X20704856Y-199490200D02*
X20819142Y-199547342D01*
X20819142Y-199547342D02*
X20933428Y-199547342D01*
X20933428Y-199547342D02*
X21047714Y-199490200D01*
X21047714Y-199490200D02*
X21104856Y-199433057D01*
X21104856Y-199433057D02*
X21161999Y-199318771D01*
X21161999Y-199318771D02*
X21219142Y-199090200D01*
X21219142Y-199090200D02*
X21219142Y-198804485D01*
X21219142Y-198804485D02*
X21161999Y-198575914D01*
X21161999Y-198575914D02*
X21104856Y-198461628D01*
X21104856Y-198461628D02*
X21047714Y-198404485D01*
X21047714Y-198404485D02*
X20933428Y-198347342D01*
X36933426Y-197204485D02*
X36361998Y-197204485D01*
X37047712Y-197547342D02*
X36647712Y-196347342D01*
X36647712Y-196347342D02*
X36247712Y-197547342D01*
X35333427Y-196747342D02*
X35333427Y-197547342D01*
X35847712Y-196747342D02*
X35847712Y-197375914D01*
X35847712Y-197375914D02*
X35790569Y-197490200D01*
X35790569Y-197490200D02*
X35676284Y-197547342D01*
X35676284Y-197547342D02*
X35504855Y-197547342D01*
X35504855Y-197547342D02*
X35390569Y-197490200D01*
X35390569Y-197490200D02*
X35333427Y-197433057D01*
X34761998Y-197547342D02*
X34761998Y-196747342D01*
X34761998Y-196975914D02*
X34704855Y-196861628D01*
X34704855Y-196861628D02*
X34647713Y-196804485D01*
X34647713Y-196804485D02*
X34533427Y-196747342D01*
X34533427Y-196747342D02*
X34419141Y-196747342D01*
X33847713Y-197547342D02*
X33961998Y-197490200D01*
X33961998Y-197490200D02*
X34019141Y-197433057D01*
X34019141Y-197433057D02*
X34076284Y-197318771D01*
X34076284Y-197318771D02*
X34076284Y-196975914D01*
X34076284Y-196975914D02*
X34019141Y-196861628D01*
X34019141Y-196861628D02*
X33961998Y-196804485D01*
X33961998Y-196804485D02*
X33847713Y-196747342D01*
X33847713Y-196747342D02*
X33676284Y-196747342D01*
X33676284Y-196747342D02*
X33561998Y-196804485D01*
X33561998Y-196804485D02*
X33504856Y-196861628D01*
X33504856Y-196861628D02*
X33447713Y-196975914D01*
X33447713Y-196975914D02*
X33447713Y-197318771D01*
X33447713Y-197318771D02*
X33504856Y-197433057D01*
X33504856Y-197433057D02*
X33561998Y-197490200D01*
X33561998Y-197490200D02*
X33676284Y-197547342D01*
X33676284Y-197547342D02*
X33847713Y-197547342D01*
X32933427Y-197547342D02*
X32933427Y-196747342D01*
X32933427Y-196975914D02*
X32876284Y-196861628D01*
X32876284Y-196861628D02*
X32819142Y-196804485D01*
X32819142Y-196804485D02*
X32704856Y-196747342D01*
X32704856Y-196747342D02*
X32590570Y-196747342D01*
X31676285Y-197547342D02*
X31676285Y-196918771D01*
X31676285Y-196918771D02*
X31733427Y-196804485D01*
X31733427Y-196804485D02*
X31847713Y-196747342D01*
X31847713Y-196747342D02*
X32076285Y-196747342D01*
X32076285Y-196747342D02*
X32190570Y-196804485D01*
X31676285Y-197490200D02*
X31790570Y-197547342D01*
X31790570Y-197547342D02*
X32076285Y-197547342D01*
X32076285Y-197547342D02*
X32190570Y-197490200D01*
X32190570Y-197490200D02*
X32247713Y-197375914D01*
X32247713Y-197375914D02*
X32247713Y-197261628D01*
X32247713Y-197261628D02*
X32190570Y-197147342D01*
X32190570Y-197147342D02*
X32076285Y-197090200D01*
X32076285Y-197090200D02*
X31790570Y-197090200D01*
X31790570Y-197090200D02*
X31676285Y-197033057D01*
X30190570Y-197547342D02*
X30190570Y-196347342D01*
X30190570Y-196347342D02*
X29904856Y-196347342D01*
X29904856Y-196347342D02*
X29733427Y-196404485D01*
X29733427Y-196404485D02*
X29619142Y-196518771D01*
X29619142Y-196518771D02*
X29561999Y-196633057D01*
X29561999Y-196633057D02*
X29504856Y-196861628D01*
X29504856Y-196861628D02*
X29504856Y-197033057D01*
X29504856Y-197033057D02*
X29561999Y-197261628D01*
X29561999Y-197261628D02*
X29619142Y-197375914D01*
X29619142Y-197375914D02*
X29733427Y-197490200D01*
X29733427Y-197490200D02*
X29904856Y-197547342D01*
X29904856Y-197547342D02*
X30190570Y-197547342D01*
X29047713Y-197490200D02*
X28876285Y-197547342D01*
X28876285Y-197547342D02*
X28590570Y-197547342D01*
X28590570Y-197547342D02*
X28476285Y-197490200D01*
X28476285Y-197490200D02*
X28419142Y-197433057D01*
X28419142Y-197433057D02*
X28361999Y-197318771D01*
X28361999Y-197318771D02*
X28361999Y-197204485D01*
X28361999Y-197204485D02*
X28419142Y-197090200D01*
X28419142Y-197090200D02*
X28476285Y-197033057D01*
X28476285Y-197033057D02*
X28590570Y-196975914D01*
X28590570Y-196975914D02*
X28819142Y-196918771D01*
X28819142Y-196918771D02*
X28933427Y-196861628D01*
X28933427Y-196861628D02*
X28990570Y-196804485D01*
X28990570Y-196804485D02*
X29047713Y-196690200D01*
X29047713Y-196690200D02*
X29047713Y-196575914D01*
X29047713Y-196575914D02*
X28990570Y-196461628D01*
X28990570Y-196461628D02*
X28933427Y-196404485D01*
X28933427Y-196404485D02*
X28819142Y-196347342D01*
X28819142Y-196347342D02*
X28533427Y-196347342D01*
X28533427Y-196347342D02*
X28361999Y-196404485D01*
X27847713Y-197547342D02*
X27847713Y-196347342D01*
X27847713Y-196347342D02*
X27390570Y-196347342D01*
X27390570Y-196347342D02*
X27276285Y-196404485D01*
X27276285Y-196404485D02*
X27219142Y-196461628D01*
X27219142Y-196461628D02*
X27161999Y-196575914D01*
X27161999Y-196575914D02*
X27161999Y-196747342D01*
X27161999Y-196747342D02*
X27219142Y-196861628D01*
X27219142Y-196861628D02*
X27276285Y-196918771D01*
X27276285Y-196918771D02*
X27390570Y-196975914D01*
X27390570Y-196975914D02*
X27847713Y-196975914D01*
X25733427Y-197547342D02*
X25733427Y-196347342D01*
X24647713Y-197490200D02*
X24761998Y-197547342D01*
X24761998Y-197547342D02*
X24990570Y-197547342D01*
X24990570Y-197547342D02*
X25104855Y-197490200D01*
X25104855Y-197490200D02*
X25161998Y-197433057D01*
X25161998Y-197433057D02*
X25219141Y-197318771D01*
X25219141Y-197318771D02*
X25219141Y-196975914D01*
X25219141Y-196975914D02*
X25161998Y-196861628D01*
X25161998Y-196861628D02*
X25104855Y-196804485D01*
X25104855Y-196804485D02*
X24990570Y-196747342D01*
X24990570Y-196747342D02*
X24761998Y-196747342D01*
X24761998Y-196747342D02*
X24647713Y-196804485D01*
X23676284Y-197490200D02*
X23790570Y-197547342D01*
X23790570Y-197547342D02*
X24019142Y-197547342D01*
X24019142Y-197547342D02*
X24133427Y-197490200D01*
X24133427Y-197490200D02*
X24190570Y-197375914D01*
X24190570Y-197375914D02*
X24190570Y-196918771D01*
X24190570Y-196918771D02*
X24133427Y-196804485D01*
X24133427Y-196804485D02*
X24019142Y-196747342D01*
X24019142Y-196747342D02*
X23790570Y-196747342D01*
X23790570Y-196747342D02*
X23676284Y-196804485D01*
X23676284Y-196804485D02*
X23619142Y-196918771D01*
X23619142Y-196918771D02*
X23619142Y-197033057D01*
X23619142Y-197033057D02*
X24190570Y-197147342D01*
X23104856Y-197547342D02*
X23104856Y-196347342D01*
X23104856Y-196347342D02*
X22647713Y-196347342D01*
X22647713Y-196347342D02*
X22533428Y-196404485D01*
X22533428Y-196404485D02*
X22476285Y-196461628D01*
X22476285Y-196461628D02*
X22419142Y-196575914D01*
X22419142Y-196575914D02*
X22419142Y-196747342D01*
X22419142Y-196747342D02*
X22476285Y-196861628D01*
X22476285Y-196861628D02*
X22533428Y-196918771D01*
X22533428Y-196918771D02*
X22647713Y-196975914D01*
X22647713Y-196975914D02*
X23104856Y-196975914D01*
X21733428Y-197547342D02*
X21847713Y-197490200D01*
X21847713Y-197490200D02*
X21904856Y-197433057D01*
X21904856Y-197433057D02*
X21961999Y-197318771D01*
X21961999Y-197318771D02*
X21961999Y-196975914D01*
X21961999Y-196975914D02*
X21904856Y-196861628D01*
X21904856Y-196861628D02*
X21847713Y-196804485D01*
X21847713Y-196804485D02*
X21733428Y-196747342D01*
X21733428Y-196747342D02*
X21561999Y-196747342D01*
X21561999Y-196747342D02*
X21447713Y-196804485D01*
X21447713Y-196804485D02*
X21390571Y-196861628D01*
X21390571Y-196861628D02*
X21333428Y-196975914D01*
X21333428Y-196975914D02*
X21333428Y-197318771D01*
X21333428Y-197318771D02*
X21390571Y-197433057D01*
X21390571Y-197433057D02*
X21447713Y-197490200D01*
X21447713Y-197490200D02*
X21561999Y-197547342D01*
X21561999Y-197547342D02*
X21733428Y-197547342D01*
X20933428Y-196747342D02*
X20704857Y-197547342D01*
X20704857Y-197547342D02*
X20476285Y-196975914D01*
X20476285Y-196975914D02*
X20247714Y-197547342D01*
X20247714Y-197547342D02*
X20019142Y-196747342D01*
X19104856Y-197490200D02*
X19219142Y-197547342D01*
X19219142Y-197547342D02*
X19447714Y-197547342D01*
X19447714Y-197547342D02*
X19561999Y-197490200D01*
X19561999Y-197490200D02*
X19619142Y-197375914D01*
X19619142Y-197375914D02*
X19619142Y-196918771D01*
X19619142Y-196918771D02*
X19561999Y-196804485D01*
X19561999Y-196804485D02*
X19447714Y-196747342D01*
X19447714Y-196747342D02*
X19219142Y-196747342D01*
X19219142Y-196747342D02*
X19104856Y-196804485D01*
X19104856Y-196804485D02*
X19047714Y-196918771D01*
X19047714Y-196918771D02*
X19047714Y-197033057D01*
X19047714Y-197033057D02*
X19619142Y-197147342D01*
X18533428Y-197547342D02*
X18533428Y-196747342D01*
X18533428Y-196975914D02*
X18476285Y-196861628D01*
X18476285Y-196861628D02*
X18419143Y-196804485D01*
X18419143Y-196804485D02*
X18304857Y-196747342D01*
X18304857Y-196747342D02*
X18190571Y-196747342D01*
X16476285Y-196918771D02*
X16304857Y-196975914D01*
X16304857Y-196975914D02*
X16247714Y-197033057D01*
X16247714Y-197033057D02*
X16190571Y-197147342D01*
X16190571Y-197147342D02*
X16190571Y-197318771D01*
X16190571Y-197318771D02*
X16247714Y-197433057D01*
X16247714Y-197433057D02*
X16304857Y-197490200D01*
X16304857Y-197490200D02*
X16419142Y-197547342D01*
X16419142Y-197547342D02*
X16876285Y-197547342D01*
X16876285Y-197547342D02*
X16876285Y-196347342D01*
X16876285Y-196347342D02*
X16476285Y-196347342D01*
X16476285Y-196347342D02*
X16362000Y-196404485D01*
X16362000Y-196404485D02*
X16304857Y-196461628D01*
X16304857Y-196461628D02*
X16247714Y-196575914D01*
X16247714Y-196575914D02*
X16247714Y-196690200D01*
X16247714Y-196690200D02*
X16304857Y-196804485D01*
X16304857Y-196804485D02*
X16362000Y-196861628D01*
X16362000Y-196861628D02*
X16476285Y-196918771D01*
X16476285Y-196918771D02*
X16876285Y-196918771D01*
X15504857Y-197547342D02*
X15619142Y-197490200D01*
X15619142Y-197490200D02*
X15676285Y-197433057D01*
X15676285Y-197433057D02*
X15733428Y-197318771D01*
X15733428Y-197318771D02*
X15733428Y-196975914D01*
X15733428Y-196975914D02*
X15676285Y-196861628D01*
X15676285Y-196861628D02*
X15619142Y-196804485D01*
X15619142Y-196804485D02*
X15504857Y-196747342D01*
X15504857Y-196747342D02*
X15333428Y-196747342D01*
X15333428Y-196747342D02*
X15219142Y-196804485D01*
X15219142Y-196804485D02*
X15162000Y-196861628D01*
X15162000Y-196861628D02*
X15104857Y-196975914D01*
X15104857Y-196975914D02*
X15104857Y-197318771D01*
X15104857Y-197318771D02*
X15162000Y-197433057D01*
X15162000Y-197433057D02*
X15219142Y-197490200D01*
X15219142Y-197490200D02*
X15333428Y-197547342D01*
X15333428Y-197547342D02*
X15504857Y-197547342D01*
X14419143Y-197547342D02*
X14533428Y-197490200D01*
X14533428Y-197490200D02*
X14590571Y-197433057D01*
X14590571Y-197433057D02*
X14647714Y-197318771D01*
X14647714Y-197318771D02*
X14647714Y-196975914D01*
X14647714Y-196975914D02*
X14590571Y-196861628D01*
X14590571Y-196861628D02*
X14533428Y-196804485D01*
X14533428Y-196804485D02*
X14419143Y-196747342D01*
X14419143Y-196747342D02*
X14247714Y-196747342D01*
X14247714Y-196747342D02*
X14133428Y-196804485D01*
X14133428Y-196804485D02*
X14076286Y-196861628D01*
X14076286Y-196861628D02*
X14019143Y-196975914D01*
X14019143Y-196975914D02*
X14019143Y-197318771D01*
X14019143Y-197318771D02*
X14076286Y-197433057D01*
X14076286Y-197433057D02*
X14133428Y-197490200D01*
X14133428Y-197490200D02*
X14247714Y-197547342D01*
X14247714Y-197547342D02*
X14419143Y-197547342D01*
X13562000Y-197490200D02*
X13447714Y-197547342D01*
X13447714Y-197547342D02*
X13219143Y-197547342D01*
X13219143Y-197547342D02*
X13104857Y-197490200D01*
X13104857Y-197490200D02*
X13047714Y-197375914D01*
X13047714Y-197375914D02*
X13047714Y-197318771D01*
X13047714Y-197318771D02*
X13104857Y-197204485D01*
X13104857Y-197204485D02*
X13219143Y-197147342D01*
X13219143Y-197147342D02*
X13390572Y-197147342D01*
X13390572Y-197147342D02*
X13504857Y-197090200D01*
X13504857Y-197090200D02*
X13562000Y-196975914D01*
X13562000Y-196975914D02*
X13562000Y-196918771D01*
X13562000Y-196918771D02*
X13504857Y-196804485D01*
X13504857Y-196804485D02*
X13390572Y-196747342D01*
X13390572Y-196747342D02*
X13219143Y-196747342D01*
X13219143Y-196747342D02*
X13104857Y-196804485D01*
X12704857Y-196747342D02*
X12247714Y-196747342D01*
X12533428Y-196347342D02*
X12533428Y-197375914D01*
X12533428Y-197375914D02*
X12476285Y-197490200D01*
X12476285Y-197490200D02*
X12362000Y-197547342D01*
X12362000Y-197547342D02*
X12247714Y-197547342D01*
X11390571Y-197490200D02*
X11504857Y-197547342D01*
X11504857Y-197547342D02*
X11733429Y-197547342D01*
X11733429Y-197547342D02*
X11847714Y-197490200D01*
X11847714Y-197490200D02*
X11904857Y-197375914D01*
X11904857Y-197375914D02*
X11904857Y-196918771D01*
X11904857Y-196918771D02*
X11847714Y-196804485D01*
X11847714Y-196804485D02*
X11733429Y-196747342D01*
X11733429Y-196747342D02*
X11504857Y-196747342D01*
X11504857Y-196747342D02*
X11390571Y-196804485D01*
X11390571Y-196804485D02*
X11333429Y-196918771D01*
X11333429Y-196918771D02*
X11333429Y-197033057D01*
X11333429Y-197033057D02*
X11904857Y-197147342D01*
X10819143Y-197547342D02*
X10819143Y-196747342D01*
X10819143Y-196975914D02*
X10762000Y-196861628D01*
X10762000Y-196861628D02*
X10704858Y-196804485D01*
X10704858Y-196804485D02*
X10590572Y-196747342D01*
X10590572Y-196747342D02*
X10476286Y-196747342D01*
%LPC*%
D11*
%TO.C,J13*%
X136652000Y-155450000D03*
X141732000Y-147830000D03*
D12*
X127762000Y-155450000D03*
X127762000Y-147830000D03*
D13*
X127762000Y-151640000D03*
X132842000Y-151640000D03*
%TD*%
D11*
%TO.C,J4*%
X8770000Y-64520000D03*
X3690000Y-72140000D03*
D12*
X12580000Y-72140000D03*
X13215000Y-64520000D03*
D13*
X17030000Y-68330000D03*
X6860000Y-76580000D03*
%TD*%
D14*
%TO.C,J1*%
X70870000Y-10830000D03*
D15*
X70870000Y-4830000D03*
D16*
X66170000Y-7830000D03*
%TD*%
D11*
%TO.C,J8*%
X8770000Y-175600000D03*
X3690000Y-183220000D03*
D12*
X12580000Y-183220000D03*
X13215000Y-175600000D03*
D13*
X17030000Y-179410000D03*
X6860000Y-187660000D03*
%TD*%
D17*
%TO.C,J2*%
X27970000Y-7580000D03*
X32970000Y-7580000D03*
%TD*%
D11*
%TO.C,J5*%
X8770000Y-92200000D03*
X3690000Y-99820000D03*
D12*
X12580000Y-99820000D03*
X13215000Y-92200000D03*
D13*
X17030000Y-96010000D03*
X6860000Y-104260000D03*
%TD*%
D18*
%TO.C,MH3*%
X141732000Y-196000000D03*
%TD*%
D11*
%TO.C,J7*%
X8770000Y-147830000D03*
X3690000Y-155450000D03*
D12*
X12580000Y-155450000D03*
X13215000Y-147830000D03*
D13*
X17030000Y-151640000D03*
X6860000Y-159890000D03*
%TD*%
D11*
%TO.C,J9*%
X136652000Y-44450000D03*
X141732000Y-36830000D03*
D12*
X127762000Y-44450000D03*
X127762000Y-36830000D03*
D13*
X127762000Y-40640000D03*
X132842000Y-40640000D03*
%TD*%
D11*
%TO.C,J3*%
X8770000Y-36830000D03*
X3690000Y-44450000D03*
D12*
X12580000Y-44450000D03*
X13215000Y-36830000D03*
D13*
X17030000Y-40640000D03*
X6860000Y-48890000D03*
%TD*%
D18*
%TO.C,MH1*%
X4000000Y-4000000D03*
%TD*%
D11*
%TO.C,J12*%
X136652000Y-127510000D03*
X141732000Y-119890000D03*
D12*
X127762000Y-127510000D03*
X127762000Y-119890000D03*
D13*
X127762000Y-123700000D03*
X132842000Y-123700000D03*
%TD*%
D11*
%TO.C,J14*%
X136652000Y-183130000D03*
X141732000Y-175510000D03*
D12*
X127762000Y-183130000D03*
X127762000Y-175510000D03*
D13*
X127762000Y-179320000D03*
X132842000Y-179320000D03*
%TD*%
D19*
%TO.C,U1*%
X88000000Y-19000000D03*
X90540000Y-19000000D03*
X105780000Y-19000000D03*
X110860000Y-19000000D03*
X110860000Y-3760000D03*
X105780000Y-3760000D03*
X90540000Y-3760000D03*
X88000000Y-3760000D03*
%TD*%
D11*
%TO.C,J11*%
X136652000Y-99820000D03*
X141732000Y-92200000D03*
D12*
X127762000Y-99820000D03*
X127762000Y-92200000D03*
D13*
X127762000Y-96010000D03*
X132842000Y-96010000D03*
%TD*%
D18*
%TO.C,MH4*%
X4000000Y-196000000D03*
%TD*%
D20*
%TO.C,SW1*%
X55880000Y-8540000D03*
X55880000Y-2540000D03*
X43880000Y-8540000D03*
X43880000Y-2540000D03*
D21*
X53880000Y-6790000D03*
X49880000Y-6790000D03*
X45880000Y-6790000D03*
%TD*%
D11*
%TO.C,J10*%
X136652000Y-72140000D03*
X141732000Y-64520000D03*
D12*
X127762000Y-72140000D03*
X127762000Y-64520000D03*
D13*
X127762000Y-68330000D03*
X132842000Y-68330000D03*
%TD*%
D18*
%TO.C,MH2*%
X141732000Y-4000000D03*
%TD*%
D11*
%TO.C,J6*%
X8770000Y-120020000D03*
X3690000Y-127640000D03*
D12*
X12580000Y-127640000D03*
X13215000Y-120020000D03*
D13*
X17030000Y-123830000D03*
X6860000Y-132080000D03*
%TD*%
%LPD*%
M02*
