M48
; DRILL file {KiCad 9.0.7} date 2026-03-21T14:11:34+0100
; FORMAT={-:-/ absolute / metric / decimal}
; #@! TF.CreationDate,2026-03-21T14:11:34+01:00
; #@! TF.GenerationSoftware,Kicad,Pcbnew,9.0.7
; #@! TF.FileFunction,MixedPlating,1,2
FMAT,2
METRIC
; #@! TA.AperFunction,Plated,PTH,ViaDrill
T1C0.300
; #@! TA.AperFunction,Plated,PTH,ViaDrill
T2C0.400
; #@! TA.AperFunction,Plated,PTH,ComponentDrill
T3C0.813
; #@! TA.AperFunction,Plated,PTH,ComponentDrill
T4C0.900
; #@! TA.AperFunction,Plated,PTH,ComponentDrill
T5C1.000
; #@! TA.AperFunction,Plated,PTH,ComponentDrill
T6C1.200
; #@! TA.AperFunction,Plated,PTH,ComponentDrill
T7C1.600
; #@! TA.AperFunction,NonPlated,NPTH,ComponentDrill
T8C1.200
; #@! TA.AperFunction,NonPlated,NPTH,ComponentDrill
T9C1.600
; #@! TA.AperFunction,NonPlated,NPTH,ComponentDrill
T10C3.200
%
G90
G05
T1
X47.225Y-124.195
X48.422Y-99.266
X52.137Y-31.534
X54.765Y-23.178
X55.122Y-162.749
X55.158Y-67.129
X55.158Y-174.701
X57.457Y-69.013
X57.457Y-102.831
X57.732Y-154.939
X58.107Y-61.153
X58.107Y-99.999
X58.354Y-43.083
X59.023Y-45.621
X59.387Y-44.254
X60.743Y-131.837
X61.143Y-102.987
X62.088Y-99.875
X63.153Y-128.954
X63.176Y-71.263
X63.38Y-185.657
X64.067Y-43.349
X64.067Y-70.977
X64.067Y-154.487
X64.067Y-181.816
X64.255Y-130.754
X66.665Y-69.279
X66.677Y-123.917
X67.062Y-180.099
X67.064Y-168.725
X68.028Y-185.483
X68.978Y-100.332
X69.148Y-129.545
X69.404Y-127.431
X69.527Y-98.104
X69.894Y-99.808
X72.469Y-76.094
X72.896Y-72.171
X73.032Y-159.761
X73.528Y-43.265
X75.412Y-73.51
X75.905Y-99.748
X76.017Y-130.22
X76.061Y-55.072
X76.455Y-159.761
X78.223Y-157.481
X79.098Y-70.87
X79.098Y-126.37
X79.721Y-100.932
X81.987Y-46.213
X81.987Y-181.012
X93.927Y-185.032
X96.779Y-156.378
X96.912Y-162.749
X97.103Y-73.52
X97.103Y-99.012
X97.593Y-124.987
X98.907Y-41.248
X99.897Y-46.521
X99.897Y-97.375
X101.97Y-45.387
X101.97Y-127.383
X101.97Y-129.116
X102.333Y-177.688
X104.565Y-150.796
X104.655Y-69.312
X105.038Y-44.019
X105.463Y-72.678
X108.852Y-76.094
X110.107Y-126.028
X110.379Y-94.2
X110.779Y-153.124
X110.822Y-96.523
X110.859Y-124.14
X111.775Y-70.753
X114.268Y-40.512
X114.314Y-96.249
X114.314Y-123.606
X114.377Y-149.924
X117.364Y-151.789
X117.807Y-46.213
X117.972Y-153.812
X120.511Y-133.464
X120.792Y-79.082
X120.792Y-106.107
X120.792Y-189.642
X122.0Y-177.0
X123.777Y-10.356
X145.425Y-9.992
X147.657Y-6.875
X148.622Y-6.946
T2
X64.358Y-186.206
X67.062Y-67.129
X67.062Y-120.915
X76.017Y-28.284
X79.002Y-171.713
X84.972Y-22.308
X102.332Y-69.279
X102.882Y-1.448
X102.882Y-10.675
X102.882Y-123.903
X105.93Y-186.653
X108.852Y-174.701
X109.377Y-37.146
X138.702Y-31.272
X145.321Y-0.919
T3
X110.0Y-3.76
X110.0Y-19.0
X112.54Y-3.76
X112.54Y-19.0
X127.78Y-3.76
X127.78Y-19.0
X132.86Y-3.76
X132.86Y-19.0
T4
X45.88Y-6.79
X49.88Y-6.79
X53.88Y-6.79
T6
X6.86Y-48.89
X6.86Y-76.58
X6.86Y-104.26
X6.86Y-132.08
X6.86Y-159.89
X6.86Y-187.66
X17.03Y-40.64
X17.03Y-68.33
X17.03Y-96.01
X17.03Y-123.83
X17.03Y-151.64
X17.03Y-179.41
X43.88Y-2.54
X43.88Y-8.54
X55.88Y-2.54
X55.88Y-8.54
X134.0Y-40.64
X134.0Y-68.33
X134.0Y-96.01
X134.0Y-123.7
X134.0Y-151.64
X134.0Y-179.32
X139.08Y-40.64
X139.08Y-68.33
X139.08Y-96.01
X139.08Y-123.7
X139.08Y-151.64
X139.08Y-179.32
T7
X12.58Y-44.45
X12.58Y-72.14
X12.58Y-99.82
X12.58Y-127.64
X12.58Y-155.45
X12.58Y-183.22
X13.215Y-36.83
X13.215Y-64.52
X13.215Y-92.2
X13.215Y-120.02
X13.215Y-147.83
X13.215Y-175.6
X134.0Y-36.83
X134.0Y-44.45
X134.0Y-64.52
X134.0Y-72.14
X134.0Y-92.2
X134.0Y-99.82
X134.0Y-119.89
X134.0Y-127.51
X134.0Y-147.83
X134.0Y-155.45
X134.0Y-175.51
X134.0Y-183.13
T8
X27.97Y-7.58
X32.97Y-7.58
T9
X3.69Y-44.45
X3.69Y-72.14
X3.69Y-99.82
X3.69Y-127.64
X3.69Y-155.45
X3.69Y-183.22
X8.77Y-36.83
X8.77Y-64.52
X8.77Y-92.2
X8.77Y-120.02
X8.77Y-147.83
X8.77Y-175.6
X142.89Y-44.45
X142.89Y-72.14
X142.89Y-99.82
X142.89Y-127.51
X142.89Y-155.45
X142.89Y-183.13
X147.97Y-36.83
X147.97Y-64.52
X147.97Y-92.2
X147.97Y-119.89
X147.97Y-147.83
X147.97Y-175.51
T10
X4.0Y-4.0
X4.0Y-196.0
X154.0Y-4.0
X154.0Y-196.0
T5
X66.17Y-6.83G85X66.17Y-8.83
G05
X71.87Y-4.83G85X69.87Y-4.83
G05
X71.87Y-10.83G85X69.87Y-10.83
G05
M30
