M48
; DRILL file {KiCad 9.0.7} date 2026-03-23T16:49:00+0100
; FORMAT={-:-/ absolute / metric / decimal}
; #@! TF.CreationDate,2026-03-23T16:49:00+01:00
; #@! TF.GenerationSoftware,Kicad,Pcbnew,9.0.7
; #@! TF.FileFunction,Plated,1,2,PTH
FMAT,2
METRIC
; #@! TA.AperFunction,Plated,PTH,ViaDrill
T1C0.300
; #@! TA.AperFunction,Plated,PTH,ViaDrill
T2C0.400
; #@! TA.AperFunction,Plated,PTH,ComponentDrill
T3C0.813
; #@! TA.AperFunction,Plated,PTH,ComponentDrill
T4C0.900
; #@! TA.AperFunction,Plated,PTH,ComponentDrill
T5C1.000
; #@! TA.AperFunction,Plated,PTH,ComponentDrill
T6C1.200
; #@! TA.AperFunction,Plated,PTH,ComponentDrill
T7C1.600
%
G90
G05
T1
X2.5Y-12.5
X2.5Y-22.5
X2.5Y-32.5
X2.5Y-42.5
X2.5Y-52.5
X2.5Y-62.5
X2.5Y-82.5
X2.5Y-92.5
X2.5Y-102.5
X2.5Y-112.5
X2.5Y-122.5
X2.5Y-132.5
X2.5Y-142.5
X2.5Y-152.5
X2.5Y-162.5
X2.5Y-172.5
X2.5Y-192.5
X12.5Y-12.5
X12.5Y-22.5
X12.5Y-32.5
X12.5Y-42.5
X12.5Y-52.5
X12.5Y-82.5
X12.5Y-102.5
X12.5Y-112.5
X12.5Y-132.5
X12.5Y-142.5
X12.5Y-152.5
X12.5Y-162.5
X12.5Y-172.5
X12.5Y-192.5
X22.5Y-12.5
X22.5Y-22.5
X22.5Y-32.5
X22.5Y-42.5
X22.5Y-52.5
X22.5Y-62.5
X22.5Y-72.5
X22.5Y-82.5
X22.5Y-102.5
X22.5Y-112.5
X22.5Y-122.5
X22.5Y-132.5
X22.5Y-142.5
X22.5Y-162.5
X22.5Y-172.5
X22.5Y-182.5
X22.5Y-192.5
X32.5Y-22.5
X32.5Y-32.5
X32.5Y-42.5
X32.5Y-52.5
X32.5Y-62.5
X32.5Y-82.5
X32.5Y-92.5
X32.5Y-112.5
X32.5Y-132.5
X32.5Y-142.5
X32.5Y-152.5
X32.5Y-162.5
X32.5Y-172.5
X32.5Y-182.5
X32.5Y-192.5
X33.185Y-96.031
X33.185Y-179.564
X34.004Y-39.734
X34.004Y-67.025
X34.004Y-123.162
X34.004Y-150.513
X42.5Y-22.5
X42.5Y-32.5
X42.5Y-52.5
X42.5Y-62.5
X42.5Y-72.5
X42.5Y-82.5
X42.5Y-92.5
X42.5Y-112.5
X42.5Y-142.5
X42.5Y-162.5
X42.5Y-172.5
X42.5Y-182.5
X42.5Y-192.5
X46.006Y-70.414
X48.725Y-157.571
X48.976Y-153.157
X48.981Y-124.732
X49.643Y-170.87
X49.893Y-60.171
X49.947Y-124.917
X50.024Y-147.724
X50.029Y-36.944
X50.029Y-72.195
X50.199Y-32.1
X50.353Y-177.286
X50.926Y-75.385
X50.931Y-181.828
X51.012Y-186.156
X51.333Y-63.806
X51.956Y-96.943
X52.5Y-2.5
X52.5Y-12.5
X52.5Y-22.5
X52.5Y-82.5
X52.5Y-112.5
X52.5Y-162.5
X54.346Y-100.612
X54.447Y-36.786
X54.576Y-124.258
X54.618Y-47.533
X54.959Y-43.225
X54.959Y-126.885
X54.959Y-153.784
X55.226Y-177.665
X55.46Y-73.299
X55.462Y-99.459
X55.821Y-121.642
X56.856Y-67.223
X57.754Y-118.787
X57.929Y-174.987
X57.997Y-47.344
X58.348Y-120.476
X58.353Y-159.305
X59.006Y-44.454
X59.046Y-99.576
X59.182Y-126.259
X60.115Y-124.993
X60.158Y-128.127
X60.344Y-125.909
X60.473Y-123.705
X60.533Y-156.407
X60.547Y-42.292
X60.559Y-44.871
X60.587Y-97.488
X60.739Y-47.911
X60.879Y-60.643
X61.864Y-178.407
X61.983Y-182.766
X62.5Y-12.5
X62.5Y-22.5
X62.5Y-32.5
X62.5Y-82.5
X62.5Y-142.5
X62.722Y-72.568
X63.164Y-154.589
X63.211Y-73.82
X63.289Y-105.537
X63.524Y-39.111
X63.816Y-94.969
X63.862Y-40.026
X63.875Y-77.342
X63.934Y-129.535
X64.021Y-73.127
X64.023Y-101.047
X64.106Y-124.788
X64.303Y-155.718
X64.455Y-97.365
X64.617Y-153.75
X64.649Y-95.686
X64.85Y-121.78
X65.733Y-75.514
X65.858Y-147.125
X66.533Y-124.2
X66.965Y-177.689
X67.494Y-63.897
X67.495Y-150.796
X67.62Y-104.032
X68.556Y-46.663
X68.993Y-75.343
X69.271Y-45.39
X69.821Y-73.839
X70.327Y-96.525
X70.34Y-160.118
X70.343Y-149.136
X71.901Y-22.516
X72.5Y-112.5
X73.127Y-99.733
X74.653Y-40.133
X74.782Y-179.21
X74.972Y-74.483
X75.264Y-190.246
X75.824Y-22.224
X77.479Y-131.108
X77.589Y-96.233
X77.605Y-152.44
X77.813Y-48.212
X77.813Y-75.661
X77.813Y-103.333
X77.813Y-158.992
X78.727Y-126.893
X78.727Y-178.37
X80.724Y-39.728
X80.778Y-123.081
X81.269Y-97.669
X81.269Y-102.151
X81.701Y-73.106
X82.5Y-52.5
X82.5Y-62.5
X82.5Y-82.5
X82.5Y-92.5
X82.5Y-112.5
X82.5Y-142.5
X82.5Y-162.5
X82.5Y-172.5
X82.5Y-192.5
X84.676Y-32.109
X90.625Y-68.369
X91.562Y-127.64
X92.5Y-52.5
X92.5Y-62.5
X92.5Y-82.5
X92.5Y-92.5
X92.5Y-112.5
X92.5Y-142.5
X92.5Y-162.5
X92.5Y-172.5
X92.5Y-192.5
X92.745Y-45.367
X93.305Y-157.042
X99.549Y-153.784
X102.326Y-123.187
X102.326Y-185.852
X102.5Y-42.5
X102.5Y-82.5
X102.5Y-112.5
X102.5Y-162.5
X102.5Y-172.5
X102.5Y-182.5
X102.5Y-192.5
X102.524Y-39.734
X102.524Y-67.025
X102.524Y-70.239
X102.524Y-94.022
X102.524Y-97.525
X102.524Y-129.65
X102.524Y-150.346
X102.524Y-177.689
X102.753Y-45.965
X112.5Y-42.5
X112.5Y-52.5
X112.5Y-62.5
X112.5Y-72.5
X112.5Y-82.5
X112.5Y-102.5
X112.5Y-112.5
X112.5Y-122.5
X112.5Y-132.5
X112.5Y-142.5
X112.5Y-162.5
X112.5Y-172.5
X112.5Y-182.5
X112.5Y-192.5
X122.5Y-12.5
X122.5Y-32.5
X122.5Y-42.5
X122.5Y-52.5
X122.5Y-62.5
X122.5Y-72.5
X122.5Y-82.5
X122.5Y-102.5
X122.5Y-112.5
X122.5Y-122.5
X122.5Y-132.5
X122.5Y-142.5
X122.5Y-162.5
X122.5Y-172.5
X122.5Y-182.5
X122.5Y-192.5
X123.592Y-19.32
X125.516Y-23.268
X125.516Y-24.897
X132.5Y-2.5
X132.5Y-22.5
X132.5Y-32.5
X132.5Y-52.5
X132.5Y-62.5
X132.5Y-72.5
X132.5Y-82.5
X132.5Y-92.5
X132.5Y-102.5
X132.5Y-112.5
X132.5Y-132.5
X132.5Y-142.5
X132.5Y-162.5
X132.5Y-172.5
X132.5Y-182.5
X132.5Y-192.5
X142.5Y-12.5
X142.5Y-22.5
X142.5Y-32.5
X142.5Y-42.5
X142.5Y-52.5
X142.5Y-62.5
X142.5Y-72.5
X142.5Y-82.5
X142.5Y-102.5
X142.5Y-112.5
X142.5Y-122.5
X142.5Y-132.5
X142.5Y-142.5
X142.5Y-152.5
X142.5Y-162.5
X142.5Y-172.5
X142.5Y-182.5
X142.5Y-192.5
T2
X51.956Y-186.097
X54.621Y-67.855
X54.932Y-179.956
X57.012Y-50.1
X57.905Y-96.565
X58.539Y-171.619
X58.888Y-152.8
X61.284Y-109.193
X64.337Y-49.378
X64.725Y-128.835
X69.602Y-180.815
X69.803Y-47.835
X70.337Y-94.022
X73.358Y-153.784
X75.035Y-18.859
X75.573Y-127.388
X77.584Y-25.531
X79.321Y-19.32
X81.658Y-1.404
X81.701Y-4.379
X81.701Y-34.603
X117.874Y-24.492
X119.579Y-6.495
X120.371Y-31.272
X123.199Y-5.063
X123.199Y-7.367
X123.218Y-24.148
X134.3Y-7.22
T3
X88.0Y-3.76
X88.0Y-19.0
X90.54Y-3.76
X90.54Y-19.0
X105.78Y-3.76
X105.78Y-19.0
X110.86Y-3.76
X110.86Y-19.0
T4
X45.88Y-6.79
X49.88Y-6.79
X53.88Y-6.79
T6
X6.86Y-48.89
X6.86Y-76.58
X6.86Y-104.26
X6.86Y-132.08
X6.86Y-159.89
X6.86Y-187.66
X17.03Y-40.64
X17.03Y-68.33
X17.03Y-96.01
X17.03Y-123.83
X17.03Y-151.64
X17.03Y-179.41
X43.88Y-2.54
X43.88Y-8.54
X55.88Y-2.54
X55.88Y-8.54
X127.762Y-40.64
X127.762Y-68.33
X127.762Y-96.01
X127.762Y-123.7
X127.762Y-151.64
X127.762Y-179.32
X132.842Y-40.64
X132.842Y-68.33
X132.842Y-96.01
X132.842Y-123.7
X132.842Y-151.64
X132.842Y-179.32
T7
X12.58Y-44.45
X12.58Y-72.14
X12.58Y-99.82
X12.58Y-127.64
X12.58Y-155.45
X12.58Y-183.22
X13.215Y-36.83
X13.215Y-64.52
X13.215Y-92.2
X13.215Y-120.02
X13.215Y-147.83
X13.215Y-175.6
X127.762Y-36.83
X127.762Y-44.45
X127.762Y-64.52
X127.762Y-72.14
X127.762Y-92.2
X127.762Y-99.82
X127.762Y-119.89
X127.762Y-127.51
X127.762Y-147.83
X127.762Y-155.45
X127.762Y-175.51
X127.762Y-183.13
T5
X66.17Y-6.83G85X66.17Y-8.83
G05
X71.87Y-4.83G85X69.87Y-4.83
G05
X71.87Y-10.83G85X69.87Y-10.83
G05
M30
