%TF.GenerationSoftware,KiCad,Pcbnew,9.0.7*%
%TF.CreationDate,2026-03-21T14:11:25+01:00*%
%TF.ProjectId,aurora-dsp-icepower-booster,6175726f-7261-42d6-9473-702d69636570,rev?*%
%TF.SameCoordinates,Original*%
%TF.FileFunction,Profile,NP*%
%FSLAX46Y46*%
G04 Gerber Fmt 4.6, Leading zero omitted, Abs format (unit mm)*
G04 Created by KiCad (PCBNEW 9.0.7) date 2026-03-21 14:11:25*
%MOMM*%
%LPD*%
G01*
G04 APERTURE LIST*
%TA.AperFunction,Profile*%
%ADD10C,0.050000*%
%TD*%
%ADD11O,3.000000X1.000000*%
%ADD12O,1.000000X3.000000*%
%ADD13C,0.350000*%
G04 APERTURE END LIST*
D10*
X0Y0D02*
X158000000Y0D01*
X158000000Y-200000000D01*
X0Y-200000000D01*
X0Y0D01*
D11*
X70870000Y-10830000D03*
X70870000Y-4830000D03*
D12*
X66170000Y-7830000D03*
D13*
X142890000Y-72140000D03*
X147970000Y-64520000D03*
X134000000Y-72140000D03*
X134000000Y-64520000D03*
X134000000Y-68330000D03*
X139080000Y-68330000D03*
X142890000Y-99820000D03*
X147970000Y-92200000D03*
X134000000Y-99820000D03*
X134000000Y-92200000D03*
X134000000Y-96010000D03*
X139080000Y-96010000D03*
X142890000Y-127510000D03*
X147970000Y-119890000D03*
X134000000Y-127510000D03*
X134000000Y-119890000D03*
X134000000Y-123700000D03*
X139080000Y-123700000D03*
X142890000Y-155450000D03*
X147970000Y-147830000D03*
X134000000Y-155450000D03*
X134000000Y-147830000D03*
X134000000Y-151640000D03*
X139080000Y-151640000D03*
X142890000Y-183130000D03*
X147970000Y-175510000D03*
X134000000Y-183130000D03*
X134000000Y-175510000D03*
X134000000Y-179320000D03*
X139080000Y-179320000D03*
X27970000Y-7580000D03*
X32970000Y-7580000D03*
X8770000Y-36830000D03*
X3690000Y-44450000D03*
X12580000Y-44450000D03*
X13215000Y-36830000D03*
X17030000Y-40640000D03*
X6860000Y-48890000D03*
X8770000Y-64520000D03*
X3690000Y-72140000D03*
X12580000Y-72140000D03*
X13215000Y-64520000D03*
X17030000Y-68330000D03*
X6860000Y-76580000D03*
X8770000Y-92200000D03*
X3690000Y-99820000D03*
X12580000Y-99820000D03*
X13215000Y-92200000D03*
X17030000Y-96010000D03*
X6860000Y-104260000D03*
X8770000Y-120020000D03*
X3690000Y-127640000D03*
X12580000Y-127640000D03*
X13215000Y-120020000D03*
X17030000Y-123830000D03*
X6860000Y-132080000D03*
X8770000Y-147830000D03*
X3690000Y-155450000D03*
X12580000Y-155450000D03*
X13215000Y-147830000D03*
X17030000Y-151640000D03*
X6860000Y-159890000D03*
X8770000Y-175600000D03*
X3690000Y-183220000D03*
X12580000Y-183220000D03*
X13215000Y-175600000D03*
X17030000Y-179410000D03*
X6860000Y-187660000D03*
X142890000Y-44450000D03*
X147970000Y-36830000D03*
X134000000Y-44450000D03*
X134000000Y-36830000D03*
X134000000Y-40640000D03*
X139080000Y-40640000D03*
X55880000Y-8540000D03*
X55880000Y-2540000D03*
X43880000Y-8540000D03*
X43880000Y-2540000D03*
X53880000Y-6790000D03*
X49880000Y-6790000D03*
X45880000Y-6790000D03*
X110000000Y-19000000D03*
X112540000Y-19000000D03*
X127780000Y-19000000D03*
X132860000Y-19000000D03*
X132860000Y-3760000D03*
X127780000Y-3760000D03*
X112540000Y-3760000D03*
X110000000Y-3760000D03*
X4000000Y-4000000D03*
X154000000Y-4000000D03*
X154000000Y-196000000D03*
X4000000Y-196000000D03*
M02*
