%TF.GenerationSoftware,KiCad,Pcbnew,9.0.7*%
%TF.CreationDate,2026-03-18T10:36:14+01:00*%
%TF.ProjectId,aurora-dsp-icepower-booster,6175726f-7261-42d6-9473-702d69636570,rev?*%
%TF.SameCoordinates,Original*%
%TF.FileFunction,Paste,Top*%
%TF.FilePolarity,Positive*%
%FSLAX46Y46*%
G04 Gerber Fmt 4.6, Leading zero omitted, Abs format (unit mm)*
G04 Created by KiCad (PCBNEW 9.0.7) date 2026-03-18 10:36:14*
%MOMM*%
%LPD*%
G01*
G04 APERTURE LIST*
G04 Aperture macros list*
%AMRoundRect*
0 Rectangle with rounded corners*
0 $1 Rounding radius*
0 $2 $3 $4 $5 $6 $7 $8 $9 X,Y pos of 4 corners*
0 Add a 4 corners polygon primitive as box body*
4,1,4,$2,$3,$4,$5,$6,$7,$8,$9,$2,$3,0*
0 Add four circle primitives for the rounded corners*
1,1,$1+$1,$2,$3*
1,1,$1+$1,$4,$5*
1,1,$1+$1,$6,$7*
1,1,$1+$1,$8,$9*
0 Add four rect primitives between the rounded corners*
20,1,$1+$1,$2,$3,$4,$5,0*
20,1,$1+$1,$4,$5,$6,$7,0*
20,1,$1+$1,$6,$7,$8,$9,0*
20,1,$1+$1,$8,$9,$2,$3,0*%
G04 Aperture macros list end*
%ADD10RoundRect,0.250000X-0.325000X-1.100000X0.325000X-1.100000X0.325000X1.100000X-0.325000X1.100000X0*%
%ADD11RoundRect,0.250000X-0.262500X-0.450000X0.262500X-0.450000X0.262500X0.450000X-0.262500X0.450000X0*%
%ADD12RoundRect,0.250000X-0.250000X-0.475000X0.250000X-0.475000X0.250000X0.475000X-0.250000X0.475000X0*%
%ADD13RoundRect,0.112500X-0.187500X-0.112500X0.187500X-0.112500X0.187500X0.112500X-0.187500X0.112500X0*%
%ADD14RoundRect,0.375000X-0.375000X-0.375000X0.375000X-0.375000X0.375000X0.375000X-0.375000X0.375000X0*%
%ADD15RoundRect,0.375000X-0.375000X-0.625000X0.375000X-0.625000X0.375000X0.625000X-0.375000X0.625000X0*%
%ADD16RoundRect,0.250000X0.475000X-0.250000X0.475000X0.250000X-0.475000X0.250000X-0.475000X-0.250000X0*%
%ADD17RoundRect,0.250000X-0.475000X0.250000X-0.475000X-0.250000X0.475000X-0.250000X0.475000X0.250000X0*%
%ADD18RoundRect,0.250000X-1.000000X-0.900000X1.000000X-0.900000X1.000000X0.900000X-1.000000X0.900000X0*%
%ADD19RoundRect,0.250000X-0.325000X-0.650000X0.325000X-0.650000X0.325000X0.650000X-0.325000X0.650000X0*%
%ADD20RoundRect,0.150000X-0.825000X-0.150000X0.825000X-0.150000X0.825000X0.150000X-0.825000X0.150000X0*%
%ADD21RoundRect,0.218750X-0.218750X-0.381250X0.218750X-0.381250X0.218750X0.381250X-0.218750X0.381250X0*%
%ADD22RoundRect,0.250000X-0.500000X-0.300000X0.500000X-0.300000X0.500000X0.300000X-0.500000X0.300000X0*%
%ADD23RoundRect,0.150000X-0.150000X0.587500X-0.150000X-0.587500X0.150000X-0.587500X0.150000X0.587500X0*%
%ADD24RoundRect,0.150000X-0.587500X-0.150000X0.587500X-0.150000X0.587500X0.150000X-0.587500X0.150000X0*%
%ADD25RoundRect,0.150000X-0.512500X-0.150000X0.512500X-0.150000X0.512500X0.150000X-0.512500X0.150000X0*%
G04 APERTURE END LIST*
D10*
%TO.C,C51*%
X156525000Y-10000000D03*
X159475000Y-10000000D03*
%TD*%
D11*
%TO.C,R21*%
X103087500Y-60000000D03*
X104912500Y-60000000D03*
%TD*%
%TO.C,R16*%
X93087500Y-54000000D03*
X94912500Y-54000000D03*
%TD*%
D12*
%TO.C,C72*%
X77050000Y-124000000D03*
X78950000Y-124000000D03*
%TD*%
D11*
%TO.C,R38*%
X131087500Y-86000000D03*
X132912500Y-86000000D03*
%TD*%
D12*
%TO.C,C70*%
X77050000Y-94000000D03*
X78950000Y-94000000D03*
%TD*%
D11*
%TO.C,R80*%
X164087500Y-18000000D03*
X165912500Y-18000000D03*
%TD*%
D13*
%TO.C,D8*%
X36950000Y-120000000D03*
X39050000Y-120000000D03*
%TD*%
D14*
%TO.C,J14*%
X123684000Y-11684000D03*
X115584000Y-11684000D03*
D15*
X115584000Y-2834000D03*
X123684000Y-2834000D03*
%TD*%
D11*
%TO.C,R48*%
X93087500Y-126000000D03*
X94912500Y-126000000D03*
%TD*%
%TO.C,R19*%
X93087500Y-60000000D03*
X94912500Y-60000000D03*
%TD*%
D16*
%TO.C,C2*%
X51525000Y-35355000D03*
X51525000Y-33455000D03*
%TD*%
D11*
%TO.C,R49*%
X98087500Y-126000000D03*
X99912500Y-126000000D03*
%TD*%
D13*
%TO.C,D17*%
X156950000Y-87500000D03*
X159050000Y-87500000D03*
%TD*%
D17*
%TO.C,C5*%
X56475000Y-84645000D03*
X56475000Y-86545000D03*
%TD*%
%TO.C,C7*%
X56475000Y-114645000D03*
X56475000Y-116545000D03*
%TD*%
D11*
%TO.C,R88*%
X153087500Y-120000000D03*
X154912500Y-120000000D03*
%TD*%
D18*
%TO.C,D25*%
X185850000Y-10000000D03*
X190150000Y-10000000D03*
%TD*%
D12*
%TO.C,C69*%
X71050000Y-94000000D03*
X72950000Y-94000000D03*
%TD*%
D11*
%TO.C,R50*%
X103087500Y-126000000D03*
X104912500Y-126000000D03*
%TD*%
D19*
%TO.C,C40*%
X76525000Y-26000000D03*
X79475000Y-26000000D03*
%TD*%
D11*
%TO.C,R100*%
X64087500Y-116000000D03*
X65912500Y-116000000D03*
%TD*%
%TO.C,R2*%
X45087500Y-31000000D03*
X46912500Y-31000000D03*
%TD*%
%TO.C,R73*%
X103087500Y-180000000D03*
X104912500Y-180000000D03*
%TD*%
D13*
%TO.C,D21*%
X156950000Y-147500000D03*
X159050000Y-147500000D03*
%TD*%
D20*
%TO.C,U3*%
X51525000Y-88095000D03*
X51525000Y-89365000D03*
X51525000Y-90635000D03*
X51525000Y-91905000D03*
X56475000Y-91905000D03*
X56475000Y-90635000D03*
X56475000Y-89365000D03*
X56475000Y-88095000D03*
%TD*%
D11*
%TO.C,R45*%
X93087500Y-120000000D03*
X94912500Y-120000000D03*
%TD*%
D17*
%TO.C,C3*%
X56475000Y-54645000D03*
X56475000Y-56545000D03*
%TD*%
D11*
%TO.C,R51*%
X131087500Y-116000000D03*
X132912500Y-116000000D03*
%TD*%
%TO.C,R33*%
X98087500Y-90000000D03*
X99912500Y-90000000D03*
%TD*%
%TO.C,R71*%
X93087500Y-180000000D03*
X94912500Y-180000000D03*
%TD*%
D13*
%TO.C,D24*%
X168950000Y-177500000D03*
X171050000Y-177500000D03*
%TD*%
D11*
%TO.C,R18*%
X103087500Y-54000000D03*
X104912500Y-54000000D03*
%TD*%
%TO.C,R53*%
X45087500Y-146000000D03*
X46912500Y-146000000D03*
%TD*%
D12*
%TO.C,C75*%
X71050000Y-184000000D03*
X72950000Y-184000000D03*
%TD*%
D11*
%TO.C,R57*%
X103087500Y-144000000D03*
X104912500Y-144000000D03*
%TD*%
%TO.C,R109*%
X123547500Y-58420000D03*
X125372500Y-58420000D03*
%TD*%
D13*
%TO.C,D20*%
X162950000Y-122500000D03*
X165050000Y-122500000D03*
%TD*%
D11*
%TO.C,R35*%
X93087500Y-96000000D03*
X94912500Y-96000000D03*
%TD*%
%TO.C,R24*%
X103087500Y-66000000D03*
X104912500Y-66000000D03*
%TD*%
%TO.C,R30*%
X98087500Y-84000000D03*
X99912500Y-84000000D03*
%TD*%
D19*
%TO.C,C42*%
X76525000Y-56000000D03*
X79475000Y-56000000D03*
%TD*%
D20*
%TO.C,U2*%
X51525000Y-58095000D03*
X51525000Y-59365000D03*
X51525000Y-60635000D03*
X51525000Y-61905000D03*
X56475000Y-61905000D03*
X56475000Y-60635000D03*
X56475000Y-59365000D03*
X56475000Y-58095000D03*
%TD*%
D17*
%TO.C,C38*%
X143137500Y-23050000D03*
X143137500Y-24950000D03*
%TD*%
D20*
%TO.C,U11*%
X107525000Y-148095000D03*
X107525000Y-149365000D03*
X107525000Y-150635000D03*
X107525000Y-151905000D03*
X112475000Y-151905000D03*
X112475000Y-150635000D03*
X112475000Y-149365000D03*
X112475000Y-148095000D03*
%TD*%
D11*
%TO.C,R22*%
X93087500Y-66000000D03*
X94912500Y-66000000D03*
%TD*%
%TO.C,R44*%
X103087500Y-114000000D03*
X104912500Y-114000000D03*
%TD*%
%TO.C,R63*%
X103087500Y-156000000D03*
X104912500Y-156000000D03*
%TD*%
%TO.C,R60*%
X103087500Y-150000000D03*
X104912500Y-150000000D03*
%TD*%
%TO.C,R92*%
X153087500Y-180000000D03*
X154912500Y-180000000D03*
%TD*%
D21*
%TO.C,FB1*%
X132287500Y-8890000D03*
X134412500Y-8890000D03*
%TD*%
D11*
%TO.C,R113*%
X123547500Y-180340000D03*
X125372500Y-180340000D03*
%TD*%
D19*
%TO.C,C44*%
X76525000Y-86000000D03*
X79475000Y-86000000D03*
%TD*%
D11*
%TO.C,R42*%
X93087500Y-114000000D03*
X94912500Y-114000000D03*
%TD*%
%TO.C,R82*%
X153087500Y-30000000D03*
X154912500Y-30000000D03*
%TD*%
%TO.C,R87*%
X147087500Y-120000000D03*
X148912500Y-120000000D03*
%TD*%
%TO.C,R41*%
X45087500Y-121000000D03*
X46912500Y-121000000D03*
%TD*%
D22*
%TO.C,SW1*%
X81550000Y-27460000D03*
X81550000Y-30000000D03*
X81550000Y-32540000D03*
X90450000Y-32540000D03*
X90450000Y-30000000D03*
X90450000Y-27460000D03*
%TD*%
D19*
%TO.C,C39*%
X70525000Y-26000000D03*
X73475000Y-26000000D03*
%TD*%
D11*
%TO.C,R10*%
X93087500Y-24000000D03*
X94912500Y-24000000D03*
%TD*%
D13*
%TO.C,D1*%
X156950000Y-27500000D03*
X159050000Y-27500000D03*
%TD*%
D11*
%TO.C,R70*%
X103087500Y-174000000D03*
X104912500Y-174000000D03*
%TD*%
%TO.C,R7*%
X93087500Y-36000000D03*
X94912500Y-36000000D03*
%TD*%
D12*
%TO.C,C79*%
X174050000Y-8000000D03*
X175950000Y-8000000D03*
%TD*%
D11*
%TO.C,R78*%
X131087500Y-184000000D03*
X132912500Y-184000000D03*
%TD*%
D19*
%TO.C,C47*%
X70525000Y-146000000D03*
X73475000Y-146000000D03*
%TD*%
D11*
%TO.C,R17*%
X98087500Y-54000000D03*
X99912500Y-54000000D03*
%TD*%
D17*
%TO.C,C24*%
X107525000Y-183455000D03*
X107525000Y-185355000D03*
%TD*%
D13*
%TO.C,D13*%
X162950000Y-32500000D03*
X165050000Y-32500000D03*
%TD*%
D16*
%TO.C,C22*%
X107525000Y-155355000D03*
X107525000Y-153455000D03*
%TD*%
D17*
%TO.C,C15*%
X112475000Y-54645000D03*
X112475000Y-56545000D03*
%TD*%
D11*
%TO.C,R52*%
X131087500Y-124000000D03*
X132912500Y-124000000D03*
%TD*%
D12*
%TO.C,C59*%
X147050000Y-115000000D03*
X148950000Y-115000000D03*
%TD*%
D13*
%TO.C,D6*%
X36950000Y-90000000D03*
X39050000Y-90000000D03*
%TD*%
D12*
%TO.C,C57*%
X147050000Y-85000000D03*
X148950000Y-85000000D03*
%TD*%
D11*
%TO.C,R37*%
X103087500Y-96000000D03*
X104912500Y-96000000D03*
%TD*%
D23*
%TO.C,Q4*%
X121600000Y-90502500D03*
X119700000Y-90502500D03*
X120650000Y-92377500D03*
%TD*%
D11*
%TO.C,R28*%
X45087500Y-91000000D03*
X46912500Y-91000000D03*
%TD*%
D17*
%TO.C,C4*%
X51525000Y-63455000D03*
X51525000Y-65355000D03*
%TD*%
D11*
%TO.C,R90*%
X153087500Y-150000000D03*
X154912500Y-150000000D03*
%TD*%
%TO.C,R108*%
X123547500Y-27940000D03*
X125372500Y-27940000D03*
%TD*%
%TO.C,R59*%
X98087500Y-150000000D03*
X99912500Y-150000000D03*
%TD*%
D12*
%TO.C,C55*%
X147050000Y-55000000D03*
X148950000Y-55000000D03*
%TD*%
D17*
%TO.C,C21*%
X112475000Y-144645000D03*
X112475000Y-146545000D03*
%TD*%
D11*
%TO.C,R64*%
X131087500Y-146000000D03*
X132912500Y-146000000D03*
%TD*%
D10*
%TO.C,C35*%
X129025000Y-3000000D03*
X131975000Y-3000000D03*
%TD*%
D12*
%TO.C,C56*%
X153050000Y-55000000D03*
X154950000Y-55000000D03*
%TD*%
D13*
%TO.C,D11*%
X156950000Y-177500000D03*
X159050000Y-177500000D03*
%TD*%
D19*
%TO.C,C41*%
X70525000Y-56000000D03*
X73475000Y-56000000D03*
%TD*%
D11*
%TO.C,R69*%
X98087500Y-174000000D03*
X99912500Y-174000000D03*
%TD*%
D23*
%TO.C,Q7*%
X121600000Y-181942500D03*
X119700000Y-181942500D03*
X120650000Y-183817500D03*
%TD*%
D11*
%TO.C,R4*%
X93087500Y-30000000D03*
X94912500Y-30000000D03*
%TD*%
D16*
%TO.C,C14*%
X107525000Y-35355000D03*
X107525000Y-33455000D03*
%TD*%
D11*
%TO.C,R86*%
X153087500Y-90000000D03*
X154912500Y-90000000D03*
%TD*%
D19*
%TO.C,C45*%
X70525000Y-116000000D03*
X73475000Y-116000000D03*
%TD*%
D12*
%TO.C,C78*%
X107050000Y-16000000D03*
X108950000Y-16000000D03*
%TD*%
D20*
%TO.C,U12*%
X107525000Y-178095000D03*
X107525000Y-179365000D03*
X107525000Y-180635000D03*
X107525000Y-181905000D03*
X112475000Y-181905000D03*
X112475000Y-180635000D03*
X112475000Y-179365000D03*
X112475000Y-178095000D03*
%TD*%
D24*
%TO.C,Q1*%
X152732500Y-16830000D03*
X152732500Y-18730000D03*
X154607500Y-17780000D03*
%TD*%
D12*
%TO.C,C26*%
X106050000Y-11000000D03*
X107950000Y-11000000D03*
%TD*%
D17*
%TO.C,C17*%
X112475000Y-84645000D03*
X112475000Y-86545000D03*
%TD*%
D12*
%TO.C,C73*%
X71050000Y-154000000D03*
X72950000Y-154000000D03*
%TD*%
D19*
%TO.C,C50*%
X76525000Y-176000000D03*
X79475000Y-176000000D03*
%TD*%
D11*
%TO.C,R72*%
X98087500Y-180000000D03*
X99912500Y-180000000D03*
%TD*%
D19*
%TO.C,C46*%
X76525000Y-116000000D03*
X79475000Y-116000000D03*
%TD*%
D12*
%TO.C,C67*%
X71050000Y-64000000D03*
X72950000Y-64000000D03*
%TD*%
D11*
%TO.C,R15*%
X45087500Y-61000000D03*
X46912500Y-61000000D03*
%TD*%
D12*
%TO.C,C27*%
X141290000Y-33020000D03*
X143190000Y-33020000D03*
%TD*%
D19*
%TO.C,C43*%
X70525000Y-86000000D03*
X73475000Y-86000000D03*
%TD*%
D17*
%TO.C,C23*%
X112475000Y-174645000D03*
X112475000Y-176545000D03*
%TD*%
%TO.C,C9*%
X56475000Y-144645000D03*
X56475000Y-146545000D03*
%TD*%
D11*
%TO.C,R104*%
X64087500Y-184000000D03*
X65912500Y-184000000D03*
%TD*%
%TO.C,R25*%
X131087500Y-56000000D03*
X132912500Y-56000000D03*
%TD*%
%TO.C,R36*%
X98087500Y-96000000D03*
X99912500Y-96000000D03*
%TD*%
D12*
%TO.C,C65*%
X71050000Y-34000000D03*
X72950000Y-34000000D03*
%TD*%
D13*
%TO.C,D22*%
X162950000Y-152500000D03*
X165050000Y-152500000D03*
%TD*%
D11*
%TO.C,R40*%
X45087500Y-116000000D03*
X46912500Y-116000000D03*
%TD*%
%TO.C,R34*%
X103087500Y-90000000D03*
X104912500Y-90000000D03*
%TD*%
D12*
%TO.C,C29*%
X141290000Y-38100000D03*
X143190000Y-38100000D03*
%TD*%
D11*
%TO.C,R68*%
X93087500Y-174000000D03*
X94912500Y-174000000D03*
%TD*%
D12*
%TO.C,C63*%
X147050000Y-175000000D03*
X148950000Y-175000000D03*
%TD*%
D13*
%TO.C,D14*%
X168950000Y-27500000D03*
X171050000Y-27500000D03*
%TD*%
%TO.C,D2*%
X36950000Y-30000000D03*
X39050000Y-30000000D03*
%TD*%
D20*
%TO.C,U10*%
X107525000Y-118095000D03*
X107525000Y-119365000D03*
X107525000Y-120635000D03*
X107525000Y-121905000D03*
X112475000Y-121905000D03*
X112475000Y-120635000D03*
X112475000Y-119365000D03*
X112475000Y-118095000D03*
%TD*%
D11*
%TO.C,R26*%
X131087500Y-64000000D03*
X132912500Y-64000000D03*
%TD*%
%TO.C,R47*%
X103087500Y-120000000D03*
X104912500Y-120000000D03*
%TD*%
D12*
%TO.C,C33*%
X145100000Y-35560000D03*
X147000000Y-35560000D03*
%TD*%
%TO.C,C31*%
X141290000Y-43180000D03*
X143190000Y-43180000D03*
%TD*%
%TO.C,C61*%
X147050000Y-145000000D03*
X148950000Y-145000000D03*
%TD*%
%TO.C,C34*%
X145100000Y-38100000D03*
X147000000Y-38100000D03*
%TD*%
D13*
%TO.C,D18*%
X162950000Y-92500000D03*
X165050000Y-92500000D03*
%TD*%
D12*
%TO.C,C58*%
X153050000Y-85000000D03*
X154950000Y-85000000D03*
%TD*%
D11*
%TO.C,R111*%
X123547500Y-119380000D03*
X125372500Y-119380000D03*
%TD*%
%TO.C,R46*%
X98087500Y-120000000D03*
X99912500Y-120000000D03*
%TD*%
%TO.C,R23*%
X98087500Y-66000000D03*
X99912500Y-66000000D03*
%TD*%
%TO.C,R39*%
X131087500Y-94000000D03*
X132912500Y-94000000D03*
%TD*%
%TO.C,R43*%
X98087500Y-114000000D03*
X99912500Y-114000000D03*
%TD*%
%TO.C,R106*%
X148947500Y-17780000D03*
X150772500Y-17780000D03*
%TD*%
%TO.C,R55*%
X93087500Y-144000000D03*
X94912500Y-144000000D03*
%TD*%
%TO.C,R62*%
X98087500Y-156000000D03*
X99912500Y-156000000D03*
%TD*%
D12*
%TO.C,C64*%
X153050000Y-175000000D03*
X154950000Y-175000000D03*
%TD*%
D11*
%TO.C,R83*%
X147087500Y-60000000D03*
X148912500Y-60000000D03*
%TD*%
%TO.C,R1*%
X45087500Y-26000000D03*
X46912500Y-26000000D03*
%TD*%
%TO.C,R76*%
X103087500Y-186000000D03*
X104912500Y-186000000D03*
%TD*%
D12*
%TO.C,C81*%
X129550000Y-11000000D03*
X131450000Y-11000000D03*
%TD*%
D23*
%TO.C,Q3*%
X121600000Y-60022500D03*
X119700000Y-60022500D03*
X120650000Y-61897500D03*
%TD*%
D11*
%TO.C,R98*%
X64087500Y-94000000D03*
X65912500Y-94000000D03*
%TD*%
D16*
%TO.C,C6*%
X51525000Y-95355000D03*
X51525000Y-93455000D03*
%TD*%
D13*
%TO.C,D23*%
X162950000Y-182500000D03*
X165050000Y-182500000D03*
%TD*%
D12*
%TO.C,C71*%
X71050000Y-124000000D03*
X72950000Y-124000000D03*
%TD*%
D11*
%TO.C,R77*%
X131087500Y-176000000D03*
X132912500Y-176000000D03*
%TD*%
%TO.C,R31*%
X103087500Y-84000000D03*
X104912500Y-84000000D03*
%TD*%
D20*
%TO.C,U1*%
X51525000Y-28095000D03*
X51525000Y-29365000D03*
X51525000Y-30635000D03*
X51525000Y-31905000D03*
X56475000Y-31905000D03*
X56475000Y-30635000D03*
X56475000Y-29365000D03*
X56475000Y-28095000D03*
%TD*%
D17*
%TO.C,C1*%
X56475000Y-24645000D03*
X56475000Y-26545000D03*
%TD*%
D11*
%TO.C,R11*%
X98087500Y-24000000D03*
X99912500Y-24000000D03*
%TD*%
D13*
%TO.C,D7*%
X168950000Y-117500000D03*
X171050000Y-117500000D03*
%TD*%
D25*
%TO.C,U15*%
X140862500Y-19050000D03*
X140862500Y-20000000D03*
X140862500Y-20950000D03*
X143137500Y-20950000D03*
X143137500Y-19050000D03*
%TD*%
D11*
%TO.C,R65*%
X131087500Y-154000000D03*
X132912500Y-154000000D03*
%TD*%
D13*
%TO.C,D3*%
X168950000Y-57500000D03*
X171050000Y-57500000D03*
%TD*%
D23*
%TO.C,Q5*%
X121600000Y-120982500D03*
X119700000Y-120982500D03*
X120650000Y-122857500D03*
%TD*%
D13*
%TO.C,D15*%
X156950000Y-57500000D03*
X159050000Y-57500000D03*
%TD*%
D22*
%TO.C,SW2*%
X81550000Y-57460000D03*
X81550000Y-60000000D03*
X81550000Y-62540000D03*
X90450000Y-62540000D03*
X90450000Y-60000000D03*
X90450000Y-57460000D03*
%TD*%
D20*
%TO.C,U5*%
X51525000Y-148095000D03*
X51525000Y-149365000D03*
X51525000Y-150635000D03*
X51525000Y-151905000D03*
X56475000Y-151905000D03*
X56475000Y-150635000D03*
X56475000Y-149365000D03*
X56475000Y-148095000D03*
%TD*%
D12*
%TO.C,C32*%
X145100000Y-33020000D03*
X147000000Y-33020000D03*
%TD*%
D11*
%TO.C,R56*%
X98087500Y-144000000D03*
X99912500Y-144000000D03*
%TD*%
D17*
%TO.C,C12*%
X51525000Y-183455000D03*
X51525000Y-185355000D03*
%TD*%
D11*
%TO.C,R94*%
X64087500Y-34000000D03*
X65912500Y-34000000D03*
%TD*%
D20*
%TO.C,U6*%
X51525000Y-178095000D03*
X51525000Y-179365000D03*
X51525000Y-180635000D03*
X51525000Y-181905000D03*
X56475000Y-181905000D03*
X56475000Y-180635000D03*
X56475000Y-179365000D03*
X56475000Y-178095000D03*
%TD*%
D11*
%TO.C,R8*%
X98087500Y-36000000D03*
X99912500Y-36000000D03*
%TD*%
D12*
%TO.C,C30*%
X141290000Y-40640000D03*
X143190000Y-40640000D03*
%TD*%
D19*
%TO.C,C48*%
X76525000Y-146000000D03*
X79475000Y-146000000D03*
%TD*%
D11*
%TO.C,R97*%
X64087500Y-86000000D03*
X65912500Y-86000000D03*
%TD*%
%TO.C,R13*%
X131087500Y-34000000D03*
X132912500Y-34000000D03*
%TD*%
D12*
%TO.C,C76*%
X77050000Y-184000000D03*
X78950000Y-184000000D03*
%TD*%
D11*
%TO.C,R27*%
X45087500Y-86000000D03*
X46912500Y-86000000D03*
%TD*%
D19*
%TO.C,C49*%
X70525000Y-176000000D03*
X73475000Y-176000000D03*
%TD*%
D11*
%TO.C,R58*%
X93087500Y-150000000D03*
X94912500Y-150000000D03*
%TD*%
%TO.C,R95*%
X64087500Y-56000000D03*
X65912500Y-56000000D03*
%TD*%
D20*
%TO.C,U8*%
X107525000Y-58095000D03*
X107525000Y-59365000D03*
X107525000Y-60635000D03*
X107525000Y-61905000D03*
X112475000Y-61905000D03*
X112475000Y-60635000D03*
X112475000Y-59365000D03*
X112475000Y-58095000D03*
%TD*%
D11*
%TO.C,R74*%
X93087500Y-186000000D03*
X94912500Y-186000000D03*
%TD*%
%TO.C,R93*%
X64087500Y-26000000D03*
X65912500Y-26000000D03*
%TD*%
D17*
%TO.C,C11*%
X56475000Y-174645000D03*
X56475000Y-176545000D03*
%TD*%
D12*
%TO.C,C53*%
X147050000Y-25000000D03*
X148950000Y-25000000D03*
%TD*%
D22*
%TO.C,SW3*%
X81550000Y-87460000D03*
X81550000Y-90000000D03*
X81550000Y-92540000D03*
X90450000Y-92540000D03*
X90450000Y-90000000D03*
X90450000Y-87460000D03*
%TD*%
D11*
%TO.C,R29*%
X93087500Y-84000000D03*
X94912500Y-84000000D03*
%TD*%
D17*
%TO.C,C20*%
X107525000Y-123455000D03*
X107525000Y-125355000D03*
%TD*%
D12*
%TO.C,C80*%
X152720000Y-22000000D03*
X154620000Y-22000000D03*
%TD*%
%TO.C,C25*%
X25050000Y-6000000D03*
X26950000Y-6000000D03*
%TD*%
D11*
%TO.C,R102*%
X64087500Y-154000000D03*
X65912500Y-154000000D03*
%TD*%
D12*
%TO.C,C66*%
X77050000Y-34000000D03*
X78950000Y-34000000D03*
%TD*%
D13*
%TO.C,D5*%
X168950000Y-87500000D03*
X171050000Y-87500000D03*
%TD*%
D11*
%TO.C,R84*%
X153087500Y-60000000D03*
X154912500Y-60000000D03*
%TD*%
%TO.C,R66*%
X45087500Y-176000000D03*
X46912500Y-176000000D03*
%TD*%
%TO.C,R96*%
X64087500Y-64000000D03*
X65912500Y-64000000D03*
%TD*%
%TO.C,R85*%
X147087500Y-90000000D03*
X148912500Y-90000000D03*
%TD*%
%TO.C,R9*%
X103087500Y-36000000D03*
X104912500Y-36000000D03*
%TD*%
D23*
%TO.C,Q2*%
X121600000Y-29542500D03*
X119700000Y-29542500D03*
X120650000Y-31417500D03*
%TD*%
D20*
%TO.C,U9*%
X107525000Y-88095000D03*
X107525000Y-89365000D03*
X107525000Y-90635000D03*
X107525000Y-91905000D03*
X112475000Y-91905000D03*
X112475000Y-90635000D03*
X112475000Y-89365000D03*
X112475000Y-88095000D03*
%TD*%
D11*
%TO.C,R14*%
X45087500Y-56000000D03*
X46912500Y-56000000D03*
%TD*%
%TO.C,R79*%
X164087500Y-10000000D03*
X165912500Y-10000000D03*
%TD*%
D12*
%TO.C,C68*%
X77050000Y-64000000D03*
X78950000Y-64000000D03*
%TD*%
%TO.C,C82*%
X125050000Y-18000000D03*
X126950000Y-18000000D03*
%TD*%
D11*
%TO.C,R101*%
X64087500Y-146000000D03*
X65912500Y-146000000D03*
%TD*%
D12*
%TO.C,C62*%
X153050000Y-145000000D03*
X154950000Y-145000000D03*
%TD*%
D11*
%TO.C,R89*%
X147087500Y-150000000D03*
X148912500Y-150000000D03*
%TD*%
%TO.C,R105*%
X170087500Y-14000000D03*
X171912500Y-14000000D03*
%TD*%
D22*
%TO.C,SW4*%
X81550000Y-117460000D03*
X81550000Y-120000000D03*
X81550000Y-122540000D03*
X90450000Y-122540000D03*
X90450000Y-120000000D03*
X90450000Y-117460000D03*
%TD*%
D13*
%TO.C,D19*%
X156950000Y-117500000D03*
X159050000Y-117500000D03*
%TD*%
D11*
%TO.C,R5*%
X98087500Y-30000000D03*
X99912500Y-30000000D03*
%TD*%
D16*
%TO.C,C18*%
X107525000Y-95355000D03*
X107525000Y-93455000D03*
%TD*%
D17*
%TO.C,C37*%
X139525000Y-4645000D03*
X139525000Y-6545000D03*
%TD*%
D11*
%TO.C,R81*%
X147087500Y-30000000D03*
X148912500Y-30000000D03*
%TD*%
%TO.C,R67*%
X45087500Y-181000000D03*
X46912500Y-181000000D03*
%TD*%
%TO.C,R12*%
X131087500Y-26000000D03*
X132912500Y-26000000D03*
%TD*%
D17*
%TO.C,C16*%
X107525000Y-63455000D03*
X107525000Y-65355000D03*
%TD*%
D22*
%TO.C,SW6*%
X81550000Y-177460000D03*
X81550000Y-180000000D03*
X81550000Y-182540000D03*
X90450000Y-182540000D03*
X90450000Y-180000000D03*
X90450000Y-177460000D03*
%TD*%
D11*
%TO.C,R6*%
X103087500Y-30000000D03*
X104912500Y-30000000D03*
%TD*%
D13*
%TO.C,D9*%
X168950000Y-147500000D03*
X171050000Y-147500000D03*
%TD*%
%TO.C,D4*%
X36950000Y-60000000D03*
X39050000Y-60000000D03*
%TD*%
%TO.C,D16*%
X162950000Y-62500000D03*
X165050000Y-62500000D03*
%TD*%
D12*
%TO.C,C77*%
X25050000Y-12000000D03*
X26950000Y-12000000D03*
%TD*%
D11*
%TO.C,R112*%
X123547500Y-149860000D03*
X125372500Y-149860000D03*
%TD*%
D21*
%TO.C,FB2*%
X132287500Y-16510000D03*
X134412500Y-16510000D03*
%TD*%
D12*
%TO.C,C28*%
X141290000Y-35560000D03*
X143190000Y-35560000D03*
%TD*%
D13*
%TO.C,D10*%
X36950000Y-150000000D03*
X39050000Y-150000000D03*
%TD*%
D11*
%TO.C,R3*%
X103087500Y-24000000D03*
X104912500Y-24000000D03*
%TD*%
D17*
%TO.C,C8*%
X51525000Y-123455000D03*
X51525000Y-125355000D03*
%TD*%
D11*
%TO.C,R54*%
X45087500Y-151000000D03*
X46912500Y-151000000D03*
%TD*%
D12*
%TO.C,C60*%
X153050000Y-115000000D03*
X154950000Y-115000000D03*
%TD*%
%TO.C,C54*%
X153050000Y-25000000D03*
X154950000Y-25000000D03*
%TD*%
D20*
%TO.C,U7*%
X107525000Y-28095000D03*
X107525000Y-29365000D03*
X107525000Y-30635000D03*
X107525000Y-31905000D03*
X112475000Y-31905000D03*
X112475000Y-30635000D03*
X112475000Y-29365000D03*
X112475000Y-28095000D03*
%TD*%
D11*
%TO.C,R91*%
X147087500Y-180000000D03*
X148912500Y-180000000D03*
%TD*%
D17*
%TO.C,C19*%
X112475000Y-114645000D03*
X112475000Y-116545000D03*
%TD*%
D11*
%TO.C,R20*%
X98087500Y-60000000D03*
X99912500Y-60000000D03*
%TD*%
%TO.C,R32*%
X93087500Y-90000000D03*
X94912500Y-90000000D03*
%TD*%
%TO.C,R103*%
X64087500Y-176000000D03*
X65912500Y-176000000D03*
%TD*%
D10*
%TO.C,C36*%
X118525000Y-18000000D03*
X121475000Y-18000000D03*
%TD*%
D20*
%TO.C,U4*%
X51525000Y-118095000D03*
X51525000Y-119365000D03*
X51525000Y-120635000D03*
X51525000Y-121905000D03*
X56475000Y-121905000D03*
X56475000Y-120635000D03*
X56475000Y-119365000D03*
X56475000Y-118095000D03*
%TD*%
D11*
%TO.C,R110*%
X123547500Y-88900000D03*
X125372500Y-88900000D03*
%TD*%
D16*
%TO.C,C10*%
X51525000Y-155355000D03*
X51525000Y-153455000D03*
%TD*%
D11*
%TO.C,R99*%
X64087500Y-124000000D03*
X65912500Y-124000000D03*
%TD*%
%TO.C,R75*%
X98087500Y-186000000D03*
X99912500Y-186000000D03*
%TD*%
D17*
%TO.C,C13*%
X112475000Y-24645000D03*
X112475000Y-26545000D03*
%TD*%
D20*
%TO.C,U14*%
X139525000Y-8095000D03*
X139525000Y-9365000D03*
X139525000Y-10635000D03*
X139525000Y-11905000D03*
X144475000Y-11905000D03*
X144475000Y-10635000D03*
X144475000Y-9365000D03*
X144475000Y-8095000D03*
%TD*%
D11*
%TO.C,R107*%
X148947500Y-21590000D03*
X150772500Y-21590000D03*
%TD*%
%TO.C,R61*%
X93087500Y-156000000D03*
X94912500Y-156000000D03*
%TD*%
D22*
%TO.C,SW5*%
X81550000Y-147460000D03*
X81550000Y-150000000D03*
X81550000Y-152540000D03*
X90450000Y-152540000D03*
X90450000Y-150000000D03*
X90450000Y-147460000D03*
%TD*%
D23*
%TO.C,Q6*%
X121600000Y-151462500D03*
X119700000Y-151462500D03*
X120650000Y-153337500D03*
%TD*%
D13*
%TO.C,D12*%
X36950000Y-180000000D03*
X39050000Y-180000000D03*
%TD*%
D12*
%TO.C,C74*%
X77050000Y-154000000D03*
X78950000Y-154000000D03*
%TD*%
D10*
%TO.C,C52*%
X156525000Y-20000000D03*
X159475000Y-20000000D03*
%TD*%
M02*
