%TF.GenerationSoftware,KiCad,Pcbnew,9.0.7*%
%TF.CreationDate,2026-03-20T20:36:50+01:00*%
%TF.ProjectId,aurora-dsp-icepower-booster,6175726f-7261-42d6-9473-702d69636570,rev?*%
%TF.SameCoordinates,Original*%
%TF.FileFunction,Legend,Top*%
%TF.FilePolarity,Positive*%
%FSLAX46Y46*%
G04 Gerber Fmt 4.6, Leading zero omitted, Abs format (unit mm)*
G04 Created by KiCad (PCBNEW 9.0.7) date 2026-03-20 20:36:50*
%MOMM*%
%LPD*%
G01*
G04 APERTURE LIST*
G04 Aperture macros list*
%AMRoundRect*
0 Rectangle with rounded corners*
0 $1 Rounding radius*
0 $2 $3 $4 $5 $6 $7 $8 $9 X,Y pos of 4 corners*
0 Add a 4 corners polygon primitive as box body*
4,1,4,$2,$3,$4,$5,$6,$7,$8,$9,$2,$3,0*
0 Add four circle primitives for the rounded corners*
1,1,$1+$1,$2,$3*
1,1,$1+$1,$4,$5*
1,1,$1+$1,$6,$7*
1,1,$1+$1,$8,$9*
0 Add four rect primitives between the rounded corners*
20,1,$1+$1,$2,$3,$4,$5,0*
20,1,$1+$1,$4,$5,$6,$7,0*
20,1,$1+$1,$6,$7,$8,$9,0*
20,1,$1+$1,$8,$9,$2,$3,0*%
G04 Aperture macros list end*
%ADD10C,0.150000*%
%ADD11C,0.120000*%
%ADD12C,0.152400*%
%ADD13C,0.127000*%
%ADD14C,0.200000*%
%ADD15RoundRect,0.250000X-0.250000X-0.475000X0.250000X-0.475000X0.250000X0.475000X-0.250000X0.475000X0*%
%ADD16RoundRect,0.250000X-0.325000X-1.100000X0.325000X-1.100000X0.325000X1.100000X-0.325000X1.100000X0*%
%ADD17RoundRect,0.250000X-0.325000X-0.650000X0.325000X-0.650000X0.325000X0.650000X-0.325000X0.650000X0*%
%ADD18RoundRect,0.140000X-0.140000X-0.170000X0.140000X-0.170000X0.140000X0.170000X-0.140000X0.170000X0*%
%ADD19RoundRect,0.250000X-1.000000X-0.900000X1.000000X-0.900000X1.000000X0.900000X-1.000000X0.900000X0*%
%ADD20RoundRect,0.112500X-0.187500X-0.112500X0.187500X-0.112500X0.187500X0.112500X-0.187500X0.112500X0*%
%ADD21RoundRect,0.218750X-0.218750X-0.381250X0.218750X-0.381250X0.218750X0.381250X-0.218750X0.381250X0*%
%ADD22R,3.500000X3.500000*%
%ADD23RoundRect,0.750000X-1.000000X0.750000X-1.000000X-0.750000X1.000000X-0.750000X1.000000X0.750000X0*%
%ADD24RoundRect,0.875000X-0.875000X0.875000X-0.875000X-0.875000X0.875000X-0.875000X0.875000X0.875000X0*%
%ADD25C,1.600000*%
%ADD26C,3.400000*%
%ADD27C,2.900000*%
%ADD28C,1.200000*%
%ADD29RoundRect,0.375000X-0.375000X-0.375000X0.375000X-0.375000X0.375000X0.375000X-0.375000X0.375000X0*%
%ADD30RoundRect,0.375000X-0.375000X-0.625000X0.375000X-0.625000X0.375000X0.625000X-0.375000X0.625000X0*%
%ADD31RoundRect,0.150000X-0.587500X-0.150000X0.587500X-0.150000X0.587500X0.150000X-0.587500X0.150000X0*%
%ADD32RoundRect,0.250000X-0.262500X-0.450000X0.262500X-0.450000X0.262500X0.450000X-0.262500X0.450000X0*%
%ADD33C,2.000000*%
%ADD34C,1.700000*%
%ADD35RoundRect,0.250000X-0.500000X-0.300000X0.500000X-0.300000X0.500000X0.300000X-0.500000X0.300000X0*%
%ADD36C,1.320800*%
%ADD37RoundRect,0.150000X-0.825000X-0.150000X0.825000X-0.150000X0.825000X0.150000X-0.825000X0.150000X0*%
%ADD38RoundRect,0.100500X-0.986500X-0.301500X0.986500X-0.301500X0.986500X0.301500X-0.986500X0.301500X0*%
%ADD39RoundRect,0.102000X-1.205000X-1.906000X1.205000X-1.906000X1.205000X1.906000X-1.205000X1.906000X0*%
%ADD40RoundRect,0.150000X-0.512500X-0.150000X0.512500X-0.150000X0.512500X0.150000X-0.512500X0.150000X0*%
%ADD41C,3.200000*%
G04 APERTURE END LIST*
D10*
X120541095Y-10834819D02*
X120541095Y-11644342D01*
X120541095Y-11644342D02*
X120588714Y-11739580D01*
X120588714Y-11739580D02*
X120636333Y-11787200D01*
X120636333Y-11787200D02*
X120731571Y-11834819D01*
X120731571Y-11834819D02*
X120922047Y-11834819D01*
X120922047Y-11834819D02*
X121017285Y-11787200D01*
X121017285Y-11787200D02*
X121064904Y-11739580D01*
X121064904Y-11739580D02*
X121112523Y-11644342D01*
X121112523Y-11644342D02*
X121112523Y-10834819D01*
X122112523Y-11834819D02*
X121541095Y-11834819D01*
X121826809Y-11834819D02*
X121826809Y-10834819D01*
X121826809Y-10834819D02*
X121731571Y-10977676D01*
X121731571Y-10977676D02*
X121636333Y-11072914D01*
X121636333Y-11072914D02*
X121541095Y-11120533D01*
X99162666Y-18454819D02*
X99162666Y-18692914D01*
X98924571Y-18597676D02*
X99162666Y-18692914D01*
X99162666Y-18692914D02*
X99400761Y-18597676D01*
X99019809Y-18883390D02*
X99162666Y-18692914D01*
X99162666Y-18692914D02*
X99305523Y-18883390D01*
X99162666Y-18454819D02*
X99162666Y-18692914D01*
X98924571Y-18597676D02*
X99162666Y-18692914D01*
X99162666Y-18692914D02*
X99400761Y-18597676D01*
X99019809Y-18883390D02*
X99162666Y-18692914D01*
X99162666Y-18692914D02*
X99305523Y-18883390D01*
X144226905Y880180D02*
X144226905Y70657D01*
X144226905Y70657D02*
X144274524Y-24580D01*
X144274524Y-24580D02*
X144322143Y-72200D01*
X144322143Y-72200D02*
X144417381Y-119819D01*
X144417381Y-119819D02*
X144607857Y-119819D01*
X144607857Y-119819D02*
X144703095Y-72200D01*
X144703095Y-72200D02*
X144750714Y-24580D01*
X144750714Y-24580D02*
X144798333Y70657D01*
X144798333Y70657D02*
X144798333Y880180D01*
X145798333Y-119819D02*
X145226905Y-119819D01*
X145512619Y-119819D02*
X145512619Y880180D01*
X145512619Y880180D02*
X145417381Y737323D01*
X145417381Y737323D02*
X145322143Y642085D01*
X145322143Y642085D02*
X145226905Y594466D01*
X146655476Y546847D02*
X146655476Y-119819D01*
X146417381Y927800D02*
X146179286Y213514D01*
X146179286Y213514D02*
X146798333Y213514D01*
D11*
%TO.C,C1*%
X42265000Y-12261252D02*
X42265000Y-11738748D01*
X43735000Y-12261252D02*
X43735000Y-11738748D01*
%TO.C,C10*%
X65765000Y-104761252D02*
X65765000Y-104238748D01*
X67235000Y-104761252D02*
X67235000Y-104238748D01*
%TO.C,C11*%
X65765000Y-132761252D02*
X65765000Y-132238748D01*
X67235000Y-132761252D02*
X67235000Y-132238748D01*
%TO.C,C12*%
X65765000Y-160261252D02*
X65765000Y-159738748D01*
X67235000Y-160261252D02*
X67235000Y-159738748D01*
%TO.C,C13*%
X65765000Y-188261252D02*
X65765000Y-187738748D01*
X67235000Y-188261252D02*
X67235000Y-187738748D01*
%TO.C,C14*%
X84265000Y-34261252D02*
X84265000Y-33738748D01*
X85735000Y-34261252D02*
X85735000Y-33738748D01*
%TO.C,C15*%
X83765000Y-19261252D02*
X83765000Y-18738748D01*
X85235000Y-19261252D02*
X85235000Y-18738748D01*
%TO.C,C16*%
X94640000Y-8711252D02*
X94640000Y-7288748D01*
X97360000Y-8711252D02*
X97360000Y-7288748D01*
%TO.C,C17*%
X88640000Y-32711252D02*
X88640000Y-31288748D01*
X91360000Y-32711252D02*
X91360000Y-31288748D01*
%TO.C,C18*%
X104265000Y-5261252D02*
X104265000Y-4738748D01*
X105735000Y-5261252D02*
X105735000Y-4738748D01*
%TO.C,C19*%
X98265000Y-32261252D02*
X98265000Y-31738748D01*
X99735000Y-32261252D02*
X99735000Y-31738748D01*
%TO.C,C2*%
X70765000Y-39761252D02*
X70765000Y-39238748D01*
X72235000Y-39761252D02*
X72235000Y-39238748D01*
%TO.C,C20*%
X106640000Y-85711252D02*
X106640000Y-84288748D01*
X109360000Y-85711252D02*
X109360000Y-84288748D01*
%TO.C,C21*%
X102640000Y-141711252D02*
X102640000Y-140288748D01*
X105360000Y-141711252D02*
X105360000Y-140288748D01*
%TO.C,C22*%
X140265000Y-4261252D02*
X140265000Y-3738748D01*
X141735000Y-4261252D02*
X141735000Y-3738748D01*
%TO.C,C23*%
X120765000Y-28761252D02*
X120765000Y-28238748D01*
X122235000Y-28761252D02*
X122235000Y-28238748D01*
%TO.C,C24*%
X74265000Y-58261252D02*
X74265000Y-57738748D01*
X75735000Y-58261252D02*
X75735000Y-57738748D01*
%TO.C,C25*%
X63265000Y-58261252D02*
X63265000Y-57738748D01*
X64735000Y-58261252D02*
X64735000Y-57738748D01*
%TO.C,C26*%
X107765000Y-39761252D02*
X107765000Y-39238748D01*
X109235000Y-39761252D02*
X109235000Y-39238748D01*
%TO.C,C27*%
X107765000Y-67761252D02*
X107765000Y-67238748D01*
X109235000Y-67761252D02*
X109235000Y-67238748D01*
%TO.C,C28*%
X107765000Y-95261252D02*
X107765000Y-94738748D01*
X109235000Y-95261252D02*
X109235000Y-94738748D01*
%TO.C,C29*%
X107765000Y-123261252D02*
X107765000Y-122738748D01*
X109235000Y-123261252D02*
X109235000Y-122738748D01*
%TO.C,C3*%
X70765000Y-67761252D02*
X70765000Y-67238748D01*
X72235000Y-67761252D02*
X72235000Y-67238748D01*
%TO.C,C30*%
X107765000Y-150761252D02*
X107765000Y-150238748D01*
X109235000Y-150761252D02*
X109235000Y-150238748D01*
%TO.C,C31*%
X107765000Y-178761252D02*
X107765000Y-178238748D01*
X109235000Y-178761252D02*
X109235000Y-178238748D01*
%TO.C,C32*%
X102765000Y-49261252D02*
X102765000Y-48738748D01*
X104235000Y-49261252D02*
X104235000Y-48738748D01*
%TO.C,C33*%
X102765000Y-77261252D02*
X102765000Y-76738748D01*
X104235000Y-77261252D02*
X104235000Y-76738748D01*
%TO.C,C34*%
X102765000Y-104761252D02*
X102765000Y-104238748D01*
X104235000Y-104761252D02*
X104235000Y-104238748D01*
%TO.C,C35*%
X102765000Y-132761252D02*
X102765000Y-132238748D01*
X104235000Y-132761252D02*
X104235000Y-132238748D01*
%TO.C,C36*%
X102765000Y-160261252D02*
X102765000Y-159738748D01*
X104235000Y-160261252D02*
X104235000Y-159738748D01*
%TO.C,C37*%
X102765000Y-188261252D02*
X102765000Y-187738748D01*
X104235000Y-188261252D02*
X104235000Y-187738748D01*
%TO.C,C38*%
X129265000Y-41211252D02*
X129265000Y-40688748D01*
X130735000Y-41211252D02*
X130735000Y-40688748D01*
%TO.C,C39*%
X129265000Y-68901252D02*
X129265000Y-68378748D01*
X130735000Y-68901252D02*
X130735000Y-68378748D01*
%TO.C,C4*%
X70765000Y-95261252D02*
X70765000Y-94738748D01*
X72235000Y-95261252D02*
X72235000Y-94738748D01*
%TO.C,C40*%
X129265000Y-96581252D02*
X129265000Y-96058748D01*
X130735000Y-96581252D02*
X130735000Y-96058748D01*
%TO.C,C41*%
X129265000Y-124401252D02*
X129265000Y-123878748D01*
X130735000Y-124401252D02*
X130735000Y-123878748D01*
%TO.C,C42*%
X129265000Y-152211252D02*
X129265000Y-151688748D01*
X130735000Y-152211252D02*
X130735000Y-151688748D01*
%TO.C,C43*%
X129265000Y-179981252D02*
X129265000Y-179458748D01*
X130735000Y-179981252D02*
X130735000Y-179458748D01*
%TO.C,C44*%
X129265000Y-48211252D02*
X129265000Y-47688748D01*
X130735000Y-48211252D02*
X130735000Y-47688748D01*
%TO.C,C45*%
X129265000Y-75901252D02*
X129265000Y-75378748D01*
X130735000Y-75901252D02*
X130735000Y-75378748D01*
%TO.C,C46*%
X129265000Y-103581252D02*
X129265000Y-103058748D01*
X130735000Y-103581252D02*
X130735000Y-103058748D01*
%TO.C,C47*%
X129265000Y-131401252D02*
X129265000Y-130878748D01*
X130735000Y-131401252D02*
X130735000Y-130878748D01*
%TO.C,C48*%
X129265000Y-159211252D02*
X129265000Y-158688748D01*
X130735000Y-159211252D02*
X130735000Y-158688748D01*
%TO.C,C49*%
X129265000Y-186981252D02*
X129265000Y-186458748D01*
X130735000Y-186981252D02*
X130735000Y-186458748D01*
%TO.C,C5*%
X70765000Y-123261252D02*
X70765000Y-122738748D01*
X72235000Y-123261252D02*
X72235000Y-122738748D01*
%TO.C,C50*%
X39265000Y-41211252D02*
X39265000Y-40688748D01*
X40735000Y-41211252D02*
X40735000Y-40688748D01*
%TO.C,C51*%
X39265000Y-48211252D02*
X39265000Y-47688748D01*
X40735000Y-48211252D02*
X40735000Y-47688748D01*
%TO.C,C52*%
X39265000Y-68901252D02*
X39265000Y-68378748D01*
X40735000Y-68901252D02*
X40735000Y-68378748D01*
%TO.C,C53*%
X39265000Y-75901252D02*
X39265000Y-75378748D01*
X40735000Y-75901252D02*
X40735000Y-75378748D01*
%TO.C,C54*%
X39265000Y-96581252D02*
X39265000Y-96058748D01*
X40735000Y-96581252D02*
X40735000Y-96058748D01*
%TO.C,C55*%
X39265000Y-103581252D02*
X39265000Y-103058748D01*
X40735000Y-103581252D02*
X40735000Y-103058748D01*
%TO.C,C56*%
X39265000Y-124401252D02*
X39265000Y-123878748D01*
X40735000Y-124401252D02*
X40735000Y-123878748D01*
%TO.C,C57*%
X39265000Y-131401252D02*
X39265000Y-130878748D01*
X40735000Y-131401252D02*
X40735000Y-130878748D01*
%TO.C,C58*%
X39265000Y-152211252D02*
X39265000Y-151688748D01*
X40735000Y-152211252D02*
X40735000Y-151688748D01*
%TO.C,C59*%
X39265000Y-159211252D02*
X39265000Y-158688748D01*
X40735000Y-159211252D02*
X40735000Y-158688748D01*
%TO.C,C6*%
X70765000Y-150761252D02*
X70765000Y-150238748D01*
X72235000Y-150761252D02*
X72235000Y-150238748D01*
%TO.C,C60*%
X39265000Y-179981252D02*
X39265000Y-179458748D01*
X40735000Y-179981252D02*
X40735000Y-179458748D01*
%TO.C,C61*%
X39265000Y-186981252D02*
X39265000Y-186458748D01*
X40735000Y-186981252D02*
X40735000Y-186458748D01*
%TO.C,C62*%
X45090000Y-41661252D02*
X45090000Y-40238748D01*
X46910000Y-41661252D02*
X46910000Y-40238748D01*
%TO.C,C63*%
X45090000Y-48661252D02*
X45090000Y-47238748D01*
X46910000Y-48661252D02*
X46910000Y-47238748D01*
%TO.C,C64*%
X45090000Y-69351252D02*
X45090000Y-67928748D01*
X46910000Y-69351252D02*
X46910000Y-67928748D01*
%TO.C,C65*%
X45090000Y-76351252D02*
X45090000Y-74928748D01*
X46910000Y-76351252D02*
X46910000Y-74928748D01*
%TO.C,C66*%
X45090000Y-97031252D02*
X45090000Y-95608748D01*
X46910000Y-97031252D02*
X46910000Y-95608748D01*
%TO.C,C67*%
X45090000Y-104031252D02*
X45090000Y-102608748D01*
X46910000Y-104031252D02*
X46910000Y-102608748D01*
%TO.C,C68*%
X45090000Y-124851252D02*
X45090000Y-123428748D01*
X46910000Y-124851252D02*
X46910000Y-123428748D01*
%TO.C,C69*%
X45090000Y-131851252D02*
X45090000Y-130428748D01*
X46910000Y-131851252D02*
X46910000Y-130428748D01*
%TO.C,C7*%
X70765000Y-178761252D02*
X70765000Y-178238748D01*
X72235000Y-178761252D02*
X72235000Y-178238748D01*
%TO.C,C70*%
X45090000Y-152661252D02*
X45090000Y-151238748D01*
X46910000Y-152661252D02*
X46910000Y-151238748D01*
%TO.C,C71*%
X45090000Y-159661252D02*
X45090000Y-158238748D01*
X46910000Y-159661252D02*
X46910000Y-158238748D01*
%TO.C,C72*%
X45090000Y-180431252D02*
X45090000Y-179008748D01*
X46910000Y-180431252D02*
X46910000Y-179008748D01*
%TO.C,C73*%
X45090000Y-187431252D02*
X45090000Y-186008748D01*
X46910000Y-187431252D02*
X46910000Y-186008748D01*
%TO.C,C74*%
X74265000Y-114261252D02*
X74265000Y-113738748D01*
X75735000Y-114261252D02*
X75735000Y-113738748D01*
%TO.C,C75*%
X63265000Y-114261252D02*
X63265000Y-113738748D01*
X64735000Y-114261252D02*
X64735000Y-113738748D01*
%TO.C,C76*%
X74265000Y-169261252D02*
X74265000Y-168738748D01*
X75735000Y-169261252D02*
X75735000Y-168738748D01*
%TO.C,C77*%
X103265000Y-176261252D02*
X103265000Y-175738748D01*
X104735000Y-176261252D02*
X104735000Y-175738748D01*
%TO.C,C78*%
X147265000Y-9261252D02*
X147265000Y-8738748D01*
X148735000Y-9261252D02*
X148735000Y-8738748D01*
%TO.C,C79*%
X120765000Y-21761252D02*
X120765000Y-21238748D01*
X122235000Y-21761252D02*
X122235000Y-21238748D01*
%TO.C,C8*%
X65765000Y-49261252D02*
X65765000Y-48738748D01*
X67235000Y-49261252D02*
X67235000Y-48738748D01*
%TO.C,C80*%
X45738748Y-27265000D02*
X46261252Y-27265000D01*
X45738748Y-28735000D02*
X46261252Y-28735000D01*
%TO.C,C81*%
X143640000Y-9107836D02*
X143640000Y-8892164D01*
X144360000Y-9107836D02*
X144360000Y-8892164D01*
%TO.C,C9*%
X65765000Y-77261252D02*
X65765000Y-76738748D01*
X67235000Y-77261252D02*
X67235000Y-76738748D01*
%TO.C,D1*%
X36340000Y-17850000D02*
X36340000Y-22150000D01*
X36340000Y-17850000D02*
X42150000Y-17850000D01*
X36340000Y-22150000D02*
X42150000Y-22150000D01*
%TO.C,D10*%
X20390000Y-47100000D02*
X20390000Y-48800000D01*
X20390000Y-47100000D02*
X23050000Y-47100000D01*
X20390000Y-48800000D02*
X23050000Y-48800000D01*
%TO.C,D11*%
X20390000Y-67790000D02*
X20390000Y-69490000D01*
X20390000Y-67790000D02*
X23050000Y-67790000D01*
X20390000Y-69490000D02*
X23050000Y-69490000D01*
%TO.C,D12*%
X124390000Y-74790000D02*
X124390000Y-76490000D01*
X124390000Y-74790000D02*
X127050000Y-74790000D01*
X124390000Y-76490000D02*
X127050000Y-76490000D01*
%TO.C,D13*%
X20390000Y-74790000D02*
X20390000Y-76490000D01*
X20390000Y-74790000D02*
X23050000Y-74790000D01*
X20390000Y-76490000D02*
X23050000Y-76490000D01*
%TO.C,D14*%
X20390000Y-95470000D02*
X20390000Y-97170000D01*
X20390000Y-95470000D02*
X23050000Y-95470000D01*
X20390000Y-97170000D02*
X23050000Y-97170000D01*
%TO.C,D15*%
X124390000Y-102470000D02*
X124390000Y-104170000D01*
X124390000Y-102470000D02*
X127050000Y-102470000D01*
X124390000Y-104170000D02*
X127050000Y-104170000D01*
%TO.C,D16*%
X20390000Y-102470000D02*
X20390000Y-104170000D01*
X20390000Y-102470000D02*
X23050000Y-102470000D01*
X20390000Y-104170000D02*
X23050000Y-104170000D01*
%TO.C,D17*%
X20390000Y-123290000D02*
X20390000Y-124990000D01*
X20390000Y-123290000D02*
X23050000Y-123290000D01*
X20390000Y-124990000D02*
X23050000Y-124990000D01*
%TO.C,D18*%
X124390000Y-130290000D02*
X124390000Y-131990000D01*
X124390000Y-130290000D02*
X127050000Y-130290000D01*
X124390000Y-131990000D02*
X127050000Y-131990000D01*
%TO.C,D19*%
X20390000Y-130290000D02*
X20390000Y-131990000D01*
X20390000Y-130290000D02*
X23050000Y-130290000D01*
X20390000Y-131990000D02*
X23050000Y-131990000D01*
%TO.C,D2*%
X124390000Y-40100000D02*
X124390000Y-41800000D01*
X124390000Y-40100000D02*
X127050000Y-40100000D01*
X124390000Y-41800000D02*
X127050000Y-41800000D01*
%TO.C,D20*%
X20390000Y-151100000D02*
X20390000Y-152800000D01*
X20390000Y-151100000D02*
X23050000Y-151100000D01*
X20390000Y-152800000D02*
X23050000Y-152800000D01*
%TO.C,D21*%
X124390000Y-158100000D02*
X124390000Y-159800000D01*
X124390000Y-158100000D02*
X127050000Y-158100000D01*
X124390000Y-159800000D02*
X127050000Y-159800000D01*
%TO.C,D22*%
X20390000Y-158100000D02*
X20390000Y-159800000D01*
X20390000Y-158100000D02*
X23050000Y-158100000D01*
X20390000Y-159800000D02*
X23050000Y-159800000D01*
%TO.C,D23*%
X20390000Y-178870000D02*
X20390000Y-180570000D01*
X20390000Y-178870000D02*
X23050000Y-178870000D01*
X20390000Y-180570000D02*
X23050000Y-180570000D01*
%TO.C,D24*%
X124390000Y-185870000D02*
X124390000Y-187570000D01*
X124390000Y-185870000D02*
X127050000Y-185870000D01*
X124390000Y-187570000D02*
X127050000Y-187570000D01*
%TO.C,D25*%
X20390000Y-185870000D02*
X20390000Y-187570000D01*
X20390000Y-185870000D02*
X23050000Y-185870000D01*
X20390000Y-187570000D02*
X23050000Y-187570000D01*
%TO.C,D3*%
X124390000Y-67790000D02*
X124390000Y-69490000D01*
X124390000Y-67790000D02*
X127050000Y-67790000D01*
X124390000Y-69490000D02*
X127050000Y-69490000D01*
%TO.C,D4*%
X124390000Y-95470000D02*
X124390000Y-97170000D01*
X124390000Y-95470000D02*
X127050000Y-95470000D01*
X124390000Y-97170000D02*
X127050000Y-97170000D01*
%TO.C,D5*%
X124390000Y-123290000D02*
X124390000Y-124990000D01*
X124390000Y-123290000D02*
X127050000Y-123290000D01*
X124390000Y-124990000D02*
X127050000Y-124990000D01*
%TO.C,D6*%
X124390000Y-151100000D02*
X124390000Y-152800000D01*
X124390000Y-151100000D02*
X127050000Y-151100000D01*
X124390000Y-152800000D02*
X127050000Y-152800000D01*
%TO.C,D7*%
X124390000Y-178870000D02*
X124390000Y-180570000D01*
X124390000Y-178870000D02*
X127050000Y-178870000D01*
X124390000Y-180570000D02*
X127050000Y-180570000D01*
%TO.C,D8*%
X20390000Y-40100000D02*
X20390000Y-41800000D01*
X20390000Y-40100000D02*
X23050000Y-40100000D01*
X20390000Y-41800000D02*
X23050000Y-41800000D01*
%TO.C,D9*%
X124390000Y-47100000D02*
X124390000Y-48800000D01*
X124390000Y-47100000D02*
X127050000Y-47100000D01*
X124390000Y-48800000D02*
X127050000Y-48800000D01*
%TO.C,FB1*%
X101440000Y-8399622D02*
X101440000Y-7600378D01*
X102560000Y-8399622D02*
X102560000Y-7600378D01*
%TO.C,FB2*%
X95440000Y-32399622D02*
X95440000Y-31600378D01*
X96560000Y-32399622D02*
X96560000Y-31600378D01*
%TO.C,J1*%
X66270000Y-11730000D02*
X66270000Y-9830000D01*
X68970000Y-11730000D02*
X66270000Y-11730000D01*
X74620000Y-11930000D02*
X75670000Y-11930000D01*
X75470000Y-11730000D02*
X72870000Y-11730000D01*
X75670000Y-10880000D02*
X75670000Y-11930000D01*
%TO.C,J10*%
X132460000Y-61910000D02*
X132460000Y-63330000D01*
X132460000Y-67630000D02*
X132460000Y-65730000D01*
X132460000Y-69030000D02*
X132460000Y-70930000D01*
X132460000Y-73330000D02*
X132460000Y-74750000D01*
X139660000Y-61910000D02*
X132460000Y-61910000D01*
X139660000Y-61910000D02*
X139660000Y-59110000D01*
X139660000Y-74750000D02*
X132460000Y-74750000D01*
X139660000Y-74750000D02*
X139660000Y-77550000D01*
X145310000Y-59110000D02*
X139660000Y-59110000D01*
X145310000Y-59110000D02*
X145310000Y-55710000D01*
X145310000Y-77550000D02*
X139660000Y-77550000D01*
X145310000Y-80950000D02*
X145310000Y-77550000D01*
X151900000Y-55710000D02*
X145310000Y-55710000D01*
X151900000Y-55710000D02*
X151900000Y-57210000D01*
X151900000Y-57210000D02*
X154600000Y-57210000D01*
X151900000Y-79450000D02*
X151900000Y-80950000D01*
X151900000Y-79450000D02*
X154600000Y-79450000D01*
X151900000Y-80950000D02*
X145310000Y-80950000D01*
X154600000Y-57210000D02*
X154600000Y-79450000D01*
%TO.C,J11*%
X132460000Y-89590000D02*
X132460000Y-91010000D01*
X132460000Y-95310000D02*
X132460000Y-93410000D01*
X132460000Y-96710000D02*
X132460000Y-98610000D01*
X132460000Y-101010000D02*
X132460000Y-102430000D01*
X139660000Y-89590000D02*
X132460000Y-89590000D01*
X139660000Y-89590000D02*
X139660000Y-86790000D01*
X139660000Y-102430000D02*
X132460000Y-102430000D01*
X139660000Y-102430000D02*
X139660000Y-105230000D01*
X145310000Y-86790000D02*
X139660000Y-86790000D01*
X145310000Y-86790000D02*
X145310000Y-83390000D01*
X145310000Y-105230000D02*
X139660000Y-105230000D01*
X145310000Y-108630000D02*
X145310000Y-105230000D01*
X151900000Y-83390000D02*
X145310000Y-83390000D01*
X151900000Y-83390000D02*
X151900000Y-84890000D01*
X151900000Y-84890000D02*
X154600000Y-84890000D01*
X151900000Y-107130000D02*
X151900000Y-108630000D01*
X151900000Y-107130000D02*
X154600000Y-107130000D01*
X151900000Y-108630000D02*
X145310000Y-108630000D01*
X154600000Y-84890000D02*
X154600000Y-107130000D01*
%TO.C,J12*%
X132460000Y-117280000D02*
X132460000Y-118700000D01*
X132460000Y-123000000D02*
X132460000Y-121100000D01*
X132460000Y-124400000D02*
X132460000Y-126300000D01*
X132460000Y-128700000D02*
X132460000Y-130120000D01*
X139660000Y-117280000D02*
X132460000Y-117280000D01*
X139660000Y-117280000D02*
X139660000Y-114480000D01*
X139660000Y-130120000D02*
X132460000Y-130120000D01*
X139660000Y-130120000D02*
X139660000Y-132920000D01*
X145310000Y-114480000D02*
X139660000Y-114480000D01*
X145310000Y-114480000D02*
X145310000Y-111080000D01*
X145310000Y-132920000D02*
X139660000Y-132920000D01*
X145310000Y-136320000D02*
X145310000Y-132920000D01*
X151900000Y-111080000D02*
X145310000Y-111080000D01*
X151900000Y-111080000D02*
X151900000Y-112580000D01*
X151900000Y-112580000D02*
X154600000Y-112580000D01*
X151900000Y-134820000D02*
X151900000Y-136320000D01*
X151900000Y-134820000D02*
X154600000Y-134820000D01*
X151900000Y-136320000D02*
X145310000Y-136320000D01*
X154600000Y-112580000D02*
X154600000Y-134820000D01*
%TO.C,J13*%
X132460000Y-145220000D02*
X132460000Y-146640000D01*
X132460000Y-150940000D02*
X132460000Y-149040000D01*
X132460000Y-152340000D02*
X132460000Y-154240000D01*
X132460000Y-156640000D02*
X132460000Y-158060000D01*
X139660000Y-145220000D02*
X132460000Y-145220000D01*
X139660000Y-145220000D02*
X139660000Y-142420000D01*
X139660000Y-158060000D02*
X132460000Y-158060000D01*
X139660000Y-158060000D02*
X139660000Y-160860000D01*
X145310000Y-142420000D02*
X139660000Y-142420000D01*
X145310000Y-142420000D02*
X145310000Y-139020000D01*
X145310000Y-160860000D02*
X139660000Y-160860000D01*
X145310000Y-164260000D02*
X145310000Y-160860000D01*
X151900000Y-139020000D02*
X145310000Y-139020000D01*
X151900000Y-139020000D02*
X151900000Y-140520000D01*
X151900000Y-140520000D02*
X154600000Y-140520000D01*
X151900000Y-162760000D02*
X151900000Y-164260000D01*
X151900000Y-162760000D02*
X154600000Y-162760000D01*
X151900000Y-164260000D02*
X145310000Y-164260000D01*
X154600000Y-140520000D02*
X154600000Y-162760000D01*
%TO.C,J14*%
X132460000Y-172900000D02*
X132460000Y-174320000D01*
X132460000Y-178620000D02*
X132460000Y-176720000D01*
X132460000Y-180020000D02*
X132460000Y-181920000D01*
X132460000Y-184320000D02*
X132460000Y-185740000D01*
X139660000Y-172900000D02*
X132460000Y-172900000D01*
X139660000Y-172900000D02*
X139660000Y-170100000D01*
X139660000Y-185740000D02*
X132460000Y-185740000D01*
X139660000Y-185740000D02*
X139660000Y-188540000D01*
X145310000Y-170100000D02*
X139660000Y-170100000D01*
X145310000Y-170100000D02*
X145310000Y-166700000D01*
X145310000Y-188540000D02*
X139660000Y-188540000D01*
X145310000Y-191940000D02*
X145310000Y-188540000D01*
X151900000Y-166700000D02*
X145310000Y-166700000D01*
X151900000Y-166700000D02*
X151900000Y-168200000D01*
X151900000Y-168200000D02*
X154600000Y-168200000D01*
X151900000Y-190440000D02*
X151900000Y-191940000D01*
X151900000Y-190440000D02*
X154600000Y-190440000D01*
X151900000Y-191940000D02*
X145310000Y-191940000D01*
X154600000Y-168200000D02*
X154600000Y-190440000D01*
%TO.C,J2*%
X27120000Y-3840000D02*
X27120000Y-10370000D01*
X33510000Y-12180000D02*
X27430000Y-12180000D01*
X33820000Y-3840000D02*
X33820000Y-10370000D01*
%TO.C,J3*%
X6500000Y-27720000D02*
X6500000Y-29770000D01*
X6500000Y-29770000D02*
X12000000Y-29770000D01*
X6500000Y-51510000D02*
X6500000Y-53260000D01*
X6500000Y-51510000D02*
X12000000Y-51510000D01*
X12000000Y-32520000D02*
X12000000Y-29770000D01*
X12000000Y-32520000D02*
X19500000Y-32520000D01*
X12000000Y-48760000D02*
X19500000Y-48760000D01*
X12000000Y-51510000D02*
X12000000Y-48760000D01*
X19500000Y-48760000D02*
X19500000Y-32520000D01*
%TO.C,J4*%
X6500000Y-55410000D02*
X6500000Y-57460000D01*
X6500000Y-57460000D02*
X12000000Y-57460000D01*
X6500000Y-79200000D02*
X6500000Y-80950000D01*
X6500000Y-79200000D02*
X12000000Y-79200000D01*
X12000000Y-60210000D02*
X12000000Y-57460000D01*
X12000000Y-60210000D02*
X19500000Y-60210000D01*
X12000000Y-76450000D02*
X19500000Y-76450000D01*
X12000000Y-79200000D02*
X12000000Y-76450000D01*
X19500000Y-76450000D02*
X19500000Y-60210000D01*
%TO.C,J5*%
X6500000Y-83090000D02*
X6500000Y-85140000D01*
X6500000Y-85140000D02*
X12000000Y-85140000D01*
X6500000Y-106880000D02*
X6500000Y-108630000D01*
X6500000Y-106880000D02*
X12000000Y-106880000D01*
X12000000Y-87890000D02*
X12000000Y-85140000D01*
X12000000Y-87890000D02*
X19500000Y-87890000D01*
X12000000Y-104130000D02*
X19500000Y-104130000D01*
X12000000Y-106880000D02*
X12000000Y-104130000D01*
X19500000Y-104130000D02*
X19500000Y-87890000D01*
%TO.C,J6*%
X6500000Y-110910000D02*
X6500000Y-112960000D01*
X6500000Y-112960000D02*
X12000000Y-112960000D01*
X6500000Y-134700000D02*
X6500000Y-136450000D01*
X6500000Y-134700000D02*
X12000000Y-134700000D01*
X12000000Y-115710000D02*
X12000000Y-112960000D01*
X12000000Y-115710000D02*
X19500000Y-115710000D01*
X12000000Y-131950000D02*
X19500000Y-131950000D01*
X12000000Y-134700000D02*
X12000000Y-131950000D01*
X19500000Y-131950000D02*
X19500000Y-115710000D01*
%TO.C,J7*%
X6500000Y-138720000D02*
X6500000Y-140770000D01*
X6500000Y-140770000D02*
X12000000Y-140770000D01*
X6500000Y-162510000D02*
X6500000Y-164260000D01*
X6500000Y-162510000D02*
X12000000Y-162510000D01*
X12000000Y-143520000D02*
X12000000Y-140770000D01*
X12000000Y-143520000D02*
X19500000Y-143520000D01*
X12000000Y-159760000D02*
X19500000Y-159760000D01*
X12000000Y-162510000D02*
X12000000Y-159760000D01*
X19500000Y-159760000D02*
X19500000Y-143520000D01*
%TO.C,J8*%
X6500000Y-166490000D02*
X6500000Y-168540000D01*
X6500000Y-168540000D02*
X12000000Y-168540000D01*
X6500000Y-190280000D02*
X6500000Y-192030000D01*
X6500000Y-190280000D02*
X12000000Y-190280000D01*
X12000000Y-171290000D02*
X12000000Y-168540000D01*
X12000000Y-171290000D02*
X19500000Y-171290000D01*
X12000000Y-187530000D02*
X19500000Y-187530000D01*
X12000000Y-190280000D02*
X12000000Y-187530000D01*
X19500000Y-187530000D02*
X19500000Y-171290000D01*
%TO.C,J9*%
X132460000Y-34220000D02*
X132460000Y-35640000D01*
X132460000Y-39940000D02*
X132460000Y-38040000D01*
X132460000Y-41340000D02*
X132460000Y-43240000D01*
X132460000Y-45640000D02*
X132460000Y-47060000D01*
X139660000Y-34220000D02*
X132460000Y-34220000D01*
X139660000Y-34220000D02*
X139660000Y-31420000D01*
X139660000Y-47060000D02*
X132460000Y-47060000D01*
X139660000Y-47060000D02*
X139660000Y-49860000D01*
X145310000Y-31420000D02*
X139660000Y-31420000D01*
X145310000Y-31420000D02*
X145310000Y-28020000D01*
X145310000Y-49860000D02*
X139660000Y-49860000D01*
X145310000Y-53260000D02*
X145310000Y-49860000D01*
X151900000Y-28020000D02*
X145310000Y-28020000D01*
X151900000Y-28020000D02*
X151900000Y-29520000D01*
X151900000Y-29520000D02*
X154600000Y-29520000D01*
X151900000Y-51760000D02*
X151900000Y-53260000D01*
X151900000Y-51760000D02*
X154600000Y-51760000D01*
X151900000Y-53260000D02*
X145310000Y-53260000D01*
X154600000Y-29520000D02*
X154600000Y-51760000D01*
%TO.C,Q1*%
X49240000Y-28440000D02*
X50760000Y-28440000D01*
X49240000Y-28490000D02*
X49240000Y-28440000D01*
X49240000Y-30390000D02*
X49240000Y-29610000D01*
X49240000Y-31560000D02*
X49240000Y-31510000D01*
X50760000Y-28440000D02*
X50760000Y-29440000D01*
X50760000Y-30560000D02*
X50760000Y-31560000D01*
X50760000Y-31560000D02*
X49240000Y-31560000D01*
X48940000Y-29950000D02*
X48460000Y-29950000D01*
X48700000Y-29620000D01*
X48940000Y-29950000D01*
G36*
X48940000Y-29950000D02*
G01*
X48460000Y-29950000D01*
X48700000Y-29620000D01*
X48940000Y-29950000D01*
G37*
%TO.C,Q2*%
X95240000Y-42890000D02*
X96760000Y-42890000D01*
X95240000Y-42940000D02*
X95240000Y-42890000D01*
X95240000Y-44840000D02*
X95240000Y-44060000D01*
X95240000Y-46010000D02*
X95240000Y-45960000D01*
X96760000Y-42890000D02*
X96760000Y-43890000D01*
X96760000Y-45010000D02*
X96760000Y-46010000D01*
X96760000Y-46010000D02*
X95240000Y-46010000D01*
X94940000Y-44400000D02*
X94460000Y-44400000D01*
X94700000Y-44070000D01*
X94940000Y-44400000D01*
G36*
X94940000Y-44400000D02*
G01*
X94460000Y-44400000D01*
X94700000Y-44070000D01*
X94940000Y-44400000D01*
G37*
%TO.C,Q3*%
X95240000Y-70580000D02*
X96760000Y-70580000D01*
X95240000Y-70630000D02*
X95240000Y-70580000D01*
X95240000Y-72530000D02*
X95240000Y-71750000D01*
X95240000Y-73700000D02*
X95240000Y-73650000D01*
X96760000Y-70580000D02*
X96760000Y-71580000D01*
X96760000Y-72700000D02*
X96760000Y-73700000D01*
X96760000Y-73700000D02*
X95240000Y-73700000D01*
X94940000Y-72090000D02*
X94460000Y-72090000D01*
X94700000Y-71760000D01*
X94940000Y-72090000D01*
G36*
X94940000Y-72090000D02*
G01*
X94460000Y-72090000D01*
X94700000Y-71760000D01*
X94940000Y-72090000D01*
G37*
%TO.C,Q4*%
X95240000Y-98260000D02*
X96760000Y-98260000D01*
X95240000Y-98310000D02*
X95240000Y-98260000D01*
X95240000Y-100210000D02*
X95240000Y-99430000D01*
X95240000Y-101380000D02*
X95240000Y-101330000D01*
X96760000Y-98260000D02*
X96760000Y-99260000D01*
X96760000Y-100380000D02*
X96760000Y-101380000D01*
X96760000Y-101380000D02*
X95240000Y-101380000D01*
X94940000Y-99770000D02*
X94460000Y-99770000D01*
X94700000Y-99440000D01*
X94940000Y-99770000D01*
G36*
X94940000Y-99770000D02*
G01*
X94460000Y-99770000D01*
X94700000Y-99440000D01*
X94940000Y-99770000D01*
G37*
%TO.C,Q5*%
X95240000Y-126080000D02*
X96760000Y-126080000D01*
X95240000Y-126130000D02*
X95240000Y-126080000D01*
X95240000Y-128030000D02*
X95240000Y-127250000D01*
X95240000Y-129200000D02*
X95240000Y-129150000D01*
X96760000Y-126080000D02*
X96760000Y-127080000D01*
X96760000Y-128200000D02*
X96760000Y-129200000D01*
X96760000Y-129200000D02*
X95240000Y-129200000D01*
X94940000Y-127590000D02*
X94460000Y-127590000D01*
X94700000Y-127260000D01*
X94940000Y-127590000D01*
G36*
X94940000Y-127590000D02*
G01*
X94460000Y-127590000D01*
X94700000Y-127260000D01*
X94940000Y-127590000D01*
G37*
%TO.C,Q6*%
X95240000Y-153890000D02*
X96760000Y-153890000D01*
X95240000Y-153940000D02*
X95240000Y-153890000D01*
X95240000Y-155840000D02*
X95240000Y-155060000D01*
X95240000Y-157010000D02*
X95240000Y-156960000D01*
X96760000Y-153890000D02*
X96760000Y-154890000D01*
X96760000Y-156010000D02*
X96760000Y-157010000D01*
X96760000Y-157010000D02*
X95240000Y-157010000D01*
X94940000Y-155400000D02*
X94460000Y-155400000D01*
X94700000Y-155070000D01*
X94940000Y-155400000D01*
G36*
X94940000Y-155400000D02*
G01*
X94460000Y-155400000D01*
X94700000Y-155070000D01*
X94940000Y-155400000D01*
G37*
%TO.C,Q7*%
X95240000Y-181660000D02*
X96760000Y-181660000D01*
X95240000Y-181710000D02*
X95240000Y-181660000D01*
X95240000Y-183610000D02*
X95240000Y-182830000D01*
X95240000Y-184780000D02*
X95240000Y-184730000D01*
X96760000Y-181660000D02*
X96760000Y-182660000D01*
X96760000Y-183780000D02*
X96760000Y-184780000D01*
X96760000Y-184780000D02*
X95240000Y-184780000D01*
X94940000Y-183170000D02*
X94460000Y-183170000D01*
X94700000Y-182840000D01*
X94940000Y-183170000D01*
G36*
X94940000Y-183170000D02*
G01*
X94460000Y-183170000D01*
X94700000Y-182840000D01*
X94940000Y-183170000D01*
G37*
%TO.C,R1*%
X39265000Y-15227064D02*
X39265000Y-14772936D01*
X40735000Y-15227064D02*
X40735000Y-14772936D01*
%TO.C,R10*%
X52265000Y-148677064D02*
X52265000Y-148222936D01*
X53735000Y-148677064D02*
X53735000Y-148222936D01*
%TO.C,R100*%
X28265000Y-124367064D02*
X28265000Y-123912936D01*
X29735000Y-124367064D02*
X29735000Y-123912936D01*
%TO.C,R101*%
X28265000Y-131367064D02*
X28265000Y-130912936D01*
X29735000Y-131367064D02*
X29735000Y-130912936D01*
%TO.C,R102*%
X28265000Y-152177064D02*
X28265000Y-151722936D01*
X29735000Y-152177064D02*
X29735000Y-151722936D01*
%TO.C,R103*%
X28265000Y-159177064D02*
X28265000Y-158722936D01*
X29735000Y-159177064D02*
X29735000Y-158722936D01*
%TO.C,R104*%
X28265000Y-179947064D02*
X28265000Y-179492936D01*
X29735000Y-179947064D02*
X29735000Y-179492936D01*
%TO.C,R105*%
X28265000Y-186947064D02*
X28265000Y-186492936D01*
X29735000Y-186947064D02*
X29735000Y-186492936D01*
%TO.C,R106*%
X47265000Y-21227064D02*
X47265000Y-20772936D01*
X48735000Y-21227064D02*
X48735000Y-20772936D01*
%TO.C,R107*%
X47265000Y-25227064D02*
X47265000Y-24772936D01*
X48735000Y-25227064D02*
X48735000Y-24772936D01*
%TO.C,R108*%
X99265000Y-39677064D02*
X99265000Y-39222936D01*
X100735000Y-39677064D02*
X100735000Y-39222936D01*
%TO.C,R109*%
X99265000Y-67367064D02*
X99265000Y-66912936D01*
X100735000Y-67367064D02*
X100735000Y-66912936D01*
%TO.C,R11*%
X52265000Y-152177064D02*
X52265000Y-151722936D01*
X53735000Y-152177064D02*
X53735000Y-151722936D01*
%TO.C,R110*%
X99265000Y-95047064D02*
X99265000Y-94592936D01*
X100735000Y-95047064D02*
X100735000Y-94592936D01*
%TO.C,R111*%
X99265000Y-122867064D02*
X99265000Y-122412936D01*
X100735000Y-122867064D02*
X100735000Y-122412936D01*
%TO.C,R112*%
X99265000Y-150677064D02*
X99265000Y-150222936D01*
X100735000Y-150677064D02*
X100735000Y-150222936D01*
%TO.C,R113*%
X99265000Y-178447064D02*
X99265000Y-177992936D01*
X100735000Y-178447064D02*
X100735000Y-177992936D01*
%TO.C,R12*%
X52265000Y-176447064D02*
X52265000Y-175992936D01*
X53735000Y-176447064D02*
X53735000Y-175992936D01*
%TO.C,R13*%
X52265000Y-179947064D02*
X52265000Y-179492936D01*
X53735000Y-179947064D02*
X53735000Y-179492936D01*
%TO.C,R14*%
X52265000Y-46177064D02*
X52265000Y-45722936D01*
X53735000Y-46177064D02*
X53735000Y-45722936D01*
%TO.C,R15*%
X52265000Y-73867064D02*
X52265000Y-73412936D01*
X53735000Y-73867064D02*
X53735000Y-73412936D01*
%TO.C,R16*%
X52265000Y-101547064D02*
X52265000Y-101092936D01*
X53735000Y-101547064D02*
X53735000Y-101092936D01*
%TO.C,R17*%
X52265000Y-129367064D02*
X52265000Y-128912936D01*
X53735000Y-129367064D02*
X53735000Y-128912936D01*
%TO.C,R18*%
X52265000Y-157177064D02*
X52265000Y-156722936D01*
X53735000Y-157177064D02*
X53735000Y-156722936D01*
%TO.C,R19*%
X52265000Y-184947064D02*
X52265000Y-184492936D01*
X53735000Y-184947064D02*
X53735000Y-184492936D01*
%TO.C,R2*%
X52265000Y-37677064D02*
X52265000Y-37222936D01*
X53735000Y-37677064D02*
X53735000Y-37222936D01*
%TO.C,R20*%
X58265000Y-41177064D02*
X58265000Y-40722936D01*
X59735000Y-41177064D02*
X59735000Y-40722936D01*
%TO.C,R21*%
X58265000Y-68867064D02*
X58265000Y-68412936D01*
X59735000Y-68867064D02*
X59735000Y-68412936D01*
%TO.C,R22*%
X58265000Y-96547064D02*
X58265000Y-96092936D01*
X59735000Y-96547064D02*
X59735000Y-96092936D01*
%TO.C,R23*%
X58265000Y-124367064D02*
X58265000Y-123912936D01*
X59735000Y-124367064D02*
X59735000Y-123912936D01*
%TO.C,R24*%
X58265000Y-152177064D02*
X58265000Y-151722936D01*
X59735000Y-152177064D02*
X59735000Y-151722936D01*
%TO.C,R25*%
X58265000Y-179947064D02*
X58265000Y-179492936D01*
X59735000Y-179947064D02*
X59735000Y-179492936D01*
%TO.C,R26*%
X58265000Y-48177064D02*
X58265000Y-47722936D01*
X59735000Y-48177064D02*
X59735000Y-47722936D01*
%TO.C,R27*%
X76265000Y-37677064D02*
X76265000Y-37222936D01*
X77735000Y-37677064D02*
X77735000Y-37222936D01*
%TO.C,R28*%
X76265000Y-41177064D02*
X76265000Y-40722936D01*
X77735000Y-41177064D02*
X77735000Y-40722936D01*
%TO.C,R29*%
X76265000Y-44677064D02*
X76265000Y-44222936D01*
X77735000Y-44677064D02*
X77735000Y-44222936D01*
%TO.C,R3*%
X52265000Y-41177064D02*
X52265000Y-40722936D01*
X53735000Y-41177064D02*
X53735000Y-40722936D01*
%TO.C,R30*%
X58265000Y-75867064D02*
X58265000Y-75412936D01*
X59735000Y-75867064D02*
X59735000Y-75412936D01*
%TO.C,R31*%
X76265000Y-65367064D02*
X76265000Y-64912936D01*
X77735000Y-65367064D02*
X77735000Y-64912936D01*
%TO.C,R32*%
X76265000Y-68867064D02*
X76265000Y-68412936D01*
X77735000Y-68867064D02*
X77735000Y-68412936D01*
%TO.C,R33*%
X76265000Y-72367064D02*
X76265000Y-71912936D01*
X77735000Y-72367064D02*
X77735000Y-71912936D01*
%TO.C,R34*%
X58265000Y-103547064D02*
X58265000Y-103092936D01*
X59735000Y-103547064D02*
X59735000Y-103092936D01*
%TO.C,R35*%
X76265000Y-93047064D02*
X76265000Y-92592936D01*
X77735000Y-93047064D02*
X77735000Y-92592936D01*
%TO.C,R36*%
X76265000Y-96547064D02*
X76265000Y-96092936D01*
X77735000Y-96547064D02*
X77735000Y-96092936D01*
%TO.C,R37*%
X76265000Y-100047064D02*
X76265000Y-99592936D01*
X77735000Y-100047064D02*
X77735000Y-99592936D01*
%TO.C,R38*%
X58265000Y-131367064D02*
X58265000Y-130912936D01*
X59735000Y-131367064D02*
X59735000Y-130912936D01*
%TO.C,R39*%
X76265000Y-120867064D02*
X76265000Y-120412936D01*
X77735000Y-120867064D02*
X77735000Y-120412936D01*
%TO.C,R4*%
X52265000Y-65367064D02*
X52265000Y-64912936D01*
X53735000Y-65367064D02*
X53735000Y-64912936D01*
%TO.C,R40*%
X76265000Y-124367064D02*
X76265000Y-123912936D01*
X77735000Y-124367064D02*
X77735000Y-123912936D01*
%TO.C,R41*%
X76265000Y-127867064D02*
X76265000Y-127412936D01*
X77735000Y-127867064D02*
X77735000Y-127412936D01*
%TO.C,R42*%
X58265000Y-159177064D02*
X58265000Y-158722936D01*
X59735000Y-159177064D02*
X59735000Y-158722936D01*
%TO.C,R43*%
X76265000Y-148677064D02*
X76265000Y-148222936D01*
X77735000Y-148677064D02*
X77735000Y-148222936D01*
%TO.C,R44*%
X76265000Y-152177064D02*
X76265000Y-151722936D01*
X77735000Y-152177064D02*
X77735000Y-151722936D01*
%TO.C,R45*%
X76265000Y-155677064D02*
X76265000Y-155222936D01*
X77735000Y-155677064D02*
X77735000Y-155222936D01*
%TO.C,R46*%
X58265000Y-186947064D02*
X58265000Y-186492936D01*
X59735000Y-186947064D02*
X59735000Y-186492936D01*
%TO.C,R47*%
X76265000Y-176447064D02*
X76265000Y-175992936D01*
X77735000Y-176447064D02*
X77735000Y-175992936D01*
%TO.C,R48*%
X76265000Y-179947064D02*
X76265000Y-179492936D01*
X77735000Y-179947064D02*
X77735000Y-179492936D01*
%TO.C,R49*%
X76265000Y-183447064D02*
X76265000Y-182992936D01*
X77735000Y-183447064D02*
X77735000Y-182992936D01*
%TO.C,R5*%
X52265000Y-68867064D02*
X52265000Y-68412936D01*
X53735000Y-68867064D02*
X53735000Y-68412936D01*
%TO.C,R50*%
X60265000Y-44677064D02*
X60265000Y-44222936D01*
X61735000Y-44677064D02*
X61735000Y-44222936D01*
%TO.C,R51*%
X60265000Y-72367064D02*
X60265000Y-71912936D01*
X61735000Y-72367064D02*
X61735000Y-71912936D01*
%TO.C,R52*%
X60265000Y-100047064D02*
X60265000Y-99592936D01*
X61735000Y-100047064D02*
X61735000Y-99592936D01*
%TO.C,R53*%
X60265000Y-127867064D02*
X60265000Y-127412936D01*
X61735000Y-127867064D02*
X61735000Y-127412936D01*
%TO.C,R54*%
X60265000Y-155677064D02*
X60265000Y-155222936D01*
X61735000Y-155677064D02*
X61735000Y-155222936D01*
%TO.C,R55*%
X60265000Y-183447064D02*
X60265000Y-182992936D01*
X61735000Y-183447064D02*
X61735000Y-182992936D01*
%TO.C,R56*%
X57265000Y-25227064D02*
X57265000Y-24772936D01*
X58735000Y-25227064D02*
X58735000Y-24772936D01*
%TO.C,R57*%
X57265000Y-29227064D02*
X57265000Y-28772936D01*
X58735000Y-29227064D02*
X58735000Y-28772936D01*
%TO.C,R58*%
X119265000Y-48177064D02*
X119265000Y-47722936D01*
X120735000Y-48177064D02*
X120735000Y-47722936D01*
%TO.C,R59*%
X119265000Y-75867064D02*
X119265000Y-75412936D01*
X120735000Y-75867064D02*
X120735000Y-75412936D01*
%TO.C,R6*%
X52265000Y-93047064D02*
X52265000Y-92592936D01*
X53735000Y-93047064D02*
X53735000Y-92592936D01*
%TO.C,R60*%
X119265000Y-103547064D02*
X119265000Y-103092936D01*
X120735000Y-103547064D02*
X120735000Y-103092936D01*
%TO.C,R61*%
X119265000Y-131367064D02*
X119265000Y-130912936D01*
X120735000Y-131367064D02*
X120735000Y-130912936D01*
%TO.C,R62*%
X119265000Y-159177064D02*
X119265000Y-158722936D01*
X120735000Y-159177064D02*
X120735000Y-158722936D01*
%TO.C,R63*%
X119265000Y-186947064D02*
X119265000Y-186492936D01*
X120735000Y-186947064D02*
X120735000Y-186492936D01*
%TO.C,R64*%
X111265000Y-41177064D02*
X111265000Y-40722936D01*
X112735000Y-41177064D02*
X112735000Y-40722936D01*
%TO.C,R65*%
X111265000Y-68867064D02*
X111265000Y-68412936D01*
X112735000Y-68867064D02*
X112735000Y-68412936D01*
%TO.C,R66*%
X111265000Y-96547064D02*
X111265000Y-96092936D01*
X112735000Y-96547064D02*
X112735000Y-96092936D01*
%TO.C,R67*%
X111265000Y-124367064D02*
X111265000Y-123912936D01*
X112735000Y-124367064D02*
X112735000Y-123912936D01*
%TO.C,R68*%
X111265000Y-152177064D02*
X111265000Y-151722936D01*
X112735000Y-152177064D02*
X112735000Y-151722936D01*
%TO.C,R69*%
X111265000Y-179947064D02*
X111265000Y-179492936D01*
X112735000Y-179947064D02*
X112735000Y-179492936D01*
%TO.C,R7*%
X52265000Y-96547064D02*
X52265000Y-96092936D01*
X53735000Y-96547064D02*
X53735000Y-96092936D01*
%TO.C,R70*%
X115265000Y-41177064D02*
X115265000Y-40722936D01*
X116735000Y-41177064D02*
X116735000Y-40722936D01*
%TO.C,R71*%
X115265000Y-68867064D02*
X115265000Y-68412936D01*
X116735000Y-68867064D02*
X116735000Y-68412936D01*
%TO.C,R72*%
X115265000Y-96547064D02*
X115265000Y-96092936D01*
X116735000Y-96547064D02*
X116735000Y-96092936D01*
%TO.C,R73*%
X115265000Y-124367064D02*
X115265000Y-123912936D01*
X116735000Y-124367064D02*
X116735000Y-123912936D01*
%TO.C,R74*%
X115265000Y-152177064D02*
X115265000Y-151722936D01*
X116735000Y-152177064D02*
X116735000Y-151722936D01*
%TO.C,R75*%
X115265000Y-179947064D02*
X115265000Y-179492936D01*
X116735000Y-179947064D02*
X116735000Y-179492936D01*
%TO.C,R76*%
X119265000Y-41177064D02*
X119265000Y-40722936D01*
X120735000Y-41177064D02*
X120735000Y-40722936D01*
%TO.C,R77*%
X119265000Y-68867064D02*
X119265000Y-68412936D01*
X120735000Y-68867064D02*
X120735000Y-68412936D01*
%TO.C,R78*%
X119265000Y-96547064D02*
X119265000Y-96092936D01*
X120735000Y-96547064D02*
X120735000Y-96092936D01*
%TO.C,R79*%
X119265000Y-124367064D02*
X119265000Y-123912936D01*
X120735000Y-124367064D02*
X120735000Y-123912936D01*
%TO.C,R8*%
X52265000Y-120867064D02*
X52265000Y-120412936D01*
X53735000Y-120867064D02*
X53735000Y-120412936D01*
%TO.C,R80*%
X119265000Y-152177064D02*
X119265000Y-151722936D01*
X120735000Y-152177064D02*
X120735000Y-151722936D01*
%TO.C,R81*%
X119265000Y-179947064D02*
X119265000Y-179492936D01*
X120735000Y-179947064D02*
X120735000Y-179492936D01*
%TO.C,R82*%
X122265000Y-41177064D02*
X122265000Y-40722936D01*
X123735000Y-41177064D02*
X123735000Y-40722936D01*
%TO.C,R83*%
X122265000Y-68867064D02*
X122265000Y-68412936D01*
X123735000Y-68867064D02*
X123735000Y-68412936D01*
%TO.C,R84*%
X122265000Y-96547064D02*
X122265000Y-96092936D01*
X123735000Y-96547064D02*
X123735000Y-96092936D01*
%TO.C,R85*%
X122265000Y-124367064D02*
X122265000Y-123912936D01*
X123735000Y-124367064D02*
X123735000Y-123912936D01*
%TO.C,R86*%
X122265000Y-152177064D02*
X122265000Y-151722936D01*
X123735000Y-152177064D02*
X123735000Y-151722936D01*
%TO.C,R87*%
X122265000Y-179947064D02*
X122265000Y-179492936D01*
X123735000Y-179947064D02*
X123735000Y-179492936D01*
%TO.C,R88*%
X122265000Y-48177064D02*
X122265000Y-47722936D01*
X123735000Y-48177064D02*
X123735000Y-47722936D01*
%TO.C,R89*%
X122265000Y-75867064D02*
X122265000Y-75412936D01*
X123735000Y-75867064D02*
X123735000Y-75412936D01*
%TO.C,R9*%
X52265000Y-124367064D02*
X52265000Y-123912936D01*
X53735000Y-124367064D02*
X53735000Y-123912936D01*
%TO.C,R90*%
X122265000Y-103547064D02*
X122265000Y-103092936D01*
X123735000Y-103547064D02*
X123735000Y-103092936D01*
%TO.C,R91*%
X122265000Y-131367064D02*
X122265000Y-130912936D01*
X123735000Y-131367064D02*
X123735000Y-130912936D01*
%TO.C,R92*%
X122265000Y-159177064D02*
X122265000Y-158722936D01*
X123735000Y-159177064D02*
X123735000Y-158722936D01*
%TO.C,R93*%
X122265000Y-186947064D02*
X122265000Y-186492936D01*
X123735000Y-186947064D02*
X123735000Y-186492936D01*
%TO.C,R94*%
X28265000Y-41177064D02*
X28265000Y-40722936D01*
X29735000Y-41177064D02*
X29735000Y-40722936D01*
%TO.C,R95*%
X28265000Y-48177064D02*
X28265000Y-47722936D01*
X29735000Y-48177064D02*
X29735000Y-47722936D01*
%TO.C,R96*%
X28265000Y-68867064D02*
X28265000Y-68412936D01*
X29735000Y-68867064D02*
X29735000Y-68412936D01*
%TO.C,R97*%
X28265000Y-75867064D02*
X28265000Y-75412936D01*
X29735000Y-75867064D02*
X29735000Y-75412936D01*
%TO.C,R98*%
X28265000Y-96547064D02*
X28265000Y-96092936D01*
X29735000Y-96547064D02*
X29735000Y-96092936D01*
%TO.C,R99*%
X28265000Y-103547064D02*
X28265000Y-103092936D01*
X29735000Y-103547064D02*
X29735000Y-103092936D01*
%TO.C,SW1*%
X42880000Y-8140000D02*
X42880000Y-2940000D01*
X44930000Y-2190000D02*
X54830000Y-2190000D01*
X54830000Y-8890000D02*
X44930000Y-8890000D01*
X56880000Y-2940000D02*
X56880000Y-8140000D01*
X57180000Y-8540000D02*
X57180000Y-9840000D01*
X57180000Y-9840000D02*
X55880000Y-9840000D01*
%TO.C,SW2*%
X78800000Y-41060000D02*
X80840000Y-41060000D01*
X80840000Y-40110000D02*
X80840000Y-41060000D01*
X80840000Y-40110000D02*
X87160000Y-40110000D01*
X80840000Y-48790000D02*
X80840000Y-47050000D01*
X80840000Y-48790000D02*
X87160000Y-48790000D01*
X87160000Y-40110000D02*
X87160000Y-41850000D01*
X87160000Y-48790000D02*
X87160000Y-47050000D01*
%TO.C,SW3*%
X78800000Y-68750000D02*
X80840000Y-68750000D01*
X80840000Y-67800000D02*
X80840000Y-68750000D01*
X80840000Y-67800000D02*
X87160000Y-67800000D01*
X80840000Y-76480000D02*
X80840000Y-74740000D01*
X80840000Y-76480000D02*
X87160000Y-76480000D01*
X87160000Y-67800000D02*
X87160000Y-69540000D01*
X87160000Y-76480000D02*
X87160000Y-74740000D01*
%TO.C,SW4*%
X78800000Y-96430000D02*
X80840000Y-96430000D01*
X80840000Y-95480000D02*
X80840000Y-96430000D01*
X80840000Y-95480000D02*
X87160000Y-95480000D01*
X80840000Y-104160000D02*
X80840000Y-102420000D01*
X80840000Y-104160000D02*
X87160000Y-104160000D01*
X87160000Y-95480000D02*
X87160000Y-97220000D01*
X87160000Y-104160000D02*
X87160000Y-102420000D01*
%TO.C,SW5*%
X78800000Y-124250000D02*
X80840000Y-124250000D01*
X80840000Y-123300000D02*
X80840000Y-124250000D01*
X80840000Y-123300000D02*
X87160000Y-123300000D01*
X80840000Y-131980000D02*
X80840000Y-130240000D01*
X80840000Y-131980000D02*
X87160000Y-131980000D01*
X87160000Y-123300000D02*
X87160000Y-125040000D01*
X87160000Y-131980000D02*
X87160000Y-130240000D01*
%TO.C,SW6*%
X78800000Y-152060000D02*
X80840000Y-152060000D01*
X80840000Y-151110000D02*
X80840000Y-152060000D01*
X80840000Y-151110000D02*
X87160000Y-151110000D01*
X80840000Y-159790000D02*
X80840000Y-158050000D01*
X80840000Y-159790000D02*
X87160000Y-159790000D01*
X87160000Y-151110000D02*
X87160000Y-152850000D01*
X87160000Y-159790000D02*
X87160000Y-158050000D01*
%TO.C,SW7*%
X78800000Y-179830000D02*
X80840000Y-179830000D01*
X80840000Y-178880000D02*
X80840000Y-179830000D01*
X80840000Y-178880000D02*
X87160000Y-178880000D01*
X80840000Y-187560000D02*
X80840000Y-185820000D01*
X80840000Y-187560000D02*
X87160000Y-187560000D01*
X87160000Y-178880000D02*
X87160000Y-180620000D01*
X87160000Y-187560000D02*
X87160000Y-185820000D01*
D12*
%TO.C,U1*%
X137305000Y-21667000D02*
X137305000Y-1093000D01*
X137305000Y-1093000D02*
X105301000Y-1093000D01*
X105301000Y-1093000D02*
X105301000Y-21667000D01*
X105301000Y-21667000D02*
X137305000Y-21667000D01*
D11*
%TO.C,U10*%
X103940000Y-97260000D02*
X108060000Y-97260000D01*
X103940000Y-97355000D02*
X103940000Y-97260000D01*
X103940000Y-102380000D02*
X103940000Y-102285000D01*
X108060000Y-97260000D02*
X108060000Y-97355000D01*
X108060000Y-102285000D02*
X108060000Y-102380000D01*
X108060000Y-102380000D02*
X103940000Y-102380000D01*
X103400000Y-97350000D02*
X103160000Y-97020000D01*
X103640000Y-97020000D01*
X103400000Y-97350000D01*
G36*
X103400000Y-97350000D02*
G01*
X103160000Y-97020000D01*
X103640000Y-97020000D01*
X103400000Y-97350000D01*
G37*
%TO.C,U11*%
X103940000Y-125080000D02*
X108060000Y-125080000D01*
X103940000Y-125175000D02*
X103940000Y-125080000D01*
X103940000Y-130200000D02*
X103940000Y-130105000D01*
X108060000Y-125080000D02*
X108060000Y-125175000D01*
X108060000Y-130105000D02*
X108060000Y-130200000D01*
X108060000Y-130200000D02*
X103940000Y-130200000D01*
X103400000Y-125170000D02*
X103160000Y-124840000D01*
X103640000Y-124840000D01*
X103400000Y-125170000D01*
G36*
X103400000Y-125170000D02*
G01*
X103160000Y-124840000D01*
X103640000Y-124840000D01*
X103400000Y-125170000D01*
G37*
%TO.C,U12*%
X103940000Y-152890000D02*
X108060000Y-152890000D01*
X103940000Y-152985000D02*
X103940000Y-152890000D01*
X103940000Y-158010000D02*
X103940000Y-157915000D01*
X108060000Y-152890000D02*
X108060000Y-152985000D01*
X108060000Y-157915000D02*
X108060000Y-158010000D01*
X108060000Y-158010000D02*
X103940000Y-158010000D01*
X103400000Y-152980000D02*
X103160000Y-152650000D01*
X103640000Y-152650000D01*
X103400000Y-152980000D01*
G36*
X103400000Y-152980000D02*
G01*
X103160000Y-152650000D01*
X103640000Y-152650000D01*
X103400000Y-152980000D01*
G37*
%TO.C,U13*%
X103940000Y-180660000D02*
X108060000Y-180660000D01*
X103940000Y-180755000D02*
X103940000Y-180660000D01*
X103940000Y-185780000D02*
X103940000Y-185685000D01*
X108060000Y-180660000D02*
X108060000Y-180755000D01*
X108060000Y-185685000D02*
X108060000Y-185780000D01*
X108060000Y-185780000D02*
X103940000Y-185780000D01*
X103400000Y-180750000D02*
X103160000Y-180420000D01*
X103640000Y-180420000D01*
X103400000Y-180750000D01*
G36*
X103400000Y-180750000D02*
G01*
X103160000Y-180420000D01*
X103640000Y-180420000D01*
X103400000Y-180750000D01*
G37*
D13*
%TO.C,U14*%
X144830000Y-1550000D02*
X147170000Y-1550000D01*
X144830000Y-6450000D02*
X147170000Y-6450000D01*
D14*
X141625000Y-2095000D02*
G75*
G02*
X141425000Y-2095000I-100000J0D01*
G01*
X141425000Y-2095000D02*
G75*
G02*
X141625000Y-2095000I100000J0D01*
G01*
D11*
%TO.C,U15*%
X124090000Y-23440000D02*
X125910000Y-23440000D01*
X124090000Y-23490000D02*
X124090000Y-23440000D01*
X124090000Y-26560000D02*
X124090000Y-26510000D01*
X125910000Y-23440000D02*
X125910000Y-23490000D01*
X125910000Y-24610000D02*
X125910000Y-25390000D01*
X125910000Y-26510000D02*
X125910000Y-26560000D01*
X125910000Y-26560000D02*
X124090000Y-26560000D01*
X123550000Y-23490000D02*
X123310000Y-23160000D01*
X123790000Y-23160000D01*
X123550000Y-23490000D01*
G36*
X123550000Y-23490000D02*
G01*
X123310000Y-23160000D01*
X123790000Y-23160000D01*
X123550000Y-23490000D01*
G37*
%TO.C,U2*%
X66940000Y-41890000D02*
X71060000Y-41890000D01*
X66940000Y-41985000D02*
X66940000Y-41890000D01*
X66940000Y-47010000D02*
X66940000Y-46915000D01*
X71060000Y-41890000D02*
X71060000Y-41985000D01*
X71060000Y-46915000D02*
X71060000Y-47010000D01*
X71060000Y-47010000D02*
X66940000Y-47010000D01*
X66400000Y-41980000D02*
X66160000Y-41650000D01*
X66640000Y-41650000D01*
X66400000Y-41980000D01*
G36*
X66400000Y-41980000D02*
G01*
X66160000Y-41650000D01*
X66640000Y-41650000D01*
X66400000Y-41980000D01*
G37*
%TO.C,U3*%
X66940000Y-69580000D02*
X71060000Y-69580000D01*
X66940000Y-69675000D02*
X66940000Y-69580000D01*
X66940000Y-74700000D02*
X66940000Y-74605000D01*
X71060000Y-69580000D02*
X71060000Y-69675000D01*
X71060000Y-74605000D02*
X71060000Y-74700000D01*
X71060000Y-74700000D02*
X66940000Y-74700000D01*
X66400000Y-69670000D02*
X66160000Y-69340000D01*
X66640000Y-69340000D01*
X66400000Y-69670000D01*
G36*
X66400000Y-69670000D02*
G01*
X66160000Y-69340000D01*
X66640000Y-69340000D01*
X66400000Y-69670000D01*
G37*
%TO.C,U4*%
X66940000Y-97260000D02*
X71060000Y-97260000D01*
X66940000Y-97355000D02*
X66940000Y-97260000D01*
X66940000Y-102380000D02*
X66940000Y-102285000D01*
X71060000Y-97260000D02*
X71060000Y-97355000D01*
X71060000Y-102285000D02*
X71060000Y-102380000D01*
X71060000Y-102380000D02*
X66940000Y-102380000D01*
X66400000Y-97350000D02*
X66160000Y-97020000D01*
X66640000Y-97020000D01*
X66400000Y-97350000D01*
G36*
X66400000Y-97350000D02*
G01*
X66160000Y-97020000D01*
X66640000Y-97020000D01*
X66400000Y-97350000D01*
G37*
%TO.C,U5*%
X66940000Y-125080000D02*
X71060000Y-125080000D01*
X66940000Y-125175000D02*
X66940000Y-125080000D01*
X66940000Y-130200000D02*
X66940000Y-130105000D01*
X71060000Y-125080000D02*
X71060000Y-125175000D01*
X71060000Y-130105000D02*
X71060000Y-130200000D01*
X71060000Y-130200000D02*
X66940000Y-130200000D01*
X66400000Y-125170000D02*
X66160000Y-124840000D01*
X66640000Y-124840000D01*
X66400000Y-125170000D01*
G36*
X66400000Y-125170000D02*
G01*
X66160000Y-124840000D01*
X66640000Y-124840000D01*
X66400000Y-125170000D01*
G37*
%TO.C,U6*%
X66940000Y-152890000D02*
X71060000Y-152890000D01*
X66940000Y-152985000D02*
X66940000Y-152890000D01*
X66940000Y-158010000D02*
X66940000Y-157915000D01*
X71060000Y-152890000D02*
X71060000Y-152985000D01*
X71060000Y-157915000D02*
X71060000Y-158010000D01*
X71060000Y-158010000D02*
X66940000Y-158010000D01*
X66400000Y-152980000D02*
X66160000Y-152650000D01*
X66640000Y-152650000D01*
X66400000Y-152980000D01*
G36*
X66400000Y-152980000D02*
G01*
X66160000Y-152650000D01*
X66640000Y-152650000D01*
X66400000Y-152980000D01*
G37*
%TO.C,U7*%
X66940000Y-180660000D02*
X71060000Y-180660000D01*
X66940000Y-180755000D02*
X66940000Y-180660000D01*
X66940000Y-185780000D02*
X66940000Y-185685000D01*
X71060000Y-180660000D02*
X71060000Y-180755000D01*
X71060000Y-185685000D02*
X71060000Y-185780000D01*
X71060000Y-185780000D02*
X66940000Y-185780000D01*
X66400000Y-180750000D02*
X66160000Y-180420000D01*
X66640000Y-180420000D01*
X66400000Y-180750000D01*
G36*
X66400000Y-180750000D02*
G01*
X66160000Y-180420000D01*
X66640000Y-180420000D01*
X66400000Y-180750000D01*
G37*
%TO.C,U8*%
X103940000Y-41890000D02*
X108060000Y-41890000D01*
X103940000Y-41985000D02*
X103940000Y-41890000D01*
X103940000Y-47010000D02*
X103940000Y-46915000D01*
X108060000Y-41890000D02*
X108060000Y-41985000D01*
X108060000Y-46915000D02*
X108060000Y-47010000D01*
X108060000Y-47010000D02*
X103940000Y-47010000D01*
X103400000Y-41980000D02*
X103160000Y-41650000D01*
X103640000Y-41650000D01*
X103400000Y-41980000D01*
G36*
X103400000Y-41980000D02*
G01*
X103160000Y-41650000D01*
X103640000Y-41650000D01*
X103400000Y-41980000D01*
G37*
%TO.C,U9*%
X103940000Y-69580000D02*
X108060000Y-69580000D01*
X103940000Y-69675000D02*
X103940000Y-69580000D01*
X103940000Y-74700000D02*
X103940000Y-74605000D01*
X108060000Y-69580000D02*
X108060000Y-69675000D01*
X108060000Y-74605000D02*
X108060000Y-74700000D01*
X108060000Y-74700000D02*
X103940000Y-74700000D01*
X103400000Y-69670000D02*
X103160000Y-69340000D01*
X103640000Y-69340000D01*
X103400000Y-69670000D01*
G36*
X103400000Y-69670000D02*
G01*
X103160000Y-69340000D01*
X103640000Y-69340000D01*
X103400000Y-69670000D01*
G37*
%TD*%
%LPC*%
D15*
%TO.C,C1*%
X43000000Y-12950000D03*
X43000000Y-11050000D03*
%TD*%
%TO.C,C10*%
X66500000Y-105450000D03*
X66500000Y-103550000D03*
%TD*%
%TO.C,C11*%
X66500000Y-133450000D03*
X66500000Y-131550000D03*
%TD*%
%TO.C,C12*%
X66500000Y-160950000D03*
X66500000Y-159050000D03*
%TD*%
%TO.C,C13*%
X66500000Y-188950000D03*
X66500000Y-187050000D03*
%TD*%
%TO.C,C14*%
X85000000Y-34950000D03*
X85000000Y-33050000D03*
%TD*%
%TO.C,C15*%
X84500000Y-19950000D03*
X84500000Y-18050000D03*
%TD*%
D16*
%TO.C,C16*%
X96000000Y-9475000D03*
X96000000Y-6525000D03*
%TD*%
%TO.C,C17*%
X90000000Y-33475000D03*
X90000000Y-30525000D03*
%TD*%
D15*
%TO.C,C18*%
X105000000Y-5950000D03*
X105000000Y-4050000D03*
%TD*%
%TO.C,C19*%
X99000000Y-32950000D03*
X99000000Y-31050000D03*
%TD*%
%TO.C,C2*%
X71500000Y-40450000D03*
X71500000Y-38550000D03*
%TD*%
D16*
%TO.C,C20*%
X108000000Y-86475000D03*
X108000000Y-83525000D03*
%TD*%
%TO.C,C21*%
X104000000Y-142475000D03*
X104000000Y-139525000D03*
%TD*%
D15*
%TO.C,C22*%
X141000000Y-4950000D03*
X141000000Y-3050000D03*
%TD*%
%TO.C,C23*%
X121500000Y-29450000D03*
X121500000Y-27550000D03*
%TD*%
%TO.C,C24*%
X75000000Y-58950000D03*
X75000000Y-57050000D03*
%TD*%
%TO.C,C25*%
X64000000Y-58950000D03*
X64000000Y-57050000D03*
%TD*%
%TO.C,C26*%
X108500000Y-40450000D03*
X108500000Y-38550000D03*
%TD*%
%TO.C,C27*%
X108500000Y-68450000D03*
X108500000Y-66550000D03*
%TD*%
%TO.C,C28*%
X108500000Y-95950000D03*
X108500000Y-94050000D03*
%TD*%
%TO.C,C29*%
X108500000Y-123950000D03*
X108500000Y-122050000D03*
%TD*%
%TO.C,C3*%
X71500000Y-68450000D03*
X71500000Y-66550000D03*
%TD*%
%TO.C,C30*%
X108500000Y-151450000D03*
X108500000Y-149550000D03*
%TD*%
%TO.C,C31*%
X108500000Y-179450000D03*
X108500000Y-177550000D03*
%TD*%
%TO.C,C32*%
X103500000Y-49950000D03*
X103500000Y-48050000D03*
%TD*%
%TO.C,C33*%
X103500000Y-77950000D03*
X103500000Y-76050000D03*
%TD*%
%TO.C,C34*%
X103500000Y-105450000D03*
X103500000Y-103550000D03*
%TD*%
%TO.C,C35*%
X103500000Y-133450000D03*
X103500000Y-131550000D03*
%TD*%
%TO.C,C36*%
X103500000Y-160950000D03*
X103500000Y-159050000D03*
%TD*%
%TO.C,C37*%
X103500000Y-188950000D03*
X103500000Y-187050000D03*
%TD*%
%TO.C,C38*%
X130000000Y-41900000D03*
X130000000Y-40000000D03*
%TD*%
%TO.C,C39*%
X130000000Y-69590000D03*
X130000000Y-67690000D03*
%TD*%
%TO.C,C4*%
X71500000Y-95950000D03*
X71500000Y-94050000D03*
%TD*%
%TO.C,C40*%
X130000000Y-97270000D03*
X130000000Y-95370000D03*
%TD*%
%TO.C,C41*%
X130000000Y-125090000D03*
X130000000Y-123190000D03*
%TD*%
%TO.C,C42*%
X130000000Y-152900000D03*
X130000000Y-151000000D03*
%TD*%
%TO.C,C43*%
X130000000Y-180670000D03*
X130000000Y-178770000D03*
%TD*%
%TO.C,C44*%
X130000000Y-48900000D03*
X130000000Y-47000000D03*
%TD*%
%TO.C,C45*%
X130000000Y-76590000D03*
X130000000Y-74690000D03*
%TD*%
%TO.C,C46*%
X130000000Y-104270000D03*
X130000000Y-102370000D03*
%TD*%
%TO.C,C47*%
X130000000Y-132090000D03*
X130000000Y-130190000D03*
%TD*%
%TO.C,C48*%
X130000000Y-159900000D03*
X130000000Y-158000000D03*
%TD*%
%TO.C,C49*%
X130000000Y-187670000D03*
X130000000Y-185770000D03*
%TD*%
%TO.C,C5*%
X71500000Y-123950000D03*
X71500000Y-122050000D03*
%TD*%
%TO.C,C50*%
X40000000Y-41900000D03*
X40000000Y-40000000D03*
%TD*%
%TO.C,C51*%
X40000000Y-48900000D03*
X40000000Y-47000000D03*
%TD*%
%TO.C,C52*%
X40000000Y-69590000D03*
X40000000Y-67690000D03*
%TD*%
%TO.C,C53*%
X40000000Y-76590000D03*
X40000000Y-74690000D03*
%TD*%
%TO.C,C54*%
X40000000Y-97270000D03*
X40000000Y-95370000D03*
%TD*%
%TO.C,C55*%
X40000000Y-104270000D03*
X40000000Y-102370000D03*
%TD*%
%TO.C,C56*%
X40000000Y-125090000D03*
X40000000Y-123190000D03*
%TD*%
%TO.C,C57*%
X40000000Y-132090000D03*
X40000000Y-130190000D03*
%TD*%
%TO.C,C58*%
X40000000Y-152900000D03*
X40000000Y-151000000D03*
%TD*%
%TO.C,C59*%
X40000000Y-159900000D03*
X40000000Y-158000000D03*
%TD*%
%TO.C,C6*%
X71500000Y-151450000D03*
X71500000Y-149550000D03*
%TD*%
%TO.C,C60*%
X40000000Y-180670000D03*
X40000000Y-178770000D03*
%TD*%
%TO.C,C61*%
X40000000Y-187670000D03*
X40000000Y-185770000D03*
%TD*%
D17*
%TO.C,C62*%
X46000000Y-42425000D03*
X46000000Y-39475000D03*
%TD*%
%TO.C,C63*%
X46000000Y-49425000D03*
X46000000Y-46475000D03*
%TD*%
%TO.C,C64*%
X46000000Y-70115000D03*
X46000000Y-67165000D03*
%TD*%
%TO.C,C65*%
X46000000Y-77115000D03*
X46000000Y-74165000D03*
%TD*%
%TO.C,C66*%
X46000000Y-97795000D03*
X46000000Y-94845000D03*
%TD*%
%TO.C,C67*%
X46000000Y-104795000D03*
X46000000Y-101845000D03*
%TD*%
%TO.C,C68*%
X46000000Y-125615000D03*
X46000000Y-122665000D03*
%TD*%
%TO.C,C69*%
X46000000Y-132615000D03*
X46000000Y-129665000D03*
%TD*%
D15*
%TO.C,C7*%
X71500000Y-179450000D03*
X71500000Y-177550000D03*
%TD*%
D17*
%TO.C,C70*%
X46000000Y-153425000D03*
X46000000Y-150475000D03*
%TD*%
%TO.C,C71*%
X46000000Y-160425000D03*
X46000000Y-157475000D03*
%TD*%
%TO.C,C72*%
X46000000Y-181195000D03*
X46000000Y-178245000D03*
%TD*%
%TO.C,C73*%
X46000000Y-188195000D03*
X46000000Y-185245000D03*
%TD*%
D15*
%TO.C,C74*%
X75000000Y-114950000D03*
X75000000Y-113050000D03*
%TD*%
%TO.C,C75*%
X64000000Y-114950000D03*
X64000000Y-113050000D03*
%TD*%
%TO.C,C76*%
X75000000Y-169950000D03*
X75000000Y-168050000D03*
%TD*%
%TO.C,C77*%
X104000000Y-176950000D03*
X104000000Y-175050000D03*
%TD*%
%TO.C,C78*%
X148000000Y-9950000D03*
X148000000Y-8050000D03*
%TD*%
%TO.C,C79*%
X121500000Y-22450000D03*
X121500000Y-20550000D03*
%TD*%
%TO.C,C8*%
X66500000Y-49950000D03*
X66500000Y-48050000D03*
%TD*%
%TO.C,C80*%
X45050000Y-28000000D03*
X46950000Y-28000000D03*
%TD*%
D18*
%TO.C,C81*%
X144000000Y-9480000D03*
X144000000Y-8520000D03*
%TD*%
D15*
%TO.C,C9*%
X66500000Y-77950000D03*
X66500000Y-76050000D03*
%TD*%
D19*
%TO.C,D1*%
X37850000Y-20000000D03*
X42150000Y-20000000D03*
%TD*%
D20*
%TO.C,D10*%
X20950000Y-47950000D03*
X23050000Y-47950000D03*
%TD*%
%TO.C,D11*%
X20950000Y-68640000D03*
X23050000Y-68640000D03*
%TD*%
%TO.C,D12*%
X124950000Y-75640000D03*
X127050000Y-75640000D03*
%TD*%
%TO.C,D13*%
X20950000Y-75640000D03*
X23050000Y-75640000D03*
%TD*%
%TO.C,D14*%
X20950000Y-96320000D03*
X23050000Y-96320000D03*
%TD*%
%TO.C,D15*%
X124950000Y-103320000D03*
X127050000Y-103320000D03*
%TD*%
%TO.C,D16*%
X20950000Y-103320000D03*
X23050000Y-103320000D03*
%TD*%
%TO.C,D17*%
X20950000Y-124140000D03*
X23050000Y-124140000D03*
%TD*%
%TO.C,D18*%
X124950000Y-131140000D03*
X127050000Y-131140000D03*
%TD*%
%TO.C,D19*%
X20950000Y-131140000D03*
X23050000Y-131140000D03*
%TD*%
%TO.C,D2*%
X124950000Y-40950000D03*
X127050000Y-40950000D03*
%TD*%
%TO.C,D20*%
X20950000Y-151950000D03*
X23050000Y-151950000D03*
%TD*%
%TO.C,D21*%
X124950000Y-158950000D03*
X127050000Y-158950000D03*
%TD*%
%TO.C,D22*%
X20950000Y-158950000D03*
X23050000Y-158950000D03*
%TD*%
%TO.C,D23*%
X20950000Y-179720000D03*
X23050000Y-179720000D03*
%TD*%
%TO.C,D24*%
X124950000Y-186720000D03*
X127050000Y-186720000D03*
%TD*%
%TO.C,D25*%
X20950000Y-186720000D03*
X23050000Y-186720000D03*
%TD*%
%TO.C,D3*%
X124950000Y-68640000D03*
X127050000Y-68640000D03*
%TD*%
%TO.C,D4*%
X124950000Y-96320000D03*
X127050000Y-96320000D03*
%TD*%
%TO.C,D5*%
X124950000Y-124140000D03*
X127050000Y-124140000D03*
%TD*%
%TO.C,D6*%
X124950000Y-151950000D03*
X127050000Y-151950000D03*
%TD*%
%TO.C,D7*%
X124950000Y-179720000D03*
X127050000Y-179720000D03*
%TD*%
%TO.C,D8*%
X20950000Y-40950000D03*
X23050000Y-40950000D03*
%TD*%
%TO.C,D9*%
X124950000Y-47950000D03*
X127050000Y-47950000D03*
%TD*%
D21*
%TO.C,FB1*%
X102000000Y-9062500D03*
X102000000Y-6937500D03*
%TD*%
%TO.C,FB2*%
X96000000Y-33062500D03*
X96000000Y-30937500D03*
%TD*%
D22*
%TO.C,J1*%
X70870000Y-10830000D03*
D23*
X70870000Y-4830000D03*
D24*
X66170000Y-7830000D03*
%TD*%
D25*
%TO.C,J10*%
X142890000Y-72140000D03*
X147970000Y-64520000D03*
D26*
X134000000Y-72140000D03*
X134000000Y-64520000D03*
D27*
X134000000Y-68330000D03*
X139080000Y-68330000D03*
%TD*%
D25*
%TO.C,J11*%
X142890000Y-99820000D03*
X147970000Y-92200000D03*
D26*
X134000000Y-99820000D03*
X134000000Y-92200000D03*
D27*
X134000000Y-96010000D03*
X139080000Y-96010000D03*
%TD*%
D25*
%TO.C,J12*%
X142890000Y-127510000D03*
X147970000Y-119890000D03*
D26*
X134000000Y-127510000D03*
X134000000Y-119890000D03*
D27*
X134000000Y-123700000D03*
X139080000Y-123700000D03*
%TD*%
D25*
%TO.C,J13*%
X142890000Y-155450000D03*
X147970000Y-147830000D03*
D26*
X134000000Y-155450000D03*
X134000000Y-147830000D03*
D27*
X134000000Y-151640000D03*
X139080000Y-151640000D03*
%TD*%
D25*
%TO.C,J14*%
X142890000Y-183130000D03*
X147970000Y-175510000D03*
D26*
X134000000Y-183130000D03*
X134000000Y-175510000D03*
D27*
X134000000Y-179320000D03*
X139080000Y-179320000D03*
%TD*%
D28*
%TO.C,J2*%
X27970000Y-7580000D03*
X32970000Y-7580000D03*
D29*
X34520000Y-11430000D03*
X26420000Y-11430000D03*
D30*
X26420000Y-2580000D03*
X34520000Y-2580000D03*
%TD*%
D25*
%TO.C,J3*%
X8770000Y-36830000D03*
X3690000Y-44450000D03*
D26*
X12580000Y-44450000D03*
X13215000Y-36830000D03*
D27*
X17030000Y-40640000D03*
X6860000Y-48890000D03*
%TD*%
D25*
%TO.C,J4*%
X8770000Y-64520000D03*
X3690000Y-72140000D03*
D26*
X12580000Y-72140000D03*
X13215000Y-64520000D03*
D27*
X17030000Y-68330000D03*
X6860000Y-76580000D03*
%TD*%
D25*
%TO.C,J5*%
X8770000Y-92200000D03*
X3690000Y-99820000D03*
D26*
X12580000Y-99820000D03*
X13215000Y-92200000D03*
D27*
X17030000Y-96010000D03*
X6860000Y-104260000D03*
%TD*%
D25*
%TO.C,J6*%
X8770000Y-120020000D03*
X3690000Y-127640000D03*
D26*
X12580000Y-127640000D03*
X13215000Y-120020000D03*
D27*
X17030000Y-123830000D03*
X6860000Y-132080000D03*
%TD*%
D25*
%TO.C,J7*%
X8770000Y-147830000D03*
X3690000Y-155450000D03*
D26*
X12580000Y-155450000D03*
X13215000Y-147830000D03*
D27*
X17030000Y-151640000D03*
X6860000Y-159890000D03*
%TD*%
D25*
%TO.C,J8*%
X8770000Y-175600000D03*
X3690000Y-183220000D03*
D26*
X12580000Y-183220000D03*
X13215000Y-175600000D03*
D27*
X17030000Y-179410000D03*
X6860000Y-187660000D03*
%TD*%
D25*
%TO.C,J9*%
X142890000Y-44450000D03*
X147970000Y-36830000D03*
D26*
X134000000Y-44450000D03*
X134000000Y-36830000D03*
D27*
X134000000Y-40640000D03*
X139080000Y-40640000D03*
%TD*%
D31*
%TO.C,Q1*%
X49062500Y-29050000D03*
X49062500Y-30950000D03*
X50937500Y-30000000D03*
%TD*%
%TO.C,Q2*%
X95062500Y-43500000D03*
X95062500Y-45400000D03*
X96937500Y-44450000D03*
%TD*%
%TO.C,Q3*%
X95062500Y-71190000D03*
X95062500Y-73090000D03*
X96937500Y-72140000D03*
%TD*%
%TO.C,Q4*%
X95062500Y-98870000D03*
X95062500Y-100770000D03*
X96937500Y-99820000D03*
%TD*%
%TO.C,Q5*%
X95062500Y-126690000D03*
X95062500Y-128590000D03*
X96937500Y-127640000D03*
%TD*%
%TO.C,Q6*%
X95062500Y-154500000D03*
X95062500Y-156400000D03*
X96937500Y-155450000D03*
%TD*%
%TO.C,Q7*%
X95062500Y-182270000D03*
X95062500Y-184170000D03*
X96937500Y-183220000D03*
%TD*%
D32*
%TO.C,R1*%
X40000000Y-15912500D03*
X40000000Y-14087500D03*
%TD*%
%TO.C,R10*%
X53000000Y-149362500D03*
X53000000Y-147537500D03*
%TD*%
%TO.C,R100*%
X29000000Y-125052500D03*
X29000000Y-123227500D03*
%TD*%
%TO.C,R101*%
X29000000Y-132052500D03*
X29000000Y-130227500D03*
%TD*%
%TO.C,R102*%
X29000000Y-152862500D03*
X29000000Y-151037500D03*
%TD*%
%TO.C,R103*%
X29000000Y-159862500D03*
X29000000Y-158037500D03*
%TD*%
%TO.C,R104*%
X29000000Y-180632500D03*
X29000000Y-178807500D03*
%TD*%
%TO.C,R105*%
X29000000Y-187632500D03*
X29000000Y-185807500D03*
%TD*%
%TO.C,R106*%
X48000000Y-21912500D03*
X48000000Y-20087500D03*
%TD*%
%TO.C,R107*%
X48000000Y-25912500D03*
X48000000Y-24087500D03*
%TD*%
%TO.C,R108*%
X100000000Y-40362500D03*
X100000000Y-38537500D03*
%TD*%
%TO.C,R109*%
X100000000Y-68052500D03*
X100000000Y-66227500D03*
%TD*%
%TO.C,R11*%
X53000000Y-152862500D03*
X53000000Y-151037500D03*
%TD*%
%TO.C,R110*%
X100000000Y-95732500D03*
X100000000Y-93907500D03*
%TD*%
%TO.C,R111*%
X100000000Y-123552500D03*
X100000000Y-121727500D03*
%TD*%
%TO.C,R112*%
X100000000Y-151362500D03*
X100000000Y-149537500D03*
%TD*%
%TO.C,R113*%
X100000000Y-179132500D03*
X100000000Y-177307500D03*
%TD*%
%TO.C,R12*%
X53000000Y-177132500D03*
X53000000Y-175307500D03*
%TD*%
%TO.C,R13*%
X53000000Y-180632500D03*
X53000000Y-178807500D03*
%TD*%
%TO.C,R14*%
X53000000Y-46862500D03*
X53000000Y-45037500D03*
%TD*%
%TO.C,R15*%
X53000000Y-74552500D03*
X53000000Y-72727500D03*
%TD*%
%TO.C,R16*%
X53000000Y-102232500D03*
X53000000Y-100407500D03*
%TD*%
%TO.C,R17*%
X53000000Y-130052500D03*
X53000000Y-128227500D03*
%TD*%
%TO.C,R18*%
X53000000Y-157862500D03*
X53000000Y-156037500D03*
%TD*%
%TO.C,R19*%
X53000000Y-185632500D03*
X53000000Y-183807500D03*
%TD*%
%TO.C,R2*%
X53000000Y-38362500D03*
X53000000Y-36537500D03*
%TD*%
%TO.C,R20*%
X59000000Y-41862500D03*
X59000000Y-40037500D03*
%TD*%
%TO.C,R21*%
X59000000Y-69552500D03*
X59000000Y-67727500D03*
%TD*%
%TO.C,R22*%
X59000000Y-97232500D03*
X59000000Y-95407500D03*
%TD*%
%TO.C,R23*%
X59000000Y-125052500D03*
X59000000Y-123227500D03*
%TD*%
%TO.C,R24*%
X59000000Y-152862500D03*
X59000000Y-151037500D03*
%TD*%
%TO.C,R25*%
X59000000Y-180632500D03*
X59000000Y-178807500D03*
%TD*%
%TO.C,R26*%
X59000000Y-48862500D03*
X59000000Y-47037500D03*
%TD*%
%TO.C,R27*%
X77000000Y-38362500D03*
X77000000Y-36537500D03*
%TD*%
%TO.C,R28*%
X77000000Y-41862500D03*
X77000000Y-40037500D03*
%TD*%
%TO.C,R29*%
X77000000Y-45362500D03*
X77000000Y-43537500D03*
%TD*%
%TO.C,R3*%
X53000000Y-41862500D03*
X53000000Y-40037500D03*
%TD*%
%TO.C,R30*%
X59000000Y-76552500D03*
X59000000Y-74727500D03*
%TD*%
%TO.C,R31*%
X77000000Y-66052500D03*
X77000000Y-64227500D03*
%TD*%
%TO.C,R32*%
X77000000Y-69552500D03*
X77000000Y-67727500D03*
%TD*%
%TO.C,R33*%
X77000000Y-73052500D03*
X77000000Y-71227500D03*
%TD*%
%TO.C,R34*%
X59000000Y-104232500D03*
X59000000Y-102407500D03*
%TD*%
%TO.C,R35*%
X77000000Y-93732500D03*
X77000000Y-91907500D03*
%TD*%
%TO.C,R36*%
X77000000Y-97232500D03*
X77000000Y-95407500D03*
%TD*%
%TO.C,R37*%
X77000000Y-100732500D03*
X77000000Y-98907500D03*
%TD*%
%TO.C,R38*%
X59000000Y-132052500D03*
X59000000Y-130227500D03*
%TD*%
%TO.C,R39*%
X77000000Y-121552500D03*
X77000000Y-119727500D03*
%TD*%
%TO.C,R4*%
X53000000Y-66052500D03*
X53000000Y-64227500D03*
%TD*%
%TO.C,R40*%
X77000000Y-125052500D03*
X77000000Y-123227500D03*
%TD*%
%TO.C,R41*%
X77000000Y-128552500D03*
X77000000Y-126727500D03*
%TD*%
%TO.C,R42*%
X59000000Y-159862500D03*
X59000000Y-158037500D03*
%TD*%
%TO.C,R43*%
X77000000Y-149362500D03*
X77000000Y-147537500D03*
%TD*%
%TO.C,R44*%
X77000000Y-152862500D03*
X77000000Y-151037500D03*
%TD*%
%TO.C,R45*%
X77000000Y-156362500D03*
X77000000Y-154537500D03*
%TD*%
%TO.C,R46*%
X59000000Y-187632500D03*
X59000000Y-185807500D03*
%TD*%
%TO.C,R47*%
X77000000Y-177132500D03*
X77000000Y-175307500D03*
%TD*%
%TO.C,R48*%
X77000000Y-180632500D03*
X77000000Y-178807500D03*
%TD*%
%TO.C,R49*%
X77000000Y-184132500D03*
X77000000Y-182307500D03*
%TD*%
%TO.C,R5*%
X53000000Y-69552500D03*
X53000000Y-67727500D03*
%TD*%
%TO.C,R50*%
X61000000Y-45362500D03*
X61000000Y-43537500D03*
%TD*%
%TO.C,R51*%
X61000000Y-73052500D03*
X61000000Y-71227500D03*
%TD*%
%TO.C,R52*%
X61000000Y-100732500D03*
X61000000Y-98907500D03*
%TD*%
%TO.C,R53*%
X61000000Y-128552500D03*
X61000000Y-126727500D03*
%TD*%
%TO.C,R54*%
X61000000Y-156362500D03*
X61000000Y-154537500D03*
%TD*%
%TO.C,R55*%
X61000000Y-184132500D03*
X61000000Y-182307500D03*
%TD*%
%TO.C,R56*%
X58000000Y-25912500D03*
X58000000Y-24087500D03*
%TD*%
%TO.C,R57*%
X58000000Y-29912500D03*
X58000000Y-28087500D03*
%TD*%
%TO.C,R58*%
X120000000Y-48862500D03*
X120000000Y-47037500D03*
%TD*%
%TO.C,R59*%
X120000000Y-76552500D03*
X120000000Y-74727500D03*
%TD*%
%TO.C,R6*%
X53000000Y-93732500D03*
X53000000Y-91907500D03*
%TD*%
%TO.C,R60*%
X120000000Y-104232500D03*
X120000000Y-102407500D03*
%TD*%
%TO.C,R61*%
X120000000Y-132052500D03*
X120000000Y-130227500D03*
%TD*%
%TO.C,R62*%
X120000000Y-159862500D03*
X120000000Y-158037500D03*
%TD*%
%TO.C,R63*%
X120000000Y-187632500D03*
X120000000Y-185807500D03*
%TD*%
%TO.C,R64*%
X112000000Y-41862500D03*
X112000000Y-40037500D03*
%TD*%
%TO.C,R65*%
X112000000Y-69552500D03*
X112000000Y-67727500D03*
%TD*%
%TO.C,R66*%
X112000000Y-97232500D03*
X112000000Y-95407500D03*
%TD*%
%TO.C,R67*%
X112000000Y-125052500D03*
X112000000Y-123227500D03*
%TD*%
%TO.C,R68*%
X112000000Y-152862500D03*
X112000000Y-151037500D03*
%TD*%
%TO.C,R69*%
X112000000Y-180632500D03*
X112000000Y-178807500D03*
%TD*%
%TO.C,R7*%
X53000000Y-97232500D03*
X53000000Y-95407500D03*
%TD*%
%TO.C,R70*%
X116000000Y-41862500D03*
X116000000Y-40037500D03*
%TD*%
%TO.C,R71*%
X116000000Y-69552500D03*
X116000000Y-67727500D03*
%TD*%
%TO.C,R72*%
X116000000Y-97232500D03*
X116000000Y-95407500D03*
%TD*%
%TO.C,R73*%
X116000000Y-125052500D03*
X116000000Y-123227500D03*
%TD*%
%TO.C,R74*%
X116000000Y-152862500D03*
X116000000Y-151037500D03*
%TD*%
%TO.C,R75*%
X116000000Y-180632500D03*
X116000000Y-178807500D03*
%TD*%
%TO.C,R76*%
X120000000Y-41862500D03*
X120000000Y-40037500D03*
%TD*%
%TO.C,R77*%
X120000000Y-69552500D03*
X120000000Y-67727500D03*
%TD*%
%TO.C,R78*%
X120000000Y-97232500D03*
X120000000Y-95407500D03*
%TD*%
%TO.C,R79*%
X120000000Y-125052500D03*
X120000000Y-123227500D03*
%TD*%
%TO.C,R8*%
X53000000Y-121552500D03*
X53000000Y-119727500D03*
%TD*%
%TO.C,R80*%
X120000000Y-152862500D03*
X120000000Y-151037500D03*
%TD*%
%TO.C,R81*%
X120000000Y-180632500D03*
X120000000Y-178807500D03*
%TD*%
%TO.C,R82*%
X123000000Y-41862500D03*
X123000000Y-40037500D03*
%TD*%
%TO.C,R83*%
X123000000Y-69552500D03*
X123000000Y-67727500D03*
%TD*%
%TO.C,R84*%
X123000000Y-97232500D03*
X123000000Y-95407500D03*
%TD*%
%TO.C,R85*%
X123000000Y-125052500D03*
X123000000Y-123227500D03*
%TD*%
%TO.C,R86*%
X123000000Y-152862500D03*
X123000000Y-151037500D03*
%TD*%
%TO.C,R87*%
X123000000Y-180632500D03*
X123000000Y-178807500D03*
%TD*%
%TO.C,R88*%
X123000000Y-48862500D03*
X123000000Y-47037500D03*
%TD*%
%TO.C,R89*%
X123000000Y-76552500D03*
X123000000Y-74727500D03*
%TD*%
%TO.C,R9*%
X53000000Y-125052500D03*
X53000000Y-123227500D03*
%TD*%
%TO.C,R90*%
X123000000Y-104232500D03*
X123000000Y-102407500D03*
%TD*%
%TO.C,R91*%
X123000000Y-132052500D03*
X123000000Y-130227500D03*
%TD*%
%TO.C,R92*%
X123000000Y-159862500D03*
X123000000Y-158037500D03*
%TD*%
%TO.C,R93*%
X123000000Y-187632500D03*
X123000000Y-185807500D03*
%TD*%
%TO.C,R94*%
X29000000Y-41862500D03*
X29000000Y-40037500D03*
%TD*%
%TO.C,R95*%
X29000000Y-48862500D03*
X29000000Y-47037500D03*
%TD*%
%TO.C,R96*%
X29000000Y-69552500D03*
X29000000Y-67727500D03*
%TD*%
%TO.C,R97*%
X29000000Y-76552500D03*
X29000000Y-74727500D03*
%TD*%
%TO.C,R98*%
X29000000Y-97232500D03*
X29000000Y-95407500D03*
%TD*%
%TO.C,R99*%
X29000000Y-104232500D03*
X29000000Y-102407500D03*
%TD*%
D33*
%TO.C,SW1*%
X55880000Y-8540000D03*
X55880000Y-2540000D03*
X43880000Y-8540000D03*
X43880000Y-2540000D03*
D34*
X53880000Y-6790000D03*
X49880000Y-6790000D03*
X45880000Y-6790000D03*
%TD*%
D35*
%TO.C,SW2*%
X79550000Y-41910000D03*
X79550000Y-44450000D03*
X79550000Y-46990000D03*
X88450000Y-46990000D03*
X88450000Y-44450000D03*
X88450000Y-41910000D03*
%TD*%
%TO.C,SW3*%
X79550000Y-69600000D03*
X79550000Y-72140000D03*
X79550000Y-74680000D03*
X88450000Y-74680000D03*
X88450000Y-72140000D03*
X88450000Y-69600000D03*
%TD*%
%TO.C,SW4*%
X79550000Y-97280000D03*
X79550000Y-99820000D03*
X79550000Y-102360000D03*
X88450000Y-102360000D03*
X88450000Y-99820000D03*
X88450000Y-97280000D03*
%TD*%
%TO.C,SW5*%
X79550000Y-125100000D03*
X79550000Y-127640000D03*
X79550000Y-130180000D03*
X88450000Y-130180000D03*
X88450000Y-127640000D03*
X88450000Y-125100000D03*
%TD*%
%TO.C,SW6*%
X79550000Y-152910000D03*
X79550000Y-155450000D03*
X79550000Y-157990000D03*
X88450000Y-157990000D03*
X88450000Y-155450000D03*
X88450000Y-152910000D03*
%TD*%
%TO.C,SW7*%
X79550000Y-180680000D03*
X79550000Y-183220000D03*
X79550000Y-185760000D03*
X88450000Y-185760000D03*
X88450000Y-183220000D03*
X88450000Y-180680000D03*
%TD*%
D36*
%TO.C,U1*%
X110000000Y-19000000D03*
X112540000Y-19000000D03*
X127780000Y-19000000D03*
X132860000Y-19000000D03*
X132860000Y-3760000D03*
X127780000Y-3760000D03*
X112540000Y-3760000D03*
X110000000Y-3760000D03*
%TD*%
D37*
%TO.C,U10*%
X103525000Y-97915000D03*
X103525000Y-99185000D03*
X103525000Y-100455000D03*
X103525000Y-101725000D03*
X108475000Y-101725000D03*
X108475000Y-100455000D03*
X108475000Y-99185000D03*
X108475000Y-97915000D03*
%TD*%
%TO.C,U11*%
X103525000Y-125735000D03*
X103525000Y-127005000D03*
X103525000Y-128275000D03*
X103525000Y-129545000D03*
X108475000Y-129545000D03*
X108475000Y-128275000D03*
X108475000Y-127005000D03*
X108475000Y-125735000D03*
%TD*%
%TO.C,U12*%
X103525000Y-153545000D03*
X103525000Y-154815000D03*
X103525000Y-156085000D03*
X103525000Y-157355000D03*
X108475000Y-157355000D03*
X108475000Y-156085000D03*
X108475000Y-154815000D03*
X108475000Y-153545000D03*
%TD*%
%TO.C,U13*%
X103525000Y-181315000D03*
X103525000Y-182585000D03*
X103525000Y-183855000D03*
X103525000Y-185125000D03*
X108475000Y-185125000D03*
X108475000Y-183855000D03*
X108475000Y-182585000D03*
X108475000Y-181315000D03*
%TD*%
D38*
%TO.C,U14*%
X143525000Y-2095000D03*
X143525000Y-3365000D03*
X143525000Y-4635000D03*
X143525000Y-5905000D03*
X148475000Y-5905000D03*
X148475000Y-4635000D03*
X148475000Y-3365000D03*
X148475000Y-2095000D03*
D39*
X146000000Y-4000000D03*
%TD*%
D40*
%TO.C,U15*%
X123862500Y-24050000D03*
X123862500Y-25000000D03*
X123862500Y-25950000D03*
X126137500Y-25950000D03*
X126137500Y-24050000D03*
%TD*%
D37*
%TO.C,U2*%
X66525000Y-42545000D03*
X66525000Y-43815000D03*
X66525000Y-45085000D03*
X66525000Y-46355000D03*
X71475000Y-46355000D03*
X71475000Y-45085000D03*
X71475000Y-43815000D03*
X71475000Y-42545000D03*
%TD*%
%TO.C,U3*%
X66525000Y-70235000D03*
X66525000Y-71505000D03*
X66525000Y-72775000D03*
X66525000Y-74045000D03*
X71475000Y-74045000D03*
X71475000Y-72775000D03*
X71475000Y-71505000D03*
X71475000Y-70235000D03*
%TD*%
%TO.C,U4*%
X66525000Y-97915000D03*
X66525000Y-99185000D03*
X66525000Y-100455000D03*
X66525000Y-101725000D03*
X71475000Y-101725000D03*
X71475000Y-100455000D03*
X71475000Y-99185000D03*
X71475000Y-97915000D03*
%TD*%
%TO.C,U5*%
X66525000Y-125735000D03*
X66525000Y-127005000D03*
X66525000Y-128275000D03*
X66525000Y-129545000D03*
X71475000Y-129545000D03*
X71475000Y-128275000D03*
X71475000Y-127005000D03*
X71475000Y-125735000D03*
%TD*%
%TO.C,U6*%
X66525000Y-153545000D03*
X66525000Y-154815000D03*
X66525000Y-156085000D03*
X66525000Y-157355000D03*
X71475000Y-157355000D03*
X71475000Y-156085000D03*
X71475000Y-154815000D03*
X71475000Y-153545000D03*
%TD*%
%TO.C,U7*%
X66525000Y-181315000D03*
X66525000Y-182585000D03*
X66525000Y-183855000D03*
X66525000Y-185125000D03*
X71475000Y-185125000D03*
X71475000Y-183855000D03*
X71475000Y-182585000D03*
X71475000Y-181315000D03*
%TD*%
%TO.C,U8*%
X103525000Y-42545000D03*
X103525000Y-43815000D03*
X103525000Y-45085000D03*
X103525000Y-46355000D03*
X108475000Y-46355000D03*
X108475000Y-45085000D03*
X108475000Y-43815000D03*
X108475000Y-42545000D03*
%TD*%
%TO.C,U9*%
X103525000Y-70235000D03*
X103525000Y-71505000D03*
X103525000Y-72775000D03*
X103525000Y-74045000D03*
X108475000Y-74045000D03*
X108475000Y-72775000D03*
X108475000Y-71505000D03*
X108475000Y-70235000D03*
%TD*%
D41*
%TO.C,MH1*%
X4000000Y-4000000D03*
%TD*%
%TO.C,MH2*%
X154000000Y-4000000D03*
%TD*%
%TO.C,MH3*%
X154000000Y-196000000D03*
%TD*%
%TO.C,MH4*%
X4000000Y-196000000D03*
%TD*%
%LPD*%
M02*
