%TF.GenerationSoftware,KiCad,Pcbnew,9.0.7*%
%TF.CreationDate,2026-03-21T14:11:25+01:00*%
%TF.ProjectId,aurora-dsp-icepower-booster,6175726f-7261-42d6-9473-702d69636570,rev?*%
%TF.SameCoordinates,Original*%
%TF.FileFunction,Legend,Bot*%
%TF.FilePolarity,Positive*%
%FSLAX46Y46*%
G04 Gerber Fmt 4.6, Leading zero omitted, Abs format (unit mm)*
G04 Created by KiCad (PCBNEW 9.0.7) date 2026-03-21 14:11:25*
%MOMM*%
%LPD*%
G01*
G04 APERTURE LIST*
G04 Aperture macros list*
%AMRoundRect*
0 Rectangle with rounded corners*
0 $1 Rounding radius*
0 $2 $3 $4 $5 $6 $7 $8 $9 X,Y pos of 4 corners*
0 Add a 4 corners polygon primitive as box body*
4,1,4,$2,$3,$4,$5,$6,$7,$8,$9,$2,$3,0*
0 Add four circle primitives for the rounded corners*
1,1,$1+$1,$2,$3*
1,1,$1+$1,$4,$5*
1,1,$1+$1,$6,$7*
1,1,$1+$1,$8,$9*
0 Add four rect primitives between the rounded corners*
20,1,$1+$1,$2,$3,$4,$5,0*
20,1,$1+$1,$4,$5,$6,$7,0*
20,1,$1+$1,$6,$7,$8,$9,0*
20,1,$1+$1,$8,$9,$2,$3,0*%
G04 Aperture macros list end*
%ADD10C,0.150000*%
%ADD11R,3.500000X3.500000*%
%ADD12RoundRect,0.750000X-1.000000X0.750000X-1.000000X-0.750000X1.000000X-0.750000X1.000000X0.750000X0*%
%ADD13RoundRect,0.875000X-0.875000X0.875000X-0.875000X-0.875000X0.875000X-0.875000X0.875000X0.875000X0*%
%ADD14C,1.600000*%
%ADD15C,3.400000*%
%ADD16C,2.900000*%
%ADD17C,1.200000*%
%ADD18C,2.000000*%
%ADD19C,1.700000*%
%ADD20C,1.320800*%
%ADD21C,3.200000*%
%ADD22O,3.000000X1.000000*%
%ADD23O,1.000000X3.000000*%
%ADD24C,0.350000*%
G04 APERTURE END LIST*
D10*
X43171426Y-197204485D02*
X42599998Y-197204485D01*
X43285712Y-197547342D02*
X42885712Y-196347342D01*
X42885712Y-196347342D02*
X42485712Y-197547342D01*
X41571427Y-196747342D02*
X41571427Y-197547342D01*
X42085712Y-196747342D02*
X42085712Y-197375914D01*
X42085712Y-197375914D02*
X42028569Y-197490200D01*
X42028569Y-197490200D02*
X41914284Y-197547342D01*
X41914284Y-197547342D02*
X41742855Y-197547342D01*
X41742855Y-197547342D02*
X41628569Y-197490200D01*
X41628569Y-197490200D02*
X41571427Y-197433057D01*
X40999998Y-197547342D02*
X40999998Y-196747342D01*
X40999998Y-196975914D02*
X40942855Y-196861628D01*
X40942855Y-196861628D02*
X40885713Y-196804485D01*
X40885713Y-196804485D02*
X40771427Y-196747342D01*
X40771427Y-196747342D02*
X40657141Y-196747342D01*
X40085713Y-197547342D02*
X40199998Y-197490200D01*
X40199998Y-197490200D02*
X40257141Y-197433057D01*
X40257141Y-197433057D02*
X40314284Y-197318771D01*
X40314284Y-197318771D02*
X40314284Y-196975914D01*
X40314284Y-196975914D02*
X40257141Y-196861628D01*
X40257141Y-196861628D02*
X40199998Y-196804485D01*
X40199998Y-196804485D02*
X40085713Y-196747342D01*
X40085713Y-196747342D02*
X39914284Y-196747342D01*
X39914284Y-196747342D02*
X39799998Y-196804485D01*
X39799998Y-196804485D02*
X39742856Y-196861628D01*
X39742856Y-196861628D02*
X39685713Y-196975914D01*
X39685713Y-196975914D02*
X39685713Y-197318771D01*
X39685713Y-197318771D02*
X39742856Y-197433057D01*
X39742856Y-197433057D02*
X39799998Y-197490200D01*
X39799998Y-197490200D02*
X39914284Y-197547342D01*
X39914284Y-197547342D02*
X40085713Y-197547342D01*
X39171427Y-197547342D02*
X39171427Y-196747342D01*
X39171427Y-196975914D02*
X39114284Y-196861628D01*
X39114284Y-196861628D02*
X39057142Y-196804485D01*
X39057142Y-196804485D02*
X38942856Y-196747342D01*
X38942856Y-196747342D02*
X38828570Y-196747342D01*
X37914285Y-197547342D02*
X37914285Y-196918771D01*
X37914285Y-196918771D02*
X37971427Y-196804485D01*
X37971427Y-196804485D02*
X38085713Y-196747342D01*
X38085713Y-196747342D02*
X38314285Y-196747342D01*
X38314285Y-196747342D02*
X38428570Y-196804485D01*
X37914285Y-197490200D02*
X38028570Y-197547342D01*
X38028570Y-197547342D02*
X38314285Y-197547342D01*
X38314285Y-197547342D02*
X38428570Y-197490200D01*
X38428570Y-197490200D02*
X38485713Y-197375914D01*
X38485713Y-197375914D02*
X38485713Y-197261628D01*
X38485713Y-197261628D02*
X38428570Y-197147342D01*
X38428570Y-197147342D02*
X38314285Y-197090200D01*
X38314285Y-197090200D02*
X38028570Y-197090200D01*
X38028570Y-197090200D02*
X37914285Y-197033057D01*
X36428570Y-197547342D02*
X36428570Y-196347342D01*
X36428570Y-196347342D02*
X36142856Y-196347342D01*
X36142856Y-196347342D02*
X35971427Y-196404485D01*
X35971427Y-196404485D02*
X35857142Y-196518771D01*
X35857142Y-196518771D02*
X35799999Y-196633057D01*
X35799999Y-196633057D02*
X35742856Y-196861628D01*
X35742856Y-196861628D02*
X35742856Y-197033057D01*
X35742856Y-197033057D02*
X35799999Y-197261628D01*
X35799999Y-197261628D02*
X35857142Y-197375914D01*
X35857142Y-197375914D02*
X35971427Y-197490200D01*
X35971427Y-197490200D02*
X36142856Y-197547342D01*
X36142856Y-197547342D02*
X36428570Y-197547342D01*
X35285713Y-197490200D02*
X35114285Y-197547342D01*
X35114285Y-197547342D02*
X34828570Y-197547342D01*
X34828570Y-197547342D02*
X34714285Y-197490200D01*
X34714285Y-197490200D02*
X34657142Y-197433057D01*
X34657142Y-197433057D02*
X34599999Y-197318771D01*
X34599999Y-197318771D02*
X34599999Y-197204485D01*
X34599999Y-197204485D02*
X34657142Y-197090200D01*
X34657142Y-197090200D02*
X34714285Y-197033057D01*
X34714285Y-197033057D02*
X34828570Y-196975914D01*
X34828570Y-196975914D02*
X35057142Y-196918771D01*
X35057142Y-196918771D02*
X35171427Y-196861628D01*
X35171427Y-196861628D02*
X35228570Y-196804485D01*
X35228570Y-196804485D02*
X35285713Y-196690200D01*
X35285713Y-196690200D02*
X35285713Y-196575914D01*
X35285713Y-196575914D02*
X35228570Y-196461628D01*
X35228570Y-196461628D02*
X35171427Y-196404485D01*
X35171427Y-196404485D02*
X35057142Y-196347342D01*
X35057142Y-196347342D02*
X34771427Y-196347342D01*
X34771427Y-196347342D02*
X34599999Y-196404485D01*
X34085713Y-197547342D02*
X34085713Y-196347342D01*
X34085713Y-196347342D02*
X33628570Y-196347342D01*
X33628570Y-196347342D02*
X33514285Y-196404485D01*
X33514285Y-196404485D02*
X33457142Y-196461628D01*
X33457142Y-196461628D02*
X33399999Y-196575914D01*
X33399999Y-196575914D02*
X33399999Y-196747342D01*
X33399999Y-196747342D02*
X33457142Y-196861628D01*
X33457142Y-196861628D02*
X33514285Y-196918771D01*
X33514285Y-196918771D02*
X33628570Y-196975914D01*
X33628570Y-196975914D02*
X34085713Y-196975914D01*
X31971427Y-197547342D02*
X31971427Y-196347342D01*
X30885713Y-197490200D02*
X30999998Y-197547342D01*
X30999998Y-197547342D02*
X31228570Y-197547342D01*
X31228570Y-197547342D02*
X31342855Y-197490200D01*
X31342855Y-197490200D02*
X31399998Y-197433057D01*
X31399998Y-197433057D02*
X31457141Y-197318771D01*
X31457141Y-197318771D02*
X31457141Y-196975914D01*
X31457141Y-196975914D02*
X31399998Y-196861628D01*
X31399998Y-196861628D02*
X31342855Y-196804485D01*
X31342855Y-196804485D02*
X31228570Y-196747342D01*
X31228570Y-196747342D02*
X30999998Y-196747342D01*
X30999998Y-196747342D02*
X30885713Y-196804485D01*
X29914284Y-197490200D02*
X30028570Y-197547342D01*
X30028570Y-197547342D02*
X30257142Y-197547342D01*
X30257142Y-197547342D02*
X30371427Y-197490200D01*
X30371427Y-197490200D02*
X30428570Y-197375914D01*
X30428570Y-197375914D02*
X30428570Y-196918771D01*
X30428570Y-196918771D02*
X30371427Y-196804485D01*
X30371427Y-196804485D02*
X30257142Y-196747342D01*
X30257142Y-196747342D02*
X30028570Y-196747342D01*
X30028570Y-196747342D02*
X29914284Y-196804485D01*
X29914284Y-196804485D02*
X29857142Y-196918771D01*
X29857142Y-196918771D02*
X29857142Y-197033057D01*
X29857142Y-197033057D02*
X30428570Y-197147342D01*
X29342856Y-197547342D02*
X29342856Y-196347342D01*
X29342856Y-196347342D02*
X28885713Y-196347342D01*
X28885713Y-196347342D02*
X28771428Y-196404485D01*
X28771428Y-196404485D02*
X28714285Y-196461628D01*
X28714285Y-196461628D02*
X28657142Y-196575914D01*
X28657142Y-196575914D02*
X28657142Y-196747342D01*
X28657142Y-196747342D02*
X28714285Y-196861628D01*
X28714285Y-196861628D02*
X28771428Y-196918771D01*
X28771428Y-196918771D02*
X28885713Y-196975914D01*
X28885713Y-196975914D02*
X29342856Y-196975914D01*
X27971428Y-197547342D02*
X28085713Y-197490200D01*
X28085713Y-197490200D02*
X28142856Y-197433057D01*
X28142856Y-197433057D02*
X28199999Y-197318771D01*
X28199999Y-197318771D02*
X28199999Y-196975914D01*
X28199999Y-196975914D02*
X28142856Y-196861628D01*
X28142856Y-196861628D02*
X28085713Y-196804485D01*
X28085713Y-196804485D02*
X27971428Y-196747342D01*
X27971428Y-196747342D02*
X27799999Y-196747342D01*
X27799999Y-196747342D02*
X27685713Y-196804485D01*
X27685713Y-196804485D02*
X27628571Y-196861628D01*
X27628571Y-196861628D02*
X27571428Y-196975914D01*
X27571428Y-196975914D02*
X27571428Y-197318771D01*
X27571428Y-197318771D02*
X27628571Y-197433057D01*
X27628571Y-197433057D02*
X27685713Y-197490200D01*
X27685713Y-197490200D02*
X27799999Y-197547342D01*
X27799999Y-197547342D02*
X27971428Y-197547342D01*
X27171428Y-196747342D02*
X26942857Y-197547342D01*
X26942857Y-197547342D02*
X26714285Y-196975914D01*
X26714285Y-196975914D02*
X26485714Y-197547342D01*
X26485714Y-197547342D02*
X26257142Y-196747342D01*
X25342856Y-197490200D02*
X25457142Y-197547342D01*
X25457142Y-197547342D02*
X25685714Y-197547342D01*
X25685714Y-197547342D02*
X25799999Y-197490200D01*
X25799999Y-197490200D02*
X25857142Y-197375914D01*
X25857142Y-197375914D02*
X25857142Y-196918771D01*
X25857142Y-196918771D02*
X25799999Y-196804485D01*
X25799999Y-196804485D02*
X25685714Y-196747342D01*
X25685714Y-196747342D02*
X25457142Y-196747342D01*
X25457142Y-196747342D02*
X25342856Y-196804485D01*
X25342856Y-196804485D02*
X25285714Y-196918771D01*
X25285714Y-196918771D02*
X25285714Y-197033057D01*
X25285714Y-197033057D02*
X25857142Y-197147342D01*
X24771428Y-197547342D02*
X24771428Y-196747342D01*
X24771428Y-196975914D02*
X24714285Y-196861628D01*
X24714285Y-196861628D02*
X24657143Y-196804485D01*
X24657143Y-196804485D02*
X24542857Y-196747342D01*
X24542857Y-196747342D02*
X24428571Y-196747342D01*
X22714285Y-196918771D02*
X22542857Y-196975914D01*
X22542857Y-196975914D02*
X22485714Y-197033057D01*
X22485714Y-197033057D02*
X22428571Y-197147342D01*
X22428571Y-197147342D02*
X22428571Y-197318771D01*
X22428571Y-197318771D02*
X22485714Y-197433057D01*
X22485714Y-197433057D02*
X22542857Y-197490200D01*
X22542857Y-197490200D02*
X22657142Y-197547342D01*
X22657142Y-197547342D02*
X23114285Y-197547342D01*
X23114285Y-197547342D02*
X23114285Y-196347342D01*
X23114285Y-196347342D02*
X22714285Y-196347342D01*
X22714285Y-196347342D02*
X22600000Y-196404485D01*
X22600000Y-196404485D02*
X22542857Y-196461628D01*
X22542857Y-196461628D02*
X22485714Y-196575914D01*
X22485714Y-196575914D02*
X22485714Y-196690200D01*
X22485714Y-196690200D02*
X22542857Y-196804485D01*
X22542857Y-196804485D02*
X22600000Y-196861628D01*
X22600000Y-196861628D02*
X22714285Y-196918771D01*
X22714285Y-196918771D02*
X23114285Y-196918771D01*
X21742857Y-197547342D02*
X21857142Y-197490200D01*
X21857142Y-197490200D02*
X21914285Y-197433057D01*
X21914285Y-197433057D02*
X21971428Y-197318771D01*
X21971428Y-197318771D02*
X21971428Y-196975914D01*
X21971428Y-196975914D02*
X21914285Y-196861628D01*
X21914285Y-196861628D02*
X21857142Y-196804485D01*
X21857142Y-196804485D02*
X21742857Y-196747342D01*
X21742857Y-196747342D02*
X21571428Y-196747342D01*
X21571428Y-196747342D02*
X21457142Y-196804485D01*
X21457142Y-196804485D02*
X21400000Y-196861628D01*
X21400000Y-196861628D02*
X21342857Y-196975914D01*
X21342857Y-196975914D02*
X21342857Y-197318771D01*
X21342857Y-197318771D02*
X21400000Y-197433057D01*
X21400000Y-197433057D02*
X21457142Y-197490200D01*
X21457142Y-197490200D02*
X21571428Y-197547342D01*
X21571428Y-197547342D02*
X21742857Y-197547342D01*
X20657143Y-197547342D02*
X20771428Y-197490200D01*
X20771428Y-197490200D02*
X20828571Y-197433057D01*
X20828571Y-197433057D02*
X20885714Y-197318771D01*
X20885714Y-197318771D02*
X20885714Y-196975914D01*
X20885714Y-196975914D02*
X20828571Y-196861628D01*
X20828571Y-196861628D02*
X20771428Y-196804485D01*
X20771428Y-196804485D02*
X20657143Y-196747342D01*
X20657143Y-196747342D02*
X20485714Y-196747342D01*
X20485714Y-196747342D02*
X20371428Y-196804485D01*
X20371428Y-196804485D02*
X20314286Y-196861628D01*
X20314286Y-196861628D02*
X20257143Y-196975914D01*
X20257143Y-196975914D02*
X20257143Y-197318771D01*
X20257143Y-197318771D02*
X20314286Y-197433057D01*
X20314286Y-197433057D02*
X20371428Y-197490200D01*
X20371428Y-197490200D02*
X20485714Y-197547342D01*
X20485714Y-197547342D02*
X20657143Y-197547342D01*
X19800000Y-197490200D02*
X19685714Y-197547342D01*
X19685714Y-197547342D02*
X19457143Y-197547342D01*
X19457143Y-197547342D02*
X19342857Y-197490200D01*
X19342857Y-197490200D02*
X19285714Y-197375914D01*
X19285714Y-197375914D02*
X19285714Y-197318771D01*
X19285714Y-197318771D02*
X19342857Y-197204485D01*
X19342857Y-197204485D02*
X19457143Y-197147342D01*
X19457143Y-197147342D02*
X19628572Y-197147342D01*
X19628572Y-197147342D02*
X19742857Y-197090200D01*
X19742857Y-197090200D02*
X19800000Y-196975914D01*
X19800000Y-196975914D02*
X19800000Y-196918771D01*
X19800000Y-196918771D02*
X19742857Y-196804485D01*
X19742857Y-196804485D02*
X19628572Y-196747342D01*
X19628572Y-196747342D02*
X19457143Y-196747342D01*
X19457143Y-196747342D02*
X19342857Y-196804485D01*
X18942857Y-196747342D02*
X18485714Y-196747342D01*
X18771428Y-196347342D02*
X18771428Y-197375914D01*
X18771428Y-197375914D02*
X18714285Y-197490200D01*
X18714285Y-197490200D02*
X18600000Y-197547342D01*
X18600000Y-197547342D02*
X18485714Y-197547342D01*
X17628571Y-197490200D02*
X17742857Y-197547342D01*
X17742857Y-197547342D02*
X17971429Y-197547342D01*
X17971429Y-197547342D02*
X18085714Y-197490200D01*
X18085714Y-197490200D02*
X18142857Y-197375914D01*
X18142857Y-197375914D02*
X18142857Y-196918771D01*
X18142857Y-196918771D02*
X18085714Y-196804485D01*
X18085714Y-196804485D02*
X17971429Y-196747342D01*
X17971429Y-196747342D02*
X17742857Y-196747342D01*
X17742857Y-196747342D02*
X17628571Y-196804485D01*
X17628571Y-196804485D02*
X17571429Y-196918771D01*
X17571429Y-196918771D02*
X17571429Y-197033057D01*
X17571429Y-197033057D02*
X18142857Y-197147342D01*
X17057143Y-197547342D02*
X17057143Y-196747342D01*
X17057143Y-196975914D02*
X17000000Y-196861628D01*
X17000000Y-196861628D02*
X16942858Y-196804485D01*
X16942858Y-196804485D02*
X16828572Y-196747342D01*
X16828572Y-196747342D02*
X16714286Y-196747342D01*
X32485714Y-199547342D02*
X32885714Y-198975914D01*
X33171428Y-199547342D02*
X33171428Y-198347342D01*
X33171428Y-198347342D02*
X32714285Y-198347342D01*
X32714285Y-198347342D02*
X32600000Y-198404485D01*
X32600000Y-198404485D02*
X32542857Y-198461628D01*
X32542857Y-198461628D02*
X32485714Y-198575914D01*
X32485714Y-198575914D02*
X32485714Y-198747342D01*
X32485714Y-198747342D02*
X32542857Y-198861628D01*
X32542857Y-198861628D02*
X32600000Y-198918771D01*
X32600000Y-198918771D02*
X32714285Y-198975914D01*
X32714285Y-198975914D02*
X33171428Y-198975914D01*
X31514285Y-199490200D02*
X31628571Y-199547342D01*
X31628571Y-199547342D02*
X31857143Y-199547342D01*
X31857143Y-199547342D02*
X31971428Y-199490200D01*
X31971428Y-199490200D02*
X32028571Y-199375914D01*
X32028571Y-199375914D02*
X32028571Y-198918771D01*
X32028571Y-198918771D02*
X31971428Y-198804485D01*
X31971428Y-198804485D02*
X31857143Y-198747342D01*
X31857143Y-198747342D02*
X31628571Y-198747342D01*
X31628571Y-198747342D02*
X31514285Y-198804485D01*
X31514285Y-198804485D02*
X31457143Y-198918771D01*
X31457143Y-198918771D02*
X31457143Y-199033057D01*
X31457143Y-199033057D02*
X32028571Y-199147342D01*
X31057143Y-198747342D02*
X30771429Y-199547342D01*
X30771429Y-199547342D02*
X30485714Y-198747342D01*
X28485714Y-199547342D02*
X29171428Y-199547342D01*
X28828571Y-199547342D02*
X28828571Y-198347342D01*
X28828571Y-198347342D02*
X28942857Y-198518771D01*
X28942857Y-198518771D02*
X29057142Y-198633057D01*
X29057142Y-198633057D02*
X29171428Y-198690200D01*
X27971428Y-199433057D02*
X27914285Y-199490200D01*
X27914285Y-199490200D02*
X27971428Y-199547342D01*
X27971428Y-199547342D02*
X28028571Y-199490200D01*
X28028571Y-199490200D02*
X27971428Y-199433057D01*
X27971428Y-199433057D02*
X27971428Y-199547342D01*
X27171428Y-198347342D02*
X27057142Y-198347342D01*
X27057142Y-198347342D02*
X26942856Y-198404485D01*
X26942856Y-198404485D02*
X26885714Y-198461628D01*
X26885714Y-198461628D02*
X26828571Y-198575914D01*
X26828571Y-198575914D02*
X26771428Y-198804485D01*
X26771428Y-198804485D02*
X26771428Y-199090200D01*
X26771428Y-199090200D02*
X26828571Y-199318771D01*
X26828571Y-199318771D02*
X26885714Y-199433057D01*
X26885714Y-199433057D02*
X26942856Y-199490200D01*
X26942856Y-199490200D02*
X27057142Y-199547342D01*
X27057142Y-199547342D02*
X27171428Y-199547342D01*
X27171428Y-199547342D02*
X27285714Y-199490200D01*
X27285714Y-199490200D02*
X27342856Y-199433057D01*
X27342856Y-199433057D02*
X27399999Y-199318771D01*
X27399999Y-199318771D02*
X27457142Y-199090200D01*
X27457142Y-199090200D02*
X27457142Y-198804485D01*
X27457142Y-198804485D02*
X27399999Y-198575914D01*
X27399999Y-198575914D02*
X27342856Y-198461628D01*
X27342856Y-198461628D02*
X27285714Y-198404485D01*
X27285714Y-198404485D02*
X27171428Y-198347342D01*
%LPC*%
D11*
%TO.C,J1*%
X70870000Y-10830000D03*
D12*
X70870000Y-4830000D03*
D13*
X66170000Y-7830000D03*
%TD*%
D14*
%TO.C,J10*%
X142890000Y-72140000D03*
X147970000Y-64520000D03*
D15*
X134000000Y-72140000D03*
X134000000Y-64520000D03*
D16*
X134000000Y-68330000D03*
X139080000Y-68330000D03*
%TD*%
D14*
%TO.C,J11*%
X142890000Y-99820000D03*
X147970000Y-92200000D03*
D15*
X134000000Y-99820000D03*
X134000000Y-92200000D03*
D16*
X134000000Y-96010000D03*
X139080000Y-96010000D03*
%TD*%
D14*
%TO.C,J12*%
X142890000Y-127510000D03*
X147970000Y-119890000D03*
D15*
X134000000Y-127510000D03*
X134000000Y-119890000D03*
D16*
X134000000Y-123700000D03*
X139080000Y-123700000D03*
%TD*%
D14*
%TO.C,J13*%
X142890000Y-155450000D03*
X147970000Y-147830000D03*
D15*
X134000000Y-155450000D03*
X134000000Y-147830000D03*
D16*
X134000000Y-151640000D03*
X139080000Y-151640000D03*
%TD*%
D14*
%TO.C,J14*%
X142890000Y-183130000D03*
X147970000Y-175510000D03*
D15*
X134000000Y-183130000D03*
X134000000Y-175510000D03*
D16*
X134000000Y-179320000D03*
X139080000Y-179320000D03*
%TD*%
D17*
%TO.C,J2*%
X27970000Y-7580000D03*
X32970000Y-7580000D03*
%TD*%
D14*
%TO.C,J3*%
X8770000Y-36830000D03*
X3690000Y-44450000D03*
D15*
X12580000Y-44450000D03*
X13215000Y-36830000D03*
D16*
X17030000Y-40640000D03*
X6860000Y-48890000D03*
%TD*%
D14*
%TO.C,J4*%
X8770000Y-64520000D03*
X3690000Y-72140000D03*
D15*
X12580000Y-72140000D03*
X13215000Y-64520000D03*
D16*
X17030000Y-68330000D03*
X6860000Y-76580000D03*
%TD*%
D14*
%TO.C,J5*%
X8770000Y-92200000D03*
X3690000Y-99820000D03*
D15*
X12580000Y-99820000D03*
X13215000Y-92200000D03*
D16*
X17030000Y-96010000D03*
X6860000Y-104260000D03*
%TD*%
D14*
%TO.C,J6*%
X8770000Y-120020000D03*
X3690000Y-127640000D03*
D15*
X12580000Y-127640000D03*
X13215000Y-120020000D03*
D16*
X17030000Y-123830000D03*
X6860000Y-132080000D03*
%TD*%
D14*
%TO.C,J7*%
X8770000Y-147830000D03*
X3690000Y-155450000D03*
D15*
X12580000Y-155450000D03*
X13215000Y-147830000D03*
D16*
X17030000Y-151640000D03*
X6860000Y-159890000D03*
%TD*%
D14*
%TO.C,J8*%
X8770000Y-175600000D03*
X3690000Y-183220000D03*
D15*
X12580000Y-183220000D03*
X13215000Y-175600000D03*
D16*
X17030000Y-179410000D03*
X6860000Y-187660000D03*
%TD*%
D14*
%TO.C,J9*%
X142890000Y-44450000D03*
X147970000Y-36830000D03*
D15*
X134000000Y-44450000D03*
X134000000Y-36830000D03*
D16*
X134000000Y-40640000D03*
X139080000Y-40640000D03*
%TD*%
D18*
%TO.C,SW1*%
X55880000Y-8540000D03*
X55880000Y-2540000D03*
X43880000Y-8540000D03*
X43880000Y-2540000D03*
D19*
X53880000Y-6790000D03*
X49880000Y-6790000D03*
X45880000Y-6790000D03*
%TD*%
D20*
%TO.C,U1*%
X110000000Y-19000000D03*
X112540000Y-19000000D03*
X127780000Y-19000000D03*
X132860000Y-19000000D03*
X132860000Y-3760000D03*
X127780000Y-3760000D03*
X112540000Y-3760000D03*
X110000000Y-3760000D03*
%TD*%
D21*
%TO.C,MH1*%
X4000000Y-4000000D03*
%TD*%
%TO.C,MH2*%
X154000000Y-4000000D03*
%TD*%
%TO.C,MH3*%
X154000000Y-196000000D03*
%TD*%
%TO.C,MH4*%
X4000000Y-196000000D03*
%TD*%
%LPD*%
D22*
X70870000Y-10830000D03*
X70870000Y-4830000D03*
D23*
X66170000Y-7830000D03*
D24*
X142890000Y-72140000D03*
X147970000Y-64520000D03*
X134000000Y-72140000D03*
X134000000Y-64520000D03*
X134000000Y-68330000D03*
X139080000Y-68330000D03*
X142890000Y-99820000D03*
X147970000Y-92200000D03*
X134000000Y-99820000D03*
X134000000Y-92200000D03*
X134000000Y-96010000D03*
X139080000Y-96010000D03*
X142890000Y-127510000D03*
X147970000Y-119890000D03*
X134000000Y-127510000D03*
X134000000Y-119890000D03*
X134000000Y-123700000D03*
X139080000Y-123700000D03*
X142890000Y-155450000D03*
X147970000Y-147830000D03*
X134000000Y-155450000D03*
X134000000Y-147830000D03*
X134000000Y-151640000D03*
X139080000Y-151640000D03*
X142890000Y-183130000D03*
X147970000Y-175510000D03*
X134000000Y-183130000D03*
X134000000Y-175510000D03*
X134000000Y-179320000D03*
X139080000Y-179320000D03*
X27970000Y-7580000D03*
X32970000Y-7580000D03*
X8770000Y-36830000D03*
X3690000Y-44450000D03*
X12580000Y-44450000D03*
X13215000Y-36830000D03*
X17030000Y-40640000D03*
X6860000Y-48890000D03*
X8770000Y-64520000D03*
X3690000Y-72140000D03*
X12580000Y-72140000D03*
X13215000Y-64520000D03*
X17030000Y-68330000D03*
X6860000Y-76580000D03*
X8770000Y-92200000D03*
X3690000Y-99820000D03*
X12580000Y-99820000D03*
X13215000Y-92200000D03*
X17030000Y-96010000D03*
X6860000Y-104260000D03*
X8770000Y-120020000D03*
X3690000Y-127640000D03*
X12580000Y-127640000D03*
X13215000Y-120020000D03*
X17030000Y-123830000D03*
X6860000Y-132080000D03*
X8770000Y-147830000D03*
X3690000Y-155450000D03*
X12580000Y-155450000D03*
X13215000Y-147830000D03*
X17030000Y-151640000D03*
X6860000Y-159890000D03*
X8770000Y-175600000D03*
X3690000Y-183220000D03*
X12580000Y-183220000D03*
X13215000Y-175600000D03*
X17030000Y-179410000D03*
X6860000Y-187660000D03*
X142890000Y-44450000D03*
X147970000Y-36830000D03*
X134000000Y-44450000D03*
X134000000Y-36830000D03*
X134000000Y-40640000D03*
X139080000Y-40640000D03*
X55880000Y-8540000D03*
X55880000Y-2540000D03*
X43880000Y-8540000D03*
X43880000Y-2540000D03*
X53880000Y-6790000D03*
X49880000Y-6790000D03*
X45880000Y-6790000D03*
X110000000Y-19000000D03*
X112540000Y-19000000D03*
X127780000Y-19000000D03*
X132860000Y-19000000D03*
X132860000Y-3760000D03*
X127780000Y-3760000D03*
X112540000Y-3760000D03*
X110000000Y-3760000D03*
X4000000Y-4000000D03*
X154000000Y-4000000D03*
X154000000Y-196000000D03*
X4000000Y-196000000D03*
M02*
