%TF.GenerationSoftware,KiCad,Pcbnew,9.0.7*%
%TF.CreationDate,2026-03-21T23:15:40+01:00*%
%TF.ProjectId,aurora-dsp-icepower-booster,6175726f-7261-42d6-9473-702d69636570,rev?*%
%TF.SameCoordinates,Original*%
%TF.FileFunction,Paste,Top*%
%TF.FilePolarity,Positive*%
%FSLAX46Y46*%
G04 Gerber Fmt 4.6, Leading zero omitted, Abs format (unit mm)*
G04 Created by KiCad (PCBNEW 9.0.7) date 2026-03-21 23:15:40*
%MOMM*%
%LPD*%
G01*
G04 APERTURE LIST*
G04 Aperture macros list*
%AMRoundRect*
0 Rectangle with rounded corners*
0 $1 Rounding radius*
0 $2 $3 $4 $5 $6 $7 $8 $9 X,Y pos of 4 corners*
0 Add a 4 corners polygon primitive as box body*
4,1,4,$2,$3,$4,$5,$6,$7,$8,$9,$2,$3,0*
0 Add four circle primitives for the rounded corners*
1,1,$1+$1,$2,$3*
1,1,$1+$1,$4,$5*
1,1,$1+$1,$6,$7*
1,1,$1+$1,$8,$9*
0 Add four rect primitives between the rounded corners*
20,1,$1+$1,$2,$3,$4,$5,0*
20,1,$1+$1,$4,$5,$6,$7,0*
20,1,$1+$1,$6,$7,$8,$9,0*
20,1,$1+$1,$8,$9,$2,$3,0*%
G04 Aperture macros list end*
%ADD10C,0.010000*%
%ADD11RoundRect,0.250000X0.475000X-0.250000X0.475000X0.250000X-0.475000X0.250000X-0.475000X-0.250000X0*%
%ADD12RoundRect,0.112500X-0.187500X-0.112500X0.187500X-0.112500X0.187500X0.112500X-0.187500X0.112500X0*%
%ADD13RoundRect,0.250000X-0.500000X-0.300000X0.500000X-0.300000X0.500000X0.300000X-0.500000X0.300000X0*%
%ADD14RoundRect,0.150000X-0.825000X-0.150000X0.825000X-0.150000X0.825000X0.150000X-0.825000X0.150000X0*%
%ADD15RoundRect,0.150000X-0.587500X-0.150000X0.587500X-0.150000X0.587500X0.150000X-0.587500X0.150000X0*%
%ADD16RoundRect,0.075000X-0.910000X-0.225000X0.910000X-0.225000X0.910000X0.225000X-0.910000X0.225000X0*%
%ADD17RoundRect,0.250000X0.450000X-0.262500X0.450000X0.262500X-0.450000X0.262500X-0.450000X-0.262500X0*%
%ADD18RoundRect,0.250000X0.650000X-0.325000X0.650000X0.325000X-0.650000X0.325000X-0.650000X-0.325000X0*%
%ADD19RoundRect,0.150000X-0.512500X-0.150000X0.512500X-0.150000X0.512500X0.150000X-0.512500X0.150000X0*%
%ADD20RoundRect,0.250000X1.100000X-0.325000X1.100000X0.325000X-1.100000X0.325000X-1.100000X-0.325000X0*%
%ADD21RoundRect,0.218750X0.381250X-0.218750X0.381250X0.218750X-0.381250X0.218750X-0.381250X-0.218750X0*%
%ADD22RoundRect,0.375000X-0.375000X-0.375000X0.375000X-0.375000X0.375000X0.375000X-0.375000X0.375000X0*%
%ADD23RoundRect,0.375000X-0.375000X-0.625000X0.375000X-0.625000X0.375000X0.625000X-0.375000X0.625000X0*%
%ADD24RoundRect,0.250000X-0.250000X-0.475000X0.250000X-0.475000X0.250000X0.475000X-0.250000X0.475000X0*%
%ADD25RoundRect,0.140000X0.170000X-0.140000X0.170000X0.140000X-0.170000X0.140000X-0.170000X-0.140000X0*%
%ADD26RoundRect,0.250000X-1.000000X-0.900000X1.000000X-0.900000X1.000000X0.900000X-1.000000X0.900000X0*%
G04 APERTURE END LIST*
D10*
%TO.C,U14*%
X128762109Y-9205460D02*
X127237891Y-9205460D01*
X127237891Y-6794540D01*
X128762109Y-6794540D01*
X128762109Y-9205460D01*
G36*
X128762109Y-9205460D02*
G01*
X127237891Y-9205460D01*
X127237891Y-6794540D01*
X128762109Y-6794540D01*
X128762109Y-9205460D01*
G37*
%TD*%
D11*
%TO.C,C30*%
X72000000Y-151400000D03*
X72000000Y-149500000D03*
%TD*%
D12*
%TO.C,D4*%
X99950000Y-96320000D03*
X102050000Y-96320000D03*
%TD*%
D13*
%TO.C,SW5*%
X50550000Y-109100000D03*
X50550000Y-111640000D03*
X50550000Y-114180000D03*
X59450000Y-114180000D03*
X59450000Y-111640000D03*
X59450000Y-109100000D03*
%TD*%
D14*
%TO.C,U7*%
X66525000Y-181315000D03*
X66525000Y-182585000D03*
X66525000Y-183855000D03*
X66525000Y-185125000D03*
X71475000Y-185125000D03*
X71475000Y-183855000D03*
X71475000Y-182585000D03*
X71475000Y-181315000D03*
%TD*%
D11*
%TO.C,C8*%
X52000000Y-50400000D03*
X52000000Y-48500000D03*
%TD*%
D15*
%TO.C,Q4*%
X91062500Y-98870000D03*
X91062500Y-100770000D03*
X92937500Y-99820000D03*
%TD*%
D16*
%TO.C,U14*%
X125525000Y-6095000D03*
X125525000Y-7365000D03*
X125525000Y-8635000D03*
X125525000Y-9905000D03*
X130475000Y-9905000D03*
X130475000Y-8635000D03*
X130475000Y-7365000D03*
X130475000Y-6095000D03*
%TD*%
D17*
%TO.C,R87*%
X76000000Y-179132500D03*
X76000000Y-177307500D03*
%TD*%
D11*
%TO.C,C78*%
X121000000Y-28950000D03*
X121000000Y-27050000D03*
%TD*%
%TO.C,C18*%
X78000000Y-28950000D03*
X78000000Y-27050000D03*
%TD*%
D17*
%TO.C,R75*%
X62000000Y-186632500D03*
X62000000Y-184807500D03*
%TD*%
%TO.C,R32*%
X51087500Y-62140000D03*
X52912500Y-62140000D03*
%TD*%
D11*
%TO.C,C34*%
X72000000Y-105770000D03*
X72000000Y-103870000D03*
%TD*%
D13*
%TO.C,SW7*%
X50550000Y-164680000D03*
X50550000Y-167220000D03*
X50550000Y-169760000D03*
X59450000Y-169760000D03*
X59450000Y-167220000D03*
X59450000Y-164680000D03*
%TD*%
D12*
%TO.C,D17*%
X31950000Y-124140000D03*
X34050000Y-124140000D03*
%TD*%
D15*
%TO.C,Q3*%
X91062500Y-71190000D03*
X91062500Y-73090000D03*
X92937500Y-72140000D03*
%TD*%
D17*
%TO.C,R84*%
X76000000Y-95732500D03*
X76000000Y-93907500D03*
%TD*%
D11*
%TO.C,C48*%
X83050000Y-158950000D03*
X84950000Y-158950000D03*
%TD*%
D18*
%TO.C,C71*%
X43525000Y-158950000D03*
X46475000Y-158950000D03*
%TD*%
D17*
%TO.C,R67*%
X63087500Y-120640000D03*
X64912500Y-120640000D03*
%TD*%
%TO.C,R62*%
X79087500Y-158950000D03*
X80912500Y-158950000D03*
%TD*%
%TO.C,R54*%
X59087500Y-145450000D03*
X60912500Y-145450000D03*
%TD*%
D11*
%TO.C,C6*%
X52000000Y-151400000D03*
X52000000Y-149500000D03*
%TD*%
D17*
%TO.C,R7*%
X49000000Y-105732500D03*
X49000000Y-103907500D03*
%TD*%
%TO.C,R37*%
X55087500Y-89820000D03*
X56912500Y-89820000D03*
%TD*%
D12*
%TO.C,D21*%
X99950000Y-158950000D03*
X102050000Y-158950000D03*
%TD*%
D19*
%TO.C,U15*%
X126862500Y-23050000D03*
X126862500Y-24000000D03*
X126862500Y-24950000D03*
X129137500Y-24950000D03*
X129137500Y-23050000D03*
%TD*%
D17*
%TO.C,R66*%
X63087500Y-92820000D03*
X64912500Y-92820000D03*
%TD*%
%TO.C,R45*%
X55087500Y-145450000D03*
X56912500Y-145450000D03*
%TD*%
%TO.C,R90*%
X76000000Y-105732500D03*
X76000000Y-103907500D03*
%TD*%
D11*
%TO.C,C4*%
X52000000Y-95770000D03*
X52000000Y-93870000D03*
%TD*%
D17*
%TO.C,R48*%
X51087500Y-173220000D03*
X52912500Y-173220000D03*
%TD*%
%TO.C,R33*%
X55087500Y-62140000D03*
X56912500Y-62140000D03*
%TD*%
%TO.C,R29*%
X55087500Y-34450000D03*
X56912500Y-34450000D03*
%TD*%
%TO.C,R17*%
X49000000Y-128552500D03*
X49000000Y-126727500D03*
%TD*%
D14*
%TO.C,U6*%
X66525000Y-153545000D03*
X66525000Y-154815000D03*
X66525000Y-156085000D03*
X66525000Y-157355000D03*
X71475000Y-157355000D03*
X71475000Y-156085000D03*
X71475000Y-154815000D03*
X71475000Y-153545000D03*
%TD*%
D12*
%TO.C,D8*%
X31950000Y-40950000D03*
X34050000Y-40950000D03*
%TD*%
D11*
%TO.C,C9*%
X52000000Y-78090000D03*
X52000000Y-76190000D03*
%TD*%
D17*
%TO.C,R12*%
X49000000Y-179132500D03*
X49000000Y-177307500D03*
%TD*%
D18*
%TO.C,C73*%
X43525000Y-186720000D03*
X46475000Y-186720000D03*
%TD*%
D11*
%TO.C,C79*%
X135000000Y-22950000D03*
X135000000Y-21050000D03*
%TD*%
D17*
%TO.C,R13*%
X49000000Y-189132500D03*
X49000000Y-187307500D03*
%TD*%
%TO.C,R55*%
X59087500Y-173220000D03*
X60912500Y-173220000D03*
%TD*%
%TO.C,R38*%
X63087500Y-134640000D03*
X64912500Y-134640000D03*
%TD*%
D11*
%TO.C,C42*%
X83050000Y-151950000D03*
X84950000Y-151950000D03*
%TD*%
D15*
%TO.C,Q5*%
X91062500Y-126690000D03*
X91062500Y-128590000D03*
X92937500Y-127640000D03*
%TD*%
D12*
%TO.C,D23*%
X31950000Y-179720000D03*
X34050000Y-179720000D03*
%TD*%
D14*
%TO.C,U12*%
X52525000Y-153545000D03*
X52525000Y-154815000D03*
X52525000Y-156085000D03*
X52525000Y-157355000D03*
X57475000Y-157355000D03*
X57475000Y-156085000D03*
X57475000Y-154815000D03*
X57475000Y-153545000D03*
%TD*%
D17*
%TO.C,R106*%
X71087500Y-20000000D03*
X72912500Y-20000000D03*
%TD*%
D11*
%TO.C,C37*%
X69000000Y-170950000D03*
X69000000Y-169050000D03*
%TD*%
D17*
%TO.C,R73*%
X62000000Y-131052500D03*
X62000000Y-129227500D03*
%TD*%
D18*
%TO.C,C64*%
X43525000Y-68640000D03*
X46475000Y-68640000D03*
%TD*%
D17*
%TO.C,R99*%
X36087500Y-103320000D03*
X37912500Y-103320000D03*
%TD*%
D11*
%TO.C,C31*%
X72000000Y-179170000D03*
X72000000Y-177270000D03*
%TD*%
D20*
%TO.C,C21*%
X121000000Y-23475000D03*
X121000000Y-20525000D03*
%TD*%
D21*
%TO.C,FB2*%
X116937500Y-26000000D03*
X119062500Y-26000000D03*
%TD*%
D17*
%TO.C,R108*%
X95087500Y-44450000D03*
X96912500Y-44450000D03*
%TD*%
%TO.C,R42*%
X63087500Y-162450000D03*
X64912500Y-162450000D03*
%TD*%
D11*
%TO.C,C58*%
X41000000Y-152900000D03*
X41000000Y-151000000D03*
%TD*%
D17*
%TO.C,R79*%
X79087500Y-124140000D03*
X80912500Y-124140000D03*
%TD*%
D20*
%TO.C,C16*%
X140000000Y-15475000D03*
X140000000Y-12525000D03*
%TD*%
D17*
%TO.C,R100*%
X36087500Y-124140000D03*
X37912500Y-124140000D03*
%TD*%
D14*
%TO.C,U5*%
X66525000Y-125735000D03*
X66525000Y-127005000D03*
X66525000Y-128275000D03*
X66525000Y-129545000D03*
X71475000Y-129545000D03*
X71475000Y-128275000D03*
X71475000Y-127005000D03*
X71475000Y-125735000D03*
%TD*%
D11*
%TO.C,C7*%
X52000000Y-179170000D03*
X52000000Y-177270000D03*
%TD*%
D22*
%TO.C,J2*%
X34520000Y-11430000D03*
X26420000Y-11430000D03*
D23*
X26420000Y-2580000D03*
X34520000Y-2580000D03*
%TD*%
D17*
%TO.C,R77*%
X79087500Y-68640000D03*
X80912500Y-68640000D03*
%TD*%
D14*
%TO.C,U13*%
X52525000Y-181315000D03*
X52525000Y-182585000D03*
X52525000Y-183855000D03*
X52525000Y-185125000D03*
X57475000Y-185125000D03*
X57475000Y-183855000D03*
X57475000Y-182585000D03*
X57475000Y-181315000D03*
%TD*%
D11*
%TO.C,C60*%
X41000000Y-180670000D03*
X41000000Y-178770000D03*
%TD*%
%TO.C,C2*%
X52000000Y-40400000D03*
X52000000Y-38500000D03*
%TD*%
D17*
%TO.C,R113*%
X95087500Y-183220000D03*
X96912500Y-183220000D03*
%TD*%
%TO.C,R44*%
X51087500Y-145450000D03*
X52912500Y-145450000D03*
%TD*%
D12*
%TO.C,D22*%
X31950000Y-158950000D03*
X34050000Y-158950000D03*
%TD*%
D17*
%TO.C,R61*%
X79087500Y-131140000D03*
X80912500Y-131140000D03*
%TD*%
%TO.C,R58*%
X79087500Y-47950000D03*
X80912500Y-47950000D03*
%TD*%
D11*
%TO.C,C23*%
X85000000Y-30950000D03*
X85000000Y-29050000D03*
%TD*%
%TO.C,C1*%
X43000000Y-12950000D03*
X43000000Y-11050000D03*
%TD*%
D17*
%TO.C,R59*%
X79087500Y-75640000D03*
X80912500Y-75640000D03*
%TD*%
%TO.C,R110*%
X95087500Y-99820000D03*
X96912500Y-99820000D03*
%TD*%
%TO.C,R105*%
X36087500Y-186720000D03*
X37912500Y-186720000D03*
%TD*%
D11*
%TO.C,C47*%
X83050000Y-131140000D03*
X84950000Y-131140000D03*
%TD*%
D15*
%TO.C,Q2*%
X91062500Y-43500000D03*
X91062500Y-45400000D03*
X92937500Y-44450000D03*
%TD*%
D13*
%TO.C,SW6*%
X50550000Y-136910000D03*
X50550000Y-139450000D03*
X50550000Y-141990000D03*
X59450000Y-141990000D03*
X59450000Y-139450000D03*
X59450000Y-136910000D03*
%TD*%
D12*
%TO.C,D11*%
X31950000Y-68640000D03*
X34050000Y-68640000D03*
%TD*%
%TO.C,D25*%
X31950000Y-186720000D03*
X34050000Y-186720000D03*
%TD*%
%TO.C,D24*%
X99950000Y-186720000D03*
X102050000Y-186720000D03*
%TD*%
D18*
%TO.C,C72*%
X43525000Y-179720000D03*
X46475000Y-179720000D03*
%TD*%
D17*
%TO.C,R112*%
X95087500Y-155450000D03*
X96912500Y-155450000D03*
%TD*%
D12*
%TO.C,D3*%
X99950000Y-68640000D03*
X102050000Y-68640000D03*
%TD*%
D17*
%TO.C,R25*%
X62000000Y-181632500D03*
X62000000Y-179807500D03*
%TD*%
%TO.C,R49*%
X55087500Y-173220000D03*
X56912500Y-173220000D03*
%TD*%
D11*
%TO.C,C59*%
X41000000Y-159900000D03*
X41000000Y-158000000D03*
%TD*%
D17*
%TO.C,R51*%
X59087500Y-62140000D03*
X60912500Y-62140000D03*
%TD*%
D11*
%TO.C,C53*%
X41000000Y-76590000D03*
X41000000Y-74690000D03*
%TD*%
%TO.C,C11*%
X52000000Y-133590000D03*
X52000000Y-131690000D03*
%TD*%
D17*
%TO.C,R56*%
X71087500Y-24000000D03*
X72912500Y-24000000D03*
%TD*%
%TO.C,R22*%
X62000000Y-98232500D03*
X62000000Y-96407500D03*
%TD*%
%TO.C,R69*%
X63087500Y-176220000D03*
X64912500Y-176220000D03*
%TD*%
%TO.C,R40*%
X51087500Y-117640000D03*
X52912500Y-117640000D03*
%TD*%
%TO.C,R102*%
X36087500Y-151950000D03*
X37912500Y-151950000D03*
%TD*%
D18*
%TO.C,C70*%
X43525000Y-151950000D03*
X46475000Y-151950000D03*
%TD*%
D15*
%TO.C,Q7*%
X91062500Y-182270000D03*
X91062500Y-184170000D03*
X92937500Y-183220000D03*
%TD*%
D17*
%TO.C,R107*%
X75087500Y-20000000D03*
X76912500Y-20000000D03*
%TD*%
D11*
%TO.C,C35*%
X69000000Y-114950000D03*
X69000000Y-113050000D03*
%TD*%
%TO.C,C26*%
X72000000Y-40400000D03*
X72000000Y-38500000D03*
%TD*%
D17*
%TO.C,R11*%
X49000000Y-161362500D03*
X49000000Y-159537500D03*
%TD*%
D14*
%TO.C,U11*%
X52525000Y-125735000D03*
X52525000Y-127005000D03*
X52525000Y-128275000D03*
X52525000Y-129545000D03*
X57475000Y-129545000D03*
X57475000Y-128275000D03*
X57475000Y-127005000D03*
X57475000Y-125735000D03*
%TD*%
D11*
%TO.C,C10*%
X52000000Y-105770000D03*
X52000000Y-103870000D03*
%TD*%
%TO.C,C25*%
X46000000Y-58950000D03*
X46000000Y-57050000D03*
%TD*%
D17*
%TO.C,R96*%
X36087500Y-68640000D03*
X37912500Y-68640000D03*
%TD*%
D13*
%TO.C,SW2*%
X50550000Y-25910000D03*
X50550000Y-28450000D03*
X50550000Y-30990000D03*
X59450000Y-30990000D03*
X59450000Y-28450000D03*
X59450000Y-25910000D03*
%TD*%
D17*
%TO.C,R88*%
X76000000Y-50362500D03*
X76000000Y-48537500D03*
%TD*%
%TO.C,R81*%
X79087500Y-179720000D03*
X80912500Y-179720000D03*
%TD*%
%TO.C,R5*%
X49000000Y-78052500D03*
X49000000Y-76227500D03*
%TD*%
%TO.C,R104*%
X36087500Y-179720000D03*
X37912500Y-179720000D03*
%TD*%
%TO.C,R24*%
X62000000Y-153862500D03*
X62000000Y-152037500D03*
%TD*%
D11*
%TO.C,C5*%
X52000000Y-123590000D03*
X52000000Y-121690000D03*
%TD*%
D17*
%TO.C,R27*%
X47087500Y-34450000D03*
X48912500Y-34450000D03*
%TD*%
D12*
%TO.C,D9*%
X99950000Y-47950000D03*
X102050000Y-47950000D03*
%TD*%
%TO.C,D13*%
X31950000Y-75640000D03*
X34050000Y-75640000D03*
%TD*%
D11*
%TO.C,C19*%
X80000000Y-24950000D03*
X80000000Y-23050000D03*
%TD*%
D20*
%TO.C,C17*%
X78000000Y-13475000D03*
X78000000Y-10525000D03*
%TD*%
D17*
%TO.C,R39*%
X47087500Y-117640000D03*
X48912500Y-117640000D03*
%TD*%
%TO.C,R97*%
X36087500Y-75640000D03*
X37912500Y-75640000D03*
%TD*%
D11*
%TO.C,C45*%
X83050000Y-75640000D03*
X84950000Y-75640000D03*
%TD*%
D17*
%TO.C,R9*%
X49000000Y-133552500D03*
X49000000Y-131727500D03*
%TD*%
%TO.C,R72*%
X62000000Y-103232500D03*
X62000000Y-101407500D03*
%TD*%
%TO.C,R92*%
X76000000Y-161362500D03*
X76000000Y-159537500D03*
%TD*%
D11*
%TO.C,C49*%
X83050000Y-186720000D03*
X84950000Y-186720000D03*
%TD*%
D15*
%TO.C,Q6*%
X91062500Y-154500000D03*
X91062500Y-156400000D03*
X92937500Y-155450000D03*
%TD*%
D24*
%TO.C,C80*%
X68000000Y-22950000D03*
X68000000Y-21050000D03*
%TD*%
D11*
%TO.C,C55*%
X41000000Y-104270000D03*
X41000000Y-102370000D03*
%TD*%
%TO.C,C61*%
X41000000Y-187670000D03*
X41000000Y-185770000D03*
%TD*%
%TO.C,C36*%
X69000000Y-142950000D03*
X69000000Y-141050000D03*
%TD*%
D17*
%TO.C,R65*%
X63087500Y-65140000D03*
X64912500Y-65140000D03*
%TD*%
D12*
%TO.C,D12*%
X99950000Y-75640000D03*
X102050000Y-75640000D03*
%TD*%
D13*
%TO.C,SW4*%
X50550000Y-81280000D03*
X50550000Y-83820000D03*
X50550000Y-86360000D03*
X59450000Y-86360000D03*
X59450000Y-83820000D03*
X59450000Y-81280000D03*
%TD*%
D17*
%TO.C,R89*%
X76000000Y-78052500D03*
X76000000Y-76227500D03*
%TD*%
D11*
%TO.C,C51*%
X41000000Y-48900000D03*
X41000000Y-47000000D03*
%TD*%
D17*
%TO.C,R111*%
X95087500Y-127640000D03*
X96912500Y-127640000D03*
%TD*%
%TO.C,R80*%
X79087500Y-151950000D03*
X80912500Y-151950000D03*
%TD*%
D11*
%TO.C,C44*%
X83050000Y-47950000D03*
X84950000Y-47950000D03*
%TD*%
D17*
%TO.C,R50*%
X59087500Y-34450000D03*
X60912500Y-34450000D03*
%TD*%
D14*
%TO.C,U9*%
X52525000Y-70235000D03*
X52525000Y-71505000D03*
X52525000Y-72775000D03*
X52525000Y-74045000D03*
X57475000Y-74045000D03*
X57475000Y-72775000D03*
X57475000Y-71505000D03*
X57475000Y-70235000D03*
%TD*%
D17*
%TO.C,R31*%
X47087500Y-62140000D03*
X48912500Y-62140000D03*
%TD*%
%TO.C,R52*%
X59087500Y-89820000D03*
X60912500Y-89820000D03*
%TD*%
D11*
%TO.C,C75*%
X72000000Y-161400000D03*
X72000000Y-159500000D03*
%TD*%
D17*
%TO.C,R36*%
X51087500Y-89820000D03*
X52912500Y-89820000D03*
%TD*%
D12*
%TO.C,D5*%
X99950000Y-124140000D03*
X102050000Y-124140000D03*
%TD*%
D15*
%TO.C,Q1*%
X71062500Y-15050000D03*
X71062500Y-16950000D03*
X72937500Y-16000000D03*
%TD*%
D18*
%TO.C,C63*%
X43525000Y-47950000D03*
X46475000Y-47950000D03*
%TD*%
D17*
%TO.C,R35*%
X47087500Y-89820000D03*
X48912500Y-89820000D03*
%TD*%
D13*
%TO.C,SW3*%
X50550000Y-53600000D03*
X50550000Y-56140000D03*
X50550000Y-58680000D03*
X59450000Y-58680000D03*
X59450000Y-56140000D03*
X59450000Y-53600000D03*
%TD*%
D18*
%TO.C,C66*%
X43525000Y-96320000D03*
X46475000Y-96320000D03*
%TD*%
D11*
%TO.C,C28*%
X72000000Y-95770000D03*
X72000000Y-93870000D03*
%TD*%
D17*
%TO.C,R85*%
X76000000Y-123552500D03*
X76000000Y-121727500D03*
%TD*%
%TO.C,R41*%
X55087500Y-117640000D03*
X56912500Y-117640000D03*
%TD*%
D11*
%TO.C,C24*%
X69000000Y-58950000D03*
X69000000Y-57050000D03*
%TD*%
D17*
%TO.C,R63*%
X79087500Y-186720000D03*
X80912500Y-186720000D03*
%TD*%
%TO.C,R109*%
X95087500Y-72140000D03*
X96912500Y-72140000D03*
%TD*%
%TO.C,R8*%
X49000000Y-123552500D03*
X49000000Y-121727500D03*
%TD*%
D11*
%TO.C,C40*%
X83050000Y-96320000D03*
X84950000Y-96320000D03*
%TD*%
D14*
%TO.C,U3*%
X66525000Y-70235000D03*
X66525000Y-71505000D03*
X66525000Y-72775000D03*
X66525000Y-74045000D03*
X71475000Y-74045000D03*
X71475000Y-72775000D03*
X71475000Y-71505000D03*
X71475000Y-70235000D03*
%TD*%
D17*
%TO.C,R23*%
X62000000Y-126052500D03*
X62000000Y-124227500D03*
%TD*%
%TO.C,R82*%
X76000000Y-40362500D03*
X76000000Y-38537500D03*
%TD*%
D11*
%TO.C,C13*%
X52000000Y-189170000D03*
X52000000Y-187270000D03*
%TD*%
%TO.C,C77*%
X82000000Y-32950000D03*
X82000000Y-31050000D03*
%TD*%
%TO.C,C29*%
X72000000Y-123590000D03*
X72000000Y-121690000D03*
%TD*%
D17*
%TO.C,R64*%
X63087500Y-37450000D03*
X64912500Y-37450000D03*
%TD*%
D12*
%TO.C,D2*%
X99950000Y-40950000D03*
X102050000Y-40950000D03*
%TD*%
D17*
%TO.C,R28*%
X51087500Y-34450000D03*
X52912500Y-34450000D03*
%TD*%
D14*
%TO.C,U4*%
X66525000Y-97915000D03*
X66525000Y-99185000D03*
X66525000Y-100455000D03*
X66525000Y-101725000D03*
X71475000Y-101725000D03*
X71475000Y-100455000D03*
X71475000Y-99185000D03*
X71475000Y-97915000D03*
%TD*%
D17*
%TO.C,R6*%
X49000000Y-95732500D03*
X49000000Y-93907500D03*
%TD*%
%TO.C,R103*%
X36087500Y-158950000D03*
X37912500Y-158950000D03*
%TD*%
%TO.C,R70*%
X62000000Y-47862500D03*
X62000000Y-46037500D03*
%TD*%
D11*
%TO.C,C14*%
X80000000Y-8950000D03*
X80000000Y-7050000D03*
%TD*%
D12*
%TO.C,D19*%
X31950000Y-131140000D03*
X34050000Y-131140000D03*
%TD*%
D17*
%TO.C,R74*%
X62000000Y-158862500D03*
X62000000Y-157037500D03*
%TD*%
%TO.C,R19*%
X49000000Y-184132500D03*
X49000000Y-182307500D03*
%TD*%
D20*
%TO.C,C20*%
X134000000Y-11475000D03*
X134000000Y-8525000D03*
%TD*%
D11*
%TO.C,C41*%
X83050000Y-124140000D03*
X84950000Y-124140000D03*
%TD*%
D17*
%TO.C,R4*%
X49000000Y-68052500D03*
X49000000Y-66227500D03*
%TD*%
D11*
%TO.C,C52*%
X41000000Y-69590000D03*
X41000000Y-67690000D03*
%TD*%
D17*
%TO.C,R91*%
X76000000Y-133552500D03*
X76000000Y-131727500D03*
%TD*%
D11*
%TO.C,C54*%
X41000000Y-97270000D03*
X41000000Y-95370000D03*
%TD*%
D12*
%TO.C,D18*%
X99950000Y-131140000D03*
X102050000Y-131140000D03*
%TD*%
D17*
%TO.C,R47*%
X47087500Y-173220000D03*
X48912500Y-173220000D03*
%TD*%
%TO.C,R3*%
X49000000Y-50362500D03*
X49000000Y-48537500D03*
%TD*%
D25*
%TO.C,C81*%
X135000000Y-26480000D03*
X135000000Y-25520000D03*
%TD*%
D17*
%TO.C,R46*%
X63087500Y-190220000D03*
X64912500Y-190220000D03*
%TD*%
%TO.C,R95*%
X36087500Y-47950000D03*
X37912500Y-47950000D03*
%TD*%
D12*
%TO.C,D14*%
X31950000Y-96320000D03*
X34050000Y-96320000D03*
%TD*%
%TO.C,D10*%
X31950000Y-47950000D03*
X34050000Y-47950000D03*
%TD*%
%TO.C,D6*%
X99950000Y-151950000D03*
X102050000Y-151950000D03*
%TD*%
D17*
%TO.C,R93*%
X76000000Y-189132500D03*
X76000000Y-187307500D03*
%TD*%
D26*
%TO.C,D1*%
X59850000Y-18000000D03*
X64150000Y-18000000D03*
%TD*%
D11*
%TO.C,C74*%
X72000000Y-133590000D03*
X72000000Y-131690000D03*
%TD*%
%TO.C,C33*%
X72000000Y-78090000D03*
X72000000Y-76190000D03*
%TD*%
%TO.C,C46*%
X83050000Y-103320000D03*
X84950000Y-103320000D03*
%TD*%
D17*
%TO.C,R86*%
X76000000Y-151362500D03*
X76000000Y-149537500D03*
%TD*%
D11*
%TO.C,C27*%
X72000000Y-68090000D03*
X72000000Y-66190000D03*
%TD*%
D12*
%TO.C,D15*%
X99950000Y-103320000D03*
X102050000Y-103320000D03*
%TD*%
D21*
%TO.C,FB1*%
X116937500Y-10000000D03*
X119062500Y-10000000D03*
%TD*%
D18*
%TO.C,C68*%
X43525000Y-124140000D03*
X46475000Y-124140000D03*
%TD*%
D11*
%TO.C,C43*%
X83050000Y-179720000D03*
X84950000Y-179720000D03*
%TD*%
%TO.C,C32*%
X72000000Y-50400000D03*
X72000000Y-48500000D03*
%TD*%
D17*
%TO.C,R71*%
X62000000Y-75552500D03*
X62000000Y-73727500D03*
%TD*%
D11*
%TO.C,C56*%
X41000000Y-125090000D03*
X41000000Y-123190000D03*
%TD*%
D18*
%TO.C,C62*%
X43525000Y-40950000D03*
X46475000Y-40950000D03*
%TD*%
D17*
%TO.C,R2*%
X49000000Y-40362500D03*
X49000000Y-38537500D03*
%TD*%
%TO.C,R14*%
X49000000Y-45362500D03*
X49000000Y-43537500D03*
%TD*%
%TO.C,R30*%
X63087500Y-79140000D03*
X64912500Y-79140000D03*
%TD*%
D14*
%TO.C,U8*%
X52525000Y-42545000D03*
X52525000Y-43815000D03*
X52525000Y-45085000D03*
X52525000Y-46355000D03*
X57475000Y-46355000D03*
X57475000Y-45085000D03*
X57475000Y-43815000D03*
X57475000Y-42545000D03*
%TD*%
D17*
%TO.C,R18*%
X49000000Y-156362500D03*
X49000000Y-154537500D03*
%TD*%
%TO.C,R15*%
X49000000Y-73052500D03*
X49000000Y-71227500D03*
%TD*%
%TO.C,R10*%
X49000000Y-151362500D03*
X49000000Y-149537500D03*
%TD*%
%TO.C,R76*%
X79087500Y-40950000D03*
X80912500Y-40950000D03*
%TD*%
D14*
%TO.C,U2*%
X66525000Y-42545000D03*
X66525000Y-43815000D03*
X66525000Y-45085000D03*
X66525000Y-46355000D03*
X71475000Y-46355000D03*
X71475000Y-45085000D03*
X71475000Y-43815000D03*
X71475000Y-42545000D03*
%TD*%
D17*
%TO.C,R26*%
X63087500Y-51450000D03*
X64912500Y-51450000D03*
%TD*%
D11*
%TO.C,C3*%
X52000000Y-68090000D03*
X52000000Y-66190000D03*
%TD*%
D17*
%TO.C,R53*%
X59087500Y-117640000D03*
X60912500Y-117640000D03*
%TD*%
D18*
%TO.C,C69*%
X43525000Y-131140000D03*
X46475000Y-131140000D03*
%TD*%
D14*
%TO.C,U10*%
X52525000Y-97915000D03*
X52525000Y-99185000D03*
X52525000Y-100455000D03*
X52525000Y-101725000D03*
X57475000Y-101725000D03*
X57475000Y-100455000D03*
X57475000Y-99185000D03*
X57475000Y-97915000D03*
%TD*%
D11*
%TO.C,C50*%
X41000000Y-41900000D03*
X41000000Y-40000000D03*
%TD*%
%TO.C,C38*%
X83050000Y-40950000D03*
X84950000Y-40950000D03*
%TD*%
%TO.C,C57*%
X41000000Y-132090000D03*
X41000000Y-130190000D03*
%TD*%
D12*
%TO.C,D20*%
X31950000Y-151950000D03*
X34050000Y-151950000D03*
%TD*%
D11*
%TO.C,C39*%
X83050000Y-68640000D03*
X84950000Y-68640000D03*
%TD*%
D18*
%TO.C,C67*%
X43525000Y-103320000D03*
X46475000Y-103320000D03*
%TD*%
D17*
%TO.C,R98*%
X36087500Y-96320000D03*
X37912500Y-96320000D03*
%TD*%
%TO.C,R94*%
X36087500Y-40950000D03*
X37912500Y-40950000D03*
%TD*%
%TO.C,R34*%
X63087500Y-106820000D03*
X64912500Y-106820000D03*
%TD*%
%TO.C,R43*%
X47087500Y-145450000D03*
X48912500Y-145450000D03*
%TD*%
%TO.C,R20*%
X62000000Y-42862500D03*
X62000000Y-41037500D03*
%TD*%
D12*
%TO.C,D7*%
X99950000Y-179720000D03*
X102050000Y-179720000D03*
%TD*%
D17*
%TO.C,R78*%
X79087500Y-96320000D03*
X80912500Y-96320000D03*
%TD*%
%TO.C,R57*%
X75087500Y-24000000D03*
X76912500Y-24000000D03*
%TD*%
%TO.C,R83*%
X76000000Y-68052500D03*
X76000000Y-66227500D03*
%TD*%
%TO.C,R21*%
X62000000Y-70552500D03*
X62000000Y-68727500D03*
%TD*%
D11*
%TO.C,C12*%
X52000000Y-161400000D03*
X52000000Y-159500000D03*
%TD*%
D18*
%TO.C,C65*%
X43525000Y-75640000D03*
X46475000Y-75640000D03*
%TD*%
D11*
%TO.C,C76*%
X72000000Y-189170000D03*
X72000000Y-187270000D03*
%TD*%
D17*
%TO.C,R68*%
X63087500Y-148450000D03*
X64912500Y-148450000D03*
%TD*%
%TO.C,R60*%
X79087500Y-103320000D03*
X80912500Y-103320000D03*
%TD*%
%TO.C,R101*%
X36087500Y-131140000D03*
X37912500Y-131140000D03*
%TD*%
%TO.C,R16*%
X49000000Y-100732500D03*
X49000000Y-98907500D03*
%TD*%
D11*
%TO.C,C15*%
X80000000Y-28950000D03*
X80000000Y-27050000D03*
%TD*%
D17*
%TO.C,R1*%
X39087500Y-15000000D03*
X40912500Y-15000000D03*
%TD*%
D11*
%TO.C,C22*%
X121000000Y-6950000D03*
X121000000Y-5050000D03*
%TD*%
D12*
%TO.C,D16*%
X31950000Y-103320000D03*
X34050000Y-103320000D03*
%TD*%
M02*
