M48
; DRILL file {KiCad 9.0.7} date 2026-03-20T20:36:59+0100
; FORMAT={-:-/ absolute / metric / decimal}
; #@! TF.CreationDate,2026-03-20T20:36:59+01:00
; #@! TF.GenerationSoftware,Kicad,Pcbnew,9.0.7
; #@! TF.FileFunction,MixedPlating,1,2
FMAT,2
METRIC
; #@! TA.AperFunction,Plated,PTH,ViaDrill
T1C0.300
; #@! TA.AperFunction,Plated,PTH,ViaDrill
T2C0.400
; #@! TA.AperFunction,Plated,PTH,ComponentDrill
T3C0.813
; #@! TA.AperFunction,Plated,PTH,ComponentDrill
T4C0.900
; #@! TA.AperFunction,Plated,PTH,ComponentDrill
T5C1.000
; #@! TA.AperFunction,Plated,PTH,ComponentDrill
T6C1.200
; #@! TA.AperFunction,Plated,PTH,ComponentDrill
T7C1.600
; #@! TA.AperFunction,NonPlated,NPTH,ComponentDrill
T8C1.200
; #@! TA.AperFunction,NonPlated,NPTH,ComponentDrill
T9C1.600
; #@! TA.AperFunction,NonPlated,NPTH,ComponentDrill
T10C3.200
%
G90
G05
T1
X51.394Y-40.056
X51.566Y-36.071
X55.122Y-64.141
X55.122Y-91.034
X55.122Y-123.656
X56.018Y-23.177
X57.551Y-42.48
X58.094Y-183.625
X58.107Y-99.999
X59.043Y-66.331
X59.193Y-126.584
X60.098Y-153.48
X60.225Y-102.118
X61.092Y-46.885
X61.092Y-67.129
X61.092Y-102.987
X61.092Y-130.314
X61.094Y-69.578
X62.872Y-43.378
X63.097Y-44.305
X63.329Y-66.722
X63.711Y-100.182
X64.067Y-129.649
X64.122Y-127.717
X64.49Y-43.193
X64.578Y-183.403
X65.424Y-69.246
X66.129Y-96.198
X66.232Y-67.959
X67.061Y-123.903
X67.062Y-96.569
X67.062Y-150.796
X67.062Y-180.099
X69.384Y-48.254
X69.527Y-43.738
X69.527Y-46.546
X69.583Y-94.234
X69.661Y-66.104
X69.794Y-131.062
X69.935Y-157.358
X70.006Y-103.294
X71.995Y-130.608
X73.488Y-70.118
X73.488Y-99.405
X73.488Y-155.608
X73.488Y-182.938
X74.318Y-132.868
X75.459Y-44.244
X75.506Y-67.39
X75.759Y-154.797
X78.156Y-97.613
X78.156Y-181.963
X78.212Y-124.604
X78.237Y-69.53
X78.457Y-126.37
X79.004Y-45.72
X79.004Y-154.18
X87.082Y-127.811
X93.38Y-43.225
X93.927Y-40.237
X94.872Y-72.2
X97.042Y-153.923
X97.103Y-100.807
X97.103Y-129.88
X97.103Y-157.009
X97.103Y-184.34
X97.872Y-41.198
X99.897Y-101.275
X100.778Y-97.893
X101.97Y-99.329
X102.882Y-67.129
X102.882Y-123.903
X102.882Y-150.796
X104.501Y-178.222
X104.822Y-43.152
X106.389Y-130.058
X106.757Y-182.806
X106.777Y-121.593
X110.916Y-67.899
X110.916Y-123.606
X110.916Y-151.387
X110.916Y-178.719
X110.922Y-96.545
X111.28Y-43.873
X111.837Y-73.177
X111.937Y-129.88
X114.02Y-68.29
X114.408Y-40.177
X114.408Y-177.689
X114.822Y-120.915
X117.017Y-181.225
X117.907Y-126.891
X117.907Y-154.195
X118.008Y-71.701
X119.833Y-50.129
X120.792Y-106.201
X121.536Y-150.66
X122.826Y-45.528
X122.826Y-128.956
X123.777Y-120.915
X124.048Y-101.968
X124.082Y-68.552
X124.082Y-75.451
X124.082Y-96.249
X124.082Y-158.939
X124.082Y-179.783
X124.392Y-39.734
X124.392Y-185.827
X125.69Y-25.04
X126.698Y-73.041
X127.399Y-185.404
X127.881Y-152.068
X128.877Y-76.502
X128.877Y-103.715
X131.731Y-96.803
X131.881Y-123.89
X132.143Y-46.555
X132.16Y-38.263
X132.732Y-130.292
X132.732Y-159.761
X132.732Y-186.653
X144.672Y-7.207
X148.325Y-6.765
X150.798Y-4.379
T2
X64.643Y-186.444
X69.285Y-99.534
X70.047Y-49.201
X73.032Y-103.253
X85.733Y-19.795
X102.882Y-10.756
X105.611Y-46.652
X105.867Y-1.448
X105.93Y-183.665
X106.441Y-99.999
X108.852Y-28.284
X132.19Y-35.364
X138.702Y-19.32
X145.321Y-0.919
T3
X110.0Y-3.76
X110.0Y-19.0
X112.54Y-3.76
X112.54Y-19.0
X127.78Y-3.76
X127.78Y-19.0
X132.86Y-3.76
X132.86Y-19.0
T4
X45.88Y-6.79
X49.88Y-6.79
X53.88Y-6.79
T6
X6.86Y-48.89
X6.86Y-76.58
X6.86Y-104.26
X6.86Y-132.08
X6.86Y-159.89
X6.86Y-187.66
X17.03Y-40.64
X17.03Y-68.33
X17.03Y-96.01
X17.03Y-123.83
X17.03Y-151.64
X17.03Y-179.41
X43.88Y-2.54
X43.88Y-8.54
X55.88Y-2.54
X55.88Y-8.54
X134.0Y-40.64
X134.0Y-68.33
X134.0Y-96.01
X134.0Y-123.7
X134.0Y-151.64
X134.0Y-179.32
X139.08Y-40.64
X139.08Y-68.33
X139.08Y-96.01
X139.08Y-123.7
X139.08Y-151.64
X139.08Y-179.32
T7
X12.58Y-44.45
X12.58Y-72.14
X12.58Y-99.82
X12.58Y-127.64
X12.58Y-155.45
X12.58Y-183.22
X13.215Y-36.83
X13.215Y-64.52
X13.215Y-92.2
X13.215Y-120.02
X13.215Y-147.83
X13.215Y-175.6
X134.0Y-36.83
X134.0Y-44.45
X134.0Y-64.52
X134.0Y-72.14
X134.0Y-92.2
X134.0Y-99.82
X134.0Y-119.89
X134.0Y-127.51
X134.0Y-147.83
X134.0Y-155.45
X134.0Y-175.51
X134.0Y-183.13
T8
X27.97Y-7.58
X32.97Y-7.58
T9
X3.69Y-44.45
X3.69Y-72.14
X3.69Y-99.82
X3.69Y-127.64
X3.69Y-155.45
X3.69Y-183.22
X8.77Y-36.83
X8.77Y-64.52
X8.77Y-92.2
X8.77Y-120.02
X8.77Y-147.83
X8.77Y-175.6
X142.89Y-44.45
X142.89Y-72.14
X142.89Y-99.82
X142.89Y-127.51
X142.89Y-155.45
X142.89Y-183.13
X147.97Y-36.83
X147.97Y-64.52
X147.97Y-92.2
X147.97Y-119.89
X147.97Y-147.83
X147.97Y-175.51
T10
X4.0Y-4.0
X4.0Y-196.0
X154.0Y-4.0
X154.0Y-196.0
T5
X66.17Y-6.83G85X66.17Y-8.83
G05
X71.87Y-4.83G85X69.87Y-4.83
G05
X71.87Y-10.83G85X69.87Y-10.83
G05
M30
