%TF.GenerationSoftware,KiCad,Pcbnew,9.0.7*%
%TF.CreationDate,2026-03-23T16:49:01+01:00*%
%TF.ProjectId,aurora-dsp-icepower-booster,6175726f-7261-42d6-9473-702d69636570,rev?*%
%TF.SameCoordinates,Original*%
%TF.FileFunction,Drillmap*%
%TF.FilePolarity,Positive*%
%FSLAX45Y45*%
G04 Gerber Fmt 4.5, Leading zero omitted, Abs format (unit mm)*
G04 Created by KiCad (PCBNEW 9.0.7) date 2026-03-23 16:49:01*
%MOMM*%
%LPD*%
G01*
G04 APERTURE LIST*
%ADD10C,0.050000*%
%ADD11C,0.200000*%
%ADD12C,0.150000*%
%ADD13C,0.160000*%
%ADD14C,0.320000*%
G04 APERTURE END LIST*
D10*
X0Y0D02*
X14555400Y0D01*
X14555400Y-20000000D01*
X0Y-20000000D01*
X0Y0D01*
D11*
D12*
X1550600Y-269600D02*
X1700600Y-419600D01*
X1700600Y-269600D02*
X1550600Y-419600D01*
X1550600Y-939600D02*
X1700600Y-1089600D01*
X1700600Y-939600D02*
X1550600Y-1089600D01*
X3176200Y-278900D02*
X3326200Y-428900D01*
X3326200Y-278900D02*
X3176200Y-428900D01*
X3176200Y-948900D02*
X3326200Y-1098900D01*
X3326200Y-948900D02*
X3176200Y-1098900D01*
D13*
X449000Y-4445000D02*
G75*
G02*
X289000Y-4445000I-80000J0D01*
G01*
X289000Y-4445000D02*
G75*
G02*
X449000Y-4445000I80000J0D01*
G01*
X449000Y-7214000D02*
G75*
G02*
X289000Y-7214000I-80000J0D01*
G01*
X289000Y-7214000D02*
G75*
G02*
X449000Y-7214000I80000J0D01*
G01*
X449000Y-9982000D02*
G75*
G02*
X289000Y-9982000I-80000J0D01*
G01*
X289000Y-9982000D02*
G75*
G02*
X449000Y-9982000I80000J0D01*
G01*
X449000Y-12764000D02*
G75*
G02*
X289000Y-12764000I-80000J0D01*
G01*
X289000Y-12764000D02*
G75*
G02*
X449000Y-12764000I80000J0D01*
G01*
X449000Y-15545000D02*
G75*
G02*
X289000Y-15545000I-80000J0D01*
G01*
X289000Y-15545000D02*
G75*
G02*
X449000Y-15545000I80000J0D01*
G01*
X449000Y-18322000D02*
G75*
G02*
X289000Y-18322000I-80000J0D01*
G01*
X289000Y-18322000D02*
G75*
G02*
X449000Y-18322000I80000J0D01*
G01*
X957000Y-3683000D02*
G75*
G02*
X797000Y-3683000I-80000J0D01*
G01*
X797000Y-3683000D02*
G75*
G02*
X957000Y-3683000I80000J0D01*
G01*
X957000Y-6452000D02*
G75*
G02*
X797000Y-6452000I-80000J0D01*
G01*
X797000Y-6452000D02*
G75*
G02*
X957000Y-6452000I80000J0D01*
G01*
X957000Y-9220000D02*
G75*
G02*
X797000Y-9220000I-80000J0D01*
G01*
X797000Y-9220000D02*
G75*
G02*
X957000Y-9220000I80000J0D01*
G01*
X957000Y-12002000D02*
G75*
G02*
X797000Y-12002000I-80000J0D01*
G01*
X797000Y-12002000D02*
G75*
G02*
X957000Y-12002000I80000J0D01*
G01*
X957000Y-14783000D02*
G75*
G02*
X797000Y-14783000I-80000J0D01*
G01*
X797000Y-14783000D02*
G75*
G02*
X957000Y-14783000I80000J0D01*
G01*
X957000Y-17560000D02*
G75*
G02*
X797000Y-17560000I-80000J0D01*
G01*
X797000Y-17560000D02*
G75*
G02*
X957000Y-17560000I80000J0D01*
G01*
X13745200Y-4445000D02*
G75*
G02*
X13585200Y-4445000I-80000J0D01*
G01*
X13585200Y-4445000D02*
G75*
G02*
X13745200Y-4445000I80000J0D01*
G01*
X13745200Y-7214000D02*
G75*
G02*
X13585200Y-7214000I-80000J0D01*
G01*
X13585200Y-7214000D02*
G75*
G02*
X13745200Y-7214000I80000J0D01*
G01*
X13745200Y-9982000D02*
G75*
G02*
X13585200Y-9982000I-80000J0D01*
G01*
X13585200Y-9982000D02*
G75*
G02*
X13745200Y-9982000I80000J0D01*
G01*
X13745200Y-12751000D02*
G75*
G02*
X13585200Y-12751000I-80000J0D01*
G01*
X13585200Y-12751000D02*
G75*
G02*
X13745200Y-12751000I80000J0D01*
G01*
X13745200Y-15545000D02*
G75*
G02*
X13585200Y-15545000I-80000J0D01*
G01*
X13585200Y-15545000D02*
G75*
G02*
X13745200Y-15545000I80000J0D01*
G01*
X13745200Y-18313000D02*
G75*
G02*
X13585200Y-18313000I-80000J0D01*
G01*
X13585200Y-18313000D02*
G75*
G02*
X13745200Y-18313000I80000J0D01*
G01*
X14253200Y-3683000D02*
G75*
G02*
X14093200Y-3683000I-80000J0D01*
G01*
X14093200Y-3683000D02*
G75*
G02*
X14253200Y-3683000I80000J0D01*
G01*
X14253200Y-6452000D02*
G75*
G02*
X14093200Y-6452000I-80000J0D01*
G01*
X14093200Y-6452000D02*
G75*
G02*
X14253200Y-6452000I80000J0D01*
G01*
X14253200Y-9220000D02*
G75*
G02*
X14093200Y-9220000I-80000J0D01*
G01*
X14093200Y-9220000D02*
G75*
G02*
X14253200Y-9220000I80000J0D01*
G01*
X14253200Y-11989000D02*
G75*
G02*
X14093200Y-11989000I-80000J0D01*
G01*
X14093200Y-11989000D02*
G75*
G02*
X14253200Y-11989000I80000J0D01*
G01*
X14253200Y-14783000D02*
G75*
G02*
X14093200Y-14783000I-80000J0D01*
G01*
X14093200Y-14783000D02*
G75*
G02*
X14253200Y-14783000I80000J0D01*
G01*
X14253200Y-17551000D02*
G75*
G02*
X14093200Y-17551000I-80000J0D01*
G01*
X14093200Y-17551000D02*
G75*
G02*
X14253200Y-17551000I80000J0D01*
G01*
D14*
X400000Y-240000D02*
X400000Y-560000D01*
X240000Y-400000D02*
X560000Y-400000D01*
X400000Y-19440000D02*
X400000Y-19760000D01*
X240000Y-19600000D02*
X560000Y-19600000D01*
X14173200Y-240000D02*
X14173200Y-560000D01*
X14013200Y-400000D02*
X14333200Y-400000D01*
X14173200Y-19440000D02*
X14173200Y-19760000D01*
X14013200Y-19600000D02*
X14333200Y-19600000D01*
D11*
X258277Y-20313984D02*
X258277Y-20113984D01*
X258277Y-20113984D02*
X305896Y-20113984D01*
X305896Y-20113984D02*
X334467Y-20123508D01*
X334467Y-20123508D02*
X353515Y-20142555D01*
X353515Y-20142555D02*
X363039Y-20161603D01*
X363039Y-20161603D02*
X372562Y-20199698D01*
X372562Y-20199698D02*
X372562Y-20228270D01*
X372562Y-20228270D02*
X363039Y-20266365D01*
X363039Y-20266365D02*
X353515Y-20285412D01*
X353515Y-20285412D02*
X334467Y-20304460D01*
X334467Y-20304460D02*
X305896Y-20313984D01*
X305896Y-20313984D02*
X258277Y-20313984D01*
X458277Y-20313984D02*
X458277Y-20180650D01*
X458277Y-20218746D02*
X467801Y-20199698D01*
X467801Y-20199698D02*
X477324Y-20190174D01*
X477324Y-20190174D02*
X496372Y-20180650D01*
X496372Y-20180650D02*
X515420Y-20180650D01*
X582086Y-20313984D02*
X582086Y-20180650D01*
X582086Y-20113984D02*
X572563Y-20123508D01*
X572563Y-20123508D02*
X582086Y-20133031D01*
X582086Y-20133031D02*
X591610Y-20123508D01*
X591610Y-20123508D02*
X582086Y-20113984D01*
X582086Y-20113984D02*
X582086Y-20133031D01*
X705896Y-20313984D02*
X686848Y-20304460D01*
X686848Y-20304460D02*
X677324Y-20285412D01*
X677324Y-20285412D02*
X677324Y-20113984D01*
X810658Y-20313984D02*
X791610Y-20304460D01*
X791610Y-20304460D02*
X782086Y-20285412D01*
X782086Y-20285412D02*
X782086Y-20113984D01*
X1039229Y-20313984D02*
X1039229Y-20113984D01*
X1039229Y-20113984D02*
X1105896Y-20256841D01*
X1105896Y-20256841D02*
X1172563Y-20113984D01*
X1172563Y-20113984D02*
X1172563Y-20313984D01*
X1353515Y-20313984D02*
X1353515Y-20209222D01*
X1353515Y-20209222D02*
X1343991Y-20190174D01*
X1343991Y-20190174D02*
X1324944Y-20180650D01*
X1324944Y-20180650D02*
X1286848Y-20180650D01*
X1286848Y-20180650D02*
X1267801Y-20190174D01*
X1353515Y-20304460D02*
X1334467Y-20313984D01*
X1334467Y-20313984D02*
X1286848Y-20313984D01*
X1286848Y-20313984D02*
X1267801Y-20304460D01*
X1267801Y-20304460D02*
X1258277Y-20285412D01*
X1258277Y-20285412D02*
X1258277Y-20266365D01*
X1258277Y-20266365D02*
X1267801Y-20247317D01*
X1267801Y-20247317D02*
X1286848Y-20237793D01*
X1286848Y-20237793D02*
X1334467Y-20237793D01*
X1334467Y-20237793D02*
X1353515Y-20228270D01*
X1448753Y-20180650D02*
X1448753Y-20380650D01*
X1448753Y-20190174D02*
X1467801Y-20180650D01*
X1467801Y-20180650D02*
X1505896Y-20180650D01*
X1505896Y-20180650D02*
X1524943Y-20190174D01*
X1524943Y-20190174D02*
X1534467Y-20199698D01*
X1534467Y-20199698D02*
X1543991Y-20218746D01*
X1543991Y-20218746D02*
X1543991Y-20275889D01*
X1543991Y-20275889D02*
X1534467Y-20294936D01*
X1534467Y-20294936D02*
X1524943Y-20304460D01*
X1524943Y-20304460D02*
X1505896Y-20313984D01*
X1505896Y-20313984D02*
X1467801Y-20313984D01*
X1467801Y-20313984D02*
X1448753Y-20304460D01*
X1629705Y-20294936D02*
X1639229Y-20304460D01*
X1639229Y-20304460D02*
X1629705Y-20313984D01*
X1629705Y-20313984D02*
X1620182Y-20304460D01*
X1620182Y-20304460D02*
X1629705Y-20294936D01*
X1629705Y-20294936D02*
X1629705Y-20313984D01*
X1629705Y-20190174D02*
X1639229Y-20199698D01*
X1639229Y-20199698D02*
X1629705Y-20209222D01*
X1629705Y-20209222D02*
X1620182Y-20199698D01*
X1620182Y-20199698D02*
X1629705Y-20190174D01*
X1629705Y-20190174D02*
X1629705Y-20209222D01*
D12*
X-152500Y-20567500D02*
X-2500Y-20717500D01*
X-2500Y-20567500D02*
X-152500Y-20717500D01*
D11*
X363039Y-20733984D02*
X248753Y-20733984D01*
X305896Y-20733984D02*
X305896Y-20533984D01*
X305896Y-20533984D02*
X286848Y-20562555D01*
X286848Y-20562555D02*
X267801Y-20581603D01*
X267801Y-20581603D02*
X248753Y-20591127D01*
X448753Y-20714936D02*
X458277Y-20724460D01*
X458277Y-20724460D02*
X448753Y-20733984D01*
X448753Y-20733984D02*
X439229Y-20724460D01*
X439229Y-20724460D02*
X448753Y-20714936D01*
X448753Y-20714936D02*
X448753Y-20733984D01*
X639229Y-20533984D02*
X543991Y-20533984D01*
X543991Y-20533984D02*
X534467Y-20629222D01*
X534467Y-20629222D02*
X543991Y-20619698D01*
X543991Y-20619698D02*
X563039Y-20610174D01*
X563039Y-20610174D02*
X610658Y-20610174D01*
X610658Y-20610174D02*
X629705Y-20619698D01*
X629705Y-20619698D02*
X639229Y-20629222D01*
X639229Y-20629222D02*
X648753Y-20648270D01*
X648753Y-20648270D02*
X648753Y-20695889D01*
X648753Y-20695889D02*
X639229Y-20714936D01*
X639229Y-20714936D02*
X629705Y-20724460D01*
X629705Y-20724460D02*
X610658Y-20733984D01*
X610658Y-20733984D02*
X563039Y-20733984D01*
X563039Y-20733984D02*
X543991Y-20724460D01*
X543991Y-20724460D02*
X534467Y-20714936D01*
X772562Y-20533984D02*
X791610Y-20533984D01*
X791610Y-20533984D02*
X810658Y-20543508D01*
X810658Y-20543508D02*
X820182Y-20553031D01*
X820182Y-20553031D02*
X829705Y-20572079D01*
X829705Y-20572079D02*
X839229Y-20610174D01*
X839229Y-20610174D02*
X839229Y-20657793D01*
X839229Y-20657793D02*
X829705Y-20695889D01*
X829705Y-20695889D02*
X820182Y-20714936D01*
X820182Y-20714936D02*
X810658Y-20724460D01*
X810658Y-20724460D02*
X791610Y-20733984D01*
X791610Y-20733984D02*
X772562Y-20733984D01*
X772562Y-20733984D02*
X753515Y-20724460D01*
X753515Y-20724460D02*
X743991Y-20714936D01*
X743991Y-20714936D02*
X734467Y-20695889D01*
X734467Y-20695889D02*
X724943Y-20657793D01*
X724943Y-20657793D02*
X724943Y-20610174D01*
X724943Y-20610174D02*
X734467Y-20572079D01*
X734467Y-20572079D02*
X743991Y-20553031D01*
X743991Y-20553031D02*
X753515Y-20543508D01*
X753515Y-20543508D02*
X772562Y-20533984D01*
X963039Y-20533984D02*
X982086Y-20533984D01*
X982086Y-20533984D02*
X1001134Y-20543508D01*
X1001134Y-20543508D02*
X1010658Y-20553031D01*
X1010658Y-20553031D02*
X1020182Y-20572079D01*
X1020182Y-20572079D02*
X1029705Y-20610174D01*
X1029705Y-20610174D02*
X1029705Y-20657793D01*
X1029705Y-20657793D02*
X1020182Y-20695889D01*
X1020182Y-20695889D02*
X1010658Y-20714936D01*
X1010658Y-20714936D02*
X1001134Y-20724460D01*
X1001134Y-20724460D02*
X982086Y-20733984D01*
X982086Y-20733984D02*
X963039Y-20733984D01*
X963039Y-20733984D02*
X943991Y-20724460D01*
X943991Y-20724460D02*
X934467Y-20714936D01*
X934467Y-20714936D02*
X924943Y-20695889D01*
X924943Y-20695889D02*
X915420Y-20657793D01*
X915420Y-20657793D02*
X915420Y-20610174D01*
X915420Y-20610174D02*
X924943Y-20572079D01*
X924943Y-20572079D02*
X934467Y-20553031D01*
X934467Y-20553031D02*
X943991Y-20543508D01*
X943991Y-20543508D02*
X963039Y-20533984D01*
X1115420Y-20733984D02*
X1115420Y-20600650D01*
X1115420Y-20619698D02*
X1124944Y-20610174D01*
X1124944Y-20610174D02*
X1143991Y-20600650D01*
X1143991Y-20600650D02*
X1172563Y-20600650D01*
X1172563Y-20600650D02*
X1191610Y-20610174D01*
X1191610Y-20610174D02*
X1201134Y-20629222D01*
X1201134Y-20629222D02*
X1201134Y-20733984D01*
X1201134Y-20629222D02*
X1210658Y-20610174D01*
X1210658Y-20610174D02*
X1229705Y-20600650D01*
X1229705Y-20600650D02*
X1258277Y-20600650D01*
X1258277Y-20600650D02*
X1277325Y-20610174D01*
X1277325Y-20610174D02*
X1286848Y-20629222D01*
X1286848Y-20629222D02*
X1286848Y-20733984D01*
X1382086Y-20733984D02*
X1382086Y-20600650D01*
X1382086Y-20619698D02*
X1391610Y-20610174D01*
X1391610Y-20610174D02*
X1410658Y-20600650D01*
X1410658Y-20600650D02*
X1439229Y-20600650D01*
X1439229Y-20600650D02*
X1458277Y-20610174D01*
X1458277Y-20610174D02*
X1467801Y-20629222D01*
X1467801Y-20629222D02*
X1467801Y-20733984D01*
X1467801Y-20629222D02*
X1477324Y-20610174D01*
X1477324Y-20610174D02*
X1496372Y-20600650D01*
X1496372Y-20600650D02*
X1524943Y-20600650D01*
X1524943Y-20600650D02*
X1543991Y-20610174D01*
X1543991Y-20610174D02*
X1553515Y-20629222D01*
X1553515Y-20629222D02*
X1553515Y-20733984D01*
X1943991Y-20524460D02*
X1772563Y-20781603D01*
X2201134Y-20533984D02*
X2220182Y-20533984D01*
X2220182Y-20533984D02*
X2239229Y-20543508D01*
X2239229Y-20543508D02*
X2248753Y-20553031D01*
X2248753Y-20553031D02*
X2258277Y-20572079D01*
X2258277Y-20572079D02*
X2267801Y-20610174D01*
X2267801Y-20610174D02*
X2267801Y-20657793D01*
X2267801Y-20657793D02*
X2258277Y-20695889D01*
X2258277Y-20695889D02*
X2248753Y-20714936D01*
X2248753Y-20714936D02*
X2239229Y-20724460D01*
X2239229Y-20724460D02*
X2220182Y-20733984D01*
X2220182Y-20733984D02*
X2201134Y-20733984D01*
X2201134Y-20733984D02*
X2182087Y-20724460D01*
X2182087Y-20724460D02*
X2172563Y-20714936D01*
X2172563Y-20714936D02*
X2163039Y-20695889D01*
X2163039Y-20695889D02*
X2153515Y-20657793D01*
X2153515Y-20657793D02*
X2153515Y-20610174D01*
X2153515Y-20610174D02*
X2163039Y-20572079D01*
X2163039Y-20572079D02*
X2172563Y-20553031D01*
X2172563Y-20553031D02*
X2182087Y-20543508D01*
X2182087Y-20543508D02*
X2201134Y-20533984D01*
X2353515Y-20714936D02*
X2363039Y-20724460D01*
X2363039Y-20724460D02*
X2353515Y-20733984D01*
X2353515Y-20733984D02*
X2343991Y-20724460D01*
X2343991Y-20724460D02*
X2353515Y-20714936D01*
X2353515Y-20714936D02*
X2353515Y-20733984D01*
X2486848Y-20533984D02*
X2505896Y-20533984D01*
X2505896Y-20533984D02*
X2524944Y-20543508D01*
X2524944Y-20543508D02*
X2534468Y-20553031D01*
X2534468Y-20553031D02*
X2543991Y-20572079D01*
X2543991Y-20572079D02*
X2553515Y-20610174D01*
X2553515Y-20610174D02*
X2553515Y-20657793D01*
X2553515Y-20657793D02*
X2543991Y-20695889D01*
X2543991Y-20695889D02*
X2534468Y-20714936D01*
X2534468Y-20714936D02*
X2524944Y-20724460D01*
X2524944Y-20724460D02*
X2505896Y-20733984D01*
X2505896Y-20733984D02*
X2486848Y-20733984D01*
X2486848Y-20733984D02*
X2467801Y-20724460D01*
X2467801Y-20724460D02*
X2458277Y-20714936D01*
X2458277Y-20714936D02*
X2448753Y-20695889D01*
X2448753Y-20695889D02*
X2439229Y-20657793D01*
X2439229Y-20657793D02*
X2439229Y-20610174D01*
X2439229Y-20610174D02*
X2448753Y-20572079D01*
X2448753Y-20572079D02*
X2458277Y-20553031D01*
X2458277Y-20553031D02*
X2467801Y-20543508D01*
X2467801Y-20543508D02*
X2486848Y-20533984D01*
X2734468Y-20533984D02*
X2639229Y-20533984D01*
X2639229Y-20533984D02*
X2629706Y-20629222D01*
X2629706Y-20629222D02*
X2639229Y-20619698D01*
X2639229Y-20619698D02*
X2658277Y-20610174D01*
X2658277Y-20610174D02*
X2705896Y-20610174D01*
X2705896Y-20610174D02*
X2724944Y-20619698D01*
X2724944Y-20619698D02*
X2734468Y-20629222D01*
X2734468Y-20629222D02*
X2743991Y-20648270D01*
X2743991Y-20648270D02*
X2743991Y-20695889D01*
X2743991Y-20695889D02*
X2734468Y-20714936D01*
X2734468Y-20714936D02*
X2724944Y-20724460D01*
X2724944Y-20724460D02*
X2705896Y-20733984D01*
X2705896Y-20733984D02*
X2658277Y-20733984D01*
X2658277Y-20733984D02*
X2639229Y-20724460D01*
X2639229Y-20724460D02*
X2629706Y-20714936D01*
X2839229Y-20733984D02*
X2877325Y-20733984D01*
X2877325Y-20733984D02*
X2896372Y-20724460D01*
X2896372Y-20724460D02*
X2905896Y-20714936D01*
X2905896Y-20714936D02*
X2924944Y-20686365D01*
X2924944Y-20686365D02*
X2934467Y-20648270D01*
X2934467Y-20648270D02*
X2934467Y-20572079D01*
X2934467Y-20572079D02*
X2924944Y-20553031D01*
X2924944Y-20553031D02*
X2915420Y-20543508D01*
X2915420Y-20543508D02*
X2896372Y-20533984D01*
X2896372Y-20533984D02*
X2858277Y-20533984D01*
X2858277Y-20533984D02*
X2839229Y-20543508D01*
X2839229Y-20543508D02*
X2829706Y-20553031D01*
X2829706Y-20553031D02*
X2820182Y-20572079D01*
X2820182Y-20572079D02*
X2820182Y-20619698D01*
X2820182Y-20619698D02*
X2829706Y-20638746D01*
X2829706Y-20638746D02*
X2839229Y-20648270D01*
X2839229Y-20648270D02*
X2858277Y-20657793D01*
X2858277Y-20657793D02*
X2896372Y-20657793D01*
X2896372Y-20657793D02*
X2915420Y-20648270D01*
X2915420Y-20648270D02*
X2924944Y-20638746D01*
X2924944Y-20638746D02*
X2934467Y-20619698D01*
X3124944Y-20733984D02*
X3010658Y-20733984D01*
X3067801Y-20733984D02*
X3067801Y-20533984D01*
X3067801Y-20533984D02*
X3048753Y-20562555D01*
X3048753Y-20562555D02*
X3029706Y-20581603D01*
X3029706Y-20581603D02*
X3010658Y-20591127D01*
X3201134Y-20533984D02*
X3201134Y-20572079D01*
X3277325Y-20533984D02*
X3277325Y-20572079D01*
X3572563Y-20810174D02*
X3563039Y-20800650D01*
X3563039Y-20800650D02*
X3543991Y-20772079D01*
X3543991Y-20772079D02*
X3534468Y-20753031D01*
X3534468Y-20753031D02*
X3524944Y-20724460D01*
X3524944Y-20724460D02*
X3515420Y-20676841D01*
X3515420Y-20676841D02*
X3515420Y-20638746D01*
X3515420Y-20638746D02*
X3524944Y-20591127D01*
X3524944Y-20591127D02*
X3534468Y-20562555D01*
X3534468Y-20562555D02*
X3543991Y-20543508D01*
X3543991Y-20543508D02*
X3563039Y-20514936D01*
X3563039Y-20514936D02*
X3572563Y-20505412D01*
X3734468Y-20600650D02*
X3734468Y-20733984D01*
X3686848Y-20524460D02*
X3639229Y-20667317D01*
X3639229Y-20667317D02*
X3763039Y-20667317D01*
X3991610Y-20733984D02*
X3991610Y-20533984D01*
X4077325Y-20733984D02*
X4077325Y-20629222D01*
X4077325Y-20629222D02*
X4067801Y-20610174D01*
X4067801Y-20610174D02*
X4048753Y-20600650D01*
X4048753Y-20600650D02*
X4020182Y-20600650D01*
X4020182Y-20600650D02*
X4001134Y-20610174D01*
X4001134Y-20610174D02*
X3991610Y-20619698D01*
X4201134Y-20733984D02*
X4182087Y-20724460D01*
X4182087Y-20724460D02*
X4172563Y-20714936D01*
X4172563Y-20714936D02*
X4163039Y-20695889D01*
X4163039Y-20695889D02*
X4163039Y-20638746D01*
X4163039Y-20638746D02*
X4172563Y-20619698D01*
X4172563Y-20619698D02*
X4182087Y-20610174D01*
X4182087Y-20610174D02*
X4201134Y-20600650D01*
X4201134Y-20600650D02*
X4229706Y-20600650D01*
X4229706Y-20600650D02*
X4248753Y-20610174D01*
X4248753Y-20610174D02*
X4258277Y-20619698D01*
X4258277Y-20619698D02*
X4267801Y-20638746D01*
X4267801Y-20638746D02*
X4267801Y-20695889D01*
X4267801Y-20695889D02*
X4258277Y-20714936D01*
X4258277Y-20714936D02*
X4248753Y-20724460D01*
X4248753Y-20724460D02*
X4229706Y-20733984D01*
X4229706Y-20733984D02*
X4201134Y-20733984D01*
X4382087Y-20733984D02*
X4363039Y-20724460D01*
X4363039Y-20724460D02*
X4353515Y-20705412D01*
X4353515Y-20705412D02*
X4353515Y-20533984D01*
X4534468Y-20724460D02*
X4515420Y-20733984D01*
X4515420Y-20733984D02*
X4477325Y-20733984D01*
X4477325Y-20733984D02*
X4458277Y-20724460D01*
X4458277Y-20724460D02*
X4448753Y-20705412D01*
X4448753Y-20705412D02*
X4448753Y-20629222D01*
X4448753Y-20629222D02*
X4458277Y-20610174D01*
X4458277Y-20610174D02*
X4477325Y-20600650D01*
X4477325Y-20600650D02*
X4515420Y-20600650D01*
X4515420Y-20600650D02*
X4534468Y-20610174D01*
X4534468Y-20610174D02*
X4543992Y-20629222D01*
X4543992Y-20629222D02*
X4543992Y-20648270D01*
X4543992Y-20648270D02*
X4448753Y-20667317D01*
X4620182Y-20724460D02*
X4639230Y-20733984D01*
X4639230Y-20733984D02*
X4677325Y-20733984D01*
X4677325Y-20733984D02*
X4696373Y-20724460D01*
X4696373Y-20724460D02*
X4705896Y-20705412D01*
X4705896Y-20705412D02*
X4705896Y-20695889D01*
X4705896Y-20695889D02*
X4696373Y-20676841D01*
X4696373Y-20676841D02*
X4677325Y-20667317D01*
X4677325Y-20667317D02*
X4648753Y-20667317D01*
X4648753Y-20667317D02*
X4629706Y-20657793D01*
X4629706Y-20657793D02*
X4620182Y-20638746D01*
X4620182Y-20638746D02*
X4620182Y-20629222D01*
X4620182Y-20629222D02*
X4629706Y-20610174D01*
X4629706Y-20610174D02*
X4648753Y-20600650D01*
X4648753Y-20600650D02*
X4677325Y-20600650D01*
X4677325Y-20600650D02*
X4696373Y-20610174D01*
X4772563Y-20810174D02*
X4782087Y-20800650D01*
X4782087Y-20800650D02*
X4801134Y-20772079D01*
X4801134Y-20772079D02*
X4810658Y-20753031D01*
X4810658Y-20753031D02*
X4820182Y-20724460D01*
X4820182Y-20724460D02*
X4829706Y-20676841D01*
X4829706Y-20676841D02*
X4829706Y-20638746D01*
X4829706Y-20638746D02*
X4820182Y-20591127D01*
X4820182Y-20591127D02*
X4810658Y-20562555D01*
X4810658Y-20562555D02*
X4801134Y-20543508D01*
X4801134Y-20543508D02*
X4782087Y-20514936D01*
X4782087Y-20514936D02*
X4772563Y-20505412D01*
X5134468Y-20810174D02*
X5124944Y-20800650D01*
X5124944Y-20800650D02*
X5105896Y-20772079D01*
X5105896Y-20772079D02*
X5096373Y-20753031D01*
X5096373Y-20753031D02*
X5086849Y-20724460D01*
X5086849Y-20724460D02*
X5077325Y-20676841D01*
X5077325Y-20676841D02*
X5077325Y-20638746D01*
X5077325Y-20638746D02*
X5086849Y-20591127D01*
X5086849Y-20591127D02*
X5096373Y-20562555D01*
X5096373Y-20562555D02*
X5105896Y-20543508D01*
X5105896Y-20543508D02*
X5124944Y-20514936D01*
X5124944Y-20514936D02*
X5134468Y-20505412D01*
X5210658Y-20600650D02*
X5210658Y-20733984D01*
X5210658Y-20619698D02*
X5220182Y-20610174D01*
X5220182Y-20610174D02*
X5239230Y-20600650D01*
X5239230Y-20600650D02*
X5267801Y-20600650D01*
X5267801Y-20600650D02*
X5286849Y-20610174D01*
X5286849Y-20610174D02*
X5296373Y-20629222D01*
X5296373Y-20629222D02*
X5296373Y-20733984D01*
X5420182Y-20733984D02*
X5401134Y-20724460D01*
X5401134Y-20724460D02*
X5391611Y-20714936D01*
X5391611Y-20714936D02*
X5382087Y-20695889D01*
X5382087Y-20695889D02*
X5382087Y-20638746D01*
X5382087Y-20638746D02*
X5391611Y-20619698D01*
X5391611Y-20619698D02*
X5401134Y-20610174D01*
X5401134Y-20610174D02*
X5420182Y-20600650D01*
X5420182Y-20600650D02*
X5448754Y-20600650D01*
X5448754Y-20600650D02*
X5467801Y-20610174D01*
X5467801Y-20610174D02*
X5477325Y-20619698D01*
X5477325Y-20619698D02*
X5486849Y-20638746D01*
X5486849Y-20638746D02*
X5486849Y-20695889D01*
X5486849Y-20695889D02*
X5477325Y-20714936D01*
X5477325Y-20714936D02*
X5467801Y-20724460D01*
X5467801Y-20724460D02*
X5448754Y-20733984D01*
X5448754Y-20733984D02*
X5420182Y-20733984D01*
X5543992Y-20600650D02*
X5620182Y-20600650D01*
X5572563Y-20533984D02*
X5572563Y-20705412D01*
X5572563Y-20705412D02*
X5582087Y-20724460D01*
X5582087Y-20724460D02*
X5601134Y-20733984D01*
X5601134Y-20733984D02*
X5620182Y-20733984D01*
X5839230Y-20600650D02*
X5839230Y-20800650D01*
X5839230Y-20610174D02*
X5858277Y-20600650D01*
X5858277Y-20600650D02*
X5896373Y-20600650D01*
X5896373Y-20600650D02*
X5915420Y-20610174D01*
X5915420Y-20610174D02*
X5924944Y-20619698D01*
X5924944Y-20619698D02*
X5934468Y-20638746D01*
X5934468Y-20638746D02*
X5934468Y-20695889D01*
X5934468Y-20695889D02*
X5924944Y-20714936D01*
X5924944Y-20714936D02*
X5915420Y-20724460D01*
X5915420Y-20724460D02*
X5896373Y-20733984D01*
X5896373Y-20733984D02*
X5858277Y-20733984D01*
X5858277Y-20733984D02*
X5839230Y-20724460D01*
X6048753Y-20733984D02*
X6029706Y-20724460D01*
X6029706Y-20724460D02*
X6020182Y-20705412D01*
X6020182Y-20705412D02*
X6020182Y-20533984D01*
X6210658Y-20733984D02*
X6210658Y-20629222D01*
X6210658Y-20629222D02*
X6201134Y-20610174D01*
X6201134Y-20610174D02*
X6182087Y-20600650D01*
X6182087Y-20600650D02*
X6143992Y-20600650D01*
X6143992Y-20600650D02*
X6124944Y-20610174D01*
X6210658Y-20724460D02*
X6191611Y-20733984D01*
X6191611Y-20733984D02*
X6143992Y-20733984D01*
X6143992Y-20733984D02*
X6124944Y-20724460D01*
X6124944Y-20724460D02*
X6115420Y-20705412D01*
X6115420Y-20705412D02*
X6115420Y-20686365D01*
X6115420Y-20686365D02*
X6124944Y-20667317D01*
X6124944Y-20667317D02*
X6143992Y-20657793D01*
X6143992Y-20657793D02*
X6191611Y-20657793D01*
X6191611Y-20657793D02*
X6210658Y-20648270D01*
X6277325Y-20600650D02*
X6353515Y-20600650D01*
X6305896Y-20533984D02*
X6305896Y-20705412D01*
X6305896Y-20705412D02*
X6315420Y-20724460D01*
X6315420Y-20724460D02*
X6334468Y-20733984D01*
X6334468Y-20733984D02*
X6353515Y-20733984D01*
X6496373Y-20724460D02*
X6477325Y-20733984D01*
X6477325Y-20733984D02*
X6439230Y-20733984D01*
X6439230Y-20733984D02*
X6420182Y-20724460D01*
X6420182Y-20724460D02*
X6410658Y-20705412D01*
X6410658Y-20705412D02*
X6410658Y-20629222D01*
X6410658Y-20629222D02*
X6420182Y-20610174D01*
X6420182Y-20610174D02*
X6439230Y-20600650D01*
X6439230Y-20600650D02*
X6477325Y-20600650D01*
X6477325Y-20600650D02*
X6496373Y-20610174D01*
X6496373Y-20610174D02*
X6505896Y-20629222D01*
X6505896Y-20629222D02*
X6505896Y-20648270D01*
X6505896Y-20648270D02*
X6410658Y-20667317D01*
X6677325Y-20733984D02*
X6677325Y-20533984D01*
X6677325Y-20724460D02*
X6658277Y-20733984D01*
X6658277Y-20733984D02*
X6620182Y-20733984D01*
X6620182Y-20733984D02*
X6601134Y-20724460D01*
X6601134Y-20724460D02*
X6591611Y-20714936D01*
X6591611Y-20714936D02*
X6582087Y-20695889D01*
X6582087Y-20695889D02*
X6582087Y-20638746D01*
X6582087Y-20638746D02*
X6591611Y-20619698D01*
X6591611Y-20619698D02*
X6601134Y-20610174D01*
X6601134Y-20610174D02*
X6620182Y-20600650D01*
X6620182Y-20600650D02*
X6658277Y-20600650D01*
X6658277Y-20600650D02*
X6677325Y-20610174D01*
X6753515Y-20810174D02*
X6763039Y-20800650D01*
X6763039Y-20800650D02*
X6782087Y-20772079D01*
X6782087Y-20772079D02*
X6791611Y-20753031D01*
X6791611Y-20753031D02*
X6801134Y-20724460D01*
X6801134Y-20724460D02*
X6810658Y-20676841D01*
X6810658Y-20676841D02*
X6810658Y-20638746D01*
X6810658Y-20638746D02*
X6801134Y-20591127D01*
X6801134Y-20591127D02*
X6791611Y-20562555D01*
X6791611Y-20562555D02*
X6782087Y-20543508D01*
X6782087Y-20543508D02*
X6763039Y-20514936D01*
X6763039Y-20514936D02*
X6753515Y-20505412D01*
D13*
X-2500Y-20912500D02*
G75*
G02*
X-162500Y-20912500I-80000J0D01*
G01*
X-162500Y-20912500D02*
G75*
G02*
X-2500Y-20912500I80000J0D01*
G01*
D11*
X363039Y-21003984D02*
X248753Y-21003984D01*
X305896Y-21003984D02*
X305896Y-20803984D01*
X305896Y-20803984D02*
X286848Y-20832555D01*
X286848Y-20832555D02*
X267801Y-20851603D01*
X267801Y-20851603D02*
X248753Y-20861127D01*
X448753Y-20984936D02*
X458277Y-20994460D01*
X458277Y-20994460D02*
X448753Y-21003984D01*
X448753Y-21003984D02*
X439229Y-20994460D01*
X439229Y-20994460D02*
X448753Y-20984936D01*
X448753Y-20984936D02*
X448753Y-21003984D01*
X629705Y-20803984D02*
X591610Y-20803984D01*
X591610Y-20803984D02*
X572563Y-20813508D01*
X572563Y-20813508D02*
X563039Y-20823031D01*
X563039Y-20823031D02*
X543991Y-20851603D01*
X543991Y-20851603D02*
X534467Y-20889698D01*
X534467Y-20889698D02*
X534467Y-20965889D01*
X534467Y-20965889D02*
X543991Y-20984936D01*
X543991Y-20984936D02*
X553515Y-20994460D01*
X553515Y-20994460D02*
X572563Y-21003984D01*
X572563Y-21003984D02*
X610658Y-21003984D01*
X610658Y-21003984D02*
X629705Y-20994460D01*
X629705Y-20994460D02*
X639229Y-20984936D01*
X639229Y-20984936D02*
X648753Y-20965889D01*
X648753Y-20965889D02*
X648753Y-20918270D01*
X648753Y-20918270D02*
X639229Y-20899222D01*
X639229Y-20899222D02*
X629705Y-20889698D01*
X629705Y-20889698D02*
X610658Y-20880174D01*
X610658Y-20880174D02*
X572563Y-20880174D01*
X572563Y-20880174D02*
X553515Y-20889698D01*
X553515Y-20889698D02*
X543991Y-20899222D01*
X543991Y-20899222D02*
X534467Y-20918270D01*
X772562Y-20803984D02*
X791610Y-20803984D01*
X791610Y-20803984D02*
X810658Y-20813508D01*
X810658Y-20813508D02*
X820182Y-20823031D01*
X820182Y-20823031D02*
X829705Y-20842079D01*
X829705Y-20842079D02*
X839229Y-20880174D01*
X839229Y-20880174D02*
X839229Y-20927793D01*
X839229Y-20927793D02*
X829705Y-20965889D01*
X829705Y-20965889D02*
X820182Y-20984936D01*
X820182Y-20984936D02*
X810658Y-20994460D01*
X810658Y-20994460D02*
X791610Y-21003984D01*
X791610Y-21003984D02*
X772562Y-21003984D01*
X772562Y-21003984D02*
X753515Y-20994460D01*
X753515Y-20994460D02*
X743991Y-20984936D01*
X743991Y-20984936D02*
X734467Y-20965889D01*
X734467Y-20965889D02*
X724943Y-20927793D01*
X724943Y-20927793D02*
X724943Y-20880174D01*
X724943Y-20880174D02*
X734467Y-20842079D01*
X734467Y-20842079D02*
X743991Y-20823031D01*
X743991Y-20823031D02*
X753515Y-20813508D01*
X753515Y-20813508D02*
X772562Y-20803984D01*
X963039Y-20803984D02*
X982086Y-20803984D01*
X982086Y-20803984D02*
X1001134Y-20813508D01*
X1001134Y-20813508D02*
X1010658Y-20823031D01*
X1010658Y-20823031D02*
X1020182Y-20842079D01*
X1020182Y-20842079D02*
X1029705Y-20880174D01*
X1029705Y-20880174D02*
X1029705Y-20927793D01*
X1029705Y-20927793D02*
X1020182Y-20965889D01*
X1020182Y-20965889D02*
X1010658Y-20984936D01*
X1010658Y-20984936D02*
X1001134Y-20994460D01*
X1001134Y-20994460D02*
X982086Y-21003984D01*
X982086Y-21003984D02*
X963039Y-21003984D01*
X963039Y-21003984D02*
X943991Y-20994460D01*
X943991Y-20994460D02*
X934467Y-20984936D01*
X934467Y-20984936D02*
X924943Y-20965889D01*
X924943Y-20965889D02*
X915420Y-20927793D01*
X915420Y-20927793D02*
X915420Y-20880174D01*
X915420Y-20880174D02*
X924943Y-20842079D01*
X924943Y-20842079D02*
X934467Y-20823031D01*
X934467Y-20823031D02*
X943991Y-20813508D01*
X943991Y-20813508D02*
X963039Y-20803984D01*
X1115420Y-21003984D02*
X1115420Y-20870650D01*
X1115420Y-20889698D02*
X1124944Y-20880174D01*
X1124944Y-20880174D02*
X1143991Y-20870650D01*
X1143991Y-20870650D02*
X1172563Y-20870650D01*
X1172563Y-20870650D02*
X1191610Y-20880174D01*
X1191610Y-20880174D02*
X1201134Y-20899222D01*
X1201134Y-20899222D02*
X1201134Y-21003984D01*
X1201134Y-20899222D02*
X1210658Y-20880174D01*
X1210658Y-20880174D02*
X1229705Y-20870650D01*
X1229705Y-20870650D02*
X1258277Y-20870650D01*
X1258277Y-20870650D02*
X1277325Y-20880174D01*
X1277325Y-20880174D02*
X1286848Y-20899222D01*
X1286848Y-20899222D02*
X1286848Y-21003984D01*
X1382086Y-21003984D02*
X1382086Y-20870650D01*
X1382086Y-20889698D02*
X1391610Y-20880174D01*
X1391610Y-20880174D02*
X1410658Y-20870650D01*
X1410658Y-20870650D02*
X1439229Y-20870650D01*
X1439229Y-20870650D02*
X1458277Y-20880174D01*
X1458277Y-20880174D02*
X1467801Y-20899222D01*
X1467801Y-20899222D02*
X1467801Y-21003984D01*
X1467801Y-20899222D02*
X1477324Y-20880174D01*
X1477324Y-20880174D02*
X1496372Y-20870650D01*
X1496372Y-20870650D02*
X1524943Y-20870650D01*
X1524943Y-20870650D02*
X1543991Y-20880174D01*
X1543991Y-20880174D02*
X1553515Y-20899222D01*
X1553515Y-20899222D02*
X1553515Y-21003984D01*
X1943991Y-20794460D02*
X1772563Y-21051603D01*
X2201134Y-20803984D02*
X2220182Y-20803984D01*
X2220182Y-20803984D02*
X2239229Y-20813508D01*
X2239229Y-20813508D02*
X2248753Y-20823031D01*
X2248753Y-20823031D02*
X2258277Y-20842079D01*
X2258277Y-20842079D02*
X2267801Y-20880174D01*
X2267801Y-20880174D02*
X2267801Y-20927793D01*
X2267801Y-20927793D02*
X2258277Y-20965889D01*
X2258277Y-20965889D02*
X2248753Y-20984936D01*
X2248753Y-20984936D02*
X2239229Y-20994460D01*
X2239229Y-20994460D02*
X2220182Y-21003984D01*
X2220182Y-21003984D02*
X2201134Y-21003984D01*
X2201134Y-21003984D02*
X2182087Y-20994460D01*
X2182087Y-20994460D02*
X2172563Y-20984936D01*
X2172563Y-20984936D02*
X2163039Y-20965889D01*
X2163039Y-20965889D02*
X2153515Y-20927793D01*
X2153515Y-20927793D02*
X2153515Y-20880174D01*
X2153515Y-20880174D02*
X2163039Y-20842079D01*
X2163039Y-20842079D02*
X2172563Y-20823031D01*
X2172563Y-20823031D02*
X2182087Y-20813508D01*
X2182087Y-20813508D02*
X2201134Y-20803984D01*
X2353515Y-20984936D02*
X2363039Y-20994460D01*
X2363039Y-20994460D02*
X2353515Y-21003984D01*
X2353515Y-21003984D02*
X2343991Y-20994460D01*
X2343991Y-20994460D02*
X2353515Y-20984936D01*
X2353515Y-20984936D02*
X2353515Y-21003984D01*
X2486848Y-20803984D02*
X2505896Y-20803984D01*
X2505896Y-20803984D02*
X2524944Y-20813508D01*
X2524944Y-20813508D02*
X2534468Y-20823031D01*
X2534468Y-20823031D02*
X2543991Y-20842079D01*
X2543991Y-20842079D02*
X2553515Y-20880174D01*
X2553515Y-20880174D02*
X2553515Y-20927793D01*
X2553515Y-20927793D02*
X2543991Y-20965889D01*
X2543991Y-20965889D02*
X2534468Y-20984936D01*
X2534468Y-20984936D02*
X2524944Y-20994460D01*
X2524944Y-20994460D02*
X2505896Y-21003984D01*
X2505896Y-21003984D02*
X2486848Y-21003984D01*
X2486848Y-21003984D02*
X2467801Y-20994460D01*
X2467801Y-20994460D02*
X2458277Y-20984936D01*
X2458277Y-20984936D02*
X2448753Y-20965889D01*
X2448753Y-20965889D02*
X2439229Y-20927793D01*
X2439229Y-20927793D02*
X2439229Y-20880174D01*
X2439229Y-20880174D02*
X2448753Y-20842079D01*
X2448753Y-20842079D02*
X2458277Y-20823031D01*
X2458277Y-20823031D02*
X2467801Y-20813508D01*
X2467801Y-20813508D02*
X2486848Y-20803984D01*
X2724944Y-20803984D02*
X2686848Y-20803984D01*
X2686848Y-20803984D02*
X2667801Y-20813508D01*
X2667801Y-20813508D02*
X2658277Y-20823031D01*
X2658277Y-20823031D02*
X2639229Y-20851603D01*
X2639229Y-20851603D02*
X2629706Y-20889698D01*
X2629706Y-20889698D02*
X2629706Y-20965889D01*
X2629706Y-20965889D02*
X2639229Y-20984936D01*
X2639229Y-20984936D02*
X2648753Y-20994460D01*
X2648753Y-20994460D02*
X2667801Y-21003984D01*
X2667801Y-21003984D02*
X2705896Y-21003984D01*
X2705896Y-21003984D02*
X2724944Y-20994460D01*
X2724944Y-20994460D02*
X2734468Y-20984936D01*
X2734468Y-20984936D02*
X2743991Y-20965889D01*
X2743991Y-20965889D02*
X2743991Y-20918270D01*
X2743991Y-20918270D02*
X2734468Y-20899222D01*
X2734468Y-20899222D02*
X2724944Y-20889698D01*
X2724944Y-20889698D02*
X2705896Y-20880174D01*
X2705896Y-20880174D02*
X2667801Y-20880174D01*
X2667801Y-20880174D02*
X2648753Y-20889698D01*
X2648753Y-20889698D02*
X2639229Y-20899222D01*
X2639229Y-20899222D02*
X2629706Y-20918270D01*
X2810658Y-20803984D02*
X2934467Y-20803984D01*
X2934467Y-20803984D02*
X2867801Y-20880174D01*
X2867801Y-20880174D02*
X2896372Y-20880174D01*
X2896372Y-20880174D02*
X2915420Y-20889698D01*
X2915420Y-20889698D02*
X2924944Y-20899222D01*
X2924944Y-20899222D02*
X2934467Y-20918270D01*
X2934467Y-20918270D02*
X2934467Y-20965889D01*
X2934467Y-20965889D02*
X2924944Y-20984936D01*
X2924944Y-20984936D02*
X2915420Y-20994460D01*
X2915420Y-20994460D02*
X2896372Y-21003984D01*
X2896372Y-21003984D02*
X2839229Y-21003984D01*
X2839229Y-21003984D02*
X2820182Y-20994460D01*
X2820182Y-20994460D02*
X2810658Y-20984936D01*
X3058277Y-20803984D02*
X3077325Y-20803984D01*
X3077325Y-20803984D02*
X3096372Y-20813508D01*
X3096372Y-20813508D02*
X3105896Y-20823031D01*
X3105896Y-20823031D02*
X3115420Y-20842079D01*
X3115420Y-20842079D02*
X3124944Y-20880174D01*
X3124944Y-20880174D02*
X3124944Y-20927793D01*
X3124944Y-20927793D02*
X3115420Y-20965889D01*
X3115420Y-20965889D02*
X3105896Y-20984936D01*
X3105896Y-20984936D02*
X3096372Y-20994460D01*
X3096372Y-20994460D02*
X3077325Y-21003984D01*
X3077325Y-21003984D02*
X3058277Y-21003984D01*
X3058277Y-21003984D02*
X3039229Y-20994460D01*
X3039229Y-20994460D02*
X3029706Y-20984936D01*
X3029706Y-20984936D02*
X3020182Y-20965889D01*
X3020182Y-20965889D02*
X3010658Y-20927793D01*
X3010658Y-20927793D02*
X3010658Y-20880174D01*
X3010658Y-20880174D02*
X3020182Y-20842079D01*
X3020182Y-20842079D02*
X3029706Y-20823031D01*
X3029706Y-20823031D02*
X3039229Y-20813508D01*
X3039229Y-20813508D02*
X3058277Y-20803984D01*
X3201134Y-20803984D02*
X3201134Y-20842079D01*
X3277325Y-20803984D02*
X3277325Y-20842079D01*
X3572563Y-21080174D02*
X3563039Y-21070650D01*
X3563039Y-21070650D02*
X3543991Y-21042079D01*
X3543991Y-21042079D02*
X3534468Y-21023031D01*
X3534468Y-21023031D02*
X3524944Y-20994460D01*
X3524944Y-20994460D02*
X3515420Y-20946841D01*
X3515420Y-20946841D02*
X3515420Y-20908746D01*
X3515420Y-20908746D02*
X3524944Y-20861127D01*
X3524944Y-20861127D02*
X3534468Y-20832555D01*
X3534468Y-20832555D02*
X3543991Y-20813508D01*
X3543991Y-20813508D02*
X3563039Y-20784936D01*
X3563039Y-20784936D02*
X3572563Y-20775412D01*
X3639229Y-20823031D02*
X3648753Y-20813508D01*
X3648753Y-20813508D02*
X3667801Y-20803984D01*
X3667801Y-20803984D02*
X3715420Y-20803984D01*
X3715420Y-20803984D02*
X3734468Y-20813508D01*
X3734468Y-20813508D02*
X3743991Y-20823031D01*
X3743991Y-20823031D02*
X3753515Y-20842079D01*
X3753515Y-20842079D02*
X3753515Y-20861127D01*
X3753515Y-20861127D02*
X3743991Y-20889698D01*
X3743991Y-20889698D02*
X3629706Y-21003984D01*
X3629706Y-21003984D02*
X3753515Y-21003984D01*
X3924944Y-20870650D02*
X3924944Y-21003984D01*
X3877325Y-20794460D02*
X3829706Y-20937317D01*
X3829706Y-20937317D02*
X3953515Y-20937317D01*
X4182087Y-21003984D02*
X4182087Y-20803984D01*
X4267801Y-21003984D02*
X4267801Y-20899222D01*
X4267801Y-20899222D02*
X4258277Y-20880174D01*
X4258277Y-20880174D02*
X4239230Y-20870650D01*
X4239230Y-20870650D02*
X4210658Y-20870650D01*
X4210658Y-20870650D02*
X4191610Y-20880174D01*
X4191610Y-20880174D02*
X4182087Y-20889698D01*
X4391611Y-21003984D02*
X4372563Y-20994460D01*
X4372563Y-20994460D02*
X4363039Y-20984936D01*
X4363039Y-20984936D02*
X4353515Y-20965889D01*
X4353515Y-20965889D02*
X4353515Y-20908746D01*
X4353515Y-20908746D02*
X4363039Y-20889698D01*
X4363039Y-20889698D02*
X4372563Y-20880174D01*
X4372563Y-20880174D02*
X4391611Y-20870650D01*
X4391611Y-20870650D02*
X4420182Y-20870650D01*
X4420182Y-20870650D02*
X4439230Y-20880174D01*
X4439230Y-20880174D02*
X4448753Y-20889698D01*
X4448753Y-20889698D02*
X4458277Y-20908746D01*
X4458277Y-20908746D02*
X4458277Y-20965889D01*
X4458277Y-20965889D02*
X4448753Y-20984936D01*
X4448753Y-20984936D02*
X4439230Y-20994460D01*
X4439230Y-20994460D02*
X4420182Y-21003984D01*
X4420182Y-21003984D02*
X4391611Y-21003984D01*
X4572563Y-21003984D02*
X4553515Y-20994460D01*
X4553515Y-20994460D02*
X4543992Y-20975412D01*
X4543992Y-20975412D02*
X4543992Y-20803984D01*
X4724944Y-20994460D02*
X4705896Y-21003984D01*
X4705896Y-21003984D02*
X4667801Y-21003984D01*
X4667801Y-21003984D02*
X4648753Y-20994460D01*
X4648753Y-20994460D02*
X4639230Y-20975412D01*
X4639230Y-20975412D02*
X4639230Y-20899222D01*
X4639230Y-20899222D02*
X4648753Y-20880174D01*
X4648753Y-20880174D02*
X4667801Y-20870650D01*
X4667801Y-20870650D02*
X4705896Y-20870650D01*
X4705896Y-20870650D02*
X4724944Y-20880174D01*
X4724944Y-20880174D02*
X4734468Y-20899222D01*
X4734468Y-20899222D02*
X4734468Y-20918270D01*
X4734468Y-20918270D02*
X4639230Y-20937317D01*
X4810658Y-20994460D02*
X4829706Y-21003984D01*
X4829706Y-21003984D02*
X4867801Y-21003984D01*
X4867801Y-21003984D02*
X4886849Y-20994460D01*
X4886849Y-20994460D02*
X4896373Y-20975412D01*
X4896373Y-20975412D02*
X4896373Y-20965889D01*
X4896373Y-20965889D02*
X4886849Y-20946841D01*
X4886849Y-20946841D02*
X4867801Y-20937317D01*
X4867801Y-20937317D02*
X4839230Y-20937317D01*
X4839230Y-20937317D02*
X4820182Y-20927793D01*
X4820182Y-20927793D02*
X4810658Y-20908746D01*
X4810658Y-20908746D02*
X4810658Y-20899222D01*
X4810658Y-20899222D02*
X4820182Y-20880174D01*
X4820182Y-20880174D02*
X4839230Y-20870650D01*
X4839230Y-20870650D02*
X4867801Y-20870650D01*
X4867801Y-20870650D02*
X4886849Y-20880174D01*
X4963039Y-21080174D02*
X4972563Y-21070650D01*
X4972563Y-21070650D02*
X4991611Y-21042079D01*
X4991611Y-21042079D02*
X5001134Y-21023031D01*
X5001134Y-21023031D02*
X5010658Y-20994460D01*
X5010658Y-20994460D02*
X5020182Y-20946841D01*
X5020182Y-20946841D02*
X5020182Y-20908746D01*
X5020182Y-20908746D02*
X5010658Y-20861127D01*
X5010658Y-20861127D02*
X5001134Y-20832555D01*
X5001134Y-20832555D02*
X4991611Y-20813508D01*
X4991611Y-20813508D02*
X4972563Y-20784936D01*
X4972563Y-20784936D02*
X4963039Y-20775412D01*
X5324944Y-21080174D02*
X5315420Y-21070650D01*
X5315420Y-21070650D02*
X5296373Y-21042079D01*
X5296373Y-21042079D02*
X5286849Y-21023031D01*
X5286849Y-21023031D02*
X5277325Y-20994460D01*
X5277325Y-20994460D02*
X5267801Y-20946841D01*
X5267801Y-20946841D02*
X5267801Y-20908746D01*
X5267801Y-20908746D02*
X5277325Y-20861127D01*
X5277325Y-20861127D02*
X5286849Y-20832555D01*
X5286849Y-20832555D02*
X5296373Y-20813508D01*
X5296373Y-20813508D02*
X5315420Y-20784936D01*
X5315420Y-20784936D02*
X5324944Y-20775412D01*
X5401134Y-20870650D02*
X5401134Y-21003984D01*
X5401134Y-20889698D02*
X5410658Y-20880174D01*
X5410658Y-20880174D02*
X5429706Y-20870650D01*
X5429706Y-20870650D02*
X5458277Y-20870650D01*
X5458277Y-20870650D02*
X5477325Y-20880174D01*
X5477325Y-20880174D02*
X5486849Y-20899222D01*
X5486849Y-20899222D02*
X5486849Y-21003984D01*
X5610658Y-21003984D02*
X5591611Y-20994460D01*
X5591611Y-20994460D02*
X5582087Y-20984936D01*
X5582087Y-20984936D02*
X5572563Y-20965889D01*
X5572563Y-20965889D02*
X5572563Y-20908746D01*
X5572563Y-20908746D02*
X5582087Y-20889698D01*
X5582087Y-20889698D02*
X5591611Y-20880174D01*
X5591611Y-20880174D02*
X5610658Y-20870650D01*
X5610658Y-20870650D02*
X5639230Y-20870650D01*
X5639230Y-20870650D02*
X5658277Y-20880174D01*
X5658277Y-20880174D02*
X5667801Y-20889698D01*
X5667801Y-20889698D02*
X5677325Y-20908746D01*
X5677325Y-20908746D02*
X5677325Y-20965889D01*
X5677325Y-20965889D02*
X5667801Y-20984936D01*
X5667801Y-20984936D02*
X5658277Y-20994460D01*
X5658277Y-20994460D02*
X5639230Y-21003984D01*
X5639230Y-21003984D02*
X5610658Y-21003984D01*
X5734468Y-20870650D02*
X5810658Y-20870650D01*
X5763039Y-20803984D02*
X5763039Y-20975412D01*
X5763039Y-20975412D02*
X5772563Y-20994460D01*
X5772563Y-20994460D02*
X5791611Y-21003984D01*
X5791611Y-21003984D02*
X5810658Y-21003984D01*
X6029706Y-20870650D02*
X6029706Y-21070650D01*
X6029706Y-20880174D02*
X6048753Y-20870650D01*
X6048753Y-20870650D02*
X6086849Y-20870650D01*
X6086849Y-20870650D02*
X6105896Y-20880174D01*
X6105896Y-20880174D02*
X6115420Y-20889698D01*
X6115420Y-20889698D02*
X6124944Y-20908746D01*
X6124944Y-20908746D02*
X6124944Y-20965889D01*
X6124944Y-20965889D02*
X6115420Y-20984936D01*
X6115420Y-20984936D02*
X6105896Y-20994460D01*
X6105896Y-20994460D02*
X6086849Y-21003984D01*
X6086849Y-21003984D02*
X6048753Y-21003984D01*
X6048753Y-21003984D02*
X6029706Y-20994460D01*
X6239230Y-21003984D02*
X6220182Y-20994460D01*
X6220182Y-20994460D02*
X6210658Y-20975412D01*
X6210658Y-20975412D02*
X6210658Y-20803984D01*
X6401134Y-21003984D02*
X6401134Y-20899222D01*
X6401134Y-20899222D02*
X6391611Y-20880174D01*
X6391611Y-20880174D02*
X6372563Y-20870650D01*
X6372563Y-20870650D02*
X6334468Y-20870650D01*
X6334468Y-20870650D02*
X6315420Y-20880174D01*
X6401134Y-20994460D02*
X6382087Y-21003984D01*
X6382087Y-21003984D02*
X6334468Y-21003984D01*
X6334468Y-21003984D02*
X6315420Y-20994460D01*
X6315420Y-20994460D02*
X6305896Y-20975412D01*
X6305896Y-20975412D02*
X6305896Y-20956365D01*
X6305896Y-20956365D02*
X6315420Y-20937317D01*
X6315420Y-20937317D02*
X6334468Y-20927793D01*
X6334468Y-20927793D02*
X6382087Y-20927793D01*
X6382087Y-20927793D02*
X6401134Y-20918270D01*
X6467801Y-20870650D02*
X6543992Y-20870650D01*
X6496373Y-20803984D02*
X6496373Y-20975412D01*
X6496373Y-20975412D02*
X6505896Y-20994460D01*
X6505896Y-20994460D02*
X6524944Y-21003984D01*
X6524944Y-21003984D02*
X6543992Y-21003984D01*
X6686849Y-20994460D02*
X6667801Y-21003984D01*
X6667801Y-21003984D02*
X6629706Y-21003984D01*
X6629706Y-21003984D02*
X6610658Y-20994460D01*
X6610658Y-20994460D02*
X6601134Y-20975412D01*
X6601134Y-20975412D02*
X6601134Y-20899222D01*
X6601134Y-20899222D02*
X6610658Y-20880174D01*
X6610658Y-20880174D02*
X6629706Y-20870650D01*
X6629706Y-20870650D02*
X6667801Y-20870650D01*
X6667801Y-20870650D02*
X6686849Y-20880174D01*
X6686849Y-20880174D02*
X6696373Y-20899222D01*
X6696373Y-20899222D02*
X6696373Y-20918270D01*
X6696373Y-20918270D02*
X6601134Y-20937317D01*
X6867801Y-21003984D02*
X6867801Y-20803984D01*
X6867801Y-20994460D02*
X6848754Y-21003984D01*
X6848754Y-21003984D02*
X6810658Y-21003984D01*
X6810658Y-21003984D02*
X6791611Y-20994460D01*
X6791611Y-20994460D02*
X6782087Y-20984936D01*
X6782087Y-20984936D02*
X6772563Y-20965889D01*
X6772563Y-20965889D02*
X6772563Y-20908746D01*
X6772563Y-20908746D02*
X6782087Y-20889698D01*
X6782087Y-20889698D02*
X6791611Y-20880174D01*
X6791611Y-20880174D02*
X6810658Y-20870650D01*
X6810658Y-20870650D02*
X6848754Y-20870650D01*
X6848754Y-20870650D02*
X6867801Y-20880174D01*
X6943992Y-21080174D02*
X6953515Y-21070650D01*
X6953515Y-21070650D02*
X6972563Y-21042079D01*
X6972563Y-21042079D02*
X6982087Y-21023031D01*
X6982087Y-21023031D02*
X6991611Y-20994460D01*
X6991611Y-20994460D02*
X7001134Y-20946841D01*
X7001134Y-20946841D02*
X7001134Y-20908746D01*
X7001134Y-20908746D02*
X6991611Y-20861127D01*
X6991611Y-20861127D02*
X6982087Y-20832555D01*
X6982087Y-20832555D02*
X6972563Y-20813508D01*
X6972563Y-20813508D02*
X6953515Y-20784936D01*
X6953515Y-20784936D02*
X6943992Y-20775412D01*
X-102500Y-21092500D02*
X-102500Y-21292500D01*
X-202500Y-21192500D02*
X-2500Y-21192500D01*
X239229Y-21083984D02*
X363039Y-21083984D01*
X363039Y-21083984D02*
X296372Y-21160174D01*
X296372Y-21160174D02*
X324944Y-21160174D01*
X324944Y-21160174D02*
X343991Y-21169698D01*
X343991Y-21169698D02*
X353515Y-21179222D01*
X353515Y-21179222D02*
X363039Y-21198270D01*
X363039Y-21198270D02*
X363039Y-21245889D01*
X363039Y-21245889D02*
X353515Y-21264936D01*
X353515Y-21264936D02*
X343991Y-21274460D01*
X343991Y-21274460D02*
X324944Y-21283984D01*
X324944Y-21283984D02*
X267801Y-21283984D01*
X267801Y-21283984D02*
X248753Y-21274460D01*
X248753Y-21274460D02*
X239229Y-21264936D01*
X448753Y-21264936D02*
X458277Y-21274460D01*
X458277Y-21274460D02*
X448753Y-21283984D01*
X448753Y-21283984D02*
X439229Y-21274460D01*
X439229Y-21274460D02*
X448753Y-21264936D01*
X448753Y-21264936D02*
X448753Y-21283984D01*
X534467Y-21103031D02*
X543991Y-21093508D01*
X543991Y-21093508D02*
X563039Y-21083984D01*
X563039Y-21083984D02*
X610658Y-21083984D01*
X610658Y-21083984D02*
X629705Y-21093508D01*
X629705Y-21093508D02*
X639229Y-21103031D01*
X639229Y-21103031D02*
X648753Y-21122079D01*
X648753Y-21122079D02*
X648753Y-21141127D01*
X648753Y-21141127D02*
X639229Y-21169698D01*
X639229Y-21169698D02*
X524944Y-21283984D01*
X524944Y-21283984D02*
X648753Y-21283984D01*
X772562Y-21083984D02*
X791610Y-21083984D01*
X791610Y-21083984D02*
X810658Y-21093508D01*
X810658Y-21093508D02*
X820182Y-21103031D01*
X820182Y-21103031D02*
X829705Y-21122079D01*
X829705Y-21122079D02*
X839229Y-21160174D01*
X839229Y-21160174D02*
X839229Y-21207793D01*
X839229Y-21207793D02*
X829705Y-21245889D01*
X829705Y-21245889D02*
X820182Y-21264936D01*
X820182Y-21264936D02*
X810658Y-21274460D01*
X810658Y-21274460D02*
X791610Y-21283984D01*
X791610Y-21283984D02*
X772562Y-21283984D01*
X772562Y-21283984D02*
X753515Y-21274460D01*
X753515Y-21274460D02*
X743991Y-21264936D01*
X743991Y-21264936D02*
X734467Y-21245889D01*
X734467Y-21245889D02*
X724943Y-21207793D01*
X724943Y-21207793D02*
X724943Y-21160174D01*
X724943Y-21160174D02*
X734467Y-21122079D01*
X734467Y-21122079D02*
X743991Y-21103031D01*
X743991Y-21103031D02*
X753515Y-21093508D01*
X753515Y-21093508D02*
X772562Y-21083984D01*
X963039Y-21083984D02*
X982086Y-21083984D01*
X982086Y-21083984D02*
X1001134Y-21093508D01*
X1001134Y-21093508D02*
X1010658Y-21103031D01*
X1010658Y-21103031D02*
X1020182Y-21122079D01*
X1020182Y-21122079D02*
X1029705Y-21160174D01*
X1029705Y-21160174D02*
X1029705Y-21207793D01*
X1029705Y-21207793D02*
X1020182Y-21245889D01*
X1020182Y-21245889D02*
X1010658Y-21264936D01*
X1010658Y-21264936D02*
X1001134Y-21274460D01*
X1001134Y-21274460D02*
X982086Y-21283984D01*
X982086Y-21283984D02*
X963039Y-21283984D01*
X963039Y-21283984D02*
X943991Y-21274460D01*
X943991Y-21274460D02*
X934467Y-21264936D01*
X934467Y-21264936D02*
X924943Y-21245889D01*
X924943Y-21245889D02*
X915420Y-21207793D01*
X915420Y-21207793D02*
X915420Y-21160174D01*
X915420Y-21160174D02*
X924943Y-21122079D01*
X924943Y-21122079D02*
X934467Y-21103031D01*
X934467Y-21103031D02*
X943991Y-21093508D01*
X943991Y-21093508D02*
X963039Y-21083984D01*
X1115420Y-21283984D02*
X1115420Y-21150650D01*
X1115420Y-21169698D02*
X1124944Y-21160174D01*
X1124944Y-21160174D02*
X1143991Y-21150650D01*
X1143991Y-21150650D02*
X1172563Y-21150650D01*
X1172563Y-21150650D02*
X1191610Y-21160174D01*
X1191610Y-21160174D02*
X1201134Y-21179222D01*
X1201134Y-21179222D02*
X1201134Y-21283984D01*
X1201134Y-21179222D02*
X1210658Y-21160174D01*
X1210658Y-21160174D02*
X1229705Y-21150650D01*
X1229705Y-21150650D02*
X1258277Y-21150650D01*
X1258277Y-21150650D02*
X1277325Y-21160174D01*
X1277325Y-21160174D02*
X1286848Y-21179222D01*
X1286848Y-21179222D02*
X1286848Y-21283984D01*
X1382086Y-21283984D02*
X1382086Y-21150650D01*
X1382086Y-21169698D02*
X1391610Y-21160174D01*
X1391610Y-21160174D02*
X1410658Y-21150650D01*
X1410658Y-21150650D02*
X1439229Y-21150650D01*
X1439229Y-21150650D02*
X1458277Y-21160174D01*
X1458277Y-21160174D02*
X1467801Y-21179222D01*
X1467801Y-21179222D02*
X1467801Y-21283984D01*
X1467801Y-21179222D02*
X1477324Y-21160174D01*
X1477324Y-21160174D02*
X1496372Y-21150650D01*
X1496372Y-21150650D02*
X1524943Y-21150650D01*
X1524943Y-21150650D02*
X1543991Y-21160174D01*
X1543991Y-21160174D02*
X1553515Y-21179222D01*
X1553515Y-21179222D02*
X1553515Y-21283984D01*
X1943991Y-21074460D02*
X1772563Y-21331603D01*
X2201134Y-21083984D02*
X2220182Y-21083984D01*
X2220182Y-21083984D02*
X2239229Y-21093508D01*
X2239229Y-21093508D02*
X2248753Y-21103031D01*
X2248753Y-21103031D02*
X2258277Y-21122079D01*
X2258277Y-21122079D02*
X2267801Y-21160174D01*
X2267801Y-21160174D02*
X2267801Y-21207793D01*
X2267801Y-21207793D02*
X2258277Y-21245889D01*
X2258277Y-21245889D02*
X2248753Y-21264936D01*
X2248753Y-21264936D02*
X2239229Y-21274460D01*
X2239229Y-21274460D02*
X2220182Y-21283984D01*
X2220182Y-21283984D02*
X2201134Y-21283984D01*
X2201134Y-21283984D02*
X2182087Y-21274460D01*
X2182087Y-21274460D02*
X2172563Y-21264936D01*
X2172563Y-21264936D02*
X2163039Y-21245889D01*
X2163039Y-21245889D02*
X2153515Y-21207793D01*
X2153515Y-21207793D02*
X2153515Y-21160174D01*
X2153515Y-21160174D02*
X2163039Y-21122079D01*
X2163039Y-21122079D02*
X2172563Y-21103031D01*
X2172563Y-21103031D02*
X2182087Y-21093508D01*
X2182087Y-21093508D02*
X2201134Y-21083984D01*
X2353515Y-21264936D02*
X2363039Y-21274460D01*
X2363039Y-21274460D02*
X2353515Y-21283984D01*
X2353515Y-21283984D02*
X2343991Y-21274460D01*
X2343991Y-21274460D02*
X2353515Y-21264936D01*
X2353515Y-21264936D02*
X2353515Y-21283984D01*
X2553515Y-21283984D02*
X2439229Y-21283984D01*
X2496372Y-21283984D02*
X2496372Y-21083984D01*
X2496372Y-21083984D02*
X2477325Y-21112555D01*
X2477325Y-21112555D02*
X2458277Y-21131603D01*
X2458277Y-21131603D02*
X2439229Y-21141127D01*
X2629706Y-21103031D02*
X2639229Y-21093508D01*
X2639229Y-21093508D02*
X2658277Y-21083984D01*
X2658277Y-21083984D02*
X2705896Y-21083984D01*
X2705896Y-21083984D02*
X2724944Y-21093508D01*
X2724944Y-21093508D02*
X2734468Y-21103031D01*
X2734468Y-21103031D02*
X2743991Y-21122079D01*
X2743991Y-21122079D02*
X2743991Y-21141127D01*
X2743991Y-21141127D02*
X2734468Y-21169698D01*
X2734468Y-21169698D02*
X2620182Y-21283984D01*
X2620182Y-21283984D02*
X2743991Y-21283984D01*
X2915420Y-21083984D02*
X2877325Y-21083984D01*
X2877325Y-21083984D02*
X2858277Y-21093508D01*
X2858277Y-21093508D02*
X2848753Y-21103031D01*
X2848753Y-21103031D02*
X2829706Y-21131603D01*
X2829706Y-21131603D02*
X2820182Y-21169698D01*
X2820182Y-21169698D02*
X2820182Y-21245889D01*
X2820182Y-21245889D02*
X2829706Y-21264936D01*
X2829706Y-21264936D02*
X2839229Y-21274460D01*
X2839229Y-21274460D02*
X2858277Y-21283984D01*
X2858277Y-21283984D02*
X2896372Y-21283984D01*
X2896372Y-21283984D02*
X2915420Y-21274460D01*
X2915420Y-21274460D02*
X2924944Y-21264936D01*
X2924944Y-21264936D02*
X2934467Y-21245889D01*
X2934467Y-21245889D02*
X2934467Y-21198270D01*
X2934467Y-21198270D02*
X2924944Y-21179222D01*
X2924944Y-21179222D02*
X2915420Y-21169698D01*
X2915420Y-21169698D02*
X2896372Y-21160174D01*
X2896372Y-21160174D02*
X2858277Y-21160174D01*
X2858277Y-21160174D02*
X2839229Y-21169698D01*
X2839229Y-21169698D02*
X2829706Y-21179222D01*
X2829706Y-21179222D02*
X2820182Y-21198270D01*
X3058277Y-21083984D02*
X3077325Y-21083984D01*
X3077325Y-21083984D02*
X3096372Y-21093508D01*
X3096372Y-21093508D02*
X3105896Y-21103031D01*
X3105896Y-21103031D02*
X3115420Y-21122079D01*
X3115420Y-21122079D02*
X3124944Y-21160174D01*
X3124944Y-21160174D02*
X3124944Y-21207793D01*
X3124944Y-21207793D02*
X3115420Y-21245889D01*
X3115420Y-21245889D02*
X3105896Y-21264936D01*
X3105896Y-21264936D02*
X3096372Y-21274460D01*
X3096372Y-21274460D02*
X3077325Y-21283984D01*
X3077325Y-21283984D02*
X3058277Y-21283984D01*
X3058277Y-21283984D02*
X3039229Y-21274460D01*
X3039229Y-21274460D02*
X3029706Y-21264936D01*
X3029706Y-21264936D02*
X3020182Y-21245889D01*
X3020182Y-21245889D02*
X3010658Y-21207793D01*
X3010658Y-21207793D02*
X3010658Y-21160174D01*
X3010658Y-21160174D02*
X3020182Y-21122079D01*
X3020182Y-21122079D02*
X3029706Y-21103031D01*
X3029706Y-21103031D02*
X3039229Y-21093508D01*
X3039229Y-21093508D02*
X3058277Y-21083984D01*
X3201134Y-21083984D02*
X3201134Y-21122079D01*
X3277325Y-21083984D02*
X3277325Y-21122079D01*
X3572563Y-21360174D02*
X3563039Y-21350650D01*
X3563039Y-21350650D02*
X3543991Y-21322079D01*
X3543991Y-21322079D02*
X3534468Y-21303031D01*
X3534468Y-21303031D02*
X3524944Y-21274460D01*
X3524944Y-21274460D02*
X3515420Y-21226841D01*
X3515420Y-21226841D02*
X3515420Y-21188746D01*
X3515420Y-21188746D02*
X3524944Y-21141127D01*
X3524944Y-21141127D02*
X3534468Y-21112555D01*
X3534468Y-21112555D02*
X3543991Y-21093508D01*
X3543991Y-21093508D02*
X3563039Y-21064936D01*
X3563039Y-21064936D02*
X3572563Y-21055412D01*
X3734468Y-21150650D02*
X3734468Y-21283984D01*
X3686848Y-21074460D02*
X3639229Y-21217317D01*
X3639229Y-21217317D02*
X3763039Y-21217317D01*
X3991610Y-21283984D02*
X3991610Y-21083984D01*
X4077325Y-21283984D02*
X4077325Y-21179222D01*
X4077325Y-21179222D02*
X4067801Y-21160174D01*
X4067801Y-21160174D02*
X4048753Y-21150650D01*
X4048753Y-21150650D02*
X4020182Y-21150650D01*
X4020182Y-21150650D02*
X4001134Y-21160174D01*
X4001134Y-21160174D02*
X3991610Y-21169698D01*
X4201134Y-21283984D02*
X4182087Y-21274460D01*
X4182087Y-21274460D02*
X4172563Y-21264936D01*
X4172563Y-21264936D02*
X4163039Y-21245889D01*
X4163039Y-21245889D02*
X4163039Y-21188746D01*
X4163039Y-21188746D02*
X4172563Y-21169698D01*
X4172563Y-21169698D02*
X4182087Y-21160174D01*
X4182087Y-21160174D02*
X4201134Y-21150650D01*
X4201134Y-21150650D02*
X4229706Y-21150650D01*
X4229706Y-21150650D02*
X4248753Y-21160174D01*
X4248753Y-21160174D02*
X4258277Y-21169698D01*
X4258277Y-21169698D02*
X4267801Y-21188746D01*
X4267801Y-21188746D02*
X4267801Y-21245889D01*
X4267801Y-21245889D02*
X4258277Y-21264936D01*
X4258277Y-21264936D02*
X4248753Y-21274460D01*
X4248753Y-21274460D02*
X4229706Y-21283984D01*
X4229706Y-21283984D02*
X4201134Y-21283984D01*
X4382087Y-21283984D02*
X4363039Y-21274460D01*
X4363039Y-21274460D02*
X4353515Y-21255412D01*
X4353515Y-21255412D02*
X4353515Y-21083984D01*
X4534468Y-21274460D02*
X4515420Y-21283984D01*
X4515420Y-21283984D02*
X4477325Y-21283984D01*
X4477325Y-21283984D02*
X4458277Y-21274460D01*
X4458277Y-21274460D02*
X4448753Y-21255412D01*
X4448753Y-21255412D02*
X4448753Y-21179222D01*
X4448753Y-21179222D02*
X4458277Y-21160174D01*
X4458277Y-21160174D02*
X4477325Y-21150650D01*
X4477325Y-21150650D02*
X4515420Y-21150650D01*
X4515420Y-21150650D02*
X4534468Y-21160174D01*
X4534468Y-21160174D02*
X4543992Y-21179222D01*
X4543992Y-21179222D02*
X4543992Y-21198270D01*
X4543992Y-21198270D02*
X4448753Y-21217317D01*
X4620182Y-21274460D02*
X4639230Y-21283984D01*
X4639230Y-21283984D02*
X4677325Y-21283984D01*
X4677325Y-21283984D02*
X4696373Y-21274460D01*
X4696373Y-21274460D02*
X4705896Y-21255412D01*
X4705896Y-21255412D02*
X4705896Y-21245889D01*
X4705896Y-21245889D02*
X4696373Y-21226841D01*
X4696373Y-21226841D02*
X4677325Y-21217317D01*
X4677325Y-21217317D02*
X4648753Y-21217317D01*
X4648753Y-21217317D02*
X4629706Y-21207793D01*
X4629706Y-21207793D02*
X4620182Y-21188746D01*
X4620182Y-21188746D02*
X4620182Y-21179222D01*
X4620182Y-21179222D02*
X4629706Y-21160174D01*
X4629706Y-21160174D02*
X4648753Y-21150650D01*
X4648753Y-21150650D02*
X4677325Y-21150650D01*
X4677325Y-21150650D02*
X4696373Y-21160174D01*
X4772563Y-21360174D02*
X4782087Y-21350650D01*
X4782087Y-21350650D02*
X4801134Y-21322079D01*
X4801134Y-21322079D02*
X4810658Y-21303031D01*
X4810658Y-21303031D02*
X4820182Y-21274460D01*
X4820182Y-21274460D02*
X4829706Y-21226841D01*
X4829706Y-21226841D02*
X4829706Y-21188746D01*
X4829706Y-21188746D02*
X4820182Y-21141127D01*
X4820182Y-21141127D02*
X4810658Y-21112555D01*
X4810658Y-21112555D02*
X4801134Y-21093508D01*
X4801134Y-21093508D02*
X4782087Y-21064936D01*
X4782087Y-21064936D02*
X4772563Y-21055412D01*
X5134468Y-21360174D02*
X5124944Y-21350650D01*
X5124944Y-21350650D02*
X5105896Y-21322079D01*
X5105896Y-21322079D02*
X5096373Y-21303031D01*
X5096373Y-21303031D02*
X5086849Y-21274460D01*
X5086849Y-21274460D02*
X5077325Y-21226841D01*
X5077325Y-21226841D02*
X5077325Y-21188746D01*
X5077325Y-21188746D02*
X5086849Y-21141127D01*
X5086849Y-21141127D02*
X5096373Y-21112555D01*
X5096373Y-21112555D02*
X5105896Y-21093508D01*
X5105896Y-21093508D02*
X5124944Y-21064936D01*
X5124944Y-21064936D02*
X5134468Y-21055412D01*
X5210658Y-21150650D02*
X5210658Y-21283984D01*
X5210658Y-21169698D02*
X5220182Y-21160174D01*
X5220182Y-21160174D02*
X5239230Y-21150650D01*
X5239230Y-21150650D02*
X5267801Y-21150650D01*
X5267801Y-21150650D02*
X5286849Y-21160174D01*
X5286849Y-21160174D02*
X5296373Y-21179222D01*
X5296373Y-21179222D02*
X5296373Y-21283984D01*
X5420182Y-21283984D02*
X5401134Y-21274460D01*
X5401134Y-21274460D02*
X5391611Y-21264936D01*
X5391611Y-21264936D02*
X5382087Y-21245889D01*
X5382087Y-21245889D02*
X5382087Y-21188746D01*
X5382087Y-21188746D02*
X5391611Y-21169698D01*
X5391611Y-21169698D02*
X5401134Y-21160174D01*
X5401134Y-21160174D02*
X5420182Y-21150650D01*
X5420182Y-21150650D02*
X5448754Y-21150650D01*
X5448754Y-21150650D02*
X5467801Y-21160174D01*
X5467801Y-21160174D02*
X5477325Y-21169698D01*
X5477325Y-21169698D02*
X5486849Y-21188746D01*
X5486849Y-21188746D02*
X5486849Y-21245889D01*
X5486849Y-21245889D02*
X5477325Y-21264936D01*
X5477325Y-21264936D02*
X5467801Y-21274460D01*
X5467801Y-21274460D02*
X5448754Y-21283984D01*
X5448754Y-21283984D02*
X5420182Y-21283984D01*
X5543992Y-21150650D02*
X5620182Y-21150650D01*
X5572563Y-21083984D02*
X5572563Y-21255412D01*
X5572563Y-21255412D02*
X5582087Y-21274460D01*
X5582087Y-21274460D02*
X5601134Y-21283984D01*
X5601134Y-21283984D02*
X5620182Y-21283984D01*
X5839230Y-21150650D02*
X5839230Y-21350650D01*
X5839230Y-21160174D02*
X5858277Y-21150650D01*
X5858277Y-21150650D02*
X5896373Y-21150650D01*
X5896373Y-21150650D02*
X5915420Y-21160174D01*
X5915420Y-21160174D02*
X5924944Y-21169698D01*
X5924944Y-21169698D02*
X5934468Y-21188746D01*
X5934468Y-21188746D02*
X5934468Y-21245889D01*
X5934468Y-21245889D02*
X5924944Y-21264936D01*
X5924944Y-21264936D02*
X5915420Y-21274460D01*
X5915420Y-21274460D02*
X5896373Y-21283984D01*
X5896373Y-21283984D02*
X5858277Y-21283984D01*
X5858277Y-21283984D02*
X5839230Y-21274460D01*
X6048753Y-21283984D02*
X6029706Y-21274460D01*
X6029706Y-21274460D02*
X6020182Y-21255412D01*
X6020182Y-21255412D02*
X6020182Y-21083984D01*
X6210658Y-21283984D02*
X6210658Y-21179222D01*
X6210658Y-21179222D02*
X6201134Y-21160174D01*
X6201134Y-21160174D02*
X6182087Y-21150650D01*
X6182087Y-21150650D02*
X6143992Y-21150650D01*
X6143992Y-21150650D02*
X6124944Y-21160174D01*
X6210658Y-21274460D02*
X6191611Y-21283984D01*
X6191611Y-21283984D02*
X6143992Y-21283984D01*
X6143992Y-21283984D02*
X6124944Y-21274460D01*
X6124944Y-21274460D02*
X6115420Y-21255412D01*
X6115420Y-21255412D02*
X6115420Y-21236365D01*
X6115420Y-21236365D02*
X6124944Y-21217317D01*
X6124944Y-21217317D02*
X6143992Y-21207793D01*
X6143992Y-21207793D02*
X6191611Y-21207793D01*
X6191611Y-21207793D02*
X6210658Y-21198270D01*
X6277325Y-21150650D02*
X6353515Y-21150650D01*
X6305896Y-21083984D02*
X6305896Y-21255412D01*
X6305896Y-21255412D02*
X6315420Y-21274460D01*
X6315420Y-21274460D02*
X6334468Y-21283984D01*
X6334468Y-21283984D02*
X6353515Y-21283984D01*
X6496373Y-21274460D02*
X6477325Y-21283984D01*
X6477325Y-21283984D02*
X6439230Y-21283984D01*
X6439230Y-21283984D02*
X6420182Y-21274460D01*
X6420182Y-21274460D02*
X6410658Y-21255412D01*
X6410658Y-21255412D02*
X6410658Y-21179222D01*
X6410658Y-21179222D02*
X6420182Y-21160174D01*
X6420182Y-21160174D02*
X6439230Y-21150650D01*
X6439230Y-21150650D02*
X6477325Y-21150650D01*
X6477325Y-21150650D02*
X6496373Y-21160174D01*
X6496373Y-21160174D02*
X6505896Y-21179222D01*
X6505896Y-21179222D02*
X6505896Y-21198270D01*
X6505896Y-21198270D02*
X6410658Y-21217317D01*
X6677325Y-21283984D02*
X6677325Y-21083984D01*
X6677325Y-21274460D02*
X6658277Y-21283984D01*
X6658277Y-21283984D02*
X6620182Y-21283984D01*
X6620182Y-21283984D02*
X6601134Y-21274460D01*
X6601134Y-21274460D02*
X6591611Y-21264936D01*
X6591611Y-21264936D02*
X6582087Y-21245889D01*
X6582087Y-21245889D02*
X6582087Y-21188746D01*
X6582087Y-21188746D02*
X6591611Y-21169698D01*
X6591611Y-21169698D02*
X6601134Y-21160174D01*
X6601134Y-21160174D02*
X6620182Y-21150650D01*
X6620182Y-21150650D02*
X6658277Y-21150650D01*
X6658277Y-21150650D02*
X6677325Y-21160174D01*
X6753515Y-21360174D02*
X6763039Y-21350650D01*
X6763039Y-21350650D02*
X6782087Y-21322079D01*
X6782087Y-21322079D02*
X6791611Y-21303031D01*
X6791611Y-21303031D02*
X6801134Y-21274460D01*
X6801134Y-21274460D02*
X6810658Y-21226841D01*
X6810658Y-21226841D02*
X6810658Y-21188746D01*
X6810658Y-21188746D02*
X6801134Y-21141127D01*
X6801134Y-21141127D02*
X6791611Y-21112555D01*
X6791611Y-21112555D02*
X6782087Y-21093508D01*
X6782087Y-21093508D02*
X6763039Y-21064936D01*
X6763039Y-21064936D02*
X6753515Y-21055412D01*
M02*
