M48
; DRILL file {KiCad 9.0.7} date 2026-03-18T10:36:22+0100
; FORMAT={-:-/ absolute / metric / decimal}
; #@! TF.CreationDate,2026-03-18T10:36:22+01:00
; #@! TF.GenerationSoftware,Kicad,Pcbnew,9.0.7
; #@! TF.FileFunction,MixedPlating,1,2
FMAT,2
METRIC
; #@! TA.AperFunction,Plated,PTH,ViaDrill
T1C0.300
; #@! TA.AperFunction,Plated,PTH,ComponentDrill
T2C0.800
; #@! TA.AperFunction,Plated,PTH,ComponentDrill
T3C0.900
; #@! TA.AperFunction,Plated,PTH,ComponentDrill
T4C1.000
; #@! TA.AperFunction,Plated,PTH,ComponentDrill
T5C1.200
; #@! TA.AperFunction,Plated,PTH,ComponentDrill
T6C1.600
; #@! TA.AperFunction,Plated,PTH,ComponentDrill
T7C3.200
; #@! TA.AperFunction,NonPlated,NPTH,ComponentDrill
T8C1.200
; #@! TA.AperFunction,NonPlated,NPTH,ComponentDrill
T9C1.600
%
G90
G05
T1
X4.0Y-10.0
X4.0Y-20.0
X4.0Y-40.0
X4.0Y-50.0
X4.0Y-70.0
X4.0Y-80.0
X4.0Y-100.0
X4.0Y-110.0
X4.0Y-130.0
X4.0Y-140.0
X4.0Y-160.0
X4.0Y-170.0
X4.0Y-190.0
X10.0Y-4.0
X10.0Y-196.0
X19.275Y-24.69
X19.275Y-27.69
X19.275Y-54.69
X19.275Y-57.69
X19.275Y-84.69
X19.275Y-87.69
X19.275Y-114.69
X19.275Y-117.69
X19.275Y-144.69
X19.275Y-147.69
X19.275Y-174.69
X19.275Y-177.69
X20.0Y-4.0
X20.0Y-15.0
X20.0Y-45.0
X20.0Y-75.0
X20.0Y-105.0
X20.0Y-135.0
X20.0Y-165.0
X20.0Y-196.0
X24.925Y-24.69
X24.925Y-27.69
X24.925Y-54.69
X24.925Y-57.69
X24.925Y-84.69
X24.925Y-87.69
X24.925Y-114.69
X24.925Y-117.69
X24.925Y-144.69
X24.925Y-147.69
X24.925Y-174.69
X24.925Y-177.69
X24.925Y-24.69
X24.925Y-27.69
X24.925Y-54.69
X24.925Y-57.69
X24.925Y-84.69
X24.925Y-87.69
X24.925Y-114.69
X24.925Y-117.69
X24.925Y-144.69
X24.925Y-147.69
X24.925Y-174.69
X24.925Y-177.69
X25.545Y-6.495
X25.545Y-12.495
X25.545Y-6.495
X25.545Y-12.495
X30.0Y-196.0
X30.575Y-24.69
X30.575Y-27.69
X30.575Y-54.69
X30.575Y-57.69
X30.575Y-84.69
X30.575Y-87.69
X30.575Y-114.69
X30.575Y-117.69
X30.575Y-144.69
X30.575Y-147.69
X30.575Y-174.69
X30.575Y-177.69
X30.575Y-24.69
X30.575Y-27.69
X30.575Y-54.69
X30.575Y-57.69
X30.575Y-84.69
X30.575Y-87.69
X30.575Y-114.69
X30.575Y-117.69
X30.575Y-144.69
X30.575Y-147.69
X30.575Y-174.69
X30.575Y-177.69
X35.0Y-45.0
X35.0Y-75.0
X35.0Y-105.0
X35.0Y-135.0
X35.0Y-165.0
X36.225Y-24.69
X36.225Y-27.69
X36.225Y-54.69
X36.225Y-57.69
X36.225Y-84.69
X36.225Y-87.69
X36.225Y-114.69
X36.225Y-117.69
X36.225Y-144.69
X36.225Y-147.69
X36.225Y-174.69
X36.225Y-177.69
X36.225Y-24.69
X36.225Y-27.69
X36.225Y-54.69
X36.225Y-57.69
X36.225Y-84.69
X36.225Y-87.69
X36.225Y-114.69
X36.225Y-117.69
X36.225Y-144.69
X36.225Y-147.69
X36.225Y-174.69
X36.225Y-177.69
X37.55Y-28.095
X37.55Y-58.095
X37.55Y-88.095
X37.55Y-118.095
X37.55Y-148.095
X37.55Y-178.095
X37.65Y-30.0
X37.65Y-60.0
X37.65Y-90.0
X37.65Y-120.0
X37.65Y-150.0
X37.65Y-180.0
X40.0Y-196.0
X40.55Y-28.095
X40.55Y-58.095
X40.55Y-88.095
X40.55Y-118.095
X40.55Y-148.095
X40.55Y-178.095
X43.59Y-58.5
X43.59Y-88.5
X43.59Y-118.5
X43.59Y-148.5
X43.59Y-178.5
X46.59Y-58.5
X46.59Y-88.5
X46.59Y-118.5
X46.59Y-148.5
X46.59Y-178.5
X48.52Y-36.57
X48.52Y-66.565
X48.52Y-96.57
X48.52Y-156.565
X48.52Y-187.465
X48.52Y-187.465
X48.897Y-181.129
X49.13Y-118.476
X49.13Y-151.844
X49.625Y-29.194
X49.635Y-147.142
X49.874Y-148.819
X50.0Y-4.0
X50.0Y-15.0
X50.0Y-45.0
X50.0Y-75.0
X50.0Y-105.0
X50.0Y-135.0
X50.0Y-165.0
X50.0Y-196.0
X50.946Y-114.707
X51.52Y-36.57
X51.52Y-66.565
X51.52Y-96.57
X51.52Y-156.565
X51.52Y-187.465
X51.52Y-187.465
X51.525Y-35.355
X51.525Y-65.355
X51.525Y-95.355
X51.525Y-125.355
X51.525Y-155.355
X51.525Y-185.355
X52.192Y-21.534
X52.192Y-127.121
X52.559Y-27.292
X52.736Y-114.47
X52.968Y-33.911
X52.968Y-93.792
X53.001Y-111.951
X53.235Y-61.939
X53.279Y-118.788
X53.459Y-121.168
X54.593Y-31.807
X54.593Y-177.4
X54.593Y-179.529
X54.717Y-56.253
X54.717Y-86.194
X55.178Y-38.14
X55.178Y-41.14
X55.178Y-68.13
X55.178Y-71.13
X55.178Y-98.14
X55.178Y-101.14
X55.178Y-158.13
X55.178Y-161.13
X55.178Y-188.13
X55.178Y-191.13
X55.178Y-38.14
X55.178Y-41.14
X55.178Y-68.13
X55.178Y-71.13
X55.178Y-98.14
X55.178Y-101.14
X55.178Y-158.13
X55.178Y-161.13
X55.178Y-188.13
X55.178Y-191.13
X56.475Y-24.645
X56.475Y-54.645
X56.475Y-84.645
X56.475Y-114.645
X56.475Y-144.645
X56.475Y-174.645
X57.075Y-30.635
X57.075Y-60.635
X57.075Y-90.635
X57.075Y-120.635
X57.075Y-150.635
X57.075Y-180.635
X57.975Y-116.312
X58.168Y-108.963
X58.168Y-172.856
X58.168Y-184.794
X58.556Y-147.808
X59.05Y-114.7
X59.172Y-119.65
X59.545Y-24.495
X59.545Y-36.495
X59.545Y-54.495
X59.545Y-84.495
X59.545Y-96.495
X59.545Y-144.495
X59.545Y-156.495
X59.545Y-174.495
X59.545Y-24.495
X59.545Y-36.495
X59.545Y-54.495
X59.545Y-84.495
X59.545Y-96.495
X59.545Y-144.495
X59.545Y-156.495
X59.545Y-174.495
X59.929Y-127.374
X60.0Y-196.0
X61.156Y-5.313
X61.65Y-66.0
X61.65Y-126.0
X61.65Y-186.0
X62.495Y-37.34
X62.495Y-41.14
X62.495Y-67.33
X62.495Y-71.13
X62.495Y-97.34
X62.495Y-101.14
X62.495Y-157.33
X62.495Y-157.33
X62.495Y-161.13
X62.495Y-187.33
X62.495Y-187.33
X62.495Y-191.13
X64.144Y-59.257
X64.144Y-150.224
X64.217Y-67.129
X65.0Y-45.0
X65.0Y-75.0
X65.0Y-105.0
X65.0Y-135.0
X65.0Y-165.0
X66.282Y-157.072
X66.389Y-174.782
X66.56Y-24.514
X67.023Y-146.974
X67.132Y-90.909
X67.56Y-84.754
X67.607Y-154.228
X67.92Y-27.5
X67.92Y-57.5
X67.92Y-87.5
X67.92Y-147.5
X67.92Y-177.5
X67.981Y-122.5
X67.981Y-125.5
X67.981Y-122.5
X67.981Y-125.5
X69.288Y-55.959
X69.288Y-85.899
X69.588Y-63.981
X69.588Y-94.092
X69.588Y-123.903
X69.776Y-28.575
X69.776Y-178.042
X69.812Y-188.13
X69.812Y-191.13
X69.812Y-188.13
X69.812Y-191.13
X70.0Y-4.0
X70.0Y-196.0
X70.005Y-117.638
X70.112Y-38.14
X70.112Y-41.14
X70.112Y-68.13
X70.112Y-71.13
X70.112Y-98.14
X70.112Y-101.14
X70.112Y-158.13
X70.112Y-161.13
X70.112Y-38.14
X70.112Y-41.14
X70.112Y-68.13
X70.112Y-71.13
X70.112Y-98.14
X70.112Y-101.14
X70.112Y-158.13
X70.112Y-161.13
X70.12Y-21.329
X72.257Y-175.534
X72.55Y-118.0
X72.95Y-124.7
X73.65Y-34.0
X73.65Y-64.0
X73.65Y-94.0
X73.65Y-154.0
X73.65Y-184.0
X74.922Y-56.0
X74.922Y-86.0
X74.922Y-146.0
X74.922Y-176.0
X75.55Y-28.0
X75.55Y-31.7
X75.55Y-58.0
X75.55Y-61.7
X75.55Y-88.0
X75.55Y-91.7
X75.55Y-118.0
X75.55Y-148.0
X75.55Y-151.7
X75.55Y-178.0
X75.55Y-181.7
X75.576Y-63.787
X75.576Y-94.092
X75.72Y-38.14
X75.72Y-41.14
X75.72Y-68.13
X75.72Y-71.13
X75.72Y-98.14
X75.72Y-101.14
X75.72Y-158.13
X75.72Y-161.13
X75.72Y-188.13
X75.72Y-191.13
X75.722Y-23.0
X75.722Y-53.0
X75.722Y-83.0
X75.722Y-143.0
X75.722Y-173.0
X76.17Y-29.41
X76.17Y-59.407
X76.17Y-89.41
X76.17Y-149.407
X76.17Y-149.408
X76.17Y-179.407
X76.17Y-179.408
X76.47Y-36.23
X76.47Y-66.222
X76.47Y-96.23
X76.47Y-156.222
X76.47Y-156.222
X76.47Y-186.222
X76.47Y-186.222
X76.72Y-57.753
X76.72Y-87.753
X78.55Y-118.0
X78.85Y-28.0
X78.85Y-58.0
X78.85Y-88.0
X78.85Y-148.0
X78.85Y-178.0
X79.47Y-29.41
X79.47Y-36.23
X79.47Y-59.407
X79.47Y-66.222
X79.47Y-89.41
X79.47Y-96.23
X79.47Y-149.407
X79.47Y-149.408
X79.47Y-156.222
X79.47Y-156.222
X79.47Y-179.407
X79.47Y-179.408
X79.47Y-186.222
X79.47Y-186.222
X79.65Y-34.0
X79.65Y-64.0
X79.65Y-94.0
X79.65Y-124.0
X79.65Y-154.0
X79.65Y-184.0
X80.0Y-4.0
X80.0Y-45.0
X80.0Y-75.0
X80.0Y-105.0
X80.0Y-135.0
X80.0Y-165.0
X80.0Y-196.0
X82.043Y-54.5
X82.043Y-84.5
X82.043Y-114.5
X82.043Y-144.5
X82.043Y-174.5
X82.043Y-54.5
X82.043Y-84.5
X82.043Y-114.5
X82.043Y-144.5
X82.043Y-174.5
X82.843Y-57.5
X82.843Y-87.5
X82.843Y-117.5
X82.843Y-147.5
X82.843Y-177.5
X82.843Y-57.5
X82.843Y-87.5
X82.843Y-117.5
X82.843Y-147.5
X82.843Y-177.5
X87.19Y-54.5
X87.19Y-57.5
X87.19Y-84.5
X87.19Y-87.5
X87.19Y-114.5
X87.19Y-117.5
X87.19Y-144.5
X87.19Y-147.5
X87.19Y-174.5
X87.19Y-177.5
X87.884Y-31.272
X90.0Y-196.0
X90.743Y-28.73
X91.837Y-54.5
X91.837Y-84.5
X91.837Y-114.5
X91.837Y-144.5
X91.837Y-174.5
X91.837Y-54.5
X91.837Y-84.5
X91.837Y-114.5
X91.837Y-144.5
X91.837Y-174.5
X91.864Y-35.613
X91.968Y-90.364
X92.337Y-58.3
X92.337Y-88.3
X92.337Y-118.3
X92.337Y-148.3
X92.337Y-178.3
X92.337Y-58.3
X92.337Y-88.3
X92.337Y-118.3
X92.337Y-148.3
X92.337Y-178.3
X92.747Y-181.436
X92.961Y-93.848
X93.465Y-121.555
X93.582Y-30.495
X93.582Y-30.495
X93.977Y-116.988
X94.025Y-21.009
X94.025Y-28.045
X95.0Y-15.0
X95.0Y-45.0
X95.0Y-75.0
X95.0Y-105.0
X95.0Y-135.0
X95.0Y-165.0
X96.097Y-150.213
X96.258Y-60.802
X96.5Y-51.0
X96.5Y-81.0
X96.5Y-111.0
X96.5Y-141.0
X96.5Y-171.0
X96.547Y-24.378
X96.547Y-36.349
X96.916Y-28.673
X97.013Y-21.329
X97.013Y-147.508
X98.582Y-54.495
X98.582Y-84.495
X98.582Y-114.495
X98.582Y-144.495
X98.582Y-174.495
X98.582Y-54.495
X98.582Y-84.495
X98.582Y-114.495
X98.582Y-144.495
X98.582Y-174.495
X100.0Y-196.0
X100.001Y-62.243
X101.021Y-180.224
X101.9Y-24.474
X105.582Y-87.874
X106.112Y-94.962
X106.112Y-185.434
X106.168Y-156.15
X106.829Y-176.995
X107.01Y-147.054
X107.525Y-35.355
X107.525Y-65.355
X107.525Y-95.355
X107.525Y-125.355
X107.525Y-155.355
X107.525Y-185.355
X108.217Y-157.061
X108.65Y-11.0
X109.087Y-153.285
X109.229Y-63.61
X109.294Y-35.818
X109.364Y-148.282
X109.48Y-91.965
X109.65Y-16.0
X109.715Y-121.898
X109.721Y-181.787
X109.79Y-64.237
X109.978Y-31.244
X110.0Y-4.0
X110.0Y-45.0
X110.0Y-75.0
X110.0Y-105.0
X110.0Y-135.0
X110.0Y-165.0
X110.0Y-196.0
X110.614Y-29.634
X110.98Y-60.405
X110.98Y-89.277
X111.104Y-116.312
X111.104Y-174.625
X111.954Y-34.138
X112.475Y-24.645
X112.475Y-54.645
X112.475Y-84.645
X112.475Y-114.645
X112.475Y-144.645
X112.475Y-174.645
X113.075Y-30.635
X113.075Y-60.635
X113.075Y-90.635
X113.075Y-120.635
X113.075Y-150.635
X113.075Y-180.635
X113.075Y-30.635
X113.075Y-60.635
X113.075Y-90.635
X113.075Y-120.635
X113.075Y-150.635
X113.075Y-180.635
X113.72Y-57.125
X114.299Y-27.881
X114.942Y-46.213
X114.942Y-124.19
X114.943Y-62.021
X114.943Y-119.644
X114.943Y-147.777
X115.05Y-35.0
X115.236Y-56.174
X115.545Y-26.495
X115.545Y-54.495
X115.545Y-84.495
X115.545Y-96.495
X115.545Y-114.495
X115.545Y-144.495
X115.545Y-156.495
X115.545Y-174.495
X115.545Y-26.495
X115.545Y-54.495
X115.545Y-84.495
X115.545Y-96.495
X115.545Y-114.495
X115.545Y-144.495
X115.545Y-156.495
X115.545Y-174.495
X116.079Y-12.179
X116.079Y-12.179
X117.918Y-60.402
X117.918Y-120.95
X117.95Y-66.0
X117.95Y-126.0
X117.95Y-186.0
X119.668Y-150.013
X119.668Y-180.194
X119.885Y-28.252
X120.0Y-196.0
X120.65Y-29.634
X120.65Y-90.59
X120.65Y-151.85
X120.727Y-37.252
X121.417Y-27.55
X121.49Y-31.523
X121.605Y-179.799
X122.154Y-58.631
X122.175Y-18.0
X123.636Y-87.376
X123.656Y-117.577
X125.0Y-45.0
X125.0Y-75.0
X125.0Y-105.0
X125.0Y-135.0
X125.0Y-165.0
X127.65Y-18.0
X129.725Y-3.0
X130.0Y-196.0
X132.15Y-11.0
X132.15Y-11.0
X139.525Y-4.645
X140.0Y-15.0
X140.0Y-45.0
X140.0Y-75.0
X140.0Y-105.0
X140.0Y-135.0
X140.0Y-165.0
X140.0Y-196.0
X140.125Y-10.635
X141.206Y-22.963
X141.462Y-19.05
X141.463Y-19.05
X141.915Y-10.771
X144.09Y-31.87
X144.823Y-31.036
X145.004Y-40.533
X145.074Y-22.466
X145.075Y-9.365
X147.375Y-17.074
X147.811Y-10.211
X148.95Y-25.7
X148.95Y-55.7
X148.95Y-85.7
X148.95Y-115.7
X148.95Y-145.7
X148.95Y-175.7
X150.0Y-4.0
X150.0Y-196.0
X151.545Y-8.495
X151.545Y-8.495
X154.95Y-25.7
X154.95Y-55.7
X154.95Y-85.7
X154.95Y-115.7
X154.95Y-145.7
X154.95Y-175.7
X155.0Y-15.0
X155.0Y-45.0
X155.0Y-75.0
X155.0Y-105.0
X155.0Y-135.0
X155.0Y-165.0
X157.225Y-10.0
X157.225Y-20.0
X157.65Y-27.5
X157.65Y-57.5
X157.65Y-87.5
X157.65Y-117.5
X157.65Y-147.5
X157.65Y-177.5
X157.65Y-27.5
X157.65Y-57.5
X157.65Y-87.5
X157.65Y-117.5
X157.65Y-147.5
X157.65Y-177.5
X160.0Y-4.0
X160.0Y-196.0
X160.175Y-10.0
X160.175Y-20.0
X160.175Y-10.0
X160.175Y-20.0
X163.65Y-32.5
X163.65Y-62.5
X163.65Y-92.5
X163.65Y-122.5
X163.65Y-152.5
X163.65Y-182.5
X163.65Y-32.5
X163.65Y-62.5
X163.65Y-92.5
X163.65Y-122.5
X163.65Y-152.5
X163.65Y-182.5
X164.635Y-31.73
X165.74Y-25.296
X166.612Y-10.0
X166.612Y-18.0
X166.612Y-10.0
X166.612Y-18.0
X169.65Y-27.5
X169.65Y-57.5
X169.65Y-87.5
X169.65Y-117.5
X169.65Y-147.5
X169.65Y-177.5
X169.65Y-27.5
X169.65Y-57.5
X169.65Y-87.5
X169.65Y-117.5
X169.65Y-147.5
X169.65Y-177.5
X170.0Y-4.0
X170.0Y-45.0
X170.0Y-75.0
X170.0Y-105.0
X170.0Y-135.0
X170.0Y-165.0
X170.0Y-196.0
X176.65Y-8.0
X176.65Y-8.0
X180.0Y-4.0
X180.0Y-196.0
X190.0Y-4.0
X190.0Y-196.0
X190.85Y-10.0
X196.0Y-10.0
X196.0Y-20.0
X196.0Y-30.0
X196.0Y-40.0
X196.0Y-50.0
X196.0Y-60.0
X196.0Y-70.0
X196.0Y-80.0
X196.0Y-90.0
X196.0Y-100.0
X196.0Y-110.0
X196.0Y-120.0
X196.0Y-130.0
X196.0Y-140.0
X196.0Y-150.0
X196.0Y-160.0
X196.0Y-170.0
X196.0Y-180.0
X196.0Y-190.0
T2
X35.0Y-2.76
X35.0Y-18.0
X37.54Y-2.76
X37.54Y-18.0
X40.08Y-2.76
X40.08Y-18.0
X42.62Y-2.76
X42.62Y-18.0
X45.16Y-2.76
X45.16Y-18.0
X47.7Y-2.76
X47.7Y-18.0
X50.24Y-2.76
X50.24Y-18.0
X52.78Y-2.76
X52.78Y-18.0
X55.32Y-2.76
X55.32Y-18.0
X57.86Y-2.76
X57.86Y-18.0
X60.4Y-2.76
X60.4Y-18.0
X62.94Y-2.76
X62.94Y-18.0
T3
X91.758Y-8.89
X95.758Y-8.89
X99.758Y-8.89
T5
X6.28Y-34.44
X6.28Y-64.44
X6.28Y-94.44
X6.28Y-124.44
X6.28Y-154.44
X6.28Y-184.44
X16.45Y-26.19
X16.45Y-56.19
X16.45Y-86.19
X16.45Y-116.19
X16.45Y-146.19
X16.45Y-176.19
X89.758Y-4.64
X89.758Y-10.64
X101.758Y-4.64
X101.758Y-10.64
X182.634Y-26.36
X182.634Y-56.36
X182.634Y-86.36
X182.634Y-116.36
X182.634Y-146.36
X182.634Y-176.36
X187.714Y-26.36
X187.714Y-56.36
X187.714Y-86.36
X187.714Y-116.36
X187.714Y-146.36
X187.714Y-176.36
T6
X12.0Y-30.0
X12.0Y-60.0
X12.0Y-90.0
X12.0Y-120.0
X12.0Y-150.0
X12.0Y-180.0
X12.635Y-22.38
X12.635Y-52.38
X12.635Y-82.38
X12.635Y-112.38
X12.635Y-142.38
X12.635Y-172.38
X182.634Y-22.55
X182.634Y-30.17
X182.634Y-52.55
X182.634Y-60.17
X182.634Y-82.55
X182.634Y-90.17
X182.634Y-112.55
X182.634Y-120.17
X182.634Y-142.55
X182.634Y-150.17
X182.634Y-172.55
X182.634Y-180.17
T7
X5.0Y-5.0
X5.0Y-195.0
X195.0Y-5.0
X195.0Y-195.0
T8
X117.134Y-7.834
X122.134Y-7.834
T9
X3.11Y-30.0
X3.11Y-60.0
X3.11Y-90.0
X3.11Y-120.0
X3.11Y-150.0
X3.11Y-180.0
X8.19Y-22.38
X8.19Y-52.38
X8.19Y-82.38
X8.19Y-112.38
X8.19Y-142.38
X8.19Y-172.38
X191.524Y-30.17
X191.524Y-60.17
X191.524Y-90.17
X191.524Y-120.17
X191.524Y-150.17
X191.524Y-180.17
X196.604Y-22.55
X196.604Y-52.55
X196.604Y-82.55
X196.604Y-112.55
X196.604Y-142.55
X196.604Y-172.55
T4
X73.981Y-6.318G85X73.981Y-8.318
G05
X79.681Y-4.318G85X77.681Y-4.318
G05
X79.681Y-10.318G85X77.681Y-10.318
G05
M30
