%TF.GenerationSoftware,KiCad,Pcbnew,9.0.7*%
%TF.CreationDate,2026-03-20T18:55:57+01:00*%
%TF.ProjectId,aurora-dsp-icepower-booster,6175726f-7261-42d6-9473-702d69636570,rev?*%
%TF.SameCoordinates,Original*%
%TF.FileFunction,Paste,Top*%
%TF.FilePolarity,Positive*%
%FSLAX46Y46*%
G04 Gerber Fmt 4.6, Leading zero omitted, Abs format (unit mm)*
G04 Created by KiCad (PCBNEW 9.0.7) date 2026-03-20 18:55:57*
%MOMM*%
%LPD*%
G01*
G04 APERTURE LIST*
G04 Aperture macros list*
%AMRoundRect*
0 Rectangle with rounded corners*
0 $1 Rounding radius*
0 $2 $3 $4 $5 $6 $7 $8 $9 X,Y pos of 4 corners*
0 Add a 4 corners polygon primitive as box body*
4,1,4,$2,$3,$4,$5,$6,$7,$8,$9,$2,$3,0*
0 Add four circle primitives for the rounded corners*
1,1,$1+$1,$2,$3*
1,1,$1+$1,$4,$5*
1,1,$1+$1,$6,$7*
1,1,$1+$1,$8,$9*
0 Add four rect primitives between the rounded corners*
20,1,$1+$1,$2,$3,$4,$5,0*
20,1,$1+$1,$4,$5,$6,$7,0*
20,1,$1+$1,$6,$7,$8,$9,0*
20,1,$1+$1,$8,$9,$2,$3,0*%
G04 Aperture macros list end*
%ADD10C,0.010000*%
%ADD11RoundRect,0.250000X-0.250000X-0.475000X0.250000X-0.475000X0.250000X0.475000X-0.250000X0.475000X0*%
%ADD12RoundRect,0.250000X-0.325000X-1.100000X0.325000X-1.100000X0.325000X1.100000X-0.325000X1.100000X0*%
%ADD13RoundRect,0.250000X-0.325000X-0.650000X0.325000X-0.650000X0.325000X0.650000X-0.325000X0.650000X0*%
%ADD14RoundRect,0.140000X-0.140000X-0.170000X0.140000X-0.170000X0.140000X0.170000X-0.140000X0.170000X0*%
%ADD15RoundRect,0.250000X-1.000000X-0.900000X1.000000X-0.900000X1.000000X0.900000X-1.000000X0.900000X0*%
%ADD16RoundRect,0.112500X-0.187500X-0.112500X0.187500X-0.112500X0.187500X0.112500X-0.187500X0.112500X0*%
%ADD17RoundRect,0.218750X-0.218750X-0.381250X0.218750X-0.381250X0.218750X0.381250X-0.218750X0.381250X0*%
%ADD18RoundRect,0.375000X-0.375000X-0.375000X0.375000X-0.375000X0.375000X0.375000X-0.375000X0.375000X0*%
%ADD19RoundRect,0.375000X-0.375000X-0.625000X0.375000X-0.625000X0.375000X0.625000X-0.375000X0.625000X0*%
%ADD20RoundRect,0.150000X-0.587500X-0.150000X0.587500X-0.150000X0.587500X0.150000X-0.587500X0.150000X0*%
%ADD21RoundRect,0.250000X-0.262500X-0.450000X0.262500X-0.450000X0.262500X0.450000X-0.262500X0.450000X0*%
%ADD22RoundRect,0.250000X-0.500000X-0.300000X0.500000X-0.300000X0.500000X0.300000X-0.500000X0.300000X0*%
%ADD23RoundRect,0.150000X-0.825000X-0.150000X0.825000X-0.150000X0.825000X0.150000X-0.825000X0.150000X0*%
%ADD24RoundRect,0.075000X-0.910000X-0.225000X0.910000X-0.225000X0.910000X0.225000X-0.910000X0.225000X0*%
%ADD25RoundRect,0.150000X-0.512500X-0.150000X0.512500X-0.150000X0.512500X0.150000X-0.512500X0.150000X0*%
G04 APERTURE END LIST*
D10*
%TO.C,U14*%
X146762109Y-5205460D02*
X145237891Y-5205460D01*
X145237891Y-2794540D01*
X146762109Y-2794540D01*
X146762109Y-5205460D01*
G36*
X146762109Y-5205460D02*
G01*
X145237891Y-5205460D01*
X145237891Y-2794540D01*
X146762109Y-2794540D01*
X146762109Y-5205460D01*
G37*
%TD*%
D11*
%TO.C,C1*%
X43000000Y-12950000D03*
X43000000Y-11050000D03*
%TD*%
%TO.C,C10*%
X66500000Y-105450000D03*
X66500000Y-103550000D03*
%TD*%
%TO.C,C11*%
X66500000Y-133450000D03*
X66500000Y-131550000D03*
%TD*%
%TO.C,C12*%
X66500000Y-160950000D03*
X66500000Y-159050000D03*
%TD*%
%TO.C,C13*%
X66500000Y-188950000D03*
X66500000Y-187050000D03*
%TD*%
%TO.C,C14*%
X85000000Y-34950000D03*
X85000000Y-33050000D03*
%TD*%
%TO.C,C15*%
X84500000Y-19950000D03*
X84500000Y-18050000D03*
%TD*%
D12*
%TO.C,C16*%
X96000000Y-9475000D03*
X96000000Y-6525000D03*
%TD*%
%TO.C,C17*%
X90000000Y-33475000D03*
X90000000Y-30525000D03*
%TD*%
D11*
%TO.C,C18*%
X105000000Y-5950000D03*
X105000000Y-4050000D03*
%TD*%
%TO.C,C19*%
X99000000Y-32950000D03*
X99000000Y-31050000D03*
%TD*%
%TO.C,C2*%
X71500000Y-40450000D03*
X71500000Y-38550000D03*
%TD*%
D12*
%TO.C,C20*%
X108000000Y-86475000D03*
X108000000Y-83525000D03*
%TD*%
%TO.C,C21*%
X104000000Y-142475000D03*
X104000000Y-139525000D03*
%TD*%
D11*
%TO.C,C22*%
X141000000Y-4950000D03*
X141000000Y-3050000D03*
%TD*%
%TO.C,C23*%
X121500000Y-29450000D03*
X121500000Y-27550000D03*
%TD*%
%TO.C,C24*%
X75000000Y-58950000D03*
X75000000Y-57050000D03*
%TD*%
%TO.C,C25*%
X64000000Y-58950000D03*
X64000000Y-57050000D03*
%TD*%
%TO.C,C26*%
X108500000Y-40450000D03*
X108500000Y-38550000D03*
%TD*%
%TO.C,C27*%
X108500000Y-68450000D03*
X108500000Y-66550000D03*
%TD*%
%TO.C,C28*%
X108500000Y-95950000D03*
X108500000Y-94050000D03*
%TD*%
%TO.C,C29*%
X108500000Y-123950000D03*
X108500000Y-122050000D03*
%TD*%
%TO.C,C3*%
X71500000Y-68450000D03*
X71500000Y-66550000D03*
%TD*%
%TO.C,C30*%
X108500000Y-151450000D03*
X108500000Y-149550000D03*
%TD*%
%TO.C,C31*%
X108500000Y-179450000D03*
X108500000Y-177550000D03*
%TD*%
%TO.C,C32*%
X103500000Y-49950000D03*
X103500000Y-48050000D03*
%TD*%
%TO.C,C33*%
X103500000Y-77950000D03*
X103500000Y-76050000D03*
%TD*%
%TO.C,C34*%
X103500000Y-105450000D03*
X103500000Y-103550000D03*
%TD*%
%TO.C,C35*%
X103500000Y-133450000D03*
X103500000Y-131550000D03*
%TD*%
%TO.C,C36*%
X103500000Y-160950000D03*
X103500000Y-159050000D03*
%TD*%
%TO.C,C37*%
X103500000Y-188950000D03*
X103500000Y-187050000D03*
%TD*%
%TO.C,C38*%
X130000000Y-41900000D03*
X130000000Y-40000000D03*
%TD*%
%TO.C,C39*%
X130000000Y-69590000D03*
X130000000Y-67690000D03*
%TD*%
%TO.C,C4*%
X71500000Y-95950000D03*
X71500000Y-94050000D03*
%TD*%
%TO.C,C40*%
X130000000Y-97270000D03*
X130000000Y-95370000D03*
%TD*%
%TO.C,C41*%
X130000000Y-125090000D03*
X130000000Y-123190000D03*
%TD*%
%TO.C,C42*%
X130000000Y-152900000D03*
X130000000Y-151000000D03*
%TD*%
%TO.C,C43*%
X130000000Y-180670000D03*
X130000000Y-178770000D03*
%TD*%
%TO.C,C44*%
X130000000Y-48900000D03*
X130000000Y-47000000D03*
%TD*%
%TO.C,C45*%
X130000000Y-76590000D03*
X130000000Y-74690000D03*
%TD*%
%TO.C,C46*%
X130000000Y-104270000D03*
X130000000Y-102370000D03*
%TD*%
%TO.C,C47*%
X130000000Y-132090000D03*
X130000000Y-130190000D03*
%TD*%
%TO.C,C48*%
X130000000Y-159900000D03*
X130000000Y-158000000D03*
%TD*%
%TO.C,C49*%
X130000000Y-187670000D03*
X130000000Y-185770000D03*
%TD*%
%TO.C,C5*%
X71500000Y-123950000D03*
X71500000Y-122050000D03*
%TD*%
%TO.C,C50*%
X40000000Y-41900000D03*
X40000000Y-40000000D03*
%TD*%
%TO.C,C51*%
X40000000Y-48900000D03*
X40000000Y-47000000D03*
%TD*%
%TO.C,C52*%
X40000000Y-69590000D03*
X40000000Y-67690000D03*
%TD*%
%TO.C,C53*%
X40000000Y-76590000D03*
X40000000Y-74690000D03*
%TD*%
%TO.C,C54*%
X40000000Y-97270000D03*
X40000000Y-95370000D03*
%TD*%
%TO.C,C55*%
X40000000Y-104270000D03*
X40000000Y-102370000D03*
%TD*%
%TO.C,C56*%
X40000000Y-125090000D03*
X40000000Y-123190000D03*
%TD*%
%TO.C,C57*%
X40000000Y-132090000D03*
X40000000Y-130190000D03*
%TD*%
%TO.C,C58*%
X40000000Y-152900000D03*
X40000000Y-151000000D03*
%TD*%
%TO.C,C59*%
X40000000Y-159900000D03*
X40000000Y-158000000D03*
%TD*%
%TO.C,C6*%
X71500000Y-151450000D03*
X71500000Y-149550000D03*
%TD*%
%TO.C,C60*%
X40000000Y-180670000D03*
X40000000Y-178770000D03*
%TD*%
%TO.C,C61*%
X40000000Y-187670000D03*
X40000000Y-185770000D03*
%TD*%
D13*
%TO.C,C62*%
X46000000Y-42425000D03*
X46000000Y-39475000D03*
%TD*%
%TO.C,C63*%
X46000000Y-49425000D03*
X46000000Y-46475000D03*
%TD*%
%TO.C,C64*%
X46000000Y-70115000D03*
X46000000Y-67165000D03*
%TD*%
%TO.C,C65*%
X46000000Y-77115000D03*
X46000000Y-74165000D03*
%TD*%
%TO.C,C66*%
X46000000Y-97795000D03*
X46000000Y-94845000D03*
%TD*%
%TO.C,C67*%
X46000000Y-104795000D03*
X46000000Y-101845000D03*
%TD*%
%TO.C,C68*%
X46000000Y-125615000D03*
X46000000Y-122665000D03*
%TD*%
%TO.C,C69*%
X46000000Y-132615000D03*
X46000000Y-129665000D03*
%TD*%
D11*
%TO.C,C7*%
X71500000Y-179450000D03*
X71500000Y-177550000D03*
%TD*%
D13*
%TO.C,C70*%
X46000000Y-153425000D03*
X46000000Y-150475000D03*
%TD*%
%TO.C,C71*%
X46000000Y-160425000D03*
X46000000Y-157475000D03*
%TD*%
%TO.C,C72*%
X46000000Y-181195000D03*
X46000000Y-178245000D03*
%TD*%
%TO.C,C73*%
X46000000Y-188195000D03*
X46000000Y-185245000D03*
%TD*%
D11*
%TO.C,C74*%
X75000000Y-114950000D03*
X75000000Y-113050000D03*
%TD*%
%TO.C,C75*%
X64000000Y-114950000D03*
X64000000Y-113050000D03*
%TD*%
%TO.C,C76*%
X75000000Y-169950000D03*
X75000000Y-168050000D03*
%TD*%
%TO.C,C77*%
X104000000Y-176950000D03*
X104000000Y-175050000D03*
%TD*%
%TO.C,C78*%
X148000000Y-9950000D03*
X148000000Y-8050000D03*
%TD*%
%TO.C,C79*%
X121500000Y-22450000D03*
X121500000Y-20550000D03*
%TD*%
%TO.C,C8*%
X66500000Y-49950000D03*
X66500000Y-48050000D03*
%TD*%
%TO.C,C80*%
X45050000Y-28000000D03*
X46950000Y-28000000D03*
%TD*%
D14*
%TO.C,C81*%
X144000000Y-9480000D03*
X144000000Y-8520000D03*
%TD*%
D11*
%TO.C,C9*%
X66500000Y-77950000D03*
X66500000Y-76050000D03*
%TD*%
D15*
%TO.C,D1*%
X37850000Y-20000000D03*
X42150000Y-20000000D03*
%TD*%
D16*
%TO.C,D10*%
X20950000Y-47950000D03*
X23050000Y-47950000D03*
%TD*%
%TO.C,D11*%
X20950000Y-68640000D03*
X23050000Y-68640000D03*
%TD*%
%TO.C,D12*%
X124950000Y-75640000D03*
X127050000Y-75640000D03*
%TD*%
%TO.C,D13*%
X20950000Y-75640000D03*
X23050000Y-75640000D03*
%TD*%
%TO.C,D14*%
X20950000Y-96320000D03*
X23050000Y-96320000D03*
%TD*%
%TO.C,D15*%
X124950000Y-103320000D03*
X127050000Y-103320000D03*
%TD*%
%TO.C,D16*%
X20950000Y-103320000D03*
X23050000Y-103320000D03*
%TD*%
%TO.C,D17*%
X20950000Y-124140000D03*
X23050000Y-124140000D03*
%TD*%
%TO.C,D18*%
X124950000Y-131140000D03*
X127050000Y-131140000D03*
%TD*%
%TO.C,D19*%
X20950000Y-131140000D03*
X23050000Y-131140000D03*
%TD*%
%TO.C,D2*%
X124950000Y-40950000D03*
X127050000Y-40950000D03*
%TD*%
%TO.C,D20*%
X20950000Y-151950000D03*
X23050000Y-151950000D03*
%TD*%
%TO.C,D21*%
X124950000Y-158950000D03*
X127050000Y-158950000D03*
%TD*%
%TO.C,D22*%
X20950000Y-158950000D03*
X23050000Y-158950000D03*
%TD*%
%TO.C,D23*%
X20950000Y-179720000D03*
X23050000Y-179720000D03*
%TD*%
%TO.C,D24*%
X124950000Y-186720000D03*
X127050000Y-186720000D03*
%TD*%
%TO.C,D25*%
X20950000Y-186720000D03*
X23050000Y-186720000D03*
%TD*%
%TO.C,D3*%
X124950000Y-68640000D03*
X127050000Y-68640000D03*
%TD*%
%TO.C,D4*%
X124950000Y-96320000D03*
X127050000Y-96320000D03*
%TD*%
%TO.C,D5*%
X124950000Y-124140000D03*
X127050000Y-124140000D03*
%TD*%
%TO.C,D6*%
X124950000Y-151950000D03*
X127050000Y-151950000D03*
%TD*%
%TO.C,D7*%
X124950000Y-179720000D03*
X127050000Y-179720000D03*
%TD*%
%TO.C,D8*%
X20950000Y-40950000D03*
X23050000Y-40950000D03*
%TD*%
%TO.C,D9*%
X124950000Y-47950000D03*
X127050000Y-47950000D03*
%TD*%
D17*
%TO.C,FB1*%
X102000000Y-9062500D03*
X102000000Y-6937500D03*
%TD*%
%TO.C,FB2*%
X96000000Y-33062500D03*
X96000000Y-30937500D03*
%TD*%
D18*
%TO.C,J2*%
X34520000Y-11430000D03*
X26420000Y-11430000D03*
D19*
X26420000Y-2580000D03*
X34520000Y-2580000D03*
%TD*%
D20*
%TO.C,Q1*%
X49062500Y-29050000D03*
X49062500Y-30950000D03*
X50937500Y-30000000D03*
%TD*%
%TO.C,Q2*%
X95062500Y-43500000D03*
X95062500Y-45400000D03*
X96937500Y-44450000D03*
%TD*%
%TO.C,Q3*%
X95062500Y-71190000D03*
X95062500Y-73090000D03*
X96937500Y-72140000D03*
%TD*%
%TO.C,Q4*%
X95062500Y-98870000D03*
X95062500Y-100770000D03*
X96937500Y-99820000D03*
%TD*%
%TO.C,Q5*%
X95062500Y-126690000D03*
X95062500Y-128590000D03*
X96937500Y-127640000D03*
%TD*%
%TO.C,Q6*%
X95062500Y-154500000D03*
X95062500Y-156400000D03*
X96937500Y-155450000D03*
%TD*%
%TO.C,Q7*%
X95062500Y-182270000D03*
X95062500Y-184170000D03*
X96937500Y-183220000D03*
%TD*%
D21*
%TO.C,R1*%
X40000000Y-15912500D03*
X40000000Y-14087500D03*
%TD*%
%TO.C,R10*%
X53000000Y-149362500D03*
X53000000Y-147537500D03*
%TD*%
%TO.C,R100*%
X29000000Y-125052500D03*
X29000000Y-123227500D03*
%TD*%
%TO.C,R101*%
X29000000Y-132052500D03*
X29000000Y-130227500D03*
%TD*%
%TO.C,R102*%
X29000000Y-152862500D03*
X29000000Y-151037500D03*
%TD*%
%TO.C,R103*%
X29000000Y-159862500D03*
X29000000Y-158037500D03*
%TD*%
%TO.C,R104*%
X29000000Y-180632500D03*
X29000000Y-178807500D03*
%TD*%
%TO.C,R105*%
X29000000Y-187632500D03*
X29000000Y-185807500D03*
%TD*%
%TO.C,R106*%
X48000000Y-21912500D03*
X48000000Y-20087500D03*
%TD*%
%TO.C,R107*%
X48000000Y-25912500D03*
X48000000Y-24087500D03*
%TD*%
%TO.C,R108*%
X100000000Y-40362500D03*
X100000000Y-38537500D03*
%TD*%
%TO.C,R109*%
X100000000Y-68052500D03*
X100000000Y-66227500D03*
%TD*%
%TO.C,R11*%
X53000000Y-152862500D03*
X53000000Y-151037500D03*
%TD*%
%TO.C,R110*%
X100000000Y-95732500D03*
X100000000Y-93907500D03*
%TD*%
%TO.C,R111*%
X100000000Y-123552500D03*
X100000000Y-121727500D03*
%TD*%
%TO.C,R112*%
X100000000Y-151362500D03*
X100000000Y-149537500D03*
%TD*%
%TO.C,R113*%
X100000000Y-179132500D03*
X100000000Y-177307500D03*
%TD*%
%TO.C,R12*%
X53000000Y-177132500D03*
X53000000Y-175307500D03*
%TD*%
%TO.C,R13*%
X53000000Y-180632500D03*
X53000000Y-178807500D03*
%TD*%
%TO.C,R14*%
X53000000Y-46862500D03*
X53000000Y-45037500D03*
%TD*%
%TO.C,R15*%
X53000000Y-74552500D03*
X53000000Y-72727500D03*
%TD*%
%TO.C,R16*%
X53000000Y-102232500D03*
X53000000Y-100407500D03*
%TD*%
%TO.C,R17*%
X53000000Y-130052500D03*
X53000000Y-128227500D03*
%TD*%
%TO.C,R18*%
X53000000Y-157862500D03*
X53000000Y-156037500D03*
%TD*%
%TO.C,R19*%
X53000000Y-185632500D03*
X53000000Y-183807500D03*
%TD*%
%TO.C,R2*%
X53000000Y-38362500D03*
X53000000Y-36537500D03*
%TD*%
%TO.C,R20*%
X59000000Y-41862500D03*
X59000000Y-40037500D03*
%TD*%
%TO.C,R21*%
X59000000Y-69552500D03*
X59000000Y-67727500D03*
%TD*%
%TO.C,R22*%
X59000000Y-97232500D03*
X59000000Y-95407500D03*
%TD*%
%TO.C,R23*%
X59000000Y-125052500D03*
X59000000Y-123227500D03*
%TD*%
%TO.C,R24*%
X59000000Y-152862500D03*
X59000000Y-151037500D03*
%TD*%
%TO.C,R25*%
X59000000Y-180632500D03*
X59000000Y-178807500D03*
%TD*%
%TO.C,R26*%
X59000000Y-48862500D03*
X59000000Y-47037500D03*
%TD*%
%TO.C,R27*%
X77000000Y-38362500D03*
X77000000Y-36537500D03*
%TD*%
%TO.C,R28*%
X77000000Y-41862500D03*
X77000000Y-40037500D03*
%TD*%
%TO.C,R29*%
X77000000Y-45362500D03*
X77000000Y-43537500D03*
%TD*%
%TO.C,R3*%
X53000000Y-41862500D03*
X53000000Y-40037500D03*
%TD*%
%TO.C,R30*%
X59000000Y-76552500D03*
X59000000Y-74727500D03*
%TD*%
%TO.C,R31*%
X77000000Y-66052500D03*
X77000000Y-64227500D03*
%TD*%
%TO.C,R32*%
X77000000Y-69552500D03*
X77000000Y-67727500D03*
%TD*%
%TO.C,R33*%
X77000000Y-73052500D03*
X77000000Y-71227500D03*
%TD*%
%TO.C,R34*%
X59000000Y-104232500D03*
X59000000Y-102407500D03*
%TD*%
%TO.C,R35*%
X77000000Y-93732500D03*
X77000000Y-91907500D03*
%TD*%
%TO.C,R36*%
X77000000Y-97232500D03*
X77000000Y-95407500D03*
%TD*%
%TO.C,R37*%
X77000000Y-100732500D03*
X77000000Y-98907500D03*
%TD*%
%TO.C,R38*%
X59000000Y-132052500D03*
X59000000Y-130227500D03*
%TD*%
%TO.C,R39*%
X77000000Y-121552500D03*
X77000000Y-119727500D03*
%TD*%
%TO.C,R4*%
X53000000Y-66052500D03*
X53000000Y-64227500D03*
%TD*%
%TO.C,R40*%
X77000000Y-125052500D03*
X77000000Y-123227500D03*
%TD*%
%TO.C,R41*%
X77000000Y-128552500D03*
X77000000Y-126727500D03*
%TD*%
%TO.C,R42*%
X59000000Y-159862500D03*
X59000000Y-158037500D03*
%TD*%
%TO.C,R43*%
X77000000Y-149362500D03*
X77000000Y-147537500D03*
%TD*%
%TO.C,R44*%
X77000000Y-152862500D03*
X77000000Y-151037500D03*
%TD*%
%TO.C,R45*%
X77000000Y-156362500D03*
X77000000Y-154537500D03*
%TD*%
%TO.C,R46*%
X59000000Y-187632500D03*
X59000000Y-185807500D03*
%TD*%
%TO.C,R47*%
X77000000Y-177132500D03*
X77000000Y-175307500D03*
%TD*%
%TO.C,R48*%
X77000000Y-180632500D03*
X77000000Y-178807500D03*
%TD*%
%TO.C,R49*%
X77000000Y-184132500D03*
X77000000Y-182307500D03*
%TD*%
%TO.C,R5*%
X53000000Y-69552500D03*
X53000000Y-67727500D03*
%TD*%
%TO.C,R50*%
X61000000Y-45362500D03*
X61000000Y-43537500D03*
%TD*%
%TO.C,R51*%
X61000000Y-73052500D03*
X61000000Y-71227500D03*
%TD*%
%TO.C,R52*%
X61000000Y-100732500D03*
X61000000Y-98907500D03*
%TD*%
%TO.C,R53*%
X61000000Y-128552500D03*
X61000000Y-126727500D03*
%TD*%
%TO.C,R54*%
X61000000Y-156362500D03*
X61000000Y-154537500D03*
%TD*%
%TO.C,R55*%
X61000000Y-184132500D03*
X61000000Y-182307500D03*
%TD*%
%TO.C,R56*%
X58000000Y-25912500D03*
X58000000Y-24087500D03*
%TD*%
%TO.C,R57*%
X58000000Y-29912500D03*
X58000000Y-28087500D03*
%TD*%
%TO.C,R58*%
X120000000Y-48862500D03*
X120000000Y-47037500D03*
%TD*%
%TO.C,R59*%
X120000000Y-76552500D03*
X120000000Y-74727500D03*
%TD*%
%TO.C,R6*%
X53000000Y-93732500D03*
X53000000Y-91907500D03*
%TD*%
%TO.C,R60*%
X120000000Y-104232500D03*
X120000000Y-102407500D03*
%TD*%
%TO.C,R61*%
X120000000Y-132052500D03*
X120000000Y-130227500D03*
%TD*%
%TO.C,R62*%
X120000000Y-159862500D03*
X120000000Y-158037500D03*
%TD*%
%TO.C,R63*%
X120000000Y-187632500D03*
X120000000Y-185807500D03*
%TD*%
%TO.C,R64*%
X112000000Y-41862500D03*
X112000000Y-40037500D03*
%TD*%
%TO.C,R65*%
X112000000Y-69552500D03*
X112000000Y-67727500D03*
%TD*%
%TO.C,R66*%
X112000000Y-97232500D03*
X112000000Y-95407500D03*
%TD*%
%TO.C,R67*%
X112000000Y-125052500D03*
X112000000Y-123227500D03*
%TD*%
%TO.C,R68*%
X112000000Y-152862500D03*
X112000000Y-151037500D03*
%TD*%
%TO.C,R69*%
X112000000Y-180632500D03*
X112000000Y-178807500D03*
%TD*%
%TO.C,R7*%
X53000000Y-97232500D03*
X53000000Y-95407500D03*
%TD*%
%TO.C,R70*%
X116000000Y-41862500D03*
X116000000Y-40037500D03*
%TD*%
%TO.C,R71*%
X116000000Y-69552500D03*
X116000000Y-67727500D03*
%TD*%
%TO.C,R72*%
X116000000Y-97232500D03*
X116000000Y-95407500D03*
%TD*%
%TO.C,R73*%
X116000000Y-125052500D03*
X116000000Y-123227500D03*
%TD*%
%TO.C,R74*%
X116000000Y-152862500D03*
X116000000Y-151037500D03*
%TD*%
%TO.C,R75*%
X116000000Y-180632500D03*
X116000000Y-178807500D03*
%TD*%
%TO.C,R76*%
X120000000Y-41862500D03*
X120000000Y-40037500D03*
%TD*%
%TO.C,R77*%
X120000000Y-69552500D03*
X120000000Y-67727500D03*
%TD*%
%TO.C,R78*%
X120000000Y-97232500D03*
X120000000Y-95407500D03*
%TD*%
%TO.C,R79*%
X120000000Y-125052500D03*
X120000000Y-123227500D03*
%TD*%
%TO.C,R8*%
X53000000Y-121552500D03*
X53000000Y-119727500D03*
%TD*%
%TO.C,R80*%
X120000000Y-152862500D03*
X120000000Y-151037500D03*
%TD*%
%TO.C,R81*%
X120000000Y-180632500D03*
X120000000Y-178807500D03*
%TD*%
%TO.C,R82*%
X123000000Y-41862500D03*
X123000000Y-40037500D03*
%TD*%
%TO.C,R83*%
X123000000Y-69552500D03*
X123000000Y-67727500D03*
%TD*%
%TO.C,R84*%
X123000000Y-97232500D03*
X123000000Y-95407500D03*
%TD*%
%TO.C,R85*%
X123000000Y-125052500D03*
X123000000Y-123227500D03*
%TD*%
%TO.C,R86*%
X123000000Y-152862500D03*
X123000000Y-151037500D03*
%TD*%
%TO.C,R87*%
X123000000Y-180632500D03*
X123000000Y-178807500D03*
%TD*%
%TO.C,R88*%
X123000000Y-48862500D03*
X123000000Y-47037500D03*
%TD*%
%TO.C,R89*%
X123000000Y-76552500D03*
X123000000Y-74727500D03*
%TD*%
%TO.C,R9*%
X53000000Y-125052500D03*
X53000000Y-123227500D03*
%TD*%
%TO.C,R90*%
X123000000Y-104232500D03*
X123000000Y-102407500D03*
%TD*%
%TO.C,R91*%
X123000000Y-132052500D03*
X123000000Y-130227500D03*
%TD*%
%TO.C,R92*%
X123000000Y-159862500D03*
X123000000Y-158037500D03*
%TD*%
%TO.C,R93*%
X123000000Y-187632500D03*
X123000000Y-185807500D03*
%TD*%
%TO.C,R94*%
X29000000Y-41862500D03*
X29000000Y-40037500D03*
%TD*%
%TO.C,R95*%
X29000000Y-48862500D03*
X29000000Y-47037500D03*
%TD*%
%TO.C,R96*%
X29000000Y-69552500D03*
X29000000Y-67727500D03*
%TD*%
%TO.C,R97*%
X29000000Y-76552500D03*
X29000000Y-74727500D03*
%TD*%
%TO.C,R98*%
X29000000Y-97232500D03*
X29000000Y-95407500D03*
%TD*%
%TO.C,R99*%
X29000000Y-104232500D03*
X29000000Y-102407500D03*
%TD*%
D22*
%TO.C,SW2*%
X79550000Y-41910000D03*
X79550000Y-44450000D03*
X79550000Y-46990000D03*
X88450000Y-46990000D03*
X88450000Y-44450000D03*
X88450000Y-41910000D03*
%TD*%
%TO.C,SW3*%
X79550000Y-69600000D03*
X79550000Y-72140000D03*
X79550000Y-74680000D03*
X88450000Y-74680000D03*
X88450000Y-72140000D03*
X88450000Y-69600000D03*
%TD*%
%TO.C,SW4*%
X79550000Y-97280000D03*
X79550000Y-99820000D03*
X79550000Y-102360000D03*
X88450000Y-102360000D03*
X88450000Y-99820000D03*
X88450000Y-97280000D03*
%TD*%
%TO.C,SW5*%
X79550000Y-125100000D03*
X79550000Y-127640000D03*
X79550000Y-130180000D03*
X88450000Y-130180000D03*
X88450000Y-127640000D03*
X88450000Y-125100000D03*
%TD*%
%TO.C,SW6*%
X79550000Y-152910000D03*
X79550000Y-155450000D03*
X79550000Y-157990000D03*
X88450000Y-157990000D03*
X88450000Y-155450000D03*
X88450000Y-152910000D03*
%TD*%
%TO.C,SW7*%
X79550000Y-180680000D03*
X79550000Y-183220000D03*
X79550000Y-185760000D03*
X88450000Y-185760000D03*
X88450000Y-183220000D03*
X88450000Y-180680000D03*
%TD*%
D23*
%TO.C,U10*%
X103525000Y-97915000D03*
X103525000Y-99185000D03*
X103525000Y-100455000D03*
X103525000Y-101725000D03*
X108475000Y-101725000D03*
X108475000Y-100455000D03*
X108475000Y-99185000D03*
X108475000Y-97915000D03*
%TD*%
%TO.C,U11*%
X103525000Y-125735000D03*
X103525000Y-127005000D03*
X103525000Y-128275000D03*
X103525000Y-129545000D03*
X108475000Y-129545000D03*
X108475000Y-128275000D03*
X108475000Y-127005000D03*
X108475000Y-125735000D03*
%TD*%
%TO.C,U12*%
X103525000Y-153545000D03*
X103525000Y-154815000D03*
X103525000Y-156085000D03*
X103525000Y-157355000D03*
X108475000Y-157355000D03*
X108475000Y-156085000D03*
X108475000Y-154815000D03*
X108475000Y-153545000D03*
%TD*%
%TO.C,U13*%
X103525000Y-181315000D03*
X103525000Y-182585000D03*
X103525000Y-183855000D03*
X103525000Y-185125000D03*
X108475000Y-185125000D03*
X108475000Y-183855000D03*
X108475000Y-182585000D03*
X108475000Y-181315000D03*
%TD*%
D24*
%TO.C,U14*%
X143525000Y-2095000D03*
X143525000Y-3365000D03*
X143525000Y-4635000D03*
X143525000Y-5905000D03*
X148475000Y-5905000D03*
X148475000Y-4635000D03*
X148475000Y-3365000D03*
X148475000Y-2095000D03*
%TD*%
D25*
%TO.C,U15*%
X123862500Y-24050000D03*
X123862500Y-25000000D03*
X123862500Y-25950000D03*
X126137500Y-25950000D03*
X126137500Y-24050000D03*
%TD*%
D23*
%TO.C,U2*%
X66525000Y-42545000D03*
X66525000Y-43815000D03*
X66525000Y-45085000D03*
X66525000Y-46355000D03*
X71475000Y-46355000D03*
X71475000Y-45085000D03*
X71475000Y-43815000D03*
X71475000Y-42545000D03*
%TD*%
%TO.C,U3*%
X66525000Y-70235000D03*
X66525000Y-71505000D03*
X66525000Y-72775000D03*
X66525000Y-74045000D03*
X71475000Y-74045000D03*
X71475000Y-72775000D03*
X71475000Y-71505000D03*
X71475000Y-70235000D03*
%TD*%
%TO.C,U4*%
X66525000Y-97915000D03*
X66525000Y-99185000D03*
X66525000Y-100455000D03*
X66525000Y-101725000D03*
X71475000Y-101725000D03*
X71475000Y-100455000D03*
X71475000Y-99185000D03*
X71475000Y-97915000D03*
%TD*%
%TO.C,U5*%
X66525000Y-125735000D03*
X66525000Y-127005000D03*
X66525000Y-128275000D03*
X66525000Y-129545000D03*
X71475000Y-129545000D03*
X71475000Y-128275000D03*
X71475000Y-127005000D03*
X71475000Y-125735000D03*
%TD*%
%TO.C,U6*%
X66525000Y-153545000D03*
X66525000Y-154815000D03*
X66525000Y-156085000D03*
X66525000Y-157355000D03*
X71475000Y-157355000D03*
X71475000Y-156085000D03*
X71475000Y-154815000D03*
X71475000Y-153545000D03*
%TD*%
%TO.C,U7*%
X66525000Y-181315000D03*
X66525000Y-182585000D03*
X66525000Y-183855000D03*
X66525000Y-185125000D03*
X71475000Y-185125000D03*
X71475000Y-183855000D03*
X71475000Y-182585000D03*
X71475000Y-181315000D03*
%TD*%
%TO.C,U8*%
X103525000Y-42545000D03*
X103525000Y-43815000D03*
X103525000Y-45085000D03*
X103525000Y-46355000D03*
X108475000Y-46355000D03*
X108475000Y-45085000D03*
X108475000Y-43815000D03*
X108475000Y-42545000D03*
%TD*%
%TO.C,U9*%
X103525000Y-70235000D03*
X103525000Y-71505000D03*
X103525000Y-72775000D03*
X103525000Y-74045000D03*
X108475000Y-74045000D03*
X108475000Y-72775000D03*
X108475000Y-71505000D03*
X108475000Y-70235000D03*
%TD*%
M02*
